<?xml version="1.0" encoding="utf-8"?>
<!-- Generator: Adobe Illustrator 16.0.0, SVG Export Plug-In . SVG Version: 6.00 Build 0)  -->
<!DOCTYPE svg PUBLIC "-//W3C//DTD SVG 1.1//EN" "http://www.w3.org/Graphics/SVG/1.1/DTD/svg11.dtd">
<svg version="1.1" xmlns="http://www.w3.org/2000/svg" xmlns:xlink="http://www.w3.org/1999/xlink" x="0px" y="0px" width="80px"
	 height="80px" viewBox="0 0 80 80" enable-background="new 0 0 80 80" xml:space="preserve">
<g id="Layer_1_copy_7">
	<g>
		<rect x="13.496" y="35.945" fill="#FFFFFF" width="0.688" height="8.111"/>
		<path fill="#FFFFFF" d="M45.739,35.003h-0.507v-2.136H31.926v2.136h-0.507V33.99h-1.05v11.939h1.05v-1.014h0.507v2.218h13.307
			v-2.218h0.507v1.014h1.05V33.99h-1.05V35.003z M43.999,44.508H38.2V43.73h1.047l-0.907-2.186h-2.566l-0.612,1.762l0.578,0.424
			h0.407v0.777h-2.726V43.73h0.436l0.575-0.506l2.853-8.246h2.726l3.453,8.751h0.535V44.508z"/>
		<rect x="56.45" y="35.848" fill="#FFFFFF" width="1.135" height="7.833"/>
		<path fill="#FFFFFF" d="M28.595,35.003h-0.507v-2.136h-13.18v2.571h1.322v0.507h-1.322v8.111h1.322v0.507h-1.322v2.57h13.18
			v-2.218h0.507v1.014h1.05V33.99h-1.05V35.003z M25.589,42.027h-0.981v1.702h0.981v0.77h-5.431v-0.77h1.047v-1.702h-3.726V41.34
			l5.089-6.292h2.041v6.261h0.981V42.027z"/>
		<polygon fill="#FFFFFF" points="21.205,41.31 21.205,38.01 18.457,41.31 		"/>
		<polygon fill="#FFFFFF" points="36.048,40.757 38.04,40.757 36.961,38.062 		"/>
		<rect x="65.815" y="35.945" fill="#FFFFFF" width="0.598" height="8.111"/>
		<path fill="#FFFFFF" d="M49.07,35.003h-0.507V33.99h-1.051v11.939h1.051v-1.014h0.507v2.218h16.021v-2.57H63.68v-0.507h1.412
			v-8.111H63.68v-0.507h1.412v-2.571H49.07V35.003z M51.428,43.694h0.991v-7.846h-0.991v-0.81h6.417c2.904,0,4.35,2.314,4.35,4.686
			c0,2.371-1.459,4.742-4.35,4.742h-6.417V43.694z"/>
		<path fill="#FFFFFF" d="M40,0C17.908,0,0,17.908,0,40s17.908,40,40,40s40-17.908,40-40S62.092,0,40,0z M10,50.823V29.177h60
			v21.646H10z"/>
		<path fill="#FFFFFF" d="M11.811,49.013h56.379V30.987H11.811V49.013z M12.7,32.071h54.528V47.93H12.7V32.071z"/>
		<path d="M10,29.177v21.646h60V29.177H10z M68.189,49.013H11.811V30.987h56.379V49.013z"/>
		<path d="M67.228,32.071H12.7V47.93h54.528V32.071z M14.184,44.056h-0.688v-8.111h0.688V44.056z M29.645,45.929h-1.05v-1.014
			h-0.507v2.218h-13.18v-2.57h1.322v-0.507h-1.322v-8.111h1.322v-0.507h-1.322v-2.571h13.18v2.136h0.507V33.99h1.05V45.929z
			 M46.789,45.929h-1.05v-1.014h-0.507v2.218H31.926v-2.218h-0.507v1.014h-1.05V33.99h1.05v1.014h0.507v-2.136h13.307v2.136h0.507
			V33.99h1.05V45.929z M65.092,35.438H63.68v0.507h1.412v8.111H63.68v0.507h1.412v2.57H49.07v-2.218h-0.507v1.014h-1.051V33.99
			h1.051v1.014h0.507v-2.136h16.021V35.438z M66.413,44.056h-0.598v-8.111h0.598V44.056z"/>
		<path d="M24.608,35.048h-2.041l-5.089,6.292v0.688h3.726v1.702h-1.047v0.77h5.431v-0.77h-0.981v-1.702h0.981V41.31h-0.981V35.048z
			 M21.205,41.31h-2.748l2.748-3.299V41.31z"/>
		<path d="M40.011,34.979h-2.726l-2.853,8.246l-0.575,0.506h-0.436v0.777h2.726V43.73H35.74l-0.578-0.424l0.612-1.762h2.566
			l0.907,2.186H38.2v0.777h5.799V43.73h-0.535L40.011,34.979z M36.048,40.757l0.913-2.695l1.079,2.695H36.048z"/>
		<path d="M62.194,39.724c0-2.371-1.445-4.686-4.35-4.686h-6.417v0.81h0.991v7.846h-0.991v0.771h6.417
			C60.735,44.466,62.194,42.095,62.194,39.724z M57.585,43.681H56.45v-7.833h1.135V43.681z"/>
	</g>
</g>
</svg>
