<?xml version="1.0" encoding="utf-8"?>
<!-- Generator: Adobe Illustrator 19.2.1, SVG Export Plug-In . SVG Version: 6.00 Build 0)  -->
<svg width="80px" height="80px" version="1.1" xmlns="http://www.w3.org/2000/svg" xmlns:xlink="http://www.w3.org/1999/xlink" x="0px" y="0px"
	 viewBox="0 0 80 80" style="enable-background:new 0 0 80 80;" xml:space="preserve">
<style type="text/css">
	.st0{display:none;}
	.st1{display:inline;}
	.st2{fill:#FFFFFF;}
	.st3{display:inline;fill:#FFFFFF;}
	.st4{clip-path:url(#SVGID_2_);}
	.st5{fill:#F2F2F2;}
	.st6{fill:#010101;}
	.st7{fill-rule:evenodd;clip-rule:evenodd;fill:none;}
</style>
<g id="Layer_1_copy_14">
	<path class="st7" d="M32.8,21.4c1.1,0,2.3,0,3.4,0c0.9,0,1.8,0.1,2.7,0.1c0.5,0,0.9,0.1,1.4,0.1c0.1,0,0.2,0,0.3,0.1
		c0.1,0,0.1,0.1,0.1,0.2c-0.1,0.5-0.1,0.9-0.2,1.4c0,0.1-0.1,0.2-0.1,0.3c0,0.1-0.1,0.1-0.2,0.1c-0.4,0-0.8,0-1.2,0
		c-1.1,0-2.2-0.1-3.3-0.1c-0.2,0-0.4,0-0.5,0.1c-0.2,0-0.3,0.1-0.3,0.3c-0.1,0.4-0.2,0.7-0.3,1.1c-0.1,0.5,0.1,0.8,0.6,0.9
		c1.4,0.3,2.9,0.5,4.3,0.8c0.6,0.1,0.7,0.2,0.5,0.8c-0.1,0.3-0.2,0.6-0.3,0.9c-0.1,0.2-0.2,0.2-0.4,0.2c-1-0.1-2.1-0.1-3.1-0.2
		c-0.6-0.1-1.3,0-1.9,0.1c-0.2,0-0.4,0.2-0.4,0.4c-0.1,0.7-0.3,1.4-0.4,2c0,0.2,0,0.3,0,0.5c0,0.4,0.4,0.7,0.8,0.6
		c0.7,0,1.4,0,2.1,0c0.9,0,1.8,0,2.6,0c0.6,0,0.7,0.3,0.6,0.7c0,0.3-0.1,0.7-0.2,1C39.2,34,39,34.1,38.7,34c-0.7,0-1.3-0.1-2-0.1
		c-1.6-0.1-3.3-0.2-4.9-0.2c-0.2,0-0.3-0.1-0.4-0.1c-0.1,0-0.2-0.1-0.2-0.2c0.1-1.2,0.3-2.3,0.4-3.5c0.1-1.2,0.3-2.3,0.5-3.5
		c0.2-1.2,0.3-2.5,0.5-3.7C32.7,22.3,32.8,21.9,32.8,21.4"/>
	<path class="st7" d="M27.9,29.2c0.3,0.2,0.5,0.4,0.7,0.5c0.6,0.3,0.8,0.9,0.7,1.5c-0.1,0.9-0.2,1.8-0.6,2.6
		c-0.1,0.3-0.3,0.5-0.5,0.7c-0.2,0.2-0.5,0.4-0.9,0.4c-1.6,0-3.3,0-4.9,0c-0.2,0-0.4,0-0.6,0c-0.5,0-0.9-0.3-0.9-0.8
		c0-0.4,0-0.7,0.1-1.1c0.1-0.7,0.3-1.5,0.4-2.2c0.3-2,0.6-4,1-5.9c0.2-1,0.4-1.9,0.6-2.9c0-0.2,0.1-0.3,0.3-0.3
		c0.6,0,1.2-0.1,1.8-0.1c0.8,0,1.6,0,2.5,0c0.3,0,0.6,0,0.9,0.1c0.4,0.1,0.7,0.3,1,0.6c0.4,0.4,0.6,1,0.6,1.6c0.2,1.1,0.1,2.2,0,3.4
		c0,0.6-0.4,1-0.8,1.3c-0.3,0.2-0.7,0.4-1,0.6C28.2,28.9,28.1,29.1,27.9,29.2 M28.9,24.7C28.9,24.7,28.9,24.7,28.9,24.7
		c0-0.1,0-0.1,0-0.2c0-0.7-0.3-1.1-1-1.3c-0.4-0.1-0.8-0.1-1.2-0.1c-0.5,0-1.1,0-1.6,0c-0.7,0-0.9,0.2-1,0.8
		c-0.2,1.1-0.3,2.2-0.4,3.4c0,0.2,0,0.5,0.1,0.7c0,0.1,0.2,0.2,0.3,0.2c0.8,0,1.6,0,2.5,0c1.1-0.1,2-0.8,2.2-1.9
		C28.9,25.8,28.9,25.3,28.9,24.7 M24.8,33.6C24.8,33.6,24.8,33.6,24.8,33.6c0.5,0,0.9,0,1.4,0c0.6,0,1.1-0.4,1.3-1
		c0.1-0.4,0.2-0.8,0.3-1.1c0.2-0.8-0.6-1.7-1.2-1.7c-0.2,0-0.4,0-0.6-0.1c-0.7,0-1.3-0.1-2-0.1c-0.5,0-0.8,0.2-0.9,0.7
		c-0.1,0.2-0.1,0.4-0.2,0.7c-0.1,0.5-0.3,1.1-0.2,1.6c0.1,0.5,0.4,0.8,0.9,0.9C24,33.6,24.4,33.6,24.8,33.6"/>
	<path class="st7" d="M37.4,48.3c-0.2,0-0.6,0-0.9-0.1c-0.2,0-0.4-0.1-0.4-0.3c-0.9-2-1.8-3.9-2.7-5.9c-0.1-0.3-0.3-0.5-0.4-0.8
		c0-0.1-0.2-0.1-0.2-0.1c-0.1,0-0.2,0.1-0.2,0.2c-0.1,0.3-0.1,0.6-0.1,0.9c-0.1,1.2-0.3,2.4-0.4,3.6c0,0.4-0.1,0.8-0.1,1.2
		c0,0.4-0.4,0.8-0.8,0.8c-0.1,0-0.1,0-0.2,0c-0.4,0-0.7-0.3-0.7-0.7c0.1-0.7,0.2-1.4,0.3-2.1c0.1-1,0.3-2.1,0.4-3.1
		c0.1-1.1,0.3-2.3,0.4-3.4c0-0.4,0.1-0.7,0.1-1.1c0-0.2,0.1-0.3,0.3-0.3c0.4,0,0.8,0.1,1.2,0.1c0.2,0,0.4,0.2,0.5,0.5
		c1.1,2.7,2.2,5.5,3.3,8.2c0.1,0.2,0.2,0.4,0.3,0.6c0.1,0.2,0.2,0.4,0.4,0.3c0.2,0,0.4-0.3,0.4-0.5c0.1-0.8,0.2-1.6,0.3-2.3
		c0.2-1.3,0.4-2.6,0.6-3.9c0.1-0.8,0.2-1.6,0.3-2.4c0-0.1,0-0.2,0.1-0.3c0.1-0.4,0.2-0.5,0.6-0.4c0.1,0,0.2,0,0.3,0
		c0.4,0,0.6,0.3,0.5,0.6c-0.1,0.8-0.1,1.7-0.2,2.5c-0.1,0.9-0.2,1.8-0.2,2.7c-0.1,1-0.2,2.1-0.3,3.1c-0.1,0.6-0.1,1.1-0.2,1.6
		c0,0.1-0.1,0.3-0.2,0.4c-0.1,0.1-0.3,0.2-0.4,0.2C38.6,48.3,38.1,48.3,37.4,48.3"/>
	<path class="st7" d="M24.9,48.4c-0.8-0.1-1.5-0.2-2.3-0.3c-1.1-0.2-1.6-1-1.8-2c-0.2-0.7-0.1-1.3-0.1-2c0.1-1.2,0.3-2.4,0.4-3.7
		c0.1-1,0.2-2,0.4-3c0.1-0.6,0.1-0.6,0.6-0.5c0.2,0,0.4,0.1,0.6,0.1c0.4,0,0.5,0.2,0.5,0.5c-0.1,0.5-0.1,1.1-0.2,1.6
		c-0.1,1.2-0.3,2.3-0.4,3.5c-0.1,0.6-0.2,1.2-0.2,1.9c0,0.3,0,0.5,0.1,0.8c0.2,0.7,0.7,1.2,1.4,1.2c0.3,0,0.6,0,1,0
		c0.6-0.1,1-0.4,1.3-1c0.4-0.8,0.6-1.7,0.7-2.6c0.3-1.8,0.5-3.7,0.8-5.5c0-0.4,0.2-0.5,0.5-0.5c0.2,0,0.4,0,0.6,0
		c0.3,0,0.5,0.2,0.5,0.5c-0.1,1.1-0.2,2.2-0.3,3.3c-0.2,1.1-0.5,2.1-0.7,3.1c-0.2,0.7-0.3,1.4-0.5,2.1c-0.2,0.7-0.5,1.3-1.1,1.8
		C26.1,48.3,25.5,48.4,24.9,48.4"/>
	<path class="st7" d="M46,34.1c-1.4,0-2.7,0-4.1,0c-0.2,0-0.4,0-0.6-0.1c-0.2-0.1-0.3-0.2-0.3-0.4c0.1-1.6,0.3-3.2,0.5-4.8
		c0.3-1.8,0.6-3.5,0.8-5.3c0.1-0.5,0.2-1,0.3-1.6c0-0.2,0.2-0.4,0.6-0.4c0.4,0,0.8,0,1.2,0c0.3,0,0.3,0.1,0.3,0.4
		c-0.2,1.2-0.4,2.3-0.6,3.5c-0.3,1.7-0.6,3.4-0.8,5.1c0,0.3-0.1,0.6-0.1,0.9c-0.1,0.4,0.1,0.5,0.4,0.4c0.2,0,0.4,0,0.6,0
		c1.1,0.1,2.2,0.2,3.3,0.2c0,0,0.1,0,0.1,0c0.6,0.1,0.6,0.2,0.6,0.7c0,0.2,0,0.4-0.1,0.6c0,0.4-0.3,0.6-0.6,0.6
		C46.9,34,46.4,34,46,34.1L46,34.1z"/>
	<path class="st7" d="M43.5,37.3c0.5,0,0.8,0.4,0.8,0.9c0,0.5-0.1,1-0.2,1.5c-0.1,1.1-0.3,2.3-0.4,3.4c-0.2,1.5-0.4,3.1-0.7,4.6
		c-0.1,0.2-0.1,0.4-0.2,0.6c-0.1,0.1-0.1,0.2-0.3,0.1c-0.2-0.1-0.4-0.1-0.7-0.1c-0.3,0-0.4-0.2-0.3-0.4c0.2-1.5,0.4-3,0.6-4.6
		c0.2-1.6,0.4-3.2,0.6-4.9c0-0.1,0-0.3,0-0.4C42.8,37.6,43.1,37.3,43.5,37.3"/>
	<g>
		<path class="st2" d="M49.6,32.4c0.1-1.2,0.3-2.4,0.4-3.6c0.1-1.1,0.3-2.2,0.4-3.3c0.2-1.1,0.3-2.3,0.5-3.4c0-0.2,0.1-0.5,0.1-0.7
			c0.1-0.3,0.2-0.3,0.5-0.3c-0.3,0-0.4,0-0.5,0.3c-0.1,0.2-0.1,0.5-0.1,0.7c-0.2,1.1-0.3,2.3-0.5,3.4c-0.1,1.1-0.3,2.2-0.4,3.3
			C49.9,30,49.7,31.2,49.6,32.4c0,0.2,0,0.4,0.2,0.5c0.1,0,0.1,0.1,0.2,0.1c-0.1,0-0.1-0.1-0.2-0.1C49.6,32.8,49.6,32.6,49.6,32.4z"
			/>
		<path class="st2" d="M50.7,37.6C50.7,37.6,50.7,37.7,50.7,37.6c-0.5,0-1.1,0.1-1.5,0.2C49.6,37.7,50.1,37.6,50.7,37.6
			C50.7,37.7,50.7,37.6,50.7,37.6z"/>
		<path class="st2" d="M53.9,46.9c0.4-1,0.8-2.1,1.2-3.1c0.3-0.8,0.5-1.7,0.5-2.6c0,0.9-0.2,1.7-0.5,2.6
			C54.7,44.8,54.3,45.8,53.9,46.9z"/>
		<path class="st2" d="M61.8,31C61.7,31,61.7,31,61.8,31C61.7,31,61.7,31,61.8,31c0.1,0,0.2,0,0.3,0c0,0,0,0,0,0
			C62,31,61.9,31,61.8,31z"/>
		<path class="st2" d="M47.4,39c-0.1,0.1-0.1,0.2-0.1,0.3c0,0.2-0.1,0.3-0.1,0.5c0-0.2,0.1-0.3,0.1-0.5C47.3,39.2,47.3,39.1,47.4,39
			z"/>
		<path class="st2" d="M64.3,21c-0.2,0-0.3,0-0.5,0c0,0,0,0,0,0c0,0,0,0,0,0C64,21,64.1,21,64.3,21z"/>
		<path class="st2" d="M46.4,46.2c-0.1-0.4-0.1-0.7-0.1-1.1C46.3,45.5,46.3,45.8,46.4,46.2c0.1,0.7,0.3,1.3,0.9,1.7
			c0.4,0.3,0.8,0.5,1.3,0.6c-0.5-0.1-0.9-0.3-1.3-0.6C46.7,47.5,46.5,46.9,46.4,46.2z"/>
		<path class="st2" d="M54.1,33.4C54.1,33.4,54.1,33.4,54.1,33.4c-0.3,0-0.7-0.1-1.1-0.1C53.4,33.4,53.8,33.4,54.1,33.4z"/>
		<path class="st2" d="M52.9,21.6c0.1-0.3,0-0.5-0.4-0.5c-0.3,0-0.6,0-1-0.1c0.3,0,0.6,0,1,0.1C52.8,21.2,52.9,21.3,52.9,21.6z"/>
		<path class="st2" d="M51.4,30.9c0-0.1,0-0.2,0-0.3C51.4,30.7,51.4,30.8,51.4,30.9z"/>
		<path class="st2" d="M58.6,33.3c-0.1,0-0.2,0-0.3-0.1C58.4,33.3,58.5,33.3,58.6,33.3z"/>
		<path class="st2" d="M59.9,33.3L59.9,33.3C59.9,33.3,59.9,33.3,59.9,33.3C59.9,33.3,59.9,33.3,59.9,33.3z"/>
		<path class="st2" d="M65.2,21.3c0,0.1,0,0.1,0.1,0.2C65.3,21.4,65.2,21.3,65.2,21.3z"/>
		<path class="st2" d="M64.6,31.3c0.1,0,0.1,0.1,0.1,0.2C64.7,31.4,64.6,31.3,64.6,31.3z"/>
		<path class="st2" d="M48,33.4c0-0.2,0-0.4,0.1-0.6c0.1-0.6,0-0.6-0.6-0.7c0,0-0.1,0-0.1,0c-1.1-0.1-2.2-0.2-3.3-0.2
			c-0.2,0-0.4,0-0.6,0c-0.4,0-0.5-0.1-0.4-0.4c0-0.3,0.1-0.6,0.1-0.9c0.3-1.7,0.6-3.4,0.8-5.1c0.2-1.2,0.4-2.3,0.6-3.5
			c0-0.3,0-0.4-0.3-0.4c-0.4,0-0.8-0.1-1.2,0c-0.3,0-0.5,0.2-0.6,0.4c-0.1,0.5-0.2,1-0.2,1.6c-0.3,1.8-0.5,3.6-0.8,5.3
			c-0.3,1.6-0.4,3.2-0.5,4.8c0,0.2,0.1,0.4,0.3,0.4c0.2,0.1,0.4,0.1,0.6,0.1c1.4,0,2.7,0,4.1,0V34c0.5,0,0.9,0,1.4,0
			C47.7,34,47.9,33.8,48,33.4z"/>
		<path class="st2" d="M43.5,37.3c-0.5,0-0.8,0.3-0.8,0.7c0,0.1,0,0.3,0,0.4c-0.2,1.6-0.4,3.2-0.6,4.9c-0.2,1.5-0.4,3-0.6,4.6
			c0,0.3,0.1,0.4,0.3,0.4c0.2,0,0.4,0.1,0.7,0.1c0.1,0,0.2,0,0.3-0.1c0.1-0.2,0.2-0.4,0.2-0.6c0.4-1.5,0.5-3.1,0.7-4.6
			c0.2-1.1,0.3-2.3,0.4-3.4c0.1-0.5,0.1-1,0.2-1.5C44.3,37.7,44,37.3,43.5,37.3z"/>
		<path class="st2" d="M40.1,37.1c-0.1,0-0.2,0-0.3,0c-0.4,0-0.5,0-0.6,0.4c0,0.1,0,0.2-0.1,0.3c-0.1,0.8-0.2,1.6-0.3,2.4
			c-0.2,1.3-0.4,2.6-0.6,3.9c-0.1,0.8-0.2,1.6-0.3,2.3c0,0.2-0.2,0.5-0.4,0.5c-0.2,0-0.3-0.2-0.4-0.3c-0.1-0.2-0.2-0.4-0.3-0.6
			c-1.1-2.7-2.2-5.5-3.3-8.2c-0.1-0.2-0.2-0.4-0.5-0.5c-0.4-0.1-0.8-0.1-1.2-0.1c-0.2,0-0.3,0.1-0.3,0.3c0,0.4-0.1,0.7-0.1,1.1
			c-0.1,1.1-0.3,2.3-0.4,3.4c-0.1,1-0.3,2.1-0.4,3.1c-0.1,0.7-0.2,1.4-0.3,2.1c0,0.5,0.2,0.7,0.7,0.7c0.1,0,0.1,0,0.2,0
			c0.4,0.1,0.8-0.4,0.8-0.8c0-0.4,0.1-0.8,0.1-1.2c0.1-1.2,0.3-2.4,0.4-3.6c0-0.3,0.1-0.6,0.1-0.9c0-0.1,0.1-0.2,0.2-0.2
			c0.1,0,0.2,0.1,0.2,0.1c0.2,0.2,0.3,0.5,0.4,0.8c0.9,2,1.8,3.9,2.7,5.9c0.1,0.2,0.2,0.3,0.4,0.3c0.3,0,0.6,0.1,0.9,0.1
			c0.6,0,1.2,0,1.7-0.1c0.1,0,0.3-0.1,0.4-0.2c0.1-0.1,0.1-0.3,0.2-0.4c0.1-0.5,0.1-1.1,0.2-1.7c0.1-1,0.2-2.1,0.3-3.1
			c0.1-0.9,0.2-1.8,0.2-2.7c0.1-0.8,0.1-1.7,0.2-2.5C40.6,37.3,40.4,37.1,40.1,37.1z"/>
		<path class="st2" d="M30.2,23.7c-0.1-0.6-0.2-1.1-0.6-1.6c-0.3-0.3-0.6-0.5-1-0.6c-0.3,0-0.6-0.1-0.9-0.1c-0.8,0-1.6,0-2.5,0
			c-0.6,0-1.2,0.1-1.8,0.1c-0.2,0-0.3,0.1-0.3,0.3c-0.2,1-0.4,1.9-0.6,2.9c-0.4,2-0.7,3.9-1,5.9c-0.1,0.7-0.3,1.5-0.4,2.2
			C21,33.3,21,33.7,21,34c0,0.5,0.4,0.8,0.9,0.8c0.2,0,0.4,0,0.6,0c1.6,0,3.3,0,4.9,0c0.3,0,0.6-0.1,0.9-0.4
			c0.2-0.2,0.4-0.4,0.5-0.7c0.4-0.8,0.5-1.7,0.6-2.6c0.1-0.7-0.1-1.2-0.7-1.5c-0.2-0.1-0.5-0.3-0.7-0.5c0.2-0.1,0.3-0.2,0.4-0.3
			c0.3-0.2,0.7-0.4,1-0.6c0.5-0.3,0.8-0.7,0.8-1.3C30.3,25.9,30.4,24.8,30.2,23.7z M27.8,31.4c-0.1,0.4-0.2,0.8-0.3,1.1
			c-0.2,0.6-0.6,0.9-1.3,1c-0.4,0-0.9,0-1.4,0.1c0,0,0,0,0-0.1c-0.4,0-0.8,0-1.2,0c-0.5,0-0.8-0.4-0.9-0.9c-0.1-0.6,0.1-1.1,0.2-1.6
			c0-0.2,0.1-0.5,0.2-0.7c0.1-0.5,0.4-0.7,0.9-0.7c0.7,0,1.3,0,2,0.1c0.2,0,0.4,0.1,0.6,0.1C27.2,29.8,28,30.6,27.8,31.4z
			 M28.8,26.3c-0.2,1.1-1.1,1.9-2.2,1.9c-0.8,0.1-1.6,0-2.5,0c-0.1,0-0.3-0.1-0.3-0.2c-0.1-0.2-0.1-0.5-0.1-0.7
			c0.1-1.1,0.3-2.2,0.4-3.4c0.1-0.6,0.3-0.8,1-0.8c0.5,0,1.1,0,1.6,0c0.4,0,0.8,0.1,1.2,0.1c0.7,0.1,1,0.5,1,1.3c0,0.1,0,0.1,0,0.2
			c0,0,0,0,0,0C28.9,25.3,28.9,25.8,28.8,26.3z"/>
		<path class="st2" d="M28.7,37c-0.2,0-0.4,0-0.6,0c-0.3,0-0.5,0.1-0.5,0.5c-0.3,1.8-0.5,3.7-0.8,5.5c-0.1,0.9-0.4,1.7-0.7,2.6
			c-0.2,0.6-0.7,0.9-1.3,1c-0.3,0-0.6,0.1-1,0c-0.7,0-1.3-0.5-1.4-1.2c-0.1-0.3-0.1-0.5-0.1-0.8c0-0.6,0.1-1.2,0.2-1.9
			c0.1-1.2,0.3-2.3,0.4-3.5c0.1-0.5,0.1-1.1,0.2-1.6c0-0.3-0.1-0.5-0.5-0.5c-0.2,0-0.4,0-0.6-0.1c-0.6-0.1-0.6-0.1-0.6,0.5
			c-0.1,1-0.3,2-0.4,3c-0.1,1.2-0.3,2.4-0.4,3.7c-0.1,0.7-0.1,1.3,0.1,2c0.2,1,0.8,1.8,1.8,2c0.7,0.2,1.5,0.2,2.3,0.3
			c0.6,0,1.2-0.2,1.7-0.6c0.6-0.5,0.9-1.1,1.1-1.8c0.2-0.7,0.4-1.4,0.5-2.1c0.2-1,0.5-2.1,0.7-3.1c0.2-1.1,0.2-2.2,0.3-3.3
			C29.3,37.2,29.1,37,28.7,37z"/>
		<path class="st2" d="M40.3,21.6c-0.4,0-0.9-0.1-1.4-0.1c-0.9-0.1-1.8-0.1-2.7-0.1c-1.1,0-2.2,0-3.4,0c-0.1,0.4-0.1,0.9-0.2,1.3
			c-0.2,1.2-0.3,2.5-0.5,3.7c-0.2,1.2-0.3,2.3-0.5,3.5c-0.1,1.2-0.3,2.3-0.4,3.5c0,0.1,0,0.2,0.2,0.2c0.1,0,0.3,0.1,0.4,0.1
			c1.6,0.1,3.2,0.2,4.9,0.2c0.7,0,1.3,0.1,2,0.1c0.3,0,0.5-0.1,0.6-0.3c0.1-0.3,0.2-0.7,0.2-1c0-0.4-0.1-0.7-0.6-0.7
			c-0.9,0-1.8,0-2.6,0c-0.7,0-1.4,0-2.1,0c-0.4,0-0.7-0.2-0.8-0.7c0-0.2,0-0.3,0-0.5c0.1-0.7,0.3-1.4,0.4-2c0-0.2,0.2-0.3,0.4-0.4
			c0.6-0.1,1.3-0.2,1.9-0.1c1,0.1,2.1,0.1,3.1,0.2c0.2,0,0.3,0,0.4-0.2c0.1-0.3,0.2-0.6,0.3-0.9c0.1-0.6,0.1-0.6-0.5-0.8
			c-1.4-0.3-2.9-0.5-4.3-0.8c-0.5-0.1-0.7-0.4-0.6-0.9c0.1-0.4,0.2-0.7,0.3-1.1c0-0.2,0.2-0.3,0.3-0.3c0.2,0,0.4-0.1,0.5-0.1
			c1.1,0,2.2,0.1,3.3,0.1c0.4,0,0.8,0,1.2,0c0.1,0,0.2-0.1,0.2-0.1c0.1-0.1,0.1-0.2,0.1-0.3c0.1-0.4,0.2-0.9,0.2-1.3
			c0-0.1-0.1-0.2-0.1-0.2C40.5,21.7,40.4,21.6,40.3,21.6z"/>
		<path class="st2" d="M54.9,38.6c0.2,0.2,0.3,0.5,0.3,0.8C55.2,39.1,55,38.8,54.9,38.6c-0.2-0.3-0.4-0.5-0.7-0.6
			C54.5,38.1,54.7,38.3,54.9,38.6z"/>
		<path class="st2" d="M62.8,21c-0.2,0-0.3,0.2-0.3,0.3c-0.2,0.7-0.5,1.3-0.8,2c0.3-0.7,0.5-1.3,0.8-2C62.6,21.2,62.7,21,62.8,21z"
			/>
		<path class="st2" d="M54.2,38c-0.1,0-0.2-0.1-0.3-0.1c-0.5-0.1-1-0.1-1.5-0.2c0.5,0.1,1,0.1,1.5,0.2C54,38,54.1,38,54.2,38z"/>
		<path class="st2" d="M49.4,48.6C49.4,48.6,49.4,48.6,49.4,48.6c-0.1,0-0.1,0-0.2,0C49.3,48.6,49.4,48.6,49.4,48.6z"/>
		<path class="st2" d="M64.8,32.5c0,0.3,0,0.6,0.1,0.8c0,0.2,0.1,0.3,0.2,0.4c-0.1-0.1-0.2-0.2-0.2-0.4
			C64.9,33.1,64.8,32.8,64.8,32.5z"/>
		<path class="st2" d="M65.2,33.9c0.1,0,0.2,0,0.2,0c0.2,0,0.4-0.1,0.6-0.1c-0.2,0-0.4,0.1-0.6,0.1C65.4,33.9,65.3,33.9,65.2,33.9z"
			/>
		<path class="st2" d="M51.6,31.2c0,0,0.1,0,0.1,0C51.7,31.2,51.7,31.2,51.6,31.2c-0.1,0-0.1,0-0.1,0C51.5,31.2,51.6,31.2,51.6,31.2
			z"/>
		<path class="st2" d="M58.2,48.1c0.1,0,0.2-0.1,0.2-0.2C58.4,47.9,58.3,48,58.2,48.1z"/>
		<path class="st2" d="M59.2,42.4c0.1,0.1,0.2,0.2,0.3,0.4c1.1,1.8,2.2,3.5,3.2,5.3c-1.1-1.8-2.1-3.5-3.2-5.3
			C59.4,42.6,59.3,42.5,59.2,42.4z"/>
		<path class="st2" d="M54.5,33.4c0.5,0,1-0.1,1.5-0.1c0.1,0,0.1,0,0.2,0c-0.1,0-0.1,0-0.2,0C55.5,33.3,55,33.4,54.5,33.4z"/>
		<path class="st2" d="M67,37.6L67,37.6c0,0.2,0,0.5,0,0.7C67,38,67,37.8,67,37.6z"/>
		<path class="st2" d="M58,48.1C58,48.1,58,48.1,58,48.1c-0.1,0-0.2,0-0.3,0C57.8,48.1,57.9,48.1,58,48.1z"/>
		<path class="st2" d="M56.9,47.5c0,0.2,0.1,0.4,0.2,0.5C57,47.9,56.9,47.7,56.9,47.5z"/>
		<path class="st2" d="M58.3,37.6C58.3,37.6,58.3,37.6,58.3,37.6c0.2,0,0.4,0,0.6,0C58.8,37.6,58.5,37.6,58.3,37.6z"/>
		<path class="st2" d="M57.5,48.1c0.1,0,0.2,0,0.3,0C57.7,48.1,57.6,48.1,57.5,48.1C57.5,48.1,57.5,48.1,57.5,48.1z"/>
		<path class="st2" d="M62.7,48c0.1,0.2,0.3,0.3,0.5,0.3C62.9,48.3,62.8,48.2,62.7,48z"/>
		<path class="st2" d="M66.7,33.6C66.7,33.6,66.8,33.5,66.7,33.6c0.1-0.3,0.1-0.6,0.1-0.8C66.8,33,66.8,33.3,66.7,33.6
			C66.8,33.5,66.7,33.6,66.7,33.6z"/>
		<path class="st2" d="M40,0C17.9,0,0,17.9,0,40c0,22.1,17.9,40,40,40s40-17.9,40-40C80,17.9,62.1,0,40,0z M67.5,37.5
			c0,0.8-0.1,1.6-0.1,2.4c0,1.4-0.1,2.8-0.3,4.2c-0.1,1.3-0.3,2.6-0.4,3.9c0,0.1-0.1,0.2-0.2,0.3c-1.5,1.1-3,2.2-4.5,3.3
			c-1.3,1-2.7,2-4.1,3c-0.8,0.6-1.7,1-2.6,1.3c-0.3,0.1-0.6,0.2-0.9,0.1c-0.3-0.1-0.4-0.3-0.3-0.6c0-0.1,0.1-0.3,0.1-0.4
			c0-0.2,0.1-0.4-0.1-0.6c-0.2-0.2-0.4-0.1-0.6,0c-0.5,0.2-0.9,0.5-1.3,0.8c-0.6,0.4-1.1,0.8-1.8,1c-0.3,0.1-0.5,0.2-0.8,0.2
			c-0.4,0-0.5-0.3-0.3-0.6c0.1-0.2,0.2-0.4,0.2-0.6c0-0.2-0.1-0.4-0.3-0.3c-0.3,0.1-0.6,0.1-0.9,0.3c-0.7,0.4-1.4,0.9-2.1,1.4
			c-0.9,0.6-1.7,1.3-2.6,1.8c-0.3,0.2-0.7,0.3-1.1,0.4c-0.3,0.1-0.6-0.1-0.6-0.5c0-0.2,0.1-0.4,0.1-0.6c0.1-0.2,0.2-0.4,0.3-0.5
			c0-0.1,0-0.2,0-0.3c-0.1,0-0.2,0-0.3,0c-0.3,0.2-0.7,0.3-1,0.5c-0.7,0.4-1.5,0.8-2.2,1.2c-0.3,0.1-0.6,0.2-0.8,0.2
			c-0.2,0-0.3-0.1-0.3-0.3c0-0.2,0-0.4,0.1-0.6c0.1-0.3,0.3-0.7,0.4-1c0-0.1,0-0.2,0-0.2c-0.1,0-0.2,0-0.3,0c-0.1,0-0.2,0.1-0.3,0.1
			c-0.3,0.2-0.6,0.3-0.9,0.5c-0.9,0.6-1.9,1.2-2.8,1.7c-0.4,0.2-0.8,0.3-1.1,0.5h-0.5c-0.2-0.2-0.3-0.5-0.1-0.8
			c0.1-0.2,0.2-0.3,0.3-0.5c0.2-0.3,0.3-0.6,0.5-0.9c0-0.1,0-0.2,0-0.2c0,0-0.2-0.1-0.2,0c-0.2,0.1-0.4,0.2-0.5,0.2
			c-0.4,0.2-0.7,0.3-1.1,0.4c-0.4,0.1-0.6-0.1-0.6-0.5c0-0.3,0-0.5,0.1-0.7c0.1-0.1,0.1-0.3,0.1-0.4c-0.1,0-0.3,0-0.4,0.1
			c-0.5,0.3-1,0.7-1.5,1c-0.8,0.5-1.5,1-2.3,1.5c-0.4,0.3-0.9,0.5-1.5,0.5c-0.5,0-0.8-0.2-0.8-0.7c0-0.3,0.1-0.7,0.3-1
			c0.2-0.4,0.5-0.8,0.7-1.2c0.2-0.4,0.3-0.8,0.5-1.2c0.1-0.3-0.1-0.4-0.3-0.3c-0.3,0.1-0.6,0.2-0.9,0.4c-0.5,0.2-1,0.5-1.6,0.7
			c-0.2,0.1-0.5,0.1-0.7,0.1c-0.2,0-0.3-0.2-0.2-0.4c0.1-0.2,0.2-0.4,0.3-0.5c0.2-0.2,0.4-0.5,0.4-0.8c0.1-0.3-0.1-0.6-0.5-0.6
			c-0.3,0-0.6,0-0.8,0.1c-0.6,0.2-1.1,0.5-1.6,0.7c-0.4,0.2-0.9,0.4-1.4,0.4c-0.5,0-0.7-0.2-0.6-0.6c0.1-0.4,0.2-0.8,0.4-1.2
			c0.1-0.2,0.2-0.4,0.2-0.7c0.1-0.3,0-0.4-0.3-0.3c-0.1,0-0.3,0.1-0.4,0.1c-0.7,0.3-1.4,0.6-2.1,0.9c-0.4,0.2-0.8,0.3-1.3,0.3
			c-0.3,0-0.6-0.2-0.6-0.4c0-0.3,0-0.5,0.3-0.7c0.1-0.1,0.3-0.2,0.4-0.4c0.3-0.4,0.6-0.7,0.8-1.1c0.1-0.1,0.1-0.2,0-0.3
			c-0.1-0.1-0.2-0.1-0.3,0c-0.4,0.1-0.8,0.3-1.1,0.4c-0.6,0.2-0.8,0.1-1.1-0.3v-0.6c0,0,0-0.1,0.1-0.1c0.1-0.4,0.3-0.8,0.7-1.1
			c0.4-0.3,0.7-0.6,1-1c0.3-0.3,0.5-0.5,0.7-0.8c0,0,0-0.1,0-0.2c-0.1,0-0.1,0-0.2,0c-0.2,0-0.3,0.1-0.5,0.1c-0.2,0-0.4,0.1-0.7,0.1
			c-0.3,0-0.5-0.2-0.5-0.5c0-0.4,0.1-0.9,0.4-1.2c0.3-0.4,0.7-0.8,1-1.1c0.1-0.1,0.1-0.3,0.1-0.4c-0.2,0-0.3,0-0.4,0
			C13.9,44,13.6,44,13.3,44c-0.4,0-0.5-0.2-0.4-0.6c0.1-0.3,0.2-0.6,0.4-0.8c0.5-0.8,1.1-1.4,1.8-2.1c0.3-0.3,0.7-0.6,1-1
			c0.4-0.4,0.7-0.9,0.8-1.5c0.1-0.3-0.1-0.5-0.4-0.4c-0.2,0-0.4,0.1-0.6,0.2c-0.2,0.1-0.4,0.1-0.6,0.2c-0.4,0.1-0.6-0.1-0.5-0.5
			c0-0.2,0.1-0.4,0.3-0.6c0.3-0.3,0.6-0.6,0.9-0.9c0.4-0.4,0.8-0.7,1.1-1.1c0.2-0.3,0.1-0.5-0.2-0.6c-0.3-0.1-0.6-0.1-0.9-0.1
			c-0.4,0-0.9-0.2-0.8-0.9c0-0.2,0-0.4,0.1-0.5c0.2-0.6,0.6-1.1,0.9-1.7c2.2-3.2,4.5-6.4,6.7-9.5c0.2-0.2,0.3-0.3,0.6-0.3
			c1.7,0,3.4,0,5,0.1c1.1,0,1.8,0.6,2.2,1.7c0,0,0,0.1,0.1,0.2c0.1,0,0.1-0.1,0.1-0.1c0.7-0.7,1.4-1.3,2.1-2
			c0.1-0.1,0.2-0.1,0.3-0.1c1,0.1,2,0.1,3,0.2c1.3,0.1,2.7,0.2,4,0.3c0.3,0,0.6,0.1,1,0.1c0,0.3,0.1,0.7,0.1,1
			c0.1,0,0.1-0.1,0.1-0.1c0.4-0.4,0.8-0.7,1.2-1c0.1,0,0.1-0.1,0.2-0.1c0.6,0,1.2,0,1.8,0.1c0.2,0,0.4,0,0.6,0
			c-0.3,2.2-0.7,4.4-1,6.6c0,0,0,0,0.1,0c0,0,0.1-0.1,0.1-0.1c0.6-0.6,1.2-1.2,1.8-1.9c1.6-1.6,3.1-3.2,4.7-4.9
			c0.3-0.3,0.5-0.5,0.9-0.3c0.1,0,0.1,0,0.2,0c0.5,0,1,0.1,1.5,0.1c-0.4,3.2-0.9,6.3-1.3,9.6c0.1-0.1,0.1-0.1,0.1-0.1
			c1.1-1,2.2-2.1,3.3-3.1c2.3-2.1,4.6-4.2,6.9-6.4c0.1-0.1,0.2-0.2,0.4-0.2c0.2,0,0.5,0,0.7,0c0.4,0,0.8-0.1,1.2-0.1h0.8
			c0,0.1,0.1,0.2,0.1,0.3c0.2,1.3,0.4,2.6,0.5,3.8c0.2,1.4,0.4,2.8,0.6,4.2c0.2,1.5,0.4,3,0.6,4.5c0,0.1,0,0.2-0.1,0.3
			c-0.2,0.2-0.3,0.4-0.5,0.6c-1.4,1.6-2.7,3.3-4.1,4.9c-0.4,0.4-0.7,0.9-1.1,1.3c0.3-0.3,0.7-0.6,1-0.9c1-1,2-1.9,3-2.9
			c0,0,0.1-0.1,0.2-0.1c0.6,0.1,1.1,0.2,1.7,0.3C67.5,37.2,67.5,37.4,67.5,37.5z"/>
		<path class="st2" d="M65.1,21.1C65.1,21.1,65.1,21.2,65.1,21.1C65.1,21.2,65.1,21.1,65.1,21.1z"/>
		<path class="st2" d="M64,46.7c0,0-0.1,0-0.1,0C63.9,46.7,63.9,46.7,64,46.7z"/>
		<path class="st2" d="M65.5,37.6c-0.1,1-0.3,2-0.4,3C65.3,39.6,65.4,38.6,65.5,37.6c0-0.3,0.1-0.4,0.3-0.4
			C65.6,37.1,65.6,37.3,65.5,37.6z"/>
		<path class="st2" d="M66.9,37.3c0-0.1-0.1-0.1-0.2-0.1c-0.2,0-0.5,0-0.7-0.1c0.2,0.1,0.5,0.1,0.7,0.1
			C66.8,37.2,66.9,37.3,66.9,37.3z"/>
		<path class="st2" d="M56.3,33c0,0,0-0.1,0-0.2c0-0.3,0-0.5,0.1-0.8c0,0.2,0,0.5-0.1,0.8C56.4,32.9,56.4,33,56.3,33z"/>
		<path class="st2" d="M65.5,37.6c-0.1,1-0.3,2-0.4,3c-0.2,1.2-0.3,2.5-0.5,3.7c-0.1,0.7-0.2,1.3-0.3,2c0,0.2-0.2,0.4-0.4,0.4
			c0,0-0.1,0-0.1,0c-0.1,0-0.2-0.1-0.3-0.2c-0.1-0.1-0.2-0.3-0.3-0.4c-0.6-1.2-1.2-2.4-1.7-3.6c-0.6-1.2-1.2-2.4-1.6-3.7
			c-0.1-0.2-0.1-0.4-0.2-0.6c-0.1-0.3-0.3-0.5-0.7-0.5c-0.2,0-0.4,0-0.6,0c-0.3,0-0.4,0.2-0.4,0.4c-0.2,1.5-0.3,3-0.5,4.5
			c-0.2,1.7-0.3,3.3-0.5,5c0,0.2,0.1,0.4,0.2,0.5c0.1,0.1,0.2,0.1,0.4,0.1c0.1,0,0.2,0,0.3,0c0.1,0,0.2,0,0.3,0c0.1,0,0.2,0,0.2-0.1
			c0.1,0,0.2-0.1,0.2-0.2c0-0.1,0.1-0.2,0.1-0.3c0.1-1.1,0.2-2.2,0.3-3.4c0-0.6,0.1-1.1,0.1-1.7c0-0.1,0-0.2,0.1-0.2
			c0,0,0.1,0,0.2,0.1c0.1,0.1,0.2,0.2,0.3,0.4c1.1,1.8,2.2,3.5,3.2,5.3c0.1,0.2,0.3,0.3,0.5,0.3c0.1,0,0.2,0,0.3,0
			c0.8-0.1,1.6-0.1,2.4-0.2c0.3,0,0.4-0.1,0.5-0.4c0-0.1,0-0.2,0-0.2c0.1-1.1,0.2-2.2,0.3-3.4c0.1-0.8,0.1-1.7,0.2-2.5
			c0.1-1.1,0.1-2.2,0.2-3.3c0,0,0,0,0,0c0-0.2,0-0.5,0-0.7c0-0.1,0-0.2-0.1-0.2c0-0.1-0.1-0.1-0.2-0.1c-0.2,0-0.5,0-0.7-0.1
			c-0.1,0-0.2,0-0.2,0C65.6,37.1,65.6,37.3,65.5,37.6z"/>
		<path class="st2" d="M58.3,33.2c0.1,0,0.2,0.1,0.3,0.1c0,0,0,0,0,0c0.4,0,0.9,0,1.3,0c0,0,0,0,0,0c0.2,0,0.4-0.1,0.5-0.3
			c0.3-0.5,0.6-1.1,0.8-1.6c0.1-0.3,0.3-0.4,0.6-0.5c0,0,0,0,0.1,0c0.1,0,0.2,0,0.3,0c0,0,0,0,0,0c0,0,0,0,0,0
			c0.7,0.1,1.4,0.1,2.1,0.2c0.2,0,0.3,0.1,0.4,0.1c0.1,0,0.1,0.1,0.1,0.2c0,0.1,0,0.2,0.1,0.3c0,0.3,0,0.6,0.1,0.9
			c0,0.3,0,0.6,0.1,0.8c0,0.2,0.1,0.3,0.2,0.4c0.1,0,0.1,0.1,0.2,0.1c0.1,0,0.2,0,0.2,0c0.2,0,0.4-0.1,0.6-0.1
			c0.2,0,0.4-0.1,0.6-0.1c0,0,0.1,0,0.1,0c0,0,0.1-0.1,0.1-0.1c0-0.2,0.1-0.5,0-0.7c-0.1-0.7-0.1-1.3-0.2-2
			c-0.1-1.2-0.3-2.4-0.5-3.6c-0.2-1.2-0.3-2.3-0.5-3.5c-0.1-0.8-0.3-1.6-0.4-2.3c0-0.1,0-0.1-0.1-0.2c0,0,0-0.1-0.1-0.1c0,0,0,0,0,0
			C65,21.1,64.9,21,64.8,21c-0.2,0-0.3,0-0.5,0c-0.2,0-0.3,0-0.5,0c0,0,0,0,0,0c-0.3,0-0.5,0-0.8,0c-0.1,0-0.1,0-0.2,0
			c-0.2,0-0.3,0.2-0.3,0.3c-0.2,0.7-0.5,1.3-0.8,2c-0.2,0.6-0.5,1.3-0.7,1.9c-1,2.5-1.9,5-2.9,7.6C58.1,33,58.1,33.1,58.3,33.2z
			 M61.9,29c0.4-1.2,0.7-2.4,1.1-3.6c0.1-0.5,0.3-0.9,0.4-1.4c0,0,0-0.1,0-0.1c0.1-0.1,0.2-0.2,0.2-0.2c0.1,0,0.2,0.1,0.2,0.2
			c0.1,0.6,0.2,1.2,0.3,1.8c0.1,1,0.1,2.1,0.2,3.1c0,0,0,0,0,0c-0.1,0.3-0.1,0.6-0.2,0.8c-0.1,0.2-0.2,0.3-0.4,0.3
			c-0.5,0-1-0.1-1.4-0.1C62,29.8,61.8,29.5,61.9,29z"/>
		<path class="st2" d="M55.2,39.4c-0.1-0.3-0.2-0.5-0.3-0.8c-0.2-0.3-0.4-0.5-0.7-0.6c0,0,0,0,0,0c-0.1,0-0.2-0.1-0.3-0.1
			c-0.5-0.1-1-0.1-1.5-0.2c-0.6-0.1-1.1-0.1-1.7-0.2c0,0,0,0,0,0c0,0,0,0,0,0c-0.5,0-1.1,0-1.5,0.2c-0.5,0.2-1,0.4-1.4,0.8
			c-0.1,0.1-0.2,0.2-0.3,0.3c-0.1,0.1-0.1,0.2-0.1,0.3c0,0.2-0.1,0.3-0.1,0.5c-0.2,0.7-0.4,1.4-0.5,2.1c-0.3,1.1-0.4,2.1-0.3,3.2
			c0,0.4,0.1,0.7,0.1,1.1c0.1,0.7,0.3,1.3,0.9,1.7c0.4,0.3,0.8,0.5,1.3,0.6c0.2,0.1,0.5,0.1,0.7,0.1c0.1,0,0.1,0,0.2,0
			c0.8,0,1.7,0,2.5-0.2c0.9-0.2,1.6-0.6,2-1.5c0.4-1,0.8-2.1,1.2-3.1c0.3-0.8,0.5-1.7,0.5-2.6c0-0.3,0-0.6-0.1-0.9
			C55.4,40,55.3,39.7,55.2,39.4z M52.6,46.4c-0.1,0.1-0.2,0.3-0.3,0.4c-0.3,0.4-0.8,0.7-1.3,0.6c-0.2,0-0.3,0-0.5,0
			c-0.8,0.1-1.6-0.2-2.3-0.5c-0.4-0.2-0.5-0.5-0.5-0.9c0-0.6,0-1.3,0-1.9c0-0.8,0.1-1.6,0.3-2.4c0.1-0.5,0.3-1,0.5-1.5
			c0.5-0.9,1.3-1.2,2.2-1.2c0.5,0,1,0.1,1.5,0.1c0.6,0.1,1.1,0.3,1.6,0.7c0.2,0.2,0.4,0.5,0.4,0.9C54.3,42.8,53.9,44.7,52.6,46.4z"
			/>
		<path class="st2" d="M56.2,31.8c-0.2,0-0.4-0.1-0.6-0.1c-1.3-0.2-2.5-0.3-3.8-0.5c0,0-0.1,0-0.1,0c0,0-0.1,0-0.1,0
			c-0.1,0-0.1,0-0.1,0c0,0-0.1-0.1-0.1-0.1c0-0.1,0-0.1,0-0.2c0-0.1,0-0.2,0-0.3c0.1-0.9,0.3-1.8,0.4-2.7c0.4-2.1,0.7-4.2,1.1-6.3
			c0.1-0.3,0-0.5-0.4-0.5c-0.3,0-0.6,0-1-0.1c-0.3,0-0.4,0-0.5,0.3c-0.1,0.2-0.1,0.5-0.1,0.7c-0.2,1.1-0.3,2.3-0.5,3.4
			c-0.1,1.1-0.3,2.2-0.4,3.3c-0.1,1.2-0.3,2.4-0.4,3.6c0,0.2,0,0.4,0.2,0.5c0.1,0,0.1,0.1,0.2,0.1c0.1,0,0.2,0.1,0.3,0.1
			c0.9,0.1,1.8,0.2,2.7,0.2c0.4,0,0.7,0.1,1.1,0.1c0.1,0,0.2,0,0.3,0c0.5,0,1-0.1,1.5-0.1c0.1,0,0.1,0,0.2,0c0.1,0,0.1-0.1,0.2-0.2
			c0,0,0-0.1,0-0.2c0-0.2,0-0.5,0.1-0.8C56.5,31.9,56.4,31.8,56.2,31.8z"/>
		<path d="M62.4,29.8c0.5,0.1,1,0.1,1.4,0.1c0.3,0,0.4,0,0.4-0.3c0.1-0.3,0.1-0.5,0.2-0.8c0,0,0,0,0,0c-0.1-1-0.1-2.1-0.2-3.1
			c0-0.6-0.2-1.2-0.3-1.8c0-0.1-0.1-0.2-0.2-0.2c-0.1,0-0.2,0.1-0.2,0.2c0,0,0,0.1,0,0.1c-0.1,0.5-0.3,0.9-0.4,1.4
			c-0.4,1.2-0.7,2.4-1.1,3.6C61.8,29.5,62,29.8,62.4,29.8z"/>
		<path d="M65.6,36.8c-1,1-2,1.9-3,2.9c-0.3,0.3-0.6,0.6-1,0.9c0.4-0.4,0.7-0.9,1.1-1.3c1.4-1.6,2.7-3.3,4.1-4.9
			c0.2-0.2,0.4-0.4,0.5-0.6c0.1-0.1,0.1-0.2,0.1-0.3c-0.2-1.5-0.4-3-0.6-4.5c-0.2-1.4-0.4-2.8-0.6-4.2c-0.2-1.3-0.4-2.6-0.5-3.8
			c0-0.1-0.1-0.2-0.1-0.3h-0.8c-0.4,0-0.8,0.1-1.2,0.1c-0.2,0-0.5,0-0.7,0c-0.2,0-0.3,0.1-0.4,0.2c-2.3,2.1-4.6,4.2-6.9,6.4
			c-1.1,1-2.2,2.1-3.3,3.1c0,0-0.1,0.1-0.1,0.1c0.4-3.2,0.9-6.4,1.3-9.6c-0.5,0-1-0.1-1.5-0.1c-0.1,0-0.1,0-0.2,0
			c-0.4-0.1-0.6,0.1-0.9,0.3c-1.5,1.6-3.1,3.2-4.7,4.9c-0.6,0.6-1.2,1.2-1.8,1.9c0,0-0.1,0.1-0.1,0.1c0,0-0.1,0-0.1,0
			c0.3-2.2,0.7-4.4,1-6.6c-0.2,0-0.4,0-0.6,0c-0.6,0-1.2-0.1-1.8-0.1c-0.1,0-0.2,0-0.2,0.1c-0.4,0.3-0.8,0.7-1.2,1
			c0,0-0.1,0.1-0.1,0.1c0-0.3-0.1-0.7-0.1-1c-0.3,0-0.6-0.1-1-0.1c-1.3-0.1-2.7-0.2-4-0.3c-1-0.1-2-0.1-3-0.2c-0.1,0-0.2,0-0.3,0.1
			c-0.7,0.7-1.4,1.3-2.1,2c0,0-0.1,0.1-0.1,0.1c0-0.1,0-0.1-0.1-0.2c-0.3-1.1-1-1.6-2.2-1.7c-1.7,0-3.4,0-5-0.1
			c-0.3,0-0.5,0.1-0.6,0.3c-2.2,3.2-4.5,6.4-6.7,9.5c-0.4,0.5-0.7,1.1-0.9,1.7c-0.1,0.2-0.1,0.4-0.1,0.5c-0.1,0.6,0.4,0.8,0.8,0.9
			c0.3,0,0.6,0,0.9,0.1c0.4,0.1,0.5,0.3,0.2,0.6c-0.3,0.4-0.7,0.8-1.1,1.1c-0.3,0.3-0.6,0.6-0.9,0.9c-0.1,0.2-0.2,0.4-0.3,0.6
			c-0.1,0.4,0.1,0.6,0.5,0.5c0.2,0,0.4-0.1,0.6-0.2c0.2-0.1,0.4-0.1,0.6-0.2c0.3-0.1,0.5,0.1,0.4,0.4c-0.1,0.6-0.5,1-0.8,1.5
			c-0.3,0.4-0.7,0.7-1,1c-0.7,0.6-1.3,1.3-1.8,2.1c-0.2,0.2-0.3,0.5-0.4,0.8C12.8,43.7,13,44,13.3,44c0.3,0,0.6,0,0.9-0.1
			c0.1-0.1,0.3,0,0.4,0c0,0.1-0.1,0.3-0.1,0.4c-0.3,0.4-0.6,0.8-1,1.1c-0.3,0.4-0.4,0.8-0.4,1.2c0,0.3,0.2,0.5,0.5,0.5
			c0.2,0,0.4,0,0.7-0.1c0.2,0,0.3-0.1,0.5-0.1c0.1,0,0.1,0,0.2,0c0,0.1,0,0.2,0,0.2c-0.2,0.3-0.5,0.5-0.7,0.8c-0.3,0.3-0.7,0.7-1,1
			c-0.3,0.3-0.5,0.7-0.7,1.1c0,0,0,0.1-0.1,0.1v0.6c0.3,0.4,0.5,0.5,1.1,0.3c0.4-0.1,0.8-0.3,1.1-0.4c0.1,0,0.2,0,0.3,0
			c0,0.1,0,0.2,0,0.3c-0.3,0.4-0.5,0.7-0.8,1.1c-0.1,0.1-0.2,0.3-0.4,0.4c-0.2,0.2-0.3,0.5-0.3,0.7c0,0.2,0.3,0.4,0.6,0.4
			c0.4,0,0.9-0.1,1.3-0.3c0.7-0.3,1.4-0.6,2.1-0.9c0.1-0.1,0.3-0.1,0.4-0.1c0.3-0.1,0.4,0,0.3,0.3c-0.1,0.2-0.2,0.4-0.2,0.7
			c-0.1,0.4-0.3,0.8-0.4,1.2c-0.1,0.4,0.1,0.7,0.6,0.6c0.5,0,0.9-0.2,1.4-0.4c0.5-0.2,1.1-0.5,1.6-0.7c0.2-0.1,0.5-0.1,0.8-0.1
			c0.3,0,0.5,0.3,0.5,0.6c-0.1,0.3-0.2,0.5-0.4,0.8c-0.1,0.2-0.2,0.3-0.3,0.5c-0.1,0.2,0,0.4,0.2,0.4c0.2,0,0.5,0,0.7-0.1
			c0.5-0.2,1-0.5,1.6-0.7c0.3-0.1,0.6-0.3,0.9-0.4c0.3-0.1,0.4,0.1,0.3,0.3c-0.1,0.4-0.3,0.8-0.5,1.2c-0.2,0.4-0.4,0.8-0.7,1.2
			c-0.2,0.3-0.3,0.6-0.3,1c0,0.5,0.3,0.8,0.8,0.7c0.5,0,1-0.2,1.5-0.5c0.8-0.5,1.5-1,2.3-1.5c0.5-0.3,1-0.7,1.5-1
			c0.1-0.1,0.3-0.1,0.4-0.1c0,0.1,0,0.3-0.1,0.4c-0.1,0.2-0.1,0.5-0.1,0.7c0,0.4,0.3,0.6,0.6,0.5c0.4-0.1,0.7-0.3,1.1-0.4
			c0.2-0.1,0.3-0.2,0.5-0.2c0.1,0,0.2,0,0.2,0c0,0,0,0.1,0,0.2c-0.2,0.3-0.3,0.6-0.5,0.9c-0.1,0.2-0.2,0.3-0.3,0.5
			c-0.2,0.3-0.1,0.6,0.1,0.8h0.5c0.4-0.2,0.8-0.3,1.1-0.5c0.9-0.6,1.9-1.2,2.8-1.7c0.3-0.2,0.6-0.3,0.9-0.5c0.1-0.1,0.2-0.1,0.3-0.1
			c0.1,0,0.2,0,0.3,0c0,0,0,0.2,0,0.2c-0.1,0.3-0.3,0.7-0.4,1c-0.1,0.2-0.1,0.4-0.1,0.6c0,0.2,0.1,0.3,0.3,0.3
			c0.3,0,0.6-0.1,0.8-0.2c0.8-0.4,1.5-0.8,2.2-1.2c0.3-0.2,0.7-0.3,1-0.5c0.1,0,0.2,0,0.3,0c0,0.1,0,0.2,0,0.3
			c-0.1,0.2-0.2,0.3-0.3,0.5C42.1,57.8,42,58,42,58.2c0,0.3,0.2,0.6,0.6,0.5c0.4-0.1,0.7-0.2,1.1-0.4c0.9-0.5,1.8-1.2,2.6-1.8
			c0.7-0.5,1.4-1,2.1-1.4c0.2-0.2,0.6-0.2,0.9-0.3c0.2,0,0.4,0.1,0.3,0.3c0,0.2-0.1,0.4-0.2,0.6c-0.2,0.3-0.1,0.6,0.3,0.6
			c0.3,0,0.5-0.1,0.8-0.2c0.6-0.2,1.2-0.7,1.8-1c0.4-0.3,0.9-0.5,1.3-0.8c0.2-0.1,0.4-0.2,0.6,0c0.2,0.2,0.1,0.4,0.1,0.6
			c0,0.1-0.1,0.3-0.1,0.4c-0.1,0.3,0,0.5,0.3,0.6c0.3,0.1,0.6,0,0.9-0.1c1-0.3,1.8-0.7,2.6-1.3c1.4-1,2.7-2,4.1-3
			c1.5-1.1,3-2.2,4.5-3.3c0.1-0.1,0.2-0.2,0.2-0.3c0.1-1.3,0.3-2.6,0.4-3.9c0.1-1.4,0.3-2.8,0.3-4.2c0-0.8,0-1.6,0.1-2.4
			c0-0.1,0-0.3,0-0.4c-0.6-0.1-1.1-0.2-1.7-0.3C65.8,36.7,65.7,36.8,65.6,36.8z M58.1,32.8c1-2.5,1.9-5,2.9-7.6
			c0.2-0.6,0.5-1.3,0.7-1.9c0.3-0.7,0.5-1.3,0.8-2c0.1-0.2,0.2-0.3,0.3-0.3c0.1,0,0.1,0,0.2,0c0.3,0,0.5,0,0.8,0c0,0,0,0,0,0
			c0.2,0,0.3,0,0.5,0c0.2,0,0.3,0,0.5,0c0.1,0,0.2,0,0.3,0.1c0,0,0,0,0,0c0,0,0,0,0.1,0.1c0,0.1,0,0.1,0.1,0.2
			c0.1,0.8,0.3,1.6,0.4,2.3c0.2,1.2,0.3,2.3,0.5,3.5c0.2,1.2,0.3,2.4,0.5,3.6c0.1,0.7,0.2,1.3,0.2,2c0,0.2,0,0.5,0,0.7
			c0,0,0,0.1-0.1,0.1c0,0-0.1,0-0.1,0c-0.2,0-0.4,0.1-0.6,0.1c-0.2,0-0.4,0.1-0.6,0.1c-0.1,0-0.2,0-0.2,0c-0.1,0-0.1,0-0.2-0.1
			c-0.1-0.1-0.2-0.2-0.2-0.4c0-0.3,0-0.6-0.1-0.8c0-0.3,0-0.6-0.1-0.9c0-0.1,0-0.2-0.1-0.3c0-0.1-0.1-0.1-0.1-0.2
			c-0.1-0.1-0.2-0.1-0.4-0.1c-0.7-0.1-1.4-0.1-2.1-0.2c-0.1,0-0.2,0-0.3,0c0,0,0,0-0.1,0c-0.2,0.1-0.4,0.2-0.5,0.5
			c-0.2,0.5-0.5,1.1-0.8,1.6c-0.1,0.2-0.2,0.3-0.5,0.3c0,0,0,0,0,0h0c0,0,0,0,0,0c-0.4,0-0.9,0-1.3,0c0,0,0,0,0,0
			c-0.1,0-0.2,0-0.3-0.1C58.1,33.1,58.1,33,58.1,32.8z M28.9,40.8c-0.2,1.1-0.5,2.1-0.7,3.1c-0.2,0.7-0.3,1.4-0.5,2.1
			c-0.2,0.7-0.5,1.3-1.1,1.8c-0.5,0.4-1.1,0.6-1.7,0.6c-0.8-0.1-1.5-0.2-2.3-0.3c-1.1-0.2-1.6-1-1.8-2c-0.2-0.7-0.1-1.3-0.1-2
			c0.1-1.2,0.3-2.4,0.4-3.7c0.1-1,0.2-2,0.4-3c0.1-0.6,0.1-0.6,0.6-0.5c0.2,0,0.4,0.1,0.6,0.1c0.4,0,0.5,0.2,0.5,0.5
			c-0.1,0.5-0.1,1.1-0.2,1.6c-0.1,1.2-0.3,2.3-0.4,3.5c-0.1,0.6-0.2,1.2-0.2,1.9c0,0.3,0,0.5,0.1,0.8c0.2,0.7,0.7,1.2,1.4,1.2
			c0.3,0,0.6,0,1,0c0.6-0.1,1-0.4,1.3-1c0.4-0.8,0.6-1.7,0.7-2.6c0.3-1.8,0.5-3.7,0.8-5.5c0-0.4,0.2-0.5,0.5-0.5c0.2,0,0.4,0,0.6,0
			c0.3,0,0.5,0.2,0.5,0.5C29.1,38.6,29.1,39.7,28.9,40.8z M29.4,28.3c-0.3,0.2-0.7,0.4-1,0.6c-0.1,0.1-0.3,0.2-0.4,0.3
			c0.3,0.2,0.5,0.4,0.7,0.5c0.6,0.3,0.8,0.9,0.7,1.5c-0.1,0.9-0.2,1.8-0.6,2.6c-0.1,0.3-0.3,0.5-0.5,0.7c-0.2,0.2-0.5,0.4-0.9,0.4
			c-1.6,0-3.3,0-4.9,0c-0.2,0-0.4,0-0.6,0c-0.5,0-0.9-0.3-0.9-0.8c0-0.4,0-0.7,0.1-1.1c0.1-0.7,0.3-1.5,0.4-2.2c0.3-2,0.6-4,1-5.9
			c0.2-1,0.4-1.9,0.6-2.9c0-0.2,0.1-0.3,0.3-0.3c0.6,0,1.2-0.1,1.8-0.1c0.8,0,1.6,0,2.5,0c0.3,0,0.6,0,0.9,0.1
			c0.4,0.1,0.7,0.3,1,0.6c0.4,0.4,0.6,1,0.6,1.6c0.2,1.1,0.1,2.2,0,3.4C30.2,27.6,29.8,28,29.4,28.3z M40.4,40.2
			c-0.1,0.9-0.2,1.8-0.2,2.7c-0.1,1-0.2,2.1-0.3,3.1c-0.1,0.6-0.1,1.1-0.2,1.7c0,0.1-0.1,0.3-0.2,0.4c-0.1,0.1-0.3,0.2-0.4,0.2
			c-0.5,0.1-1.1,0.1-1.7,0.1c-0.2,0-0.6,0-0.9-0.1c-0.2,0-0.4-0.1-0.4-0.3c-0.9-2-1.8-3.9-2.7-5.9c-0.1-0.3-0.3-0.5-0.4-0.8
			c0-0.1-0.2-0.1-0.2-0.1c-0.1,0-0.2,0.1-0.2,0.2c-0.1,0.3-0.1,0.6-0.1,0.9c-0.1,1.2-0.3,2.4-0.4,3.6c0,0.4-0.1,0.8-0.1,1.2
			c0,0.4-0.4,0.8-0.8,0.8c-0.1,0-0.1,0-0.2,0c-0.4,0-0.7-0.3-0.7-0.7c0.1-0.7,0.2-1.4,0.3-2.1c0.1-1,0.3-2.1,0.4-3.1
			c0.1-1.1,0.3-2.3,0.4-3.4c0-0.4,0.1-0.7,0.1-1.1c0-0.2,0.1-0.3,0.3-0.3c0.4,0,0.8,0.1,1.2,0.1c0.2,0,0.4,0.2,0.5,0.5
			c1.1,2.7,2.2,5.5,3.3,8.2c0.1,0.2,0.2,0.4,0.3,0.6c0.1,0.2,0.2,0.4,0.4,0.3c0.2,0,0.4-0.3,0.4-0.5c0.1-0.8,0.2-1.6,0.3-2.3
			c0.2-1.3,0.4-2.6,0.6-3.9c0.1-0.8,0.2-1.6,0.3-2.4c0-0.1,0-0.2,0.1-0.3c0.1-0.4,0.2-0.5,0.6-0.4c0.1,0,0.2,0,0.3,0
			c0.4,0,0.6,0.3,0.5,0.6C40.5,38.5,40.5,39.4,40.4,40.2z M40.5,23.3c0,0.1-0.1,0.2-0.1,0.3c0,0.1-0.1,0.1-0.2,0.1
			c-0.4,0-0.8,0-1.2,0c-1.1,0-2.2-0.1-3.3-0.1c-0.2,0-0.4,0-0.5,0.1c-0.2,0-0.3,0.1-0.3,0.3c-0.1,0.4-0.2,0.7-0.3,1.1
			c-0.1,0.5,0.1,0.8,0.6,0.9c1.4,0.3,2.9,0.5,4.3,0.8c0.6,0.1,0.7,0.2,0.5,0.8c-0.1,0.3-0.2,0.6-0.3,0.9c-0.1,0.2-0.2,0.2-0.4,0.2
			c-1-0.1-2.1-0.1-3.1-0.2c-0.6-0.1-1.3,0-1.9,0.1c-0.2,0-0.4,0.2-0.4,0.4c-0.1,0.7-0.3,1.4-0.4,2c0,0.2,0,0.3,0,0.5
			c0,0.4,0.4,0.7,0.8,0.7c0.7,0,1.4,0,2.1,0c0.9,0,1.8,0,2.6,0c0.6,0,0.7,0.3,0.6,0.7c0,0.3-0.1,0.7-0.2,1C39.2,34,39,34.1,38.7,34
			c-0.7,0-1.3-0.1-2-0.1c-1.6-0.1-3.2-0.2-4.9-0.2c-0.1,0-0.3-0.1-0.4-0.1c-0.1,0-0.2-0.1-0.2-0.2c0.1-1.2,0.3-2.3,0.4-3.5
			c0.1-1.2,0.3-2.3,0.5-3.5c0.2-1.2,0.3-2.5,0.5-3.7c0.1-0.4,0.1-0.9,0.2-1.3c1.1,0,2.2,0,3.4,0c0.9,0,1.8,0.1,2.7,0.1
			c0.5,0,0.9,0.1,1.4,0.1c0.1,0,0.2,0,0.3,0.1c0.1,0,0.1,0.1,0.1,0.2C40.6,22.4,40.6,22.8,40.5,23.3z M44.1,39.7
			c-0.1,1.1-0.3,2.3-0.4,3.4c-0.2,1.5-0.4,3.1-0.7,4.6c-0.1,0.2-0.1,0.4-0.2,0.6c-0.1,0.1-0.1,0.2-0.3,0.1c-0.2-0.1-0.4-0.1-0.7-0.1
			c-0.3,0-0.4-0.2-0.3-0.4c0.2-1.5,0.4-3,0.6-4.6c0.2-1.6,0.4-3.2,0.6-4.9c0-0.1,0-0.3,0-0.4c0-0.5,0.3-0.7,0.8-0.7
			c0.5,0,0.8,0.4,0.8,0.9C44.2,38.7,44.2,39.2,44.1,39.7z M46,34.1c-1.4,0-2.7,0-4.1,0c-0.2,0-0.4,0-0.6-0.1
			c-0.2-0.1-0.3-0.2-0.3-0.4c0.1-1.6,0.3-3.2,0.5-4.8c0.3-1.8,0.6-3.5,0.8-5.3c0.1-0.5,0.2-1,0.2-1.6c0-0.2,0.2-0.4,0.6-0.4
			c0.4,0,0.8,0,1.2,0c0.3,0,0.3,0.1,0.3,0.4c-0.2,1.2-0.4,2.3-0.6,3.5c-0.3,1.7-0.6,3.4-0.8,5.1c0,0.3-0.1,0.6-0.1,0.9
			c-0.1,0.4,0.1,0.5,0.4,0.4c0.2,0,0.4,0,0.6,0c1.1,0.1,2.2,0.2,3.3,0.2c0,0,0.1,0,0.1,0c0.6,0.1,0.6,0.2,0.6,0.7
			c0,0.2,0,0.4-0.1,0.6c0,0.4-0.3,0.6-0.6,0.6C46.9,34,46.5,34,46,34.1L46,34.1z M55.1,43.7c-0.4,1.1-0.8,2.1-1.2,3.1
			c-0.3,0.9-1.1,1.3-2,1.5c-0.8,0.2-1.7,0.2-2.5,0.2c0,0,0,0,0,0c0,0,0,0,0,0c-0.1,0-0.1,0-0.2,0c-0.2,0-0.5,0-0.7-0.1
			c-0.5-0.1-0.9-0.3-1.3-0.6c-0.6-0.4-0.8-1.1-0.9-1.7c-0.1-0.4-0.1-0.7-0.1-1.1c-0.1-1.1,0.1-2.2,0.3-3.2c0.2-0.7,0.4-1.4,0.5-2.1
			c0-0.2,0.1-0.3,0.1-0.5c0-0.1,0.1-0.2,0.1-0.3c0.1-0.1,0.2-0.2,0.3-0.3c0.5-0.3,0.9-0.6,1.4-0.8c0.5-0.2,1-0.2,1.5-0.2
			c0,0,0,0,0,0c0,0,0,0,0,0c0.6,0.1,1.1,0.1,1.7,0.2c0.5,0.1,1,0.1,1.5,0.2c0.1,0,0.2,0,0.3,0.1c0,0,0,0,0,0
			c0.3,0.1,0.5,0.3,0.7,0.6c0.2,0.2,0.3,0.5,0.3,0.8c0.1,0.3,0.2,0.6,0.2,0.9c0.1,0.3,0.1,0.6,0.1,0.9C55.6,42,55.4,42.9,55.1,43.7z
			 M56.4,32.9c0,0.1,0,0.1,0,0.2c0,0.1-0.1,0.1-0.2,0.2c-0.1,0-0.1,0-0.2,0c-0.5,0-1,0.1-1.5,0.1c-0.1,0-0.2,0-0.3,0c0,0,0,0,0,0
			s0,0,0,0c-0.3,0-0.7-0.1-1.1-0.1c-0.9-0.1-1.8-0.1-2.7-0.2c-0.1,0-0.2,0-0.3-0.1c-0.1,0-0.1-0.1-0.2-0.1c-0.2-0.1-0.2-0.3-0.2-0.5
			c0.1-1.2,0.3-2.4,0.4-3.6c0.1-1.1,0.3-2.2,0.4-3.3c0.2-1.1,0.3-2.3,0.5-3.4c0-0.2,0.1-0.5,0.1-0.7c0.1-0.3,0.2-0.3,0.5-0.3
			c0.3,0,0.6,0,1,0.1c0.4,0,0.5,0.2,0.4,0.5c-0.4,2.1-0.7,4.2-1.1,6.3c-0.1,0.9-0.3,1.8-0.4,2.7c0,0.1,0,0.2,0,0.3
			c0,0.1,0,0.1,0,0.2c0,0.1,0,0.1,0.1,0.1c0,0,0.1,0,0.1,0c0,0,0.1,0,0.1,0c0,0,0.1,0,0.1,0c1.3,0.2,2.5,0.3,3.8,0.5
			c0.2,0,0.4,0.1,0.6,0.1c0.2,0,0.3,0.2,0.2,0.4C56.4,32.4,56.4,32.6,56.4,32.9z M66,37.1c0.2,0.1,0.5,0.1,0.7,0.1
			c0.1,0,0.2,0,0.2,0.1c0,0.1,0.1,0.1,0.1,0.2c0,0,0,0,0,0l0,0c0,0.2,0,0.5,0,0.7c0,0,0,0,0,0c-0.1,1.1-0.1,2.2-0.2,3.3
			c-0.1,0.8-0.1,1.7-0.2,2.5c-0.1,1.1-0.2,2.3-0.3,3.4c0,0.1,0,0.2,0,0.2c-0.1,0.3-0.2,0.4-0.5,0.4c-0.8,0.1-1.6,0.1-2.4,0.2
			c-0.1,0-0.2,0-0.3,0c-0.2,0-0.4-0.1-0.5-0.3c-1.1-1.8-2.1-3.5-3.2-5.3c-0.1-0.1-0.2-0.2-0.3-0.4c0,0-0.1-0.1-0.2-0.1
			c0,0-0.1,0.1-0.1,0.2c0,0.6-0.1,1.1-0.1,1.7c-0.1,1.1-0.2,2.2-0.3,3.4c0,0.1,0,0.2-0.1,0.3c0,0.1-0.1,0.2-0.2,0.2
			c-0.1,0-0.1,0.1-0.2,0.1c0,0,0,0,0,0c0,0,0,0,0,0c-0.1,0-0.2,0-0.3,0c-0.1,0-0.2,0-0.3,0c0,0,0,0,0,0c0,0,0,0,0,0
			c-0.1,0-0.3-0.1-0.3-0.1c-0.1-0.1-0.2-0.3-0.2-0.5c0.2-1.7,0.3-3.3,0.5-5c0.2-1.5,0.3-3,0.5-4.5c0-0.2,0.2-0.4,0.4-0.4
			c0,0,0,0,0,0c0,0,0,0,0,0c0.2,0,0.4,0,0.6,0c0.4,0,0.6,0.2,0.7,0.5c0.1,0.2,0.2,0.4,0.2,0.6c0.4,1.3,1.1,2.5,1.6,3.7
			c0.6,1.2,1.2,2.4,1.7,3.6c0.1,0.1,0.2,0.3,0.3,0.4c0.1,0.1,0.2,0.2,0.3,0.2c0,0,0.1,0,0.1,0c0.2-0.1,0.3-0.2,0.4-0.4
			c0.1-0.7,0.2-1.3,0.3-2c0.2-1.2,0.4-2.5,0.5-3.7c0.1-1,0.3-2,0.4-3c0-0.3,0.1-0.4,0.3-0.4C65.9,37.1,66,37.1,66,37.1z"/>
		<path d="M53.8,39.9c-0.5-0.4-1-0.6-1.6-0.7c-0.5-0.1-1-0.1-1.5-0.1c-0.9,0-1.8,0.3-2.2,1.2c-0.2,0.5-0.4,1-0.5,1.5
			c-0.1,0.8-0.2,1.6-0.3,2.4c0,0.6,0,1.3,0,1.9c0,0.4,0.1,0.7,0.5,0.9c0.7,0.3,1.5,0.6,2.3,0.5c0.2,0,0.3,0,0.5,0
			c0.6,0,1-0.2,1.3-0.6c0.1-0.1,0.2-0.3,0.3-0.4c1.3-1.7,1.6-3.6,1.5-5.6C54.2,40.4,54,40.1,53.8,39.9z"/>
		<path d="M28.9,24.5c0-0.7-0.3-1.1-1-1.3c-0.4-0.1-0.8-0.1-1.2-0.1c-0.5,0-1.1,0-1.6,0c-0.7,0-0.9,0.2-1,0.8
			c-0.2,1.1-0.3,2.2-0.4,3.4c0,0.2,0,0.5,0.1,0.7c0,0.1,0.2,0.2,0.3,0.2c0.8,0,1.6,0,2.5,0c1.1-0.1,2-0.8,2.2-1.9
			c0.1-0.5,0.1-1.1,0.2-1.6c0,0,0,0,0,0C28.9,24.7,28.9,24.6,28.9,24.5z"/>
		<path d="M26.6,29.8c-0.2,0-0.4,0-0.6-0.1c-0.7,0-1.3-0.1-2-0.1c-0.5,0-0.8,0.2-0.9,0.7c-0.1,0.2-0.1,0.4-0.2,0.7
			c-0.1,0.5-0.3,1.1-0.2,1.6c0.1,0.5,0.4,0.8,0.9,0.9c0.4,0,0.8,0,1.2,0c0,0,0,0,0,0.1c0.4,0,0.9,0,1.4-0.1c0.6,0,1.1-0.4,1.3-1
			c0.1-0.4,0.2-0.8,0.3-1.1C28,30.6,27.2,29.8,26.6,29.8z"/>
		<path d="M67,37.6c0-0.1,0-0.2-0.1-0.2C67,37.4,67,37.5,67,37.6C67,37.6,67,37.6,67,37.6z"/>
		<path d="M65.8,37.1c0.1,0,0.1,0,0.2,0C66,37.1,65.9,37.1,65.8,37.1z"/>
		<path d="M64.3,46.3c0.1-0.7,0.2-1.3,0.3-2c0.2-1.2,0.3-2.5,0.5-3.7c-0.2,1.2-0.3,2.5-0.5,3.7C64.5,44.9,64.4,45.6,64.3,46.3
			c0,0.2-0.2,0.4-0.4,0.4C64.2,46.6,64.3,46.5,64.3,46.3z"/>
		<path d="M58.3,37.6C58.3,37.6,58.3,37.6,58.3,37.6c-0.3,0-0.4,0.2-0.4,0.4C57.9,37.7,58.1,37.5,58.3,37.6z"/>
		<path d="M63.8,46.7c-0.1,0-0.2-0.1-0.3-0.2C63.6,46.6,63.7,46.7,63.8,46.7z"/>
		<path d="M57.5,48.1C57.5,48.1,57.5,48.1,57.5,48.1c-0.1,0-0.3-0.1-0.3-0.1C57.2,48,57.3,48.1,57.5,48.1z"/>
		<path d="M58.5,47.8c0-0.1,0.1-0.2,0.1-0.3c0.1-1.1,0.2-2.2,0.3-3.4c-0.1,1.1-0.2,2.2-0.3,3.4C58.5,47.6,58.5,47.7,58.5,47.8z"/>
		<path d="M58,48.1c0.1,0,0.2,0,0.2-0.1C58.2,48.1,58.1,48.1,58,48.1C58,48.1,58,48.1,58,48.1z"/>
		<path d="M66.8,32.8c-0.1-0.7-0.1-1.3-0.2-2c-0.2-1.2-0.3-2.4-0.5-3.6c0.2,1.2,0.3,2.4,0.5,3.6C66.7,31.5,66.8,32.2,66.8,32.8z"/>
		<path d="M66,33.8c0.2,0,0.4-0.1,0.6-0.1c0,0,0.1,0,0.1,0c0,0-0.1,0-0.1,0C66.4,33.7,66.2,33.7,66,33.8z"/>
		<path d="M65.1,21.1C65,21.1,64.9,21,64.8,21c-0.2,0-0.3,0-0.5,0c0.2,0,0.3,0,0.5,0C64.9,21,65,21.1,65.1,21.1z"/>
		<path d="M63.8,21c-0.3,0-0.5,0-0.8,0c-0.1,0-0.1,0-0.2,0c0.1,0,0.1,0,0.2,0C63.3,21,63.5,21,63.8,21z"/>
		<path d="M61.7,23.3c-0.2,0.6-0.5,1.3-0.7,1.9c-1,2.5-1.9,5-2.9,7.6c1-2.5,1.9-5,2.9-7.6C61.3,24.6,61.5,24,61.7,23.3z"/>
		<path d="M65.2,33.9c-0.1,0-0.1,0-0.2-0.1C65.1,33.8,65.1,33.9,65.2,33.9z"/>
		<path d="M65.1,21.2C65.2,21.2,65.2,21.2,65.1,21.2C65.2,21.2,65.2,21.2,65.1,21.2z"/>
		<path d="M58.1,32.8c-0.1,0.2,0,0.3,0.1,0.4C58.1,33.1,58.1,33,58.1,32.8z"/>
		<path d="M58.6,33.3C58.6,33.3,58.6,33.3,58.6,33.3c0.4,0,0.9,0,1.3,0C59.5,33.3,59,33.3,58.6,33.3C58.6,33.3,58.6,33.3,58.6,33.3z
			"/>
		<path d="M64.7,31.4c0,0.1,0,0.2,0.1,0.3c0,0.3,0,0.6,0.1,0.9c0-0.3,0-0.6-0.1-0.9C64.7,31.6,64.7,31.5,64.7,31.4z"/>
		<path d="M62.1,31C62.1,31,62.1,31,62.1,31c0.7,0.1,1.4,0.1,2.1,0.2c0.2,0,0.3,0.1,0.4,0.1c-0.1-0.1-0.2-0.1-0.4-0.1
			C63.5,31.1,62.8,31,62.1,31z"/>
		<path d="M61.1,31.4c-0.2,0.5-0.5,1.1-0.8,1.6c-0.1,0.2-0.2,0.3-0.5,0.3c0,0,0,0,0,0c0.2,0,0.4-0.1,0.5-0.3
			C60.6,32.5,60.9,32,61.1,31.4c0.1-0.3,0.3-0.4,0.6-0.5C61.4,31,61.2,31.2,61.1,31.4z"/>
		<path d="M51.9,48.4c-0.8,0.2-1.7,0.2-2.5,0.2c0,0,0,0,0,0C50.3,48.6,51.1,48.6,51.9,48.4c0.9-0.2,1.6-0.6,2-1.5
			C53.6,47.8,52.8,48.2,51.9,48.4z"/>
		<path d="M49.1,37.8c-0.5,0.2-1,0.4-1.4,0.8c-0.1,0.1-0.2,0.2-0.3,0.3c0.1-0.1,0.2-0.2,0.3-0.3C48.1,38.3,48.6,38,49.1,37.8z"/>
		<path d="M47.1,39.8c-0.2,0.7-0.4,1.4-0.5,2.1c-0.2,1.1-0.4,2.1-0.3,3.2c-0.1-1.1,0.1-2.2,0.3-3.2C46.7,41.2,46.9,40.5,47.1,39.8z"
			/>
		<path d="M49.3,48.6c-0.2,0-0.5,0-0.7-0.1C48.8,48.6,49,48.6,49.3,48.6z"/>
		<path d="M55.5,40.3c0.1,0.3,0.1,0.6,0.1,0.9C55.6,40.9,55.5,40.6,55.5,40.3z"/>
		<path d="M52.4,37.8c-0.6-0.1-1.1-0.1-1.7-0.2c0,0,0,0,0,0c0,0,0,0,0,0C51.2,37.7,51.8,37.7,52.4,37.8z"/>
		<path d="M54.2,38C54.2,38,54.2,38,54.2,38C54.2,38,54.2,38,54.2,38z"/>
		<path d="M55.2,39.4c0.1,0.3,0.2,0.6,0.2,0.9C55.4,40,55.3,39.7,55.2,39.4z"/>
		<path d="M51.4,30.6c0.1-0.9,0.3-1.8,0.4-2.7c0.4-2.1,0.7-4.2,1.1-6.3c-0.4,2.1-0.7,4.2-1.1,6.3C51.7,28.8,51.5,29.7,51.4,30.6z"/>
		<path d="M50,33c0.1,0,0.2,0.1,0.3,0.1c0.9,0.1,1.8,0.2,2.7,0.2c-0.9-0.1-1.8-0.1-2.7-0.2C50.2,33.1,50.1,33.1,50,33z"/>
		<path d="M56.2,33.2c0.1,0,0.1-0.1,0.2-0.2C56.3,33.1,56.2,33.2,56.2,33.2z"/>
		<path d="M56.2,31.8c0.2,0,0.3,0.2,0.2,0.4C56.5,31.9,56.4,31.8,56.2,31.8z"/>
		<path d="M51.5,31.2c0,0-0.1-0.1-0.1-0.1c0-0.1,0-0.1,0-0.2c0,0.1,0,0.1,0,0.2C51.4,31.2,51.5,31.2,51.5,31.2z"/>
		<path d="M54.1,33.4c0.1,0,0.2,0,0.3,0C54.4,33.4,54.2,33.4,54.1,33.4C54.1,33.4,54.1,33.4,54.1,33.4z"/>
		<path d="M55.6,31.6c0.2,0,0.4,0.1,0.6,0.1C56,31.7,55.8,31.6,55.6,31.6c-1.3-0.2-2.5-0.3-3.8-0.5c0,0-0.1,0-0.1,0c0,0,0.1,0,0.1,0
			C53.1,31.3,54.4,31.5,55.6,31.6z"/>
	</g>
</g>
</svg>
