<?xml version="1.0" encoding="utf-8"?>
<!-- Generator: Adobe Illustrator 16.0.0, SVG Export Plug-In . SVG Version: 6.00 Build 0)  -->
<!DOCTYPE svg PUBLIC "-//W3C//DTD SVG 1.1//EN" "http://www.w3.org/Graphics/SVG/1.1/DTD/svg11.dtd">
<svg version="1.1" xmlns="http://www.w3.org/2000/svg" xmlns:xlink="http://www.w3.org/1999/xlink" x="0px" y="0px" width="80px"
	 height="80px" viewBox="0 0 80 80" enable-background="new 0 0 80 80" xml:space="preserve">
<g id="Layer_1_copy_6">
	<g>
		<path fill="#FFFFFF" d="M41.931,40.266l-0.082,0.107c-0.135,0.202-0.415,0.633-0.736,1.123c0.331-0.051,0.435-0.051,0.818-0.051
			h0.496c0.146,0,0.189,0.001,0.3,0.03v-1.21c0-0.619,0.014-0.826,0.124-1.44l-0.082-0.029
			C42.455,39.456,42.342,39.661,41.931,40.266z"/>
		<path fill="#FFFFFF" d="M14.457,37.969c0-0.761-0.693-0.761-1.089-0.761h-0.909v1.562h0.909
			C13.721,38.771,14.457,38.771,14.457,37.969z"/>
		<path fill="#FFFFFF" d="M42.728,43.785c0-0.12,0.004-0.162,0.041-0.296c-0.017,0.004-0.026,0.007-0.041,0.01
			C42.728,43.608,42.728,43.707,42.728,43.785z"/>
		<path fill="#FFFFFF" d="M22.778,37.037c-1.776,0-2.745,1.522-2.745,2.935c0,1.549,1.047,2.988,2.773,2.988
			c1.822,0,2.705-1.656,2.705-2.947C25.511,38.708,24.628,37.037,22.778,37.037z"/>
		<path fill="#FFFFFF" d="M13.667,40.916h-1.209v1.835h1.209c0.326,0,1.277,0,1.277-0.964
			C14.944,40.916,14.075,40.916,13.667,40.916z"/>
		<path fill="#FFFFFF" d="M40,0C17.908,0,0,17.908,0,40s17.908,40,40,40s40-17.908,40-40S62.092,0,40,0z M16.479,44.137
			c-0.925,0.774-1.589,0.867-3.289,0.867H10V34.952h3.099c1.696,0,2.483,0.164,3.218,0.979c0.448,0.459,0.597,1.071,0.597,1.656
			c0,0.775-0.352,1.562-1.168,2.028c1.616,0.566,1.656,1.912,1.656,2.334C17.402,42.751,17.09,43.635,16.479,44.137z M22.753,45.215
			c-3.167,0-5.285-2.513-5.285-5.095c0-0.664,0.096-1.412,0.396-2.145c0.526-1.308,2.09-3.19,4.902-3.19
			c3.096,0,5.312,2.415,5.312,5.213C28.078,42.797,25.877,45.215,22.753,45.215z M45.223,45.024h-2.496v-1.042
			c0,0.005,0,0.004,0-0.003v-0.148v-0.332c-0.11,0.027-0.154,0.029-0.3,0.029h-2.673c-0.083,0.118-0.153,0.213-0.2,0.271
			l-0.831,1.225h-1.801h-1.219h-1.007l-3.828-6.112l-0.025,0.016l0.069,6.097h-2.464V34.972h2.217l3.882,6.317l0.027-0.029
			l-0.107-6.288h2.456v8.317l5.847-8.321h2.454V45.024z M51.349,37.228h-3.03v1.562h2.921v2.255h-2.921v3.979H45.86V34.972h5.488
			V37.228z M54.552,45.024h-2.569V34.972h2.569V45.024z M58.735,45.024H55.22V34.972h3.326c1.127,0,3.141,0,4.442,1.873
			c0.693,0.953,0.923,2.025,0.923,3.127C63.911,42.719,62.555,45.024,58.735,45.024z M69.902,38.79v2.257h-3.028v1.725H70v2.253
			h-5.585V34.972H70v2.256h-3.126v1.562H69.902z"/>
		<path fill="#FFFFFF" d="M58.899,37.228h-1.116v5.544h1.104c1.916,0,2.46-1.332,2.46-2.759c0-0.571-0.123-1.289-0.49-1.862
			C60.556,37.703,60.039,37.228,58.899,37.228z"/>
		<path d="M15.746,39.615c0.816-0.466,1.168-1.253,1.168-2.028c0-0.585-0.149-1.197-0.597-1.656
			c-0.735-0.814-1.522-0.979-3.218-0.979H10v10.052h3.19c1.7,0,2.364-0.093,3.289-0.867c0.611-0.502,0.922-1.386,0.922-2.188
			C17.402,41.527,17.362,40.182,15.746,39.615z M12.458,37.208h0.909c0.396,0,1.089,0,1.089,0.761c0,0.802-0.735,0.802-1.089,0.802
			h-0.909V37.208z M13.667,42.751h-1.209v-1.835h1.209c0.408,0,1.277,0,1.277,0.871C14.944,42.751,13.993,42.751,13.667,42.751z"/>
		<path d="M22.766,34.785c-2.812,0-4.375,1.883-4.902,3.19c-0.3,0.732-0.396,1.48-0.396,2.145c0,2.582,2.118,5.095,5.285,5.095
			c3.124,0,5.325-2.418,5.325-5.217C28.078,37.2,25.862,34.785,22.766,34.785z M22.807,42.96c-1.727,0-2.773-1.439-2.773-2.988
			c0-1.412,0.968-2.935,2.745-2.935c1.851,0,2.733,1.671,2.733,2.976C25.511,41.304,24.628,42.96,22.807,42.96z"/>
		<path d="M36.921,43.289v-8.317h-2.456l0.107,6.288l-0.027,0.029l-3.882-6.317h-2.217v10.053h2.464l-0.069-6.097l0.025-0.016
			l3.828,6.112h1.007h1.219h1.801l0.831-1.225c0.047-0.059,0.116-0.153,0.2-0.271h2.673c0.146,0,0.189-0.002,0.3-0.029v0.332v0.148
			c0,0.007,0,0.008,0,0.003v1.042h2.496V34.968h-2.454L36.921,43.289z M42.728,43.785c0-0.078,0-0.177,0-0.286
			c0.015-0.003,0.024-0.006,0.041-0.01C42.731,43.623,42.728,43.665,42.728,43.785z M42.727,40.266v1.21
			c-0.11-0.029-0.154-0.03-0.3-0.03h-0.496c-0.384,0-0.487,0-0.818,0.051c0.321-0.49,0.602-0.921,0.736-1.123l0.082-0.107
			c0.411-0.604,0.524-0.81,0.838-1.47l0.082,0.029C42.74,39.439,42.727,39.646,42.727,40.266z"/>
		<polygon points="45.86,45.024 48.318,45.024 48.318,41.045 51.239,41.045 51.239,38.79 48.318,38.79 48.318,37.228 51.349,37.228 
			51.349,34.972 45.86,34.972 		"/>
		<rect x="51.982" y="34.972" width="2.569" height="10.053"/>
		<path d="M58.546,34.972H55.22v10.053h3.516c3.819,0,5.176-2.306,5.176-5.053c0-1.102-0.229-2.174-0.923-3.127
			C61.687,34.972,59.673,34.972,58.546,34.972z M58.887,42.771h-1.104v-5.544h1.116c1.14,0,1.656,0.476,1.957,0.923
			c0.367,0.573,0.49,1.291,0.49,1.862C61.347,41.439,60.803,42.771,58.887,42.771z"/>
		<polygon points="70,37.228 70,34.972 64.415,34.972 64.415,45.024 70,45.024 70,42.771 66.874,42.771 66.874,41.047 
			69.902,41.047 69.902,38.79 66.874,38.79 66.874,37.228 		"/>
	</g>
</g>
</svg>
