<?xml version="1.0" encoding="utf-8"?>
<!-- Generator: Adobe Illustrator 16.0.0, SVG Export Plug-In . SVG Version: 6.00 Build 0)  -->
<!DOCTYPE svg PUBLIC "-//W3C//DTD SVG 1.1//EN" "http://www.w3.org/Graphics/SVG/1.1/DTD/svg11.dtd">
<svg version="1.1" xmlns="http://www.w3.org/2000/svg" xmlns:xlink="http://www.w3.org/1999/xlink" x="0px" y="0px" width="80px"
	 height="80px" viewBox="0 0 80 80" enable-background="new 0 0 80 80" xml:space="preserve">
<g id="Layer_1">
	<g>
		<path fill="#FFFFFF" d="M45.534,35.567c-1.026-1.281-2.487-2.201-4.158-2.533c-0.448-0.088-0.911-0.136-1.384-0.136
			c-0.536,0-1.057,0.061-1.559,0.173c-1.694,0.381-3.16,1.367-4.159,2.722v-0.006c-0.87,1.179-1.385,2.636-1.385,4.214
			c0,1.577,0.515,3.033,1.385,4.213v-0.006c0.999,1.354,2.465,2.341,4.159,2.721v0.002c0.502,0.112,1.023,0.172,1.559,0.172
			c0.473,0,0.936-0.048,1.384-0.137c1.671-0.331,3.132-1.251,4.158-2.532v0.005c0.975-1.217,1.56-2.76,1.56-4.438
			c0-1.681-0.585-3.223-1.56-4.438V35.567z M37.931,38.331v1.594h-2.082c0,0.03-0.002,0.06-0.002,0.09
			c0,1.209,0.477,2.358,1.341,3.229l-1.132,1.123c-1.162-1.174-1.802-2.72-1.802-4.353c0-1.53,0.565-2.997,1.591-4.131l0.237-0.262
			h3.188v1.594h-2.463c-0.266,0.342-0.479,0.718-0.637,1.115H37.931z M42.665,42.793c0.652,0,1.268-0.455,1.646-1.213l1.427,0.712
			c-0.655,1.312-1.804,2.096-3.072,2.096c-1.981,0-3.592-1.962-3.592-4.373s1.611-4.372,3.592-4.372
			c1.269,0,2.417,0.781,3.072,2.093l-1.427,0.713c-0.378-0.76-0.993-1.213-1.646-1.213c-1.082,0-1.998,1.273-1.998,2.779
			C40.667,41.521,41.583,42.793,42.665,42.793z"/>
		<path fill="#FFFFFF" d="M40,14.093c-14.286,0-25.907,11.622-25.907,25.908c0,14.284,11.622,25.906,25.907,25.906
			c14.284,0,25.906-11.622,25.906-25.906C65.906,25.715,54.284,14.093,40,14.093z M62.97,43.875c-0.404,2.413-1.18,4.738-2.31,6.91
			c-1.096,2.099-2.497,4.017-4.172,5.702c-0.079,0.08-0.188,0.125-0.303,0.126c-0.111,0-0.221-0.045-0.301-0.125l-2.34-2.339
			c-0.165-0.167-0.165-0.436,0-0.602c2.459-2.474,4.188-5.543,5.019-8.894l-8.242-4.275c-0.143-0.073-0.231-0.22-0.231-0.378
			c0-0.159,0.089-0.306,0.231-0.378l8.242-4.276c-1.627-6.568-6.566-11.77-13.029-13.736v11.69c0.211,0.174,0.411,0.357,0.605,0.552
			c1.643,1.642,2.547,3.825,2.547,6.148c0,2.322-0.904,4.506-2.547,6.147c-0.194,0.195-0.395,0.379-0.605,0.552v3.099
			c0,0.027-0.001,0.053-0.005,0.078v12.49c0,0.199-0.139,0.371-0.331,0.416c-0.466,0.107-0.935,0.201-1.398,0.278l-1.927,0.324
			c-0.023,0.004-0.048,0.006-0.071,0.006c-0.1,0-0.198-0.036-0.276-0.101c-0.094-0.083-0.149-0.2-0.149-0.325V48.587
			c-0.454,0.071-0.917,0.108-1.384,0.108c-0.528,0-1.049-0.047-1.559-0.139v14.409c0,0.125-0.055,0.242-0.15,0.325
			c-0.078,0.064-0.175,0.101-0.275,0.101c-0.022,0-0.047-0.002-0.071-0.006l-1.926-0.324c-2.412-0.402-4.734-1.182-6.904-2.313
			c-2.118-1.104-4.051-2.523-5.744-4.22c-1.694-1.695-3.111-3.629-4.214-5.748c-1.129-2.17-1.906-4.493-2.309-6.905l-0.197-1.187
			c-0.03-0.182,0.06-0.363,0.224-0.448l4.317-2.239l-4.317-2.24c-0.164-0.085-0.254-0.267-0.224-0.448l0.197-1.187
			c0.403-2.412,1.18-4.734,2.309-6.905c1.103-2.12,2.52-4.054,4.214-5.749c1.692-1.694,3.625-3.114,5.744-4.22
			c2.169-1.13,4.493-1.909,6.904-2.313l1.926-0.323c0.024-0.004,0.048-0.006,0.071-0.006c0.1,0,0.197,0.035,0.275,0.101
			c0.096,0.082,0.15,0.2,0.15,0.326v14.407c0.51-0.092,1.03-0.138,1.559-0.138c0.467,0,0.93,0.036,1.384,0.108V17.036
			c0-0.126,0.056-0.244,0.149-0.326c0.078-0.065,0.177-0.101,0.276-0.101c0.023,0,0.048,0.003,0.071,0.006l1.927,0.323
			c2.412,0.404,4.733,1.184,6.903,2.313c2.119,1.105,4.051,2.525,5.744,4.22c1.693,1.695,3.111,3.629,4.215,5.749
			c1.128,2.171,1.905,4.493,2.308,6.905l0.197,1.187c0.03,0.182-0.061,0.363-0.224,0.448l-4.319,2.24l4.319,2.239
			c0.163,0.085,0.254,0.267,0.224,0.448L62.97,43.875z"/>
		<path fill="#FFFFFF" d="M31.295,40.001c0-2.323,0.904-4.507,2.546-6.148c0.14-0.142,0.284-0.275,0.432-0.404V21.61
			c-6.461,1.967-11.401,7.168-13.028,13.736l8.242,4.276c0.142,0.072,0.23,0.219,0.23,0.378c0,0.158-0.088,0.305-0.23,0.378
			l-8.242,4.275c1.626,6.568,6.567,11.769,13.028,13.735V46.553c-0.148-0.13-0.292-0.264-0.432-0.404
			C32.2,44.507,31.295,42.323,31.295,40.001z"/>
		<path fill="#FFFFFF" d="M40,0C17.908,0,0,17.908,0,40s17.908,40,40,40s40-17.908,40-40S62.092,0,40,0z M67.641,51.679
			c-1.511,3.572-3.674,6.78-6.428,9.535c-2.755,2.754-5.964,4.918-9.535,6.428c-3.699,1.565-7.63,2.357-11.678,2.357
			c-4.049,0-7.978-0.792-11.678-2.357c-3.572-1.51-6.781-3.674-9.535-6.428c-2.755-2.755-4.918-5.963-6.429-9.535
			C10.793,47.978,10,44.05,10,40c0-4.049,0.793-7.978,2.358-11.678c1.511-3.572,3.674-6.78,6.429-9.534
			c2.754-2.756,5.963-4.918,9.535-6.429c3.7-1.565,7.629-2.358,11.678-2.358c4.048,0,7.979,0.793,11.678,2.358
			c3.571,1.511,6.78,3.673,9.535,6.429c2.754,2.754,4.917,5.962,6.428,9.534C69.206,32.022,70,35.951,70,40
			C70,44.05,69.206,47.978,67.641,51.679z"/>
		<path fill="#FFFFFF" d="M66.173,28.943c-1.43-3.383-3.479-6.42-6.088-9.028c-2.608-2.608-5.646-4.657-9.028-6.088
			c-3.503-1.481-7.223-2.232-11.057-2.232s-7.555,0.751-11.057,2.232c-3.382,1.431-6.421,3.479-9.03,6.088
			c-2.608,2.608-4.656,5.646-6.087,9.028c-1.48,3.502-2.232,7.223-2.232,11.057c0,3.835,0.751,7.555,2.232,11.056
			c1.431,3.385,3.479,6.422,6.087,9.03c2.609,2.608,5.647,4.658,9.03,6.087c3.502,1.482,7.222,2.233,11.057,2.233
			s7.554-0.751,11.057-2.233c3.383-1.429,6.42-3.479,9.028-6.087c2.609-2.608,4.658-5.646,6.088-9.03
			c1.481-3.501,2.232-7.221,2.232-11.056C68.405,36.166,67.654,32.446,66.173,28.943z M40,67.501
			c-15.165,0-27.501-12.336-27.501-27.5S24.835,12.5,40,12.5c15.164,0,27.501,12.337,27.501,27.501S55.164,67.501,40,67.501z"/>
		<path d="M58.624,40.001l4.319-2.24c0.163-0.085,0.254-0.267,0.224-0.448l-0.197-1.187c-0.402-2.412-1.18-4.734-2.308-6.905
			c-1.104-2.12-2.521-4.054-4.215-5.749c-1.693-1.694-3.625-3.114-5.744-4.22c-2.17-1.13-4.491-1.909-6.903-2.313l-1.927-0.323
			c-0.023-0.003-0.048-0.006-0.071-0.006c-0.1,0-0.198,0.035-0.276,0.101c-0.094,0.082-0.149,0.2-0.149,0.326v14.378
			c-0.454-0.072-0.917-0.108-1.384-0.108c-0.528,0-1.049,0.046-1.559,0.138V17.036c0-0.126-0.055-0.244-0.15-0.326
			c-0.078-0.065-0.175-0.101-0.275-0.101c-0.022,0-0.047,0.002-0.071,0.006l-1.926,0.323c-2.411,0.404-4.734,1.184-6.904,2.313
			c-2.118,1.105-4.051,2.525-5.744,4.22c-1.694,1.695-3.111,3.629-4.214,5.749c-1.129,2.171-1.906,4.493-2.309,6.905l-0.197,1.187
			c-0.03,0.182,0.06,0.363,0.224,0.448l4.317,2.24l-4.317,2.239c-0.164,0.085-0.254,0.267-0.224,0.448l0.197,1.187
			c0.403,2.412,1.18,4.735,2.309,6.905c1.103,2.119,2.52,4.053,4.214,5.748c1.692,1.696,3.625,3.116,5.744,4.22
			c2.169,1.132,4.492,1.911,6.904,2.313l1.926,0.324c0.024,0.004,0.048,0.006,0.071,0.006c0.1,0,0.197-0.036,0.275-0.101
			c0.096-0.083,0.15-0.2,0.15-0.325V48.557c0.51,0.092,1.03,0.139,1.559,0.139c0.467,0,0.93-0.037,1.384-0.108v14.379
			c0,0.125,0.056,0.242,0.149,0.325c0.078,0.064,0.177,0.101,0.276,0.101c0.023,0,0.048-0.002,0.071-0.006l1.927-0.324
			c0.464-0.077,0.933-0.171,1.398-0.278c0.192-0.045,0.331-0.217,0.331-0.416v-12.49c0.004-0.025,0.005-0.051,0.005-0.078V46.7
			c0.211-0.173,0.411-0.356,0.605-0.552c1.643-1.642,2.547-3.825,2.547-6.147c0-2.323-0.904-4.507-2.547-6.148
			c-0.194-0.194-0.395-0.378-0.605-0.552V21.61c6.463,1.967,11.402,7.168,13.029,13.736l-8.242,4.276
			c-0.143,0.072-0.231,0.219-0.231,0.378c0,0.158,0.089,0.305,0.231,0.378l8.242,4.275c-0.83,3.351-2.56,6.42-5.019,8.894
			c-0.165,0.166-0.165,0.435,0,0.602l2.34,2.339c0.08,0.08,0.189,0.125,0.301,0.125c0.114-0.001,0.224-0.046,0.303-0.126
			c1.675-1.686,3.076-3.604,4.172-5.702c1.13-2.172,1.905-4.497,2.31-6.91l0.197-1.187c0.03-0.182-0.061-0.363-0.224-0.448
			L58.624,40.001z M34.274,58.39c-6.461-1.967-11.401-7.167-13.028-13.735l8.242-4.275c0.142-0.073,0.23-0.22,0.23-0.378
			c0-0.159-0.088-0.306-0.23-0.378l-8.242-4.276c1.626-6.568,6.567-11.77,13.028-13.736v11.838
			c-0.148,0.129-0.292,0.263-0.432,0.404c-1.642,1.642-2.546,3.825-2.546,6.148c0,2.322,0.904,4.506,2.546,6.147
			c0.14,0.141,0.284,0.274,0.432,0.404V58.39z M47.094,40.001c0,1.678-0.585,3.221-1.56,4.438v-0.005
			c-1.026,1.281-2.487,2.201-4.158,2.532c-0.448,0.089-0.911,0.137-1.384,0.137c-0.536,0-1.057-0.06-1.559-0.172v-0.002
			c-1.694-0.38-3.16-1.366-4.159-2.721v0.006c-0.87-1.18-1.385-2.636-1.385-4.213c0-1.578,0.515-3.035,1.385-4.214v0.006
			c0.999-1.354,2.465-2.341,4.159-2.722c0.502-0.112,1.023-0.173,1.559-0.173c0.473,0,0.936,0.048,1.384,0.136
			c1.671,0.332,3.132,1.252,4.158,2.533v-0.005C46.509,36.778,47.094,38.32,47.094,40.001z"/>
		<path d="M40,12.5c-15.165,0-27.501,12.337-27.501,27.501s12.336,27.5,27.501,27.5c15.164,0,27.501-12.336,27.501-27.5
			S55.164,12.5,40,12.5z M40,65.907c-14.286,0-25.907-11.622-25.907-25.906c0-14.286,11.622-25.908,25.907-25.908
			c14.284,0,25.906,11.622,25.906,25.908C65.906,54.285,54.284,65.907,40,65.907z"/>
		<path d="M42.665,37.235c0.652,0,1.268,0.453,1.646,1.213l1.427-0.713c-0.655-1.312-1.804-2.093-3.072-2.093
			c-1.981,0-3.592,1.961-3.592,4.372s1.611,4.373,3.592,4.373c1.269,0,2.417-0.784,3.072-2.096l-1.427-0.712
			c-0.378,0.758-0.993,1.213-1.646,1.213c-1.082,0-1.998-1.271-1.998-2.778C40.667,38.509,41.583,37.235,42.665,37.235z"/>
		<path d="M39.269,37.216v-1.594h-3.188l-0.237,0.262c-1.026,1.134-1.591,2.601-1.591,4.131c0,1.633,0.64,3.179,1.802,4.353
			l1.132-1.123c-0.864-0.871-1.341-2.021-1.341-3.229c0-0.03,0.002-0.06,0.002-0.09h2.082v-1.594h-1.763
			c0.158-0.397,0.371-0.773,0.637-1.115H39.269z"/>
		<path d="M67.641,28.322c-1.511-3.572-3.674-6.78-6.428-9.534c-2.755-2.756-5.964-4.918-9.535-6.429
			c-3.699-1.565-7.63-2.358-11.678-2.358c-4.049,0-7.978,0.793-11.678,2.358c-3.572,1.511-6.781,3.673-9.535,6.429
			c-2.755,2.754-4.918,5.962-6.429,9.534C10.793,32.022,10,35.951,10,40c0,4.05,0.793,7.978,2.358,11.679
			c1.511,3.572,3.674,6.78,6.429,9.535c2.754,2.754,5.963,4.918,9.535,6.428c3.7,1.565,7.629,2.357,11.678,2.357
			c4.048,0,7.979-0.792,11.678-2.357c3.571-1.51,6.78-3.674,9.535-6.428c2.754-2.755,4.917-5.963,6.428-9.535
			C69.206,47.978,70,44.05,70,40C70,35.951,69.206,32.022,67.641,28.322z M66.173,51.056c-1.43,3.385-3.479,6.422-6.088,9.03
			c-2.608,2.608-5.646,4.658-9.028,6.087c-3.503,1.482-7.223,2.233-11.057,2.233s-7.555-0.751-11.057-2.233
			c-3.382-1.429-6.421-3.479-9.03-6.087c-2.608-2.608-4.656-5.646-6.087-9.03c-1.48-3.501-2.232-7.221-2.232-11.056
			c0-3.834,0.751-7.555,2.232-11.057c1.431-3.383,3.479-6.42,6.087-9.028c2.609-2.608,5.647-4.657,9.03-6.088
			c3.502-1.481,7.222-2.232,11.057-2.232s7.554,0.751,11.057,2.232c3.383,1.431,6.42,3.479,9.028,6.088
			c2.609,2.608,4.658,5.646,6.088,9.028c1.481,3.503,2.232,7.223,2.232,11.057C68.405,43.835,67.654,47.555,66.173,51.056z"/>
	</g>
</g>
</svg>
