<?xml version="1.0" encoding="utf-8"?>
<!-- Generator: Adobe Illustrator 19.2.1, SVG Export Plug-In . SVG Version: 6.00 Build 0)  -->
<svg width="80px" height="80px" version="1.1" xmlns="http://www.w3.org/2000/svg" xmlns:xlink="http://www.w3.org/1999/xlink" x="0px" y="0px" viewBox="0 0 80 80" style="enable-background:new 0 0 80 80;" xml:space="preserve">
<style type="text/css">
	.st0{display:none;}
	.st1{display:inline;}
	.st2{fill:#FFFFFF;}
	.st3{display:inline;fill:#FFFFFF;}
	.st4{clip-path:url(#SVGID_2_);}
	.st5{fill:#F2F2F2;}
	.st6{fill:#010101;}
	.st7{display:inline;fill-rule:evenodd;clip-rule:evenodd;fill:none;}
</style>
<g id="Layer_1_copy_11">
	<g>
		<path class="st2" d="M33.9,41.5c1.3,0.7,2.1-3.2,2.1-4c0-0.6-0.2-0.8-0.5-0.8c-0.7,0-1,0.8-1.3,1.4c-0.3,0.7-0.6,1.8-0.6,2.7
			C33.6,41.1,33.6,41.4,33.9,41.5z"/>
		<path class="st2" d="M59.5,41.5c1.3,0.7,2.1-3.2,2.1-4c0-0.6-0.2-0.8-0.5-0.8c-0.7,0-1,0.8-1.3,1.4c-0.3,0.7-0.6,1.8-0.6,2.7
			C59.2,41.1,59.3,41.4,59.5,41.5z"/>
		<path class="st2" d="M23.3,47.3h1.4c0.6,0,0.8-0.4,0.8-0.5c0.3-0.7,2.7-9.3,2.7-9.3c0.2-0.7-0.8-0.6-0.8-0.6h-1.2
			c-0.1,0-0.3,0-0.4,0c-0.1,0-0.2,0.1-0.3,0.3c-0.1,0.3-2.8,9.4-2.8,9.7C22.9,46.9,22.7,47.3,23.3,47.3z"/>
		<path class="st2" d="M40,0C17.9,0,0,17.9,0,40c0,22.1,17.9,40,40,40s40-17.9,40-40C80,17.9,62.1,0,40,0z M10,52.8V27.2h60v25.6H10
			z"/>
		<path class="st2" d="M12.4,50.2h55.2V29.8H12.4V50.2z M64.9,39.8h1c0,0-2.6,8.3-2.9,9.1H29.2c0,0,1.5-5,1.7-5.6H62
			C63.7,43.2,64.7,40.3,64.9,39.8z M58.9,37.6c0.6-0.7,1.4-1.2,2.3-1.2c0.5,0,1,0.2,1.4,0.5c0.3,0.4,0.5,0.9,0.5,1.4
			c0,0.9-0.5,1.8-1.1,2.5c-0.6,0.7-1.3,1.1-2.3,1.1c-0.5,0-1-0.2-1.4-0.6c-0.4-0.4-0.4-0.8-0.4-1.3C57.9,39.2,58.3,38.3,58.9,37.6z
			 M51.6,37.1v-0.3c0.8-0.1,1.6-0.2,2.3-0.3l-0.7,2.2l0,0c0.5-0.8,1.3-2.2,2.4-2.2c0.6,0,1.1,0.5,0.9,1.2l-1,3.3
			c0,0.2,0.1,0.3,0.3,0.2c0.3-0.2,0.5-0.6,0.7-0.9l0.3,0.2c-0.4,0.7-1,1.5-1.9,1.5c-0.6,0-0.9-0.5-0.7-1.3l1-3.1
			c0-0.2-0.1-0.3-0.3-0.3c-0.6,0-1.4,1.5-1.8,2.4c-0.3,0.7-0.5,1.4-0.6,2.1h-1.4l1.2-4.4C52.4,37.1,51.9,37.1,51.6,37.1z M49.9,33.9
			c0.4,0,0.8,0.4,0.8,0.8c0,0.4-0.3,0.8-0.8,0.8c-0.4,0-0.8-0.4-0.8-0.8C49.1,34.3,49.5,33.9,49.9,33.9z M47.7,40.7l0.8-3
			c0.2-0.6,0-0.7-0.6-0.7v-0.3c0.6-0.1,1.4-0.2,2.3-0.3l-1.1,4.2c0,0.1,0,0.2,0,0.4c0.1,0.1,0.2,0.1,0.4,0c0.3-0.3,0.5-0.6,0.7-0.9
			l0.3,0.2c-0.5,0.7-1,1.6-2,1.6C48,42,47.4,41.6,47.7,40.7z M38.7,37.1v-0.3c0.7-0.1,1.4-0.2,2.3-0.3l-0.7,2.2l0,0
			c0.5-0.8,1.3-2.2,2.4-2.2c0.7,0,0.9,0.6,0.5,1.9l0,0c0.4-0.7,1.2-1.9,2.1-1.9c0.5,0,1.3,0.1,0.9,1.6l-0.9,3
			c-0.1,0.3,0.4,0.3,1-0.7l0.3,0.2c-0.4,0.7-1,1.5-1.8,1.5c-0.6,0-1-0.6-0.8-1.2l0.9-2.9c0.1-0.3,0.2-0.5-0.2-0.5
			c-0.5,0-1.2,1.2-1.4,1.6c-0.3,0.6-0.6,1.5-1,2.9H41l1.2-3.9c0.1-0.6,0-0.7-0.3-0.5c-0.5,0.3-1,1-1.6,2.2c-0.3,0.7-0.5,1.5-0.7,2.2
			h-1.4l1.2-4.5C39.4,37.1,39,37,38.7,37.1z M33.2,37.6c0.6-0.7,1.4-1.2,2.3-1.2c0.5,0,1,0.2,1.4,0.5c0.4,0.4,0.5,0.9,0.5,1.4
			c0,0.9-0.5,1.8-1.1,2.5C35.7,41.6,35,42,34,42c-0.5,0-1-0.2-1.4-0.6c-0.4-0.4-0.4-0.8-0.4-1.3C32.2,39.2,32.7,38.3,33.2,37.6z
			 M15,32.8c0.3-0.4,1.4-1.7,1.4-1.7c0,0,1.2,0,1.2,0c-0.3,0.4-1.2,1.5-1.3,1.7c-0.1,0.4,0.9,0.3,0.9,0.3l12.9,0
			c0.4,0,1.5,0.4,1.8,1.1c0.3,0.6,0.1,1.2,0.1,1.2c0,0.1-3.4,11.2-3.5,11.6c-0.7,1.6-2,1.8-2.1,1.8l-8.2,0c0,0,3.4-11.7,3.4-11.8
			c0-0.3-0.4-0.2-0.5-0.2h-4.6c-0.1,0-1.8,0.2-2.4-1.1C13.8,35,14.4,33.5,15,32.8z"/>
		<path d="M10,27.2v25.6h60V27.2H10z M67.6,50.2H12.4V29.8h55.2V50.2z"/>
		<path d="M30.9,43.2c-0.2,0.7-1.7,5.6-1.7,5.6H63c0.3-0.8,2.9-9.1,2.9-9.1h-1c-0.2,0.5-1.2,3.4-2.9,3.4H30.9z"/>
		<path d="M34,42c1,0,1.7-0.4,2.3-1.1c0.6-0.7,1.1-1.6,1.1-2.5c0-0.5-0.1-1-0.5-1.4c-0.3-0.4-0.9-0.5-1.4-0.5
			c-0.9,0-1.7,0.5-2.3,1.2c-0.5,0.7-1,1.6-1,2.4c0,0.5,0.1,0.9,0.4,1.3C32.9,41.7,33.5,42,34,42z M34.2,38.1
			c0.2-0.5,0.6-1.4,1.3-1.4c0.3,0,0.5,0.1,0.5,0.8c0,0.8-0.8,4.6-2.1,4c-0.3-0.2-0.3-0.4-0.3-0.7C33.6,39.9,33.9,38.8,34.2,38.1z"/>
		<path d="M39.6,41.8c0.2-0.7,0.4-1.5,0.7-2.2c0.5-1.3,1.1-1.9,1.6-2.2c0.3-0.2,0.5,0,0.3,0.5L41,41.8h1.4c0.4-1.4,0.7-2.2,1-2.9
			c0.2-0.4,0.9-1.6,1.4-1.6c0.4,0,0.3,0.3,0.2,0.5l-0.9,2.9c-0.2,0.6,0.2,1.2,0.8,1.2c0.9,0,1.5-0.8,1.8-1.5l-0.3-0.2
			c-0.6,1-1.1,1-1,0.7l0.9-3c0.4-1.5-0.4-1.6-0.9-1.6c-0.9,0-1.7,1.2-2.1,1.9l0,0c0.4-1.2,0.2-1.9-0.5-1.9c-1.1,0-2,1.4-2.4,2.2l0,0
			l0.7-2.2c-0.9,0.2-1.6,0.3-2.3,0.3v0.3c0.2,0,0.7,0,0.6,0.3l-1.2,4.5H39.6z"/>
		<path d="M48.4,42c1,0,1.5-0.9,2-1.6l-0.3-0.2c-0.2,0.3-0.4,0.6-0.7,0.9c-0.2,0.1-0.3,0.1-0.4,0c0-0.1,0-0.3,0-0.4l1.1-4.2
			c-0.9,0.1-1.8,0.2-2.3,0.3v0.3c0.6,0,0.8,0.1,0.6,0.7l-0.8,3C47.4,41.6,48,42,48.4,42z"/>
		<path d="M49.9,35.5c0.4,0,0.8-0.4,0.8-0.8c0-0.4-0.4-0.8-0.8-0.8c-0.4,0-0.8,0.4-0.8,0.8C49.1,35.1,49.4,35.5,49.9,35.5z"/>
		<path d="M52.5,41.8c0.2-0.7,0.4-1.4,0.6-2.1c0.4-1,1.3-2.4,1.8-2.4c0.2,0,0.3,0.1,0.3,0.3l-1,3.1C54.1,41.4,54.4,42,55,42
			c0.9,0,1.5-0.8,1.9-1.5l-0.3-0.2c-0.2,0.3-0.4,0.6-0.7,0.9c-0.2,0.1-0.3,0-0.3-0.2l1-3.3c0.2-0.7-0.3-1.2-0.9-1.2
			c-1.1,0-1.9,1.4-2.4,2.2l0,0l0.7-2.2c-0.7,0.1-1.5,0.2-2.3,0.3v0.3c0.3,0,0.7,0,0.6,0.3l-1.2,4.4H52.5z"/>
		<path d="M59.7,42c1,0,1.7-0.4,2.3-1.1c0.6-0.7,1.1-1.6,1.1-2.5c0-0.5-0.1-1-0.5-1.4c-0.4-0.4-0.9-0.5-1.4-0.5
			c-0.9,0-1.7,0.5-2.3,1.2c-0.5,0.7-1,1.6-1,2.4c0,0.5,0.1,0.9,0.4,1.3C58.6,41.7,59.2,42,59.7,42z M59.8,38.1
			c0.2-0.5,0.6-1.4,1.3-1.4c0.3,0,0.5,0.1,0.5,0.8c0,0.8-0.8,4.6-2.1,4c-0.3-0.2-0.3-0.4-0.3-0.7C59.2,39.9,59.6,38.8,59.8,38.1z"/>
		<path d="M16.7,36.9h4.6c0.1,0,0.5-0.1,0.5,0.2c0,0.1-3.4,11.8-3.4,11.8l8.2,0c0.1,0,1.4-0.2,2.1-1.8c0.1-0.3,3.5-11.5,3.5-11.6
			c0,0,0.2-0.6-0.1-1.2c-0.3-0.7-1.5-1.1-1.8-1.1l-12.9,0c0,0-1,0.1-0.9-0.3c0-0.2,0.9-1.3,1.3-1.7c0,0-1.2,0-1.2,0
			c0,0-1.1,1.3-1.4,1.7c-0.6,0.7-1.2,2.2-0.7,2.9C14.9,37,16.6,36.9,16.7,36.9z M22.9,46.8c0-0.3,2.7-9.4,2.8-9.7
			c0.1-0.1,0.2-0.2,0.3-0.3c0.1,0,0.3,0,0.4,0h1.2c0,0,1-0.1,0.8,0.6c0,0-2.4,8.6-2.7,9.3c0,0.1-0.2,0.5-0.8,0.5h-1.4
			C22.7,47.3,22.9,46.9,22.9,46.8z"/>
	</g>
</g>
</svg>
