<?xml version="1.0" encoding="utf-8"?>
<!-- Generator: Adobe Illustrator 16.0.0, SVG Export Plug-In . SVG Version: 6.00 Build 0)  -->
<!DOCTYPE svg PUBLIC "-//W3C//DTD SVG 1.1//EN" "http://www.w3.org/Graphics/SVG/1.1/DTD/svg11.dtd">
<svg version="1.1" xmlns="http://www.w3.org/2000/svg" xmlns:xlink="http://www.w3.org/1999/xlink" x="0px" y="0px" width="80px"
	 height="80px" viewBox="0 0 80 80" enable-background="new 0 0 80 80" xml:space="preserve">
<g id="Layer_1_copy_8">
	<g>
		<path fill="#FFFFFF" d="M40,0C17.908,0,0,17.908,0,40s17.908,40,40,40s40-17.908,40-40S62.092,0,40,0z M23.615,44.077
			c-2.685,0-5.37,0-8.055,0v2.803h-2.824c0-2.826,0-5.652,0-8.479H10V35.53c2.685,0,5.37,0,8.055,0v-2.803h2.824
			c0,2.826,0,5.653,0,8.479h2.736V44.077z M28.102,46.88h-2.297v-8.123h-1.425v-1.876h1.425v-1.84c0-1.315,0.958-2.313,2.259-2.313
			h2.203l0.002,2.036l-1.101,0.018c-0.66,0.01-1.065,0.383-1.065,0.982v1.118h2.142v1.876h-2.142V46.88z M36.742,46.88
			c-0.014-0.204-0.027-0.429-0.04-0.633c-1.631,1.335-4.149,1.44-5.665-0.123c-0.502-0.517-0.901-1.136-0.924-2.042
			c-0.049-1.933,1.36-2.825,2.955-3.146c1.205-0.243,2.462-0.301,3.674-0.684c-0.082-1.226-1.067-1.807-2.021-1.756
			c-1.141,0.06-1.446,0.666-1.675,1.542c-0.817-0.068-1.634-0.136-2.451-0.205c0.115-1.203,0.688-2.021,1.502-2.533
			c1.567-0.984,4.632-1.048,6.048,0.235c0.62,0.562,0.967,1.411,0.96,2.641c-0.011,1.942-0.023,3.883-0.034,5.825
			c0.011,0.309,0.081,0.586,0.193,0.878H36.742z M45.458,47.272c-1.112,0-2.127-0.506-2.899-1.338v0.945h-2.297V32.727h2.297v5.214
			c0.772-0.832,1.787-1.338,2.899-1.338c2.417,0,4.377,2.389,4.377,5.335C49.835,44.884,47.875,47.272,45.458,47.272z
			 M56.259,39.261c-1.524-0.031-2.355,0.589-2.928,1.655c-0.438,0.818-0.367,1.564-0.367,2.479v3.539h-2.216v-9.841h2.216v1.278
			c0.982-1.058,1.682-1.678,3.295-1.484V39.261z M59.47,46.935h-2.298V36.98h2.298V46.935z M59.47,35.097h-2.298v-2.37h2.298V35.097
			z M65.415,47.272c-2.778,0-5.032-2.41-5.032-5.383c0-2.973,2.254-5.384,5.032-5.384c1.869,0,3.499,1.09,4.367,2.709l-1.999,1.213
			c-0.436-1.013-1.332-1.708-2.368-1.708c-1.461,0-2.647,1.384-2.647,3.092s1.187,3.093,2.647,3.093c1.079,0,2.007-0.755,2.42-1.837
			L70,44.108C69.21,45.975,67.454,47.272,65.415,47.272z"/>
		<ellipse fill="#FFFFFF" cx="44.977" cy="41.833" rx="2.354" ry="3.182"/>
		<path fill="#FFFFFF" d="M35.211,42.537c-0.855,0.132-1.908,0.094-2.377,0.997c-0.173,0.334-0.174,0.729,0.145,1.131
			c0.618,0.783,2.284,0.632,3.181-0.052c0.8-0.611,0.601-1.649,0.546-2.526C36.21,42.327,35.708,42.46,35.211,42.537z"/>
		<path d="M52.964,38.371v-1.278h-2.216v9.841h2.216v-3.539c0-0.915-0.071-1.661,0.367-2.479c0.572-1.065,1.403-1.686,2.928-1.655
			v-2.375C54.646,36.693,53.946,37.313,52.964,38.371z"/>
		<path d="M67.835,43.068c-0.413,1.082-1.341,1.837-2.42,1.837c-1.461,0-2.647-1.385-2.647-3.093s1.187-3.092,2.647-3.092
			c1.036,0,1.933,0.695,2.368,1.708l1.999-1.213c-0.868-1.619-2.498-2.709-4.367-2.709c-2.778,0-5.032,2.411-5.032,5.384
			c0,2.973,2.254,5.383,5.032,5.383c2.039,0,3.795-1.298,4.585-3.164L67.835,43.068z"/>
		<rect x="57.172" y="32.727" width="2.298" height="2.37"/>
		<rect x="57.172" y="36.98" width="2.298" height="9.955"/>
		<path d="M45.458,36.603c-1.112,0-2.127,0.506-2.899,1.338v-5.214h-2.297V46.88h2.297v-0.945c0.772,0.832,1.787,1.338,2.899,1.338
			c2.417,0,4.377-2.389,4.377-5.334C49.835,38.992,47.875,36.603,45.458,36.603z M44.977,45.015c-1.3,0-2.354-1.426-2.354-3.182
			c0-1.757,1.055-3.182,2.354-3.182c1.301,0,2.355,1.425,2.355,3.182C47.332,43.589,46.277,45.015,44.977,45.015z"/>
		<path d="M39.106,40.177c0.007-1.23-0.34-2.08-0.96-2.641c-1.417-1.283-4.481-1.22-6.048-0.235
			c-0.814,0.512-1.387,1.33-1.502,2.533c0.817,0.068,1.634,0.136,2.451,0.205c0.229-0.875,0.534-1.481,1.675-1.542
			c0.954-0.05,1.939,0.53,2.021,1.756c-1.212,0.382-2.469,0.44-3.674,0.684c-1.595,0.32-3.004,1.213-2.955,3.146
			c0.023,0.906,0.422,1.525,0.924,2.042c1.516,1.563,4.034,1.458,5.665,0.123c0.013,0.204,0.026,0.429,0.04,0.633h2.523
			c-0.112-0.292-0.183-0.569-0.193-0.878C39.083,44.061,39.095,42.119,39.106,40.177z M36.159,44.613
			c-0.896,0.684-2.562,0.835-3.181,0.052c-0.318-0.402-0.318-0.797-0.145-1.131c0.469-0.903,1.522-0.865,2.377-0.997
			c0.497-0.077,0.999-0.21,1.494-0.45C36.76,42.964,36.959,44.002,36.159,44.613z"/>
		<path d="M30.244,36.881h-2.142v-1.118c0-0.599,0.406-0.972,1.065-0.982l1.101-0.018l-0.002-2.036h-2.203
			c-1.3,0-2.259,0.999-2.259,2.313v1.84h-1.425v1.876h1.425v8.123h2.297v-8.123h2.142V36.881z"/>
		<path d="M20.879,32.727h-2.824v2.803c-2.685,0-5.37,0-8.055,0v2.871h2.736c0,2.826,0,5.652,0,8.479h2.824v-2.803
			c2.685,0,5.37,0,8.055,0v-2.871h-2.736C20.879,38.38,20.879,35.553,20.879,32.727z"/>
	</g>
</g>
</svg>
