<?xml version="1.0" encoding="utf-8"?>
<!-- Generator: Adobe Illustrator 16.0.0, SVG Export Plug-In . SVG Version: 6.00 Build 0)  -->
<!DOCTYPE svg PUBLIC "-//W3C//DTD SVG 1.1//EN" "http://www.w3.org/Graphics/SVG/1.1/DTD/svg11.dtd">
<svg version="1.1" xmlns="http://www.w3.org/2000/svg" xmlns:xlink="http://www.w3.org/1999/xlink" x="0px" y="0px" width="80px"
	 height="80px" viewBox="0 0 80 80" enable-background="new 0 0 80 80" xml:space="preserve">
<g id="Layer_1_copy_15">
	<circle fill="#FFFFFF" cx="40" cy="40" r="40"/>
	<g>
		<path fill="none" d="M49.145,41.096c-0.001,0.011-0.001,0.022-0.002,0.033c0.001-0.001,0.001-0.003,0.002-0.004
			C49.145,41.115,49.145,41.105,49.145,41.096z"/>
		<path d="M67.112,35.248c-0.116-0.175-0.233-0.35-0.351-0.525c-0.072-0.18-0.146-0.36-0.218-0.54
			c-0.115-0.188-0.304-0.29-0.395-0.511c0.01-0.024,0.02-0.048,0.029-0.073c0.36-0.084,0.261-0.249,0.438-0.496
			c0.124-0.173,0.36-0.267,0.438-0.481c0.086-0.239-0.238-1.303-0.364-1.458c-0.104-0.128-0.277-0.067-0.438-0.146
			c-0.26-0.127-0.388-0.408-0.715-0.481c-0.314-0.071-0.482,0.102-0.671,0.175c-0.136,0.024-0.272,0.048-0.408,0.073
			c-0.101,0.07-0.108,0.258-0.175,0.365c-0.168,0.27-0.369,0.185-0.409,0.671c-0.097-0.063-0.194-0.126-0.291-0.189
			c-0.131-0.163-0.147-0.436-0.233-0.642c-0.16-0.252-0.321-0.505-0.481-0.758c-0.024-0.18-0.049-0.359-0.073-0.54
			c-0.02-0.01-0.038-0.02-0.058-0.029c-0.044-0.005-0.088-0.01-0.132-0.015c-0.229,0.265-0.009,0.768,0.029,1.05
			c-0.02,0.097-0.039,0.194-0.058,0.292c0.014,0.093,0.028,0.185,0.043,0.277c0,0.224,0,0.447,0,0.671
			c0.064,0.385,0.2,0.828,0.248,1.21c-0.115,0.066-0.251,0.016-0.423,0.059c-0.073,0.034-0.146,0.068-0.219,0.102
			c-0.183-0.155-0.243-0.445-0.423-0.598c-0.152-0.13-0.354-0.111-0.555-0.204c-0.146-0.067-0.142-0.278-0.262-0.365
			c-0.098-0.048-0.194-0.097-0.292-0.146c-0.14-0.105-0.188-0.266-0.292-0.409c-0.097-0.131-0.262-0.136-0.394-0.233
			c-0.146-0.109-0.2-0.273-0.379-0.365c-0.024,0-0.049,0-0.073,0c-0.13,0.287,0.193,0.748,0.292,0.948
			c0.062,0.107,0.126,0.214,0.189,0.321c0.02,0.112,0.039,0.224,0.059,0.335c0.106,0.146,0.214,0.292,0.32,0.438
			c0.189,0.408,0.379,0.817,0.569,1.225c0.223,0.054,0.378-0.064,0.568-0.117c0.18-0.034,0.359-0.068,0.54-0.102
			c0.235-0.097,0.383-0.258,0.671-0.321c0.332-0.072,0.784-0.026,0.918-0.292c0.01-0.005,0.02-0.01,0.029-0.015
			c0.215,0.769-0.491,0.735-0.933,0.918c-0.122,0.083-0.243,0.166-0.365,0.248c-0.15,0.01-0.302,0.02-0.452,0.029
			c-0.199,0.131-0.398,0.263-0.598,0.394c-0.382,0.223-0.815,0.362-1.167,0.613c-0.171,0.122-0.234,0.348-0.394,0.466
			c-0.236,0.177-0.375,0.261-0.496,0.555c-0.149,0.083-0.378-0.008-0.583,0.058c-0.083,0.063-0.166,0.126-0.248,0.189
			c-0.222,0.091-0.55,0.046-0.744,0.161c-0.17,0.161-0.34,0.321-0.51,0.481c-0.213,0.133-0.558,0.194-0.671,0.423
			c-0.006,0.029-0.01,0.058-0.015,0.087c0.211,0.198,0.452-0.077,0.802,0c0.107,0.054,0.214,0.107,0.32,0.161
			c0.226,0.056,0.512,0.02,0.7,0.102c0.063,0.386-0.421,0.545-0.642,0.714c-0.072,0.141-0.146,0.282-0.219,0.423
			c-0.092,0.133-0.152,0.068-0.306,0.117c-0.078,0.093-0.156,0.185-0.233,0.277c0.044,0.221,0.496,0.459,0.642,0.671
			c-0.06,0.384-0.402,0.717-0.423,1.123c0.161,0.114,0.427,0.182,0.685,0.116c0.117-0.194,0.181-0.32,0.424-0.394
			c0.145-0.29,0.04-0.744,0.102-1.123c0.074-0.453,0.167-0.848,0.233-1.269c-0.005-0.107-0.01-0.214-0.015-0.321
			c0.05-0.259,0.192-0.683,0.496-0.7c0.054-0.097,0.045-0.314,0.059-0.452c0.064-0.045,0.125-0.062,0.219-0.087
			c0.077-0.384,0.026-0.614,0.35-0.744c0.01-0.009,0.02-0.019,0.029-0.029c0.005,0,0.01,0,0.015,0
			c-0.049,0.601-0.28,1.076-0.408,1.589c-0.101,0.401-0.125,0.905-0.189,1.269c-0.024,0.134,0.082,0.172,0.072,0.263
			c-0.026,0.264-0.274,0.387-0.219,0.758c0.064,0.423-0.107,1.494,0.073,1.735c0.088,0.049,0.175,0.098,0.263,0.146
			c0.041,0.217-0.007,0.616,0.102,0.788c0.167,0.264,0.526,0.135,0.847,0.219c0.17,0.106,0.34,0.214,0.51,0.321
			c0.225,0.093,0.538,0.084,0.729,0.204c0.073,0.301-0.048,0.564-0.088,0.846c-0.048,0.337,0.135,0.547,0.103,0.89
			c-0.039,0.026-0.025,0.029-0.088,0.043c-0.126,0.041-0.246-0.111-0.277-0.219c-0.169-0.074-0.269,0.094-0.408,0.146
			c0.069,0.114,0.194,0.166,0.233,0.307c-0.094,0.106-0.515,0.297-0.729,0.247c-0.141-0.032-0.163-0.145-0.351-0.16
			c-0.058,0.137-0.116,0.272-0.175,0.408c-0.014,0.019-0.784,0.462-0.831,0.481c-0.189,0.039-0.38,0.078-0.569,0.116
			c-0.034,0.024-0.038,0.035-0.059,0.073c0.002,0.163,0.05,0.204,0.117,0.292c0.396,0.093,0.79-0.176,1.123-0.277
			c0.126-0.02,0.253-0.039,0.379-0.059c0.054-0.072,0.107-0.146,0.161-0.219c0.133-0.165,0.491-0.288,0.729-0.219
			c0.097,0.157,0.051,0.3,0.103,0.54c0.062,0.146,0.126,0.292,0.189,0.438c0.042,0.24-0.206,0.336-0.263,0.496
			c-0.015,0.077-0.029,0.155-0.044,0.233c-0.073,0.12-0.196,0.152-0.233,0.32c0.153,0.15,0.6,0.21,0.904,0.146
			c0.168-0.295-0.089-0.605-0.029-0.919c0.078-0.142,0.156-0.282,0.233-0.423c0.005-0.012,0.001-0.53-0.015-0.584
			c-0.067-0.106-0.136-0.214-0.204-0.32c0.021-0.2,0.266-0.309,0.438-0.219c0.032,0.145-0.005,0.245-0.03,0.364
			c-0.058,0.281,0.261,0.565,0.409,0.671c0.015-0.005,0.029-0.01,0.043-0.015c0.1-0.216-0.044-0.517-0.087-0.7
			c-0.114-0.487,0.28-0.637-0.307-0.948c-0.007-0.516-0.092-1.42,0.146-1.735c0.138-0.182,1.366-0.429,1.678-0.481
			c-0.088,0.176-0.175,0.351-0.263,0.525c0.073,0.093,0.197,0.126,0.263,0.219c0.076,0.246-0.146,0.648-0.204,0.86
			c-0.098,0.361,0.026,0.839-0.073,1.196c-0.115,0.416-0.433,0.307-0.598,0.554c-0.078,0.118,0.092,0.682,0.16,0.832
			c0.034,0,0.068,0,0.103,0c0.242-0.095,0.104-0.457,0.307-0.569c0.095-0.042,0.206,0.005,0.276,0.029
			c0.149,0.217,0.094,0.541,0.16,0.86c0.037,0.174,0.179,0.235,0.233,0.379c0.056,0.144,0.025,0.417,0.059,0.54
			c0.187,0.117,0.528,0.09,0.773,0.029c0.106-0.217-0.149-0.285-0.248-0.423c-0.093-0.129-0.003-0.374-0.073-0.54
			c-0.104-0.25-0.575-0.205-0.423-0.686c0.043-0.136,0.313-0.292,0.554-0.204c0.117,0.088,0.234,0.176,0.351,0.263
			c0.162,0.045,0.296-0.062,0.394-0.102c0.274,0.025,0.281,0.245,0.438,0.379c0.253,0.087,0.506,0.175,0.759,0.263
			c0.121-0.089,0.417-0.476,0.35-0.671c-0.005-0.015-0.01-0.029-0.015-0.044c-0.214,0.005-0.428,0.01-0.642,0.015
			c-0.097-0.059-0.194-0.117-0.292-0.175c-0.497-0.199-1.755-0.438-1.997-0.803c-0.083-0.125-0.046-0.43-0.016-0.598
			c0.093-0.564,0.186-1.128,0.277-1.691c0.098-0.423,0.195-0.847,0.292-1.27c0.177-0.34,0.626-0.523,0.89-0.787
			c0.124-0.125,0.198-0.378,0.335-0.481c0.117-0.039,0.234-0.078,0.351-0.117c0.213-0.087,0.421-0.293,0.555-0.465
			c0.192-0.251,0.174-0.598,0.306-0.934c0.122-0.311,0.297-0.615,0.379-0.963c0.029-0.316,0.059-0.632,0.088-0.948
			c0-0.224,0-0.447,0-0.671c0-0.292,0-0.583,0-0.875c-0.045-0.229-0.184-0.372-0.263-0.554
			C67.238,35.647,67.176,35.447,67.112,35.248z M64.269,31.865c0.062-0.034,0.126-0.068,0.189-0.102
			c0.01-0.054,0.02-0.107,0.029-0.161c0.147-0.181,0.241-0.309,0.467-0.423c0.259,0.049,0.514,0.212,0.729,0.306
			c0.181,0.044,0.36,0.087,0.54,0.131c0.085,0.049,0.132,0.14,0.189,0.219c-0.044,0.112-0.087,0.224-0.131,0.335
			c0.01,0.156,0.02,0.311,0.029,0.467c-0.057,0.311-0.312,0.596-0.525,0.758c-0.145,0.109-0.757,0.174-0.89,0.015
			c-0.086-0.104-0.09-0.24-0.146-0.379c-0.063-0.125-0.212-0.084-0.336-0.146c-0.056-0.047-0.007-0.07-0.029-0.116
			c-0.054-0.063-0.106-0.126-0.16-0.19C64.165,32.421,64.196,31.981,64.269,31.865z M62.941,34.971
			c0.068-0.122,0.227-0.179,0.335-0.263c0.199-0.185,0.399-0.37,0.598-0.554c0.132-0.096,0.282-0.126,0.438-0.204
			c0.211,0.002,0.729,0.2,0.787,0.321c0.054,0.189,0.106,0.379,0.16,0.569c0.11,0.162,0.366,0.191,0.481,0.35
			c0.082,0.424-0.217,0.383-0.32,0.642c-0.056,0.137,0.049,0.244,0.029,0.365c-0.023,0.134-0.188,0.468-0.292,0.54
			c-0.576,0.394-1.828-0.377-2.071-0.7C62.928,35.824,62.75,35.308,62.941,34.971z M64.925,40.673
			c-0.02-0.034-0.039-0.067-0.059-0.102c-0.029-0.01-0.059-0.02-0.087-0.029c-0.024,0.053-0.049,0.106-0.073,0.16
			c-0.154,0.041-0.309-0.039-0.481,0c-0.092,0.039-0.185,0.078-0.277,0.116c-0.131,0.02-0.263,0.039-0.394,0.059
			c-0.238,0.075-0.436,0.25-0.7,0.321c-0.354,0.096-0.968,0.201-1.182,0.408c0.02,0.078,0.039,0.155,0.059,0.233
			c0.689,0.052,1.074,0.429,1.75,0.423c-0.053,0.397-0.31,0.239-0.686,0.321c-0.121,0.02-0.242,0.038-0.364,0.058
			c-0.155-0.082-0.312-0.165-0.467-0.248c-0.248-0.062-0.496-0.126-0.743-0.189c-0.127-0.092-0.253-0.185-0.38-0.277
			c-0.188-0.034-0.74-0.109-0.816-0.262c-0.005-0.02-0.01-0.039-0.015-0.059c0.176-0.18,0.462-0.198,0.686-0.336
			c0.087-0.072,0.175-0.146,0.263-0.219c0.121-0.01,0.243-0.019,0.364-0.028c0.068-0.053,0.136-0.107,0.204-0.161
			c0.228-0.138,0.471-0.238,0.686-0.364c0.146-0.086,0.349-0.089,0.511-0.175c0.045-0.03,0.031-0.007,0.044-0.073
			c-0.137-0.117-0.281-0.069-0.481-0.146c-0.182-0.069-0.356-0.218-0.555-0.292c-0.01-0.015-0.02-0.029-0.029-0.043
			c0.153-0.243,0.822-0.366,1.08-0.161c0.049,0.035,0.035,0.073,0.058,0.131c0.037,0.049,0.099,0.051,0.146,0.087
			c-0.078-0.005-0.156-0.01-0.234-0.015c0,0.049,0,0.097,0,0.146c0.161,0.027,0.191,0.052,0.263,0.16
			c0.024-0.005,0.049-0.01,0.073-0.015c0.063-0.102,0.068-0.259,0.16-0.35c0.121-0.119,0.271,0.006,0.292-0.233
			c-0.148-0.103-0.377-0.141-0.452-0.321c0.034-0.068,0.068-0.136,0.103-0.205c-0.331-0.346-0.1-0.523-0.671-0.685
			c-0.029-0.034-0.059-0.068-0.088-0.103c0.733-0.322,0.765,0.187,1.05,0.583c0.098,0.063,0.194,0.126,0.292,0.19
			c0.029,0.068,0.059,0.136,0.088,0.204c0.116,0.102,0.232,0.204,0.35,0.306c0.029,0.102,0.059,0.204,0.088,0.306
			c0.087,0.039,0.175,0.078,0.262,0.117c0.088,0.087,0.176,0.175,0.263,0.263c0.122,0.053,0.243,0.107,0.365,0.16
			c0.015,0.049,0.028,0.097,0.043,0.146C65.165,40.577,65.081,40.669,64.925,40.673z M66.85,39.332
			c-0.342,0.044-0.558-0.342-0.802-0.466c-0.205-0.104-0.649-0.351-0.832-0.394c-0.15-0.005-0.301-0.01-0.452-0.015
			c-0.189-0.067-0.383-0.195-0.612-0.262c-0.153-0.045-0.371,0.019-0.554-0.029c-0.195-0.051-0.444-0.287-0.54-0.452
			c0-0.005,0-0.01,0-0.015c0.039-0.01,0.078-0.02,0.117-0.029c0.102,0.012,0.135,0.048,0.189,0.102c0.02,0,0.039,0,0.058,0
			c0.049-0.092,0.098-0.185,0.146-0.277c0.481-0.104,0.816,0.195,1.182,0.321c0.126,0.02,0.252,0.039,0.379,0.059
			c0.1,0.039,0.186,0.187,0.321,0.146c0.009,0,0.019,0,0.028,0c-0.062-0.324-0.299-0.51-0.219-0.875
			c0.29,0.059,0.45,0.386,0.496,0.686c0.173,0.01,0.465,0.148,0.54,0.262c0.043,0.107,0.087,0.214,0.131,0.321
			c0.236,0.292,0.506,0.284,0.496,0.86C66.898,39.293,66.874,39.312,66.85,39.332z"/>
		<path d="M53.49,37.231c-0.657,0.873-0.4,2.697-0.977,3.646c-0.162,0.267-0.48,0.708-0.963,0.626
			c-0.5-0.085-0.657-0.587-0.54-1.224c0.153-0.829,0.452-1.489,0.744-2.159c0.099-0.226,0.336-0.771,0.059-0.962
			c-0.199-0.138-1.36-0.07-1.561,0.044c-0.383,0.217-0.399,0.743-0.54,1.21c-0.152,0.511-0.362,0.964-0.612,1.371
			c-0.107,0.175-0.234,0.499-0.438,0.569c-0.024,0-0.049,0-0.073,0c-0.253-0.382-0.171-1.214-0.189-1.809
			c-0.005-0.126-0.01-0.252-0.015-0.379c0.336-0.403,0.671-0.807,1.007-1.21c0.558-0.76,0.982-1.569,1.327-2.552
			c0.184-0.524,0.562-1.895,0.116-2.392c-0.187-0.208-0.588-0.142-0.846-0.043c-0.558,0.213-1.052,0.647-1.4,1.079
			c-0.203,0.252-0.45,0.477-0.642,0.744c-0.698,0.979-1.226,2.113-1.546,3.471c-0.104,0.445-0.163,0.948-0.175,1.458
			c-0.009,0.422,0.086,0.942-0.044,1.269c-0.11,0.279-0.365,0.526-0.612,0.671c-0.248,0.146-0.565,0.093-0.656-0.16
			c-0.158-0.439,0.022-1.045-0.059-1.561c-0.145-0.928-0.106-1.687-0.496-2.348c-0.885-1.505-1.915,0.752-2.421,1.254
			c-0.02,0-0.038,0-0.058,0c-0.194-0.346,0.194-0.927-0.029-1.254c-0.18-0.262-1.163-0.137-1.386,0
			c-0.104,0.063-0.209,0.192-0.263,0.306c-0.24,0.516,0.079,1.304-0.029,1.896c-0.195,1.076-0.856,1.939-1.575,2.508
			c-0.181,0.144-0.608,0.53-0.991,0.379c-0.088-0.031-0.122-0.08-0.16-0.16c0.03-0.386,0.514-0.624,0.714-0.875
			c0.507-0.63,1.031-1.313,1.255-2.216c0.235-0.952-0.116-1.769-0.817-1.984c-0.894-0.274-1.688,0.205-2.07,0.686
			c-0.267,0.336-0.519,0.698-0.7,1.123c-0.457,1.068-0.5,2.026-1.356,2.713c-0.228,0.182-0.338,0.357-0.671,0.452
			c-0.005,0-0.01,0-0.015,0c0.002-0.362,0.173-0.589,0.292-0.86c0.385-0.882,1.016-2.21,0.496-3.413
			c-0.122-0.281-0.277-0.489-0.613-0.554c-0.885-0.172-1.724,1.5-1.517,2.377c0.118,0.499,0.534,0.796,0.627,1.21
			c0.116,0.511-0.302,1.165-0.816,1.064c-0.52-0.102-0.674-0.944-0.555-1.648c0.124-0.73,0.284-1.307,0.496-1.911
			c0.061-0.172,0.229-0.558,0.117-0.758c-0.163-0.291-0.967-0.199-1.312-0.102c-0.667,0.187-0.644,0.841-0.817,1.531
			c-0.172,0.684-0.623,2.138-1.152,2.407c-0.486-0.014-0.513-0.81-0.423-1.313c0.117-0.653,0.407-1.197,0.7-1.691
			c0.121-0.204,0.325-0.45,0.38-0.7c0.053-0.246-0.96-0.903-1.211-0.846c-0.226,0.052-0.515,0.426-0.642,0.598
			c-0.024,0-0.049,0-0.073,0c-0.179-0.138-0.282-0.344-0.51-0.438c-0.628-0.258-1.293,0.259-1.59,0.554
			c-0.486,0.484-0.847,1.068-1.123,1.765c-0.192,0.486-0.312,0.996-0.568,1.415c-0.175,0.288-0.411,0.513-0.642,0.744
			c-0.35,0.35-0.928,1.054-1.633,0.788c-0.02-0.034-0.039-0.068-0.058-0.103c0.024-0.389,0.49-0.559,0.685-0.801
			c0.55-0.681,1.149-1.306,1.415-2.275c0.246-0.898-0.07-1.694-0.7-1.954c-0.743-0.306-1.522,0.063-1.94,0.394
			c-0.534,0.423-0.876,1.118-1.152,1.794c-0.332,0.812-0.547,1.766-1.269,2.188c-0.766,0.447-1.465-0.234-1.327-1.137
			c0.059-0.385,0.115-0.718,0.219-1.05c0.073-0.214,0.146-0.428,0.219-0.642c0.281-0.171,0.998,0.59,1.356,0.35
			c0.193-0.129,0.716-1.438,0.452-1.809c-0.171-0.24-0.89-0.171-1.298-0.16c0.396-1.595,1.505-5.459-1.08-5.426
			c-0.163,0.125-0.334,0.21-0.452,0.379c-0.519,0.744-0.085,2.268,0.059,3.15c0.08,0.492,0.016,1.884-0.219,2.071
			c-0.812,0.097-1.624,0.194-2.436,0.292c-0.034,0-0.068,0-0.102,0c0.141-1.358,0.493-3.388-0.073-4.608
			c-0.153-0.33-0.47-0.826-1.021-0.686c-0.401,0.102-0.785,0.59-0.685,1.181c0.18,1.073,0.321,2.436,0.117,3.603
			c-0.039,0.267-0.078,0.535-0.117,0.802c-0.078,0.188-0.518,0.203-0.729,0.262c-0.638,0.179-1.1,0.3-1.561,0.642
			c-0.018,1.215,1.301,0.329,1.911,0.263c-0.512,1.116-1.12,2.259-1.487,3.456c-0.376,1.226-0.019,1.841,1.108,2.042
			c0.208,0.037,0.44,0.017,0.627-0.015c0.396-0.066,0.784-0.06,0.977-0.321c0.452-0.61-0.13-2.215,0.015-3.091
			c0.062-0.378,0.059-0.74,0.146-1.08c0.123-0.483,0.315-0.933,0.452-1.385c0.621-0.176,1.797-0.294,2.566-0.19
			c-0.452,1.21-0.904,2.421-1.356,3.631c-0.232,0.595-0.409,1.439-0.044,2.042c0.292,0.481,0.904,0.672,1.59,0.438
			c0.85-0.291,1.573-0.909,2.085-1.546c0.113-0.141,0.546-0.713,0.7-0.744c0.217-0.044,0.18,0.947,0.233,1.123
			c0.201,0.66,0.638,1.029,1.385,1.152c1.041,0.17,2.064-0.87,2.465-1.4c0.127-0.169,0.393-0.739,0.598-0.772
			c0.034,0.024,0.068,0.048,0.102,0.072c0.009,0.199,0.019,0.398,0.029,0.599c0.134,0.733,0.453,1.58,1.473,1.355
			c0.161-0.058,0.321-0.116,0.481-0.175c0.203-0.12,0.851-0.976,0.948-0.962c0.298,0.038,0.62,1.012,1.021,1.166
			c0.364,0.141,0.616-0.204,0.758-0.394c0.458-0.613,0.669-1.475,0.962-2.261c0.046-0.029,0.066-0.054,0.132-0.029
			c0.239,0.143,0.136,0.764,0.189,1.094c0.109,0.672,0.163,1.169,0.496,1.59c0.335,0.425,0.986,0.2,1.355-0.043
			c0.293-0.193,0.551-0.449,0.89-0.599c0.457-0.201,0.916-0.334,1.313-0.583c0.18-0.136,0.359-0.272,0.539-0.408
			c0.171-0.138,0.287-0.389,0.511-0.467c0.005,0,0.01,0,0.015,0c0.106,0.174,0.06,0.427,0.102,0.686
			c0.068,0.42,0.193,0.763,0.408,1.035c0.18,0.227,0.438,0.363,0.759,0.452c1.249,0.346,2.329-0.799,2.801-1.458
			c0.191-0.27,0.36-0.775,0.655-0.934c0.029,0,0.059,0,0.088,0c0.294,0.456-0.113,1.386,0.059,1.983
			c0.189,0.659,1.684,0.245,1.881-0.146c0.194-0.382,0-2.122-0.087-2.639c-0.02-0.204-0.039-0.408-0.059-0.612
			c0.047-0.246,0.273-0.441,0.408-0.612c0.125-0.158,0.307-0.414,0.54-0.452c0.288-0.084,0.413,0.481,0.481,0.7
			c0.293,0.95,0.099,2.499,0.48,3.384c0.225,0.52,0.783,0.834,1.342,0.408c0.431-0.328,0.748-0.907,0.978-1.43
			c0.083-0.189,0.165-0.379,0.248-0.568c0-0.01,0-0.02,0-0.029c0.128,0.175,0.06,0.587,0.102,0.831
			c0.109,0.633,0.122,1.458,0.584,1.735c0.388,0.233,0.731-0.268,0.875-0.452c0.35-0.45,0.675-0.979,0.918-1.531
			c0.131-0.29,0.262-0.581,0.393-0.871c0.001-0.011,0.001-0.022,0.002-0.033c0,0.01,0,0.02,0,0.029
			c-0.001,0.001-0.001,0.003-0.002,0.004c-0.019,0.378-0.037,0.756-0.057,1.134c0.127,0.832,0.246,1.88,1.064,1.998
			c0.595,0.086,1.513-0.938,1.765-1.283c0.178-0.243,0.291-0.604,0.584-0.729c0.105,0.11,0.056,0.304,0.088,0.496
			c0.081,0.502,0.157,1.204,0.072,1.75c-0.015,0.248-0.029,0.496-0.044,0.744c-0.173,0.933-0.396,1.938-1.021,2.421
			c-0.489,0.377-1.316-0.108-2.013,0.015c-0.446,0.078-0.85,0.258-1.079,0.554c-0.48,0.618-0.16,1.553,0.364,1.881
			c1.154,0.724,2.561-0.329,3.092-0.991c1.237-1.541,1.82-2.871,2.261-5.235c0.131-0.702,0.042-1.473,0.16-2.217
			c0.005-0.346,0.01-0.69,0.015-1.036c0.168-1.05,0.318-1.746,0.671-2.552c0.083-0.19,0.334-0.595,0.175-0.846
			C54.98,36.819,53.737,36.903,53.49,37.231z M48.474,35.788c0.02-0.287,0.039-0.573,0.059-0.86c0.158-0.89,0.455-1.472,1.137-1.837
			c0.68-0.013,0.466,0.74,0.321,1.167c-0.235,0.696-0.528,1.301-0.89,1.867c-0.214,0.287-0.428,0.574-0.642,0.861
			c-0.01,0.004-0.02,0.009-0.029,0.014C48.342,36.662,48.423,36.118,48.474,35.788z M20.866,40.717
			c-0.258-0.082-0.253-0.544-0.19-0.86c0.147-0.731,0.358-1.204,0.963-1.488c0.545-0.013,0.669,0.366,0.525,0.875
			C22.061,39.606,21.316,40.861,20.866,40.717z M27.224,39.828c-0.121,0.61-0.435,1.576-1.283,1.415
			c-0.497-0.095-0.648-0.759-0.525-1.4c0.146-0.762,0.313-1.008,0.948-1.298c0.283-0.005,0.473,0.016,0.627,0.131
			C27.27,38.884,27.315,39.369,27.224,39.828z M36.602,40.717c-0.232-0.109-0.236-0.573-0.175-0.89
			c0.146-0.753,0.309-1.166,0.934-1.458c1.334-0.03,0.016,1.794-0.16,2.042C37.09,40.566,36.874,40.875,36.602,40.717z"/>
		<path fill="#FFFFFF" d="M64.385,32.769c0.022,0.046-0.026,0.069,0.029,0.116c0.124,0.062,0.272,0.021,0.336,0.146
			c0.056,0.139,0.06,0.275,0.146,0.379c0.133,0.16,0.745,0.095,0.89-0.015c0.214-0.162,0.469-0.447,0.525-0.758
			c-0.01-0.156-0.02-0.311-0.029-0.467c0.044-0.112,0.087-0.224,0.131-0.335c-0.058-0.079-0.104-0.169-0.189-0.219
			c-0.18-0.044-0.359-0.087-0.54-0.131c-0.215-0.094-0.47-0.257-0.729-0.306c-0.226,0.114-0.319,0.242-0.467,0.423
			c-0.01,0.054-0.02,0.107-0.029,0.161c-0.063,0.034-0.127,0.068-0.189,0.102c-0.072,0.116-0.104,0.557-0.044,0.714
			C64.278,32.643,64.331,32.706,64.385,32.769z M64.808,31.879c0.2,0.014,0.398,0.029,0.599,0.043
			c0.113,0.164,0.016,0.327,0.072,0.54c0.032,0.12,0.137,0.151,0.16,0.292c-0.043,0.068-0.087,0.136-0.131,0.204
			c-0.029,0-0.058,0-0.087,0c-0.164-0.032-0.191-0.178-0.307-0.248C64.871,32.563,64.307,32.248,64.808,31.879z"/>
		<path d="M65.114,32.71c0.115,0.07,0.143,0.216,0.307,0.248c0.029,0,0.058,0,0.087,0c0.044-0.068,0.088-0.136,0.131-0.204
			c-0.023-0.141-0.128-0.172-0.16-0.292c-0.057-0.213,0.041-0.376-0.072-0.54c-0.2-0.015-0.398-0.029-0.599-0.043
			C64.307,32.248,64.871,32.563,65.114,32.71z"/>
		<path fill="#FFFFFF" d="M48.459,36.984c0.214-0.287,0.428-0.574,0.642-0.861c0.361-0.565,0.654-1.17,0.89-1.867
			c0.145-0.426,0.358-1.18-0.321-1.167c-0.682,0.366-0.979,0.948-1.137,1.837c-0.02,0.287-0.039,0.574-0.059,0.86
			c-0.051,0.331-0.132,0.874-0.044,1.21C48.439,36.993,48.449,36.988,48.459,36.984z"/>
		<path fill="#FFFFFF" d="M65.158,36.736c0.104-0.072,0.269-0.406,0.292-0.54c0.02-0.121-0.085-0.228-0.029-0.365
			c0.104-0.259,0.402-0.217,0.32-0.642c-0.115-0.159-0.371-0.188-0.481-0.35c-0.054-0.189-0.106-0.379-0.16-0.569
			c-0.059-0.121-0.576-0.319-0.787-0.321c-0.156,0.078-0.307,0.108-0.438,0.204c-0.198,0.185-0.398,0.37-0.598,0.554
			c-0.108,0.083-0.267,0.141-0.335,0.263c-0.191,0.337-0.014,0.853,0.146,1.064C63.33,36.358,64.582,37.13,65.158,36.736z
			 M64.502,34.329c0.11-0.004,0.172,0.009,0.233,0.044c0.015,0.097,0.028,0.194,0.044,0.292c0.048,0.059,0.097,0.117,0.146,0.175
			c-0.01,0.087-0.02,0.175-0.029,0.262c0.065,0.201,0.285,0.278,0.307,0.54c-0.274,0.515-1.184,0.294-1.328-0.131
			C63.794,35.273,64.359,34.459,64.502,34.329z"/>
		<path d="M65.202,35.642c-0.021-0.262-0.241-0.339-0.307-0.54c0.01-0.087,0.02-0.175,0.029-0.262
			c-0.049-0.058-0.098-0.117-0.146-0.175c-0.016-0.097-0.029-0.194-0.044-0.292c-0.062-0.035-0.123-0.048-0.233-0.044
			c-0.143,0.13-0.708,0.944-0.628,1.182C64.019,35.936,64.928,36.157,65.202,35.642z"/>
		<path fill="#FFFFFF" d="M66.427,38.413c-0.044-0.107-0.088-0.214-0.131-0.321c-0.075-0.114-0.367-0.252-0.54-0.262
			c-0.046-0.3-0.206-0.626-0.496-0.686c-0.08,0.365,0.157,0.551,0.219,0.875c-0.01,0-0.02,0-0.028,0
			c-0.136,0.041-0.222-0.106-0.321-0.146c-0.127-0.02-0.253-0.039-0.379-0.059c-0.365-0.125-0.7-0.425-1.182-0.321
			c-0.049,0.092-0.098,0.185-0.146,0.277c-0.019,0-0.038,0-0.058,0c-0.055-0.054-0.088-0.09-0.189-0.102
			c-0.039,0.01-0.078,0.02-0.117,0.029c0,0.005,0,0.01,0,0.015c0.096,0.166,0.345,0.401,0.54,0.452
			c0.183,0.048,0.4-0.016,0.554,0.029c0.229,0.067,0.423,0.195,0.612,0.262c0.151,0.005,0.302,0.01,0.452,0.015
			c0.183,0.043,0.627,0.29,0.832,0.394c0.244,0.125,0.46,0.511,0.802,0.466c0.024-0.02,0.049-0.039,0.073-0.058
			C66.933,38.697,66.663,38.705,66.427,38.413z"/>
		<path fill="#FFFFFF" d="M64.822,40.178c-0.087-0.088-0.175-0.175-0.263-0.263c-0.087-0.039-0.175-0.078-0.262-0.117
			c-0.029-0.102-0.059-0.204-0.088-0.306c-0.117-0.102-0.233-0.204-0.35-0.306c-0.029-0.068-0.059-0.136-0.088-0.204
			c-0.098-0.063-0.194-0.126-0.292-0.19c-0.285-0.397-0.316-0.906-1.05-0.583c0.029,0.034,0.059,0.068,0.088,0.103
			c0.571,0.162,0.34,0.339,0.671,0.685c-0.034,0.068-0.068,0.136-0.103,0.205c0.075,0.18,0.304,0.218,0.452,0.321
			c-0.021,0.24-0.171,0.114-0.292,0.233c-0.092,0.091-0.097,0.248-0.16,0.35c-0.024,0.005-0.049,0.01-0.073,0.015
			c-0.071-0.108-0.102-0.133-0.263-0.16c0-0.049,0-0.097,0-0.146c0.078,0.005,0.156,0.01,0.234,0.015
			c-0.048-0.036-0.109-0.038-0.146-0.087c-0.022-0.059-0.009-0.097-0.058-0.131c-0.258-0.206-0.927-0.083-1.08,0.161
			c0.01,0.014,0.02,0.029,0.029,0.043c0.198,0.073,0.373,0.222,0.555,0.292c0.2,0.077,0.345,0.029,0.481,0.146
			c-0.013,0.066,0.001,0.043-0.044,0.073c-0.162,0.086-0.364,0.089-0.511,0.175c-0.215,0.126-0.458,0.227-0.686,0.364
			c-0.068,0.054-0.136,0.107-0.204,0.161c-0.121,0.01-0.243,0.019-0.364,0.028c-0.088,0.073-0.176,0.146-0.263,0.219
			c-0.224,0.138-0.51,0.156-0.686,0.336c0.005,0.02,0.01,0.039,0.015,0.059c0.076,0.152,0.628,0.228,0.816,0.262
			c0.127,0.093,0.253,0.186,0.38,0.277c0.247,0.063,0.495,0.127,0.743,0.189c0.155,0.083,0.312,0.166,0.467,0.248
			c0.122-0.02,0.243-0.038,0.364-0.058c0.376-0.082,0.633,0.076,0.686-0.321c-0.676,0.006-1.061-0.371-1.75-0.423
			c-0.02-0.078-0.039-0.155-0.059-0.233c0.214-0.207,0.827-0.312,1.182-0.408c0.265-0.071,0.462-0.246,0.7-0.321
			c0.131-0.02,0.263-0.039,0.394-0.059c0.093-0.038,0.186-0.077,0.277-0.116c0.173-0.039,0.327,0.041,0.481,0
			c0.024-0.054,0.049-0.107,0.073-0.16c0.028,0.01,0.058,0.02,0.087,0.029c0.02,0.034,0.039,0.067,0.059,0.102
			c0.156-0.004,0.24-0.097,0.306-0.189c-0.015-0.049-0.028-0.097-0.043-0.146C65.065,40.285,64.944,40.231,64.822,40.178z"/>
		<path fill="#FFFFFF" d="M21.639,38.369c-0.604,0.284-0.815,0.756-0.963,1.488c-0.063,0.316-0.068,0.778,0.19,0.86
			c0.451,0.144,1.195-1.111,1.298-1.473C22.308,38.735,22.184,38.356,21.639,38.369z"/>
		<path fill="#FFFFFF" d="M37.36,38.369c-0.625,0.292-0.788,0.705-0.934,1.458c-0.062,0.317-0.058,0.78,0.175,0.89
			c0.272,0.158,0.488-0.151,0.599-0.307C37.376,40.164,38.694,38.339,37.36,38.369z"/>
		<path fill="#FFFFFF" d="M26.991,38.675c-0.154-0.115-0.344-0.137-0.627-0.131c-0.635,0.29-0.801,0.537-0.948,1.298
			c-0.124,0.641,0.028,1.305,0.525,1.4c0.849,0.161,1.162-0.804,1.283-1.415C27.315,39.369,27.27,38.884,26.991,38.675z"/>
		<path d="M65.697,45.398c-0.038-0.186,0.163-0.488,0.321-0.54c0.063,0,0.126,0,0.189,0c0.406-0.273,0.882-0.493,1.064-0.947
			c0.05-0.062,0.051-0.511-0.072-0.628c-0.029-0.01-0.059-0.019-0.088-0.029c-0.02-0.041-0.042-0.241-0.073-0.335
			c-0.083-0.058-0.151-0.013-0.277-0.059c-0.048-0.039-0.097-0.077-0.146-0.116c-0.056,0.03-0.337-0.046-0.481-0.073
			c-0.098,0.129-0.329,0.013-0.466,0.103c-0.114,0.074-0.092,0.188-0.176,0.291c-0.043,0.015-0.087,0.029-0.131,0.044
			c-0.146,0.11-0.206,0.391-0.204,0.599c0.05,0.036,0.091,0.079,0.175,0.043c0.213-0.136,0.122-0.449,0.263-0.612
			c0.094-0.109,0.37-0.081,0.452-0.248c0.255,0.012,0.319,0.135,0.642,0.131c0.227,0.307,0.309,0.477,0.087,0.847
			c-0.033,0.078-0.067,0.155-0.102,0.233c-0.124,0.095-0.303,0.107-0.496,0.204c-0.301,0.149-0.478,0.374-0.7,0.598
			c-0.053,0.01-0.106,0.02-0.16,0.029c-0.241,0.243-0.311,0.625-0.248,0.978c0.402,0.212,1.29,0.062,1.882,0.146
			c0.004-0.077,0.002-0.068,0.044-0.103c0.048,0.024,0.097,0.049,0.146,0.073c0.106-0.066,0.179-0.227,0.175-0.394
			C66.89,45.244,66.194,45.548,65.697,45.398z"/>
		<path d="M69.825,44.45c-0.005-0.054-0.01-0.106-0.015-0.16c-0.099-0.079-0.27-0.229-0.38-0.277
			c-0.119-0.054-0.134,0.03-0.189,0.059c-0.162,0.081-0.388-0.261-0.627,0.044c-0.16-0.02-0.214-0.105-0.292-0.219
			c0.041-0.065,0.099-0.104,0.176-0.132c-0.016-0.075-0.01-0.063-0.073-0.088c0.027-0.34,0.376-0.29,0.7-0.35
			c0.063-0.02,0.126-0.039,0.189-0.059c0.1,0.012,0.185,0.132,0.408,0.073c0.073-0.039,0.146-0.077,0.219-0.116
			c0.01-0.054,0.02-0.107,0.029-0.161c-0.034-0.044-0.068-0.087-0.102-0.131c-0.168-0.17-0.429,0.048-0.656-0.029
			c-0.063-0.021-0.113-0.081-0.204-0.103c-0.183,0.236-0.582-0.033-0.891,0.103c-0.053,0.034-0.106,0.068-0.16,0.102
			c-0.109,0.356-0.036,0.69,0.029,0.978c-0.015,0.189-0.029,0.379-0.044,0.569c0.034,0.062,0.068,0.126,0.103,0.189
			c0.297-0.005,0.354-0.267,0.612-0.307c0.059,0.015,0.116,0.029,0.175,0.044c0.138-0.035,0.233-0.104,0.438-0.102
			c0.273,0.255,0.358,0.419,0.452,0.903c-0.194,0.012-0.33,0.253-0.306,0.423c-0.151,0.093-0.354,0.285-0.481,0.336
			c-0.309,0.122-0.649,0.074-0.904,0.263c-0.083,0.055-0.086,0.146-0.073,0.277c0.271,0.184,0.58,0.017,0.86-0.103
			c0.043-0.005,0.019-0.023,0.044,0.015c0.919-0.649,1.086-0.536,1.138-1.925C69.953,44.514,69.917,44.461,69.825,44.45z"/>
		<path d="M65.887,43.473c-0.003-0.095-0.029-0.055-0.043-0.131c-0.061,0.022-0.055,0.009-0.132-0.015
			c-0.015,0.029-0.029,0.059-0.043,0.088c0.051,0.022,0.097,0.02,0.131,0.058C65.829,43.473,65.858,43.473,65.887,43.473z"/>
		<path d="M69.781,43.677c-0.029-0.053-0.012-0.037-0.088-0.043C69.723,43.648,69.752,43.663,69.781,43.677z"/>
	</g>
</g>
</svg>
