<?xml version="1.0" encoding="utf-8"?>
<!-- Generator: Adobe Illustrator 19.2.1, SVG Export Plug-In . SVG Version: 6.00 Build 0)  -->
<svg width="80px" height="80px" version="1.1" xmlns="http://www.w3.org/2000/svg" xmlns:xlink="http://www.w3.org/1999/xlink" x="0px" y="0px"
	 viewBox="0 0 80 80" style="enable-background:new 0 0 80 80;" xml:space="preserve">
<style type="text/css">
	.st0{display:none;}
	.st1{display:inline;}
	.st2{fill:#FFFFFF;}
	.st3{display:inline;fill:#FFFFFF;}
	.st4{clip-path:url(#SVGID_2_);}
	.st5{fill:#F2F2F2;}
	.st6{fill:#010101;}
	.st7{display:inline;fill-rule:evenodd;clip-rule:evenodd;fill:none;}
</style>
<g id="Layer_1_copy_13">
	<g>
		<path class="st2" d="M40,0C17.9,0,0,17.9,0,40c0,22.1,17.9,40,40,40s40-17.9,40-40C80,17.9,62.1,0,40,0z M13.9,47.3
			c-0.5,0.1-1,0.2-1.4,0.2c-1.3,0-2.5-0.7-2.5-2.3V32.6h2.3v12c0,0.6,0.4,0.9,0.9,0.9c0.3,0,0.5,0,0.7-0.1L13.9,47.3z M29.6,47.6
			c-3.8,0-5.1-1.7-5.9-3.9L23,41.5c-0.5-1.6-1.1-2.9-3.1-2.9c-1.3,0-2.7,1-2.7,3.7c0,2.1,1.1,3.4,2.6,3.4c1.7,0,2.9-1.3,2.9-1.3
			l0.7,1.9c0,0-1.2,1.2-3.7,1.2c-3.1,0-4.8-1.8-4.8-5.2c0-3.5,1.7-5.5,5-5.5c2.9,0,4.4,1.1,5.3,3.9L26,43c0.5,1.6,1.5,2.8,3.7,2.8
			c1.5,0,2.3-0.3,2.3-1.1c0-0.6-0.4-1.1-1.5-1.4l-1.5-0.4c-1.8-0.4-2.6-1.4-2.6-2.9c0-2.4,1.9-3.2,3.9-3.2c2.3,0,3.6,0.8,3.8,2.8
			l-2.2,0.3c-0.1-1-0.7-1.3-1.7-1.3c-1,0-1.6,0.4-1.6,1.2c0,0.7,0.3,1.1,1.3,1.3l1.4,0.3c1.9,0.4,2.9,1.4,2.9,3.2
			C34.2,46.8,32.3,47.6,29.6,47.6z M39.6,47.6c-1.9,0-3.1-1-3.1-3v-5.7h-1.5v-1.8h1.5V35l2.3-0.3v2.5h3v1.8h-3v5.2
			c0,1.1,0.5,1.5,1.3,1.5c0.7,0,1.1-0.2,1.7-0.6l0.4,1.9C41.6,47.4,40.7,47.6,39.6,47.6z M45.5,47.5c-0.9,0-1.6-0.7-1.6-1.6
			c0-0.9,0.7-1.6,1.6-1.6c1,0,1.7,0.7,1.7,1.6C47.2,46.7,46.5,47.5,45.5,47.5z M55.2,34.8c-0.5-0.3-1-0.4-1.7-0.4
			c-1,0-1.6,0.4-1.6,1.8v0.9h2.6v1.8h-2.6v8.4h-2.3v-8.4h-1.5v-1.8h1.5v-1c0-2.8,1.8-3.7,3.7-3.7c0.9,0,1.6,0.2,2.2,0.4L55.2,34.8z
			 M67.7,47.3v-6.5c0-1.2-0.5-2-1.6-2c-1.1,0-2.1,0.8-2.1,2.7v5.8h-2.3v-6.5c0-1.2-0.5-2-1.6-2c-1.1,0-2.1,0.8-2.1,2.7v5.8h-2.3
			V37.1h1.9l0.3,2c0.5-1.6,1.7-2.2,3.2-2.2c1.4,0,2.5,0.6,2.8,2.3c0.5-1.6,1.8-2.3,3.2-2.3c1.7,0,3,0.9,3,3.1v7.3H67.7z"/>
		<path d="M31.3,41.4l-1.4-0.3c-1-0.2-1.3-0.6-1.3-1.3c0-0.8,0.6-1.2,1.6-1.2c1.1,0,1.6,0.4,1.7,1.3l2.2-0.3c-0.2-2-1.5-2.8-3.8-2.8
			c-2,0-3.9,0.8-3.9,3.2c0,1.5,0.7,2.5,2.6,2.9l1.5,0.4c1.1,0.3,1.5,0.7,1.5,1.4c0,0.8-0.8,1.1-2.3,1.1c-2.2,0-3.2-1.2-3.7-2.8
			l-0.7-2.2c-0.9-2.9-2.4-3.9-5.3-3.9c-3.2,0-5,2.1-5,5.5c0,3.4,1.7,5.2,4.8,5.2c2.5,0,3.7-1.2,3.7-1.2l-0.7-1.9
			c0,0-1.1,1.3-2.9,1.3c-1.5,0-2.6-1.3-2.6-3.4c0-2.7,1.4-3.7,2.7-3.7c1.9,0,2.6,1.3,3.1,2.9l0.7,2.2c0.7,2.1,2,3.9,5.9,3.9
			c2.7,0,4.6-0.8,4.6-3C34.2,42.8,33.2,41.8,31.3,41.4z"/>
		<path d="M12.3,44.6v-12H10v12.6c0,1.7,1.1,2.3,2.5,2.3c0.4,0,0.9-0.1,1.4-0.2l0.1-1.9c-0.2,0.1-0.4,0.1-0.7,0.1
			C12.7,45.5,12.3,45.2,12.3,44.6z"/>
		<path d="M40.2,45.6c-0.8,0-1.3-0.4-1.3-1.5v-5.2h3v-1.8h-3v-2.5L36.6,35v2.2h-1.5v1.8h1.5v5.7c0,2,1.2,3,3.1,3c1,0,2-0.2,2.7-0.6
			L41.9,45C41.3,45.4,40.8,45.6,40.2,45.6z"/>
		<path d="M45.5,44.2c-0.9,0-1.6,0.7-1.6,1.6c0,0.9,0.7,1.6,1.6,1.6c1,0,1.7-0.7,1.7-1.6C47.2,44.9,46.5,44.2,45.5,44.2z"/>
		<path d="M49.6,36.1v1h-1.5v1.8h1.5v8.4h2.3v-8.4h2.6v-1.8h-2.6v-0.9c0-1.4,0.6-1.8,1.6-1.8c0.7,0,1.1,0.2,1.7,0.4l0.4-1.9
			c-0.6-0.3-1.3-0.4-2.2-0.4C51.4,32.4,49.6,33.3,49.6,36.1z"/>
		<path d="M67,36.9c-1.4,0-2.7,0.6-3.2,2.3c-0.3-1.7-1.3-2.3-2.8-2.3c-1.4,0-2.6,0.6-3.2,2.2l-0.3-2h-1.9v10.2H58v-5.8
			c0-2,1-2.7,2.1-2.7c1.1,0,1.6,0.8,1.6,2v6.5H64v-5.8c0-1.9,1-2.7,2.1-2.7c1.1,0,1.6,0.8,1.6,2v6.5H70V40
			C70,37.8,68.7,36.9,67,36.9z"/>
	</g>
</g>
</svg>
