<?xml version="1.0" encoding="utf-8"?>
<!-- Generator: Adobe Illustrator 16.0.0, SVG Export Plug-In . SVG Version: 6.00 Build 0)  -->
<!DOCTYPE svg PUBLIC "-//W3C//DTD SVG 1.1//EN" "http://www.w3.org/Graphics/SVG/1.1/DTD/svg11.dtd">
<svg version="1.1" xmlns="http://www.w3.org/2000/svg" xmlns:xlink="http://www.w3.org/1999/xlink" x="0px" y="0px" width="80px"
	 height="80px" viewBox="0 0 80 80" enable-background="new 0 0 80 80" xml:space="preserve">
<g id="Layer_1_copy_5">
	<g>
		<path fill="#FFFFFF" d="M55.765,35.937c-1.248,0-2.213,1.015-2.213,2.213c0,1.248,0.965,2.196,2.312,2.196
			c1.132,0,2.08-0.932,2.08-2.163C57.944,36.901,56.996,35.937,55.765,35.937z"/>
		<path fill="#FFFFFF" d="M40,0C17.908,0,0,17.908,0,40s17.908,40,40,40s40-17.908,40-40S62.092,0,40,0z M20.718,42.676l0.004-4.986
			c0-0.666-0.237-1.459-1.366-1.459c-0.846,0-1.414,0.587-1.414,1.459l0.003,4.986c-1.43-0.001-0.896-0.001-2.598,0l0.004-4.986
			c0-0.666-0.234-1.459-1.348-1.459c-0.846,0-1.414,0.587-1.414,1.459l0.007,4.986c-1.029-0.001-1.209-0.001-2.598,0V37.74
			c0-2.469,1.647-4.193,4.004-4.193c1.031,0,1.93,0.366,2.598,1.058l0.082,0.084l0.083-0.083c0.693-0.692,1.588-1.059,2.589-1.059
			c2.403,0,3.956,1.646,3.956,4.193l0.003,4.936C22.493,42.675,21.932,42.675,20.718,42.676z M26.709,42.676h-2.613V36.9h2.613
			V42.676z M25.412,36.363c-0.722,0-1.307-0.585-1.307-1.307s0.585-1.307,1.307-1.307c0.722,0,1.307,0.585,1.307,1.307
			S26.133,36.363,25.412,36.363z M33.615,42.676l-1.864-2.796l-1.764,2.796h-2.979L30.32,37.8l-2.896-4.06h3.211l1.498,2.296
			l1.448-2.296h2.812l-2.896,4.293l3.412,4.643H33.615z M47.909,42.676l0.004-4.986c0-0.666-0.237-1.459-1.365-1.459
			c-0.846,0-1.414,0.587-1.414,1.459l0.004,4.986c-1.431-0.001-0.897-0.001-2.599,0l0.004-4.986c0-0.666-0.233-1.459-1.348-1.459
			c-0.846,0-1.415,0.587-1.415,1.459l0.008,4.986c-1.029-0.001-1.209-0.001-2.598,0V37.74c0-2.469,1.647-4.193,4.005-4.193
			c1.03,0,1.929,0.366,2.597,1.058l0.082,0.084l0.084-0.083c0.693-0.692,1.589-1.059,2.59-1.059c2.403,0,3.956,1.646,3.956,4.193
			l0.003,4.936C49.683,42.675,49.122,42.675,47.909,42.676z M60.474,42.676h-2.546v-0.999c-0.782,0.766-1.581,1.049-2.646,1.049
			c-1.082,0-2.014-0.35-2.796-1.049c-1.031-0.915-1.563-2.113-1.563-3.511c0-1.281,0.499-2.43,1.431-3.328
			c0.832-0.815,1.847-1.231,2.979-1.231c1.082,0,1.914,0.366,2.513,1.132V33.74h2.629V42.676z M69.301,44.806
			c-0.849,1.098-2.113,1.647-3.776,1.647c-2.363,0-3.994-1.198-4.327-3.062h2.929c0.167,0.566,0.699,0.916,1.481,0.916
			c1.165,0,1.863-0.749,1.863-2.113c0-0.15,0-0.3-0.017-0.449c-0.732,0.665-1.481,0.981-2.413,0.981c-2.396,0-4.21-1.964-4.21-4.56
			c0-1.281,0.467-2.43,1.365-3.328c0.815-0.815,1.764-1.231,2.861-1.231c1.032,0,1.831,0.383,2.413,1.132V33.74H70v8.021
			C70,42.942,70,43.891,69.301,44.806z"/>
		<path fill="#FFFFFF" d="M65.558,35.953c-1.298,0-2.214,0.981-2.214,2.196c0,1.248,0.949,2.229,2.146,2.229
			c1.165,0,2.08-0.948,2.08-2.196C67.57,36.885,66.622,35.953,65.558,35.953z"/>
		<path fill="#FFFFFF" d="M46.548,33.547c-1.001,0-1.896,0.366-2.59,1.059l-0.084,0.083l-0.082-0.084
			c-0.668-0.691-1.566-1.058-2.597-1.058c-2.358,0-4.005,1.725-4.005,4.193v4.936c1.389-0.001,1.569-0.001,2.598,0l-0.008-4.986
			c0-0.872,0.569-1.459,1.415-1.459c1.114,0,1.348,0.793,1.348,1.459l-0.004,4.986c1.701-0.001,1.168-0.001,2.599,0l-0.004-4.986
			c0-0.872,0.568-1.459,1.414-1.459c1.128,0,1.365,0.793,1.365,1.459l-0.004,4.986c1.213-0.001,1.773-0.001,2.598,0l-0.003-4.936
			C50.504,35.193,48.951,33.547,46.548,33.547z"/>
		<path d="M46.548,33.547c-1.001,0-1.896,0.366-2.59,1.059l-0.084,0.083l-0.082-0.084c-0.668-0.691-1.566-1.058-2.597-1.058
			c-2.358,0-4.005,1.725-4.005,4.193v4.936c1.389-0.001,1.569-0.001,2.598,0l-0.008-4.986c0-0.872,0.569-1.459,1.415-1.459
			c1.114,0,1.348,0.793,1.348,1.459l-0.004,4.986c1.701-0.001,1.168-0.001,2.599,0l-0.004-4.986c0-0.872,0.568-1.459,1.414-1.459
			c1.128,0,1.365,0.793,1.365,1.459l-0.004,4.986c1.213-0.001,1.773-0.001,2.598,0l-0.003-4.936
			C50.504,35.193,48.951,33.547,46.548,33.547z"/>
		<path fill="#FFFFFF" d="M57.845,34.738c-0.599-0.766-1.431-1.132-2.513-1.132c-1.132,0-2.146,0.416-2.979,1.231
			c-0.932,0.898-1.431,2.047-1.431,3.328c0,1.397,0.532,2.596,1.563,3.511c0.782,0.699,1.714,1.049,2.796,1.049
			c1.064,0,1.863-0.283,2.646-1.049v0.999h2.546V33.74h-2.629V34.738z M55.864,40.346c-1.348,0-2.312-0.948-2.312-2.196
			c0-1.198,0.965-2.213,2.213-2.213c1.231,0,2.18,0.965,2.18,2.246C57.944,39.414,56.996,40.346,55.864,40.346z"/>
		<path d="M57.845,34.738c-0.599-0.766-1.431-1.132-2.513-1.132c-1.132,0-2.146,0.416-2.979,1.231
			c-0.932,0.898-1.431,2.047-1.431,3.328c0,1.397,0.532,2.596,1.563,3.511c0.782,0.699,1.714,1.049,2.796,1.049
			c1.064,0,1.863-0.283,2.646-1.049v0.999h2.546V33.74h-2.629V34.738z M55.864,40.346c-1.348,0-2.312-0.948-2.312-2.196
			c0-1.198,0.965-2.213,2.213-2.213c1.231,0,2.18,0.965,2.18,2.246C57.944,39.414,56.996,40.346,55.864,40.346z"/>
		<polygon fill="#FFFFFF" points="36.394,33.74 33.582,33.74 32.134,36.036 30.636,33.74 27.425,33.74 30.32,37.8 27.009,42.676 
			29.987,42.676 31.751,39.88 33.615,42.676 36.91,42.676 33.498,38.033 		"/>
		<polygon points="36.394,33.74 33.582,33.74 32.134,36.036 30.636,33.74 27.425,33.74 30.32,37.8 27.009,42.676 29.987,42.676 
			31.751,39.88 33.615,42.676 36.91,42.676 33.498,38.033 		"/>
		<path fill="#FFFFFF" d="M67.471,33.74v0.998c-0.582-0.749-1.381-1.132-2.413-1.132c-1.098,0-2.046,0.416-2.861,1.231
			c-0.898,0.898-1.365,2.047-1.365,3.328c0,2.596,1.814,4.56,4.21,4.56c0.932,0,1.681-0.316,2.413-0.981
			c0.017,0.149,0.017,0.299,0.017,0.449c0,1.364-0.698,2.113-1.863,2.113c-0.782,0-1.314-0.35-1.481-0.916h-2.929
			c0.333,1.864,1.964,3.062,4.327,3.062c1.663,0,2.928-0.55,3.776-1.647C70,43.891,70,42.942,70,41.761V33.74H67.471z M65.49,40.379
			c-1.197,0-2.146-0.981-2.146-2.229c0-1.215,0.916-2.196,2.214-2.196c1.064,0,2.013,0.932,2.013,2.229
			C67.57,39.431,66.655,40.379,65.49,40.379z"/>
		<path d="M67.471,33.74v0.998c-0.582-0.749-1.381-1.132-2.413-1.132c-1.098,0-2.046,0.416-2.861,1.231
			c-0.898,0.898-1.365,2.047-1.365,3.328c0,2.596,1.814,4.56,4.21,4.56c0.932,0,1.681-0.316,2.413-0.981
			c0.017,0.149,0.017,0.299,0.017,0.449c0,1.364-0.698,2.113-1.863,2.113c-0.782,0-1.314-0.35-1.481-0.916h-2.929
			c0.333,1.864,1.964,3.062,4.327,3.062c1.663,0,2.928-0.55,3.776-1.647C70,43.891,70,42.942,70,41.761V33.74H67.471z M65.49,40.379
			c-1.197,0-2.146-0.981-2.146-2.229c0-1.215,0.916-2.196,2.214-2.196c1.064,0,2.013,0.932,2.013,2.229
			C67.57,39.431,66.655,40.379,65.49,40.379z"/>
		<rect x="24.097" y="36.9" fill="#FFFFFF" width="2.613" height="5.775"/>
		<rect x="24.097" y="36.9" width="2.613" height="5.775"/>
		<path fill="#FFFFFF" d="M19.357,33.547c-1.001,0-1.896,0.366-2.589,1.059l-0.083,0.083l-0.082-0.084
			c-0.668-0.691-1.566-1.058-2.598-1.058c-2.357,0-4.004,1.725-4.004,4.193v4.936c1.389-0.001,1.569-0.001,2.598,0l-0.007-4.986
			c0-0.872,0.568-1.459,1.414-1.459c1.114,0,1.348,0.793,1.348,1.459l-0.004,4.986c1.702-0.001,1.168-0.001,2.598,0l-0.003-4.986
			c0-0.872,0.568-1.459,1.414-1.459c1.129,0,1.366,0.793,1.366,1.459l-0.004,4.986c1.213-0.001,1.774-0.001,2.598,0l-0.003-4.936
			C23.313,35.193,21.76,33.547,19.357,33.547z"/>
		<path d="M19.357,33.547c-1.001,0-1.896,0.366-2.589,1.059l-0.083,0.083l-0.082-0.084c-0.668-0.691-1.566-1.058-2.598-1.058
			c-2.357,0-4.004,1.725-4.004,4.193v4.936c1.389-0.001,1.569-0.001,2.598,0l-0.007-4.986c0-0.872,0.568-1.459,1.414-1.459
			c1.114,0,1.348,0.793,1.348,1.459l-0.004,4.986c1.702-0.001,1.168-0.001,2.598,0l-0.003-4.986c0-0.872,0.568-1.459,1.414-1.459
			c1.129,0,1.366,0.793,1.366,1.459l-0.004,4.986c1.213-0.001,1.774-0.001,2.598,0l-0.003-4.936
			C23.313,35.193,21.76,33.547,19.357,33.547z"/>
		<circle fill="#FFFFFF" cx="25.412" cy="35.057" r="1.307"/>
		<circle cx="25.412" cy="35.057" r="1.307"/>
	</g>
</g>
</svg>
