<?xml version="1.0" encoding="utf-8"?>
<!-- Generator: Adobe Illustrator 16.0.0, SVG Export Plug-In . SVG Version: 6.00 Build 0)  -->
<!DOCTYPE svg PUBLIC "-//W3C//DTD SVG 1.1//EN" "http://www.w3.org/Graphics/SVG/1.1/DTD/svg11.dtd">
<svg version="1.1" xmlns="http://www.w3.org/2000/svg" xmlns:xlink="http://www.w3.org/1999/xlink" x="0px" y="0px" width="80px"
	 height="80px" viewBox="0 0 80 80" enable-background="new 0 0 80 80" xml:space="preserve">
<g id="Layer_1_copy_10">
	<g>
		<path fill="#FFFFFF" d="M40,0C17.908,0,0,17.908,0,40s17.908,40,40,40s40-17.908,40-40S62.092,0,40,0z M62,62H18V18h44V62z"/>
		<path d="M56.377,39.449c0.378-1.242-0.177-2.218-1.552-2.218c-1.22,0-2.041,0.466-2.662,2.218l-0.243,0.71h4.258L56.377,39.449z"
			/>
		<path d="M18,62h44V18H18V62z M55.224,35.768c1.575,0,3.238,1.774,2.706,3.681l-0.399,1.486c-0.066,0.2-0.134,0.376-0.288,0.533
			c-0.223,0.177-0.422,0.199-0.666,0.199h-5.078l-0.377,1.485c-0.133,0.444-0.178,0.732,0.066,1.043
			c0.222,0.31,0.555,0.443,0.998,0.443h3.549c0.199,0,0.688,0.443,0.554,0.887c-0.11,0.398-0.354,0.577-0.887,0.577h-3.549
			c-0.598,0-1.419-0.333-1.862-0.977c-0.443-0.621-0.621-1.286-0.443-1.974l0.775-2.949l0.245-0.754
			C51.432,36.788,52.584,35.768,55.224,35.768z M43.949,45.17l2.085-7.872h-0.467c-0.377,0-0.82-0.421-0.71-0.909
			c0.111-0.4,0.467-0.6,0.865-0.6h0.71l1.064-3.88c0.11-0.354,0.487-0.576,0.888-0.488c0.377,0.088,0.664,0.444,0.575,0.843
			l-0.932,3.525h2.062c0.378,0,0.799,0.4,0.665,0.954c-0.088,0.355-0.421,0.554-0.886,0.554h-2.24l-2.218,8.272
			c-0.111,0.399-0.532,0.643-0.932,0.554C44.081,46.036,43.838,45.57,43.949,45.17z M34.21,43.174l1.818-6.852
			c0.111-0.399,0.599-0.643,0.931-0.554c0.377,0.133,0.644,0.532,0.533,0.931l-1.73,6.475c-0.111,0.444-0.178,0.8,0.044,1.088
			c0.222,0.287,0.577,0.377,1.021,0.377h2.883l2.217-8.294c0.111-0.444,0.577-0.643,0.932-0.555c0.377,0.089,0.644,0.533,0.533,0.91
			l-2.33,8.76c-0.088,0.244-0.132,0.377-0.354,0.532c-0.177,0.111-0.377,0.133-0.577,0.133h-3.703c-0.599,0-1.375-0.311-1.819-0.932
			C34.166,44.572,34.01,43.929,34.21,43.174z M21.485,45.215l2.328-8.781c0.089-0.244,0.133-0.377,0.355-0.533
			c0.178-0.111,0.377-0.133,0.577-0.133h6.653c0.621,0,1.375,0.311,1.818,0.931c0.444,0.621,0.621,1.264,0.399,2.04l-1.818,6.831
			c-0.088,0.399-0.577,0.666-0.932,0.554c-0.354-0.11-0.621-0.509-0.532-0.909l1.729-6.476c0.133-0.443,0.2-0.798-0.044-1.108
			c-0.222-0.311-0.577-0.377-1.021-0.377H29.58l-2.218,8.316c-0.088,0.399-0.532,0.643-0.932,0.554
			c-0.354-0.088-0.621-0.509-0.531-0.909l2.129-7.961h-2.861l-2.218,8.295c-0.11,0.442-0.576,0.642-0.931,0.554
			C21.64,46.014,21.374,45.57,21.485,45.215z"/>
		<path fill="#FFFFFF" d="M22.017,46.103c0.355,0.088,0.821-0.111,0.931-0.554l2.218-8.295h2.861l-2.129,7.961
			c-0.089,0.4,0.177,0.821,0.531,0.909c0.4,0.089,0.844-0.154,0.932-0.554l2.218-8.316h1.419c0.444,0,0.798,0.066,1.021,0.377
			c0.244,0.311,0.177,0.666,0.044,1.108l-1.729,6.476c-0.089,0.4,0.177,0.799,0.532,0.909c0.355,0.112,0.843-0.154,0.932-0.554
			l1.818-6.831c0.222-0.776,0.045-1.419-0.399-2.04c-0.443-0.621-1.197-0.931-1.818-0.931h-6.653c-0.2,0-0.399,0.021-0.577,0.133
			c-0.222,0.155-0.266,0.289-0.355,0.533l-2.328,8.781C21.374,45.57,21.64,46.014,22.017,46.103z"/>
		<path fill="#FFFFFF" d="M36.428,46.124h3.703c0.199,0,0.399-0.021,0.577-0.133c0.222-0.155,0.266-0.288,0.354-0.532l2.33-8.76
			c0.11-0.377-0.156-0.82-0.533-0.91c-0.354-0.088-0.82,0.111-0.932,0.555l-2.217,8.294h-2.883c-0.443,0-0.798-0.09-1.021-0.377
			c-0.222-0.288-0.155-0.644-0.044-1.088l1.73-6.475c0.111-0.399-0.156-0.798-0.533-0.931c-0.333-0.088-0.82,0.155-0.931,0.554
			l-1.818,6.852c-0.2,0.755-0.044,1.398,0.399,2.019C35.053,45.813,35.829,46.124,36.428,46.124z"/>
		<path fill="#FFFFFF" d="M44.48,46.124c0.399,0.089,0.82-0.154,0.932-0.554l2.218-8.272h2.24c0.465,0,0.798-0.199,0.886-0.554
			c0.134-0.554-0.287-0.954-0.665-0.954h-2.062l0.932-3.525c0.089-0.399-0.198-0.754-0.575-0.843
			c-0.4-0.088-0.777,0.133-0.888,0.488l-1.064,3.88h-0.71c-0.398,0-0.754,0.2-0.865,0.6c-0.11,0.488,0.333,0.909,0.71,0.909h0.467
			l-2.085,7.872C43.838,45.57,44.081,46.036,44.48,46.124z"/>
		<path fill="#FFFFFF" d="M50.322,40.204l-0.775,2.949c-0.178,0.688,0,1.353,0.443,1.974c0.443,0.644,1.265,0.977,1.862,0.977h3.549
			c0.532,0,0.776-0.179,0.887-0.577c0.134-0.443-0.354-0.887-0.554-0.887h-3.549c-0.443,0-0.776-0.134-0.998-0.443
			c-0.244-0.311-0.199-0.599-0.066-1.043l0.377-1.485h5.078c0.244,0,0.443-0.022,0.666-0.199c0.154-0.156,0.222-0.333,0.288-0.533
			l0.399-1.486c0.532-1.907-1.131-3.681-2.706-3.681c-2.64,0-3.792,1.02-4.656,3.681L50.322,40.204z M52.163,39.449
			c0.621-1.752,1.442-2.218,2.662-2.218c1.375,0,1.93,0.976,1.552,2.218l-0.199,0.71H51.92L52.163,39.449z"/>
	</g>
</g>
</svg>
