<?xml version="1.0" encoding="utf-8"?>
<!-- Generator: Adobe Illustrator 19.2.1, SVG Export Plug-In . SVG Version: 6.00 Build 0)  -->
<svg width="80px" height="80px" version="1.1" xmlns="http://www.w3.org/2000/svg" xmlns:xlink="http://www.w3.org/1999/xlink" x="0px" y="0px"
	 viewBox="0 0 80 80" style="enable-background:new 0 0 80 80;" xml:space="preserve">
<style type="text/css">
	.st0{display:none;}
	.st1{display:inline;}
	.st2{fill:#FFFFFF;}
	.st3{display:inline;fill:#FFFFFF;}
	.st4{clip-path:url(#SVGID_2_);}
	.st5{fill:#F2F2F2;}
	.st6{fill:#010101;}
	.st7{display:inline;fill-rule:evenodd;clip-rule:evenodd;fill:none;}
</style>
<g id="Layer_1_copy_12">
	<g>
		<path class="st2" d="M22.5,53.7c0.1,0.7,0.8,1,1.6,1c1.5,0,2.9-0.6,4.2-1.1c1-0.4,1.9-0.8,2.8-1.2c0.3-0.1,0.6-0.3,0.8-0.5
			c-1.6,0.7-3.8,1.8-5.8,2.4c-1.5,0.4-3.9,0.8-3.4-1.2c0.4-1.8,2.2-3.3,3.1-4.6c-0.5,0.3-0.8,0.7-1.2,1.2c-0.3,0.4-0.6,0.8-0.9,1.2
			C23.1,51.5,22.3,52.6,22.5,53.7z"/>
		<path class="st2" d="M38.1,30.2c0,0.1-0.1,0.2-0.1,0.4c0.3-0.1,0.8-0.3,0.7-0.6c-0.1,0.1-0.1,0.3-0.2,0.4
			C38.4,30.3,38.3,30.2,38.1,30.2z"/>
		<path class="st2" d="M33.8,53.2c-2.1,1-4.5,2.6-7.2,3.8c-1.3,0.6-2.5,1.2-3.8,1.7c-1.4,0.5-2.9,1.1-4.4,1.2c-0.3,0-0.7,0-0.9,0
			c-2.3-0.2-1.3-2.7-0.6-3.9c1-1.6,2.2-3.1,3.4-4.4c0.2-0.3,0.6-0.5,0.7-0.8c-0.9,0.9-1.9,2-2.8,3.1c-0.9,1.1-1.8,2.3-2.2,3.7
			c-0.4,1.6,0.5,2.3,1.9,2.3c1.5,0,3.2-0.5,4.5-1c4.1-1.5,8.1-3.8,11.5-5.8C33.9,53.1,33.7,53.2,33.8,53.2z"/>
		<path class="st2" d="M51.2,32.2c-1.1,0.1-1.9,0.4-2.9,0.7c-0.9,0.3-1.7,0.6-2.3,1c1.4-0.4,3.5-1.7,5.6-1.6c0.3,0,0.7,0,1,0.2
			c0.9,0.5,0.3,1.8-0.1,2.5c-0.6,1.1-1.3,1.9-2,2.8c-0.4,0.4-0.8,0.8-1.1,1.3c0.4-0.3,0.7-0.7,1.1-1.2c0.3-0.4,0.7-0.8,1.1-1.2
			c0.6-0.8,1.5-1.9,1.6-3C53.4,32.2,52.3,32.1,51.2,32.2z"/>
		<path class="st2" d="M44.7,36.7c0.5,0,1.4-0.5,2.2-0.3c1.4,0.2,0.2,2-0.3,2.6c-0.5,0.6-1,1.2-1.3,1.6c0.6-0.4,1.1-1,1.6-1.7
			c0.4-0.5,0.9-1.3,0.8-1.9C47.5,35.7,45.3,36.3,44.7,36.7z"/>
		<path class="st2" d="M45.5,37.9c-0.1-0.3-0.7-0.4-1.1-0.3c-0.9,0.1-1.8,0.4-2.6,0.8c-2.3,1-4.2,2.3-6.1,3.7
			c-1.9,1.4-3.7,2.8-5.2,4.7c-0.4,0.5-1.3,1.5-0.9,2.2c0.3,0.7,2.1,0.2,2.7-0.1c2.5-1,4.6-2.4,6.6-3.8c2.1-1.4,3.9-2.9,5.5-4.9
			C44.8,39.8,45.8,38.7,45.5,37.9z M37.7,43.5c-0.4,0.3-0.8,0.7-1.3,0.6c0.1-0.5,0.6-0.7,0.9-1c0.3-0.2,0.8-0.6,1.3-0.6
			C38.5,42.9,38,43.2,37.7,43.5z"/>
		<path class="st2" d="M37.9,30.6c-0.5-1-1.8-1.6-3.2-1.1c0-0.1,0-0.3,0-0.4c-0.4-0.4-0.8-0.9-0.9-1.5c-0.3-1.2,0.5-1.5,1.5-1.2
			c1.4,0.5,2.6,2,3.8,2.6c0.1-0.1,0-0.3,0.1-0.4c0.4,0.1,0.5-0.4,0.7-0.4c0,0.3-0.1,0.7,0,0.9c0.3-0.3,0.1-0.9,0.2-1.3
			c0,0,0,0,0.1,0c0.2,0,0.3,0.1,0.5,0c0,0.1-0.1,0.4,0.1,0.4c1.1,0,1.8-0.7,2.5-1.3c0.6-0.5,1.1-1,1.7-1.4c0.7,0.4,0.4,2.1,0.1,2.6
			c-0.6,1-2.4,0.7-2.9,1.7c0.3,0,0.6,0.1,0.9,0c0.9-0.1,1.6-0.8,2.1-1.7c0.4-0.7,0.7-1.4,0.8-2c0.1-0.7-0.2-1.2,0-1.9
			c-1.7,1-3,2.1-4.9,3c-0.3,0.1-0.6,0.3-0.9,0.4c-0.4,0.1-0.7,0.2-1.1,0.1c-0.6-0.1-1.2-0.6-1.7-0.9c-1.6-1.1-3.1-2.3-5.3-2.6
			c0,0,0,0.1,0,0.1C32.7,27.4,33.5,31.1,37.9,30.6z"/>
		<path class="st2" d="M37.5,29.1c-0.5-0.6-1.2-0.9-1.7-1.4C35.9,28.7,36.7,28.9,37.5,29.1z"/>
		<path class="st2" d="M27.1,52.2C26.6,52.2,26.7,52.3,27.1,52.2L27.1,52.2z"/>
		<path class="st2" d="M19,56.2c0.2,1.6,3,1,4.3,0.6c2.1-0.6,3.8-1.5,5.6-2.3c0.4-0.2,0.8-0.3,1-0.6c-1.9,0.8-4.3,2.1-6.7,2.8
			c-0.9,0.3-1.8,0.5-2.8,0.4c-1.8-0.2-1.2-2-0.6-3.1c1-1.8,2.4-3.3,3.8-4.7c0.1-0.1,0.3-0.3,0.3-0.4c-1.3,1.3-3,3-4.1,4.9
			C19.4,54.5,18.9,55.4,19,56.2z"/>
		<path class="st2" d="M43.6,27.4c-0.5,0.4-1,0.8-1.2,1.3C42.9,28.4,43.9,28.4,43.6,27.4z"/>
		<path class="st2" d="M27.9,50.4c-0.3-0.4,0.1-0.9,0-1.2c-0.6,0.8-0.2,1.6,0.7,1.6c0.9,0,1.9-0.4,2.9-0.7c1.4-0.6,2.7-1.2,3.5-1.9
			c-1.5,0.7-3.9,2.4-6.1,2.5C28.5,50.7,28.1,50.6,27.9,50.4z"/>
		<path class="st2" d="M40,0C17.9,0,0,17.9,0,40c0,22.1,17.9,40,40,40s40-17.9,40-40C80,17.9,62.1,0,40,0z M20.7,21.5
			c0.3-0.3,0.7-0.8,1-0.9c0.5-0.1,1.1,0,1.5,0c0.4,0,0.9-0.2,1.3-0.2c0.9-0.1,1.7,0.1,2.6,0.1c-0.7,1.9-1.5,3.8-2.1,5.9
			c-0.9-0.9-1.6-1.9-2.3-2.9c-0.8,0.2-1.6,0-2-0.5c-0.5,0.5-1.9,1.8-2.8,1C18.7,23.2,19.7,22.4,20.7,21.5z M26,40.5
			c-0.6-0.7-1.5-1.6-2.2-2.5c-1.6-2.2-2.7-5.3-2.5-9.3c0-0.8,0-1.9,0.4-2c0.6-0.2,1.3,0.3,1.7,0.5c0.6,0.3,1,0.6,1.7,0.6
			c0.5-2.3,1.3-4.2,2.2-6.3c0.2-0.5,0.6-1.7,1-1.7c0.3-0.1,0.7,0.3,0.9,0.3c0.6,0,1.4-1,1.8-1.4c1.4-1.5,2.7-2.5,4.2-3.8
			c0.5-0.4,1.1-1.1,0.3-1.5c-0.3-0.1-0.7,0-1-0.2c-0.3-0.2-0.3-0.6-0.5-0.9c0.6-0.7,1.4-1,2.3-1.3c0.4-0.1,0.8-0.3,1.3-0.5
			c0.4-0.1,1-0.4,1.5-0.3c0.4,0.1,1,1.1,1.3,1.5c1.2,1.5,2.3,3.2,3.4,4.7c1.5,2.1,2.8,4.4,4,6.8c0.6,0,0.8-0.4,1.3-0.4
			c0.3,1.5,0.5,3.9-0.2,4.9c-0.3,0.4-0.8,0.8-1.3,1.3c-0.9,0.8-1.7,1.6-2.6,2.3c-0.5,0.4-0.9,0.8-1.4,1.1c-0.8,0.5-1.7,0.9-2.3,1.4
			c-3.7-2-7.8-3.5-12.3-4.7c0,0,0,0-0.1,0c-0.1,0,0.5,0.2,0.7,0.3c0.8,0.3,1.6,0.6,2.3,0.9c1,0.4,2.1,0.8,3.1,1.2
			c2,0.9,3.9,1.8,5.7,2.7c-6.8,4.4-13.2,9.1-18.9,14.5c-2.2-2.7-4.6-5.5-6.7-8.2C18.7,39.4,22.5,40,26,40.5z M36.4,62.3
			c-0.6,0.8-1.4,1.7-1.4,3c0,0.7,0.3,1.1,0.2,1.7c-0.1,0.5-0.6,1.3-1,1.7C33.4,69.3,31.5,70,30,70c-1.1,0-2.5-0.5-2.4-1.8
			c0.1-0.9,1.2-1.5,1.6-2.1c0.3-0.4,0.4-1,0.7-1.6c0.3-0.5,0.6-1,0.9-1.4c0.3-0.4,0.9-0.7,1-1.3c0.1-0.9-0.7-2.1-1-2.6
			c-0.5-0.8-1.1-1.3-1.5-2.1c1.5-0.7,2.9-1.5,4.2-2.3c0.9,1.4,1.5,3.3,2.6,4.7c0.4,0.5,1.1,0.7,1.2,1.5
			C37.2,61.3,36.7,61.9,36.4,62.3z M30.4,55.9c-2.2,1.2-4.3,2.3-6.8,3.3c-1.2,0.5-2.3,0.9-3.8,1.3c-1.5,0.4-4.8,1.1-5.2-0.7
			c-0.3-1.1,0.7-2.7,1.2-3.6c1.9-3,4.6-5.6,7-7.9c3.2-3.1,7-6.1,10.9-8.9c5.8-4.2,11.7-8,18.6-11.1c1.2-0.5,2.3-1,3.6-1.4
			c1.3-0.4,2.5-0.8,4.1-0.9c0.9,0,2,0.1,2.3,0.9c0.5,1.3-0.6,2.9-1.1,3.8c-2,3.1-4.5,5.7-7.1,8.1C47.1,45.3,39.1,51.1,30.4,55.9z
			 M53.4,58.9c0.4,0.7,0.9,1.8-0.3,2c-0.9,0.1-1.8-0.2-2.6-0.5c-0.8-0.3-1.2-0.6-1.9-1.2c-0.8-0.7-2.1-1-3.3-1.3
			c-0.6-0.2-1.2-0.1-1.3-0.7c-0.1-0.5,0.3-1,0.6-1.3c1.1-1.2,3.3-2,4.6-2.9c-2.7-1.1-5.8-1.8-9-2.4c-0.1-0.1,0.2-0.2,0.3-0.3
			c2.3-1.6,4.8-3.3,7-5.1c4.1,2.3,7.9,5.2,10.4,8.9c-2.6,0.2-4.9,0.7-7,1.5c-0.6,0.2-1.5,0.5-1.6,1.2C50.8,57.3,52.6,57.6,53.4,58.9
			z M63.7,48.6c0.4,0.9,1.6,2.4,1.5,4c-0.1,0.8-0.8,1-1.2,1.5c-0.2,0.2-0.3,0.5-0.5,0.5c-0.4,0.1-0.9-0.4-1.2-0.6
			c-0.6-0.4-1.1-0.5-1.5-0.9c-0.8-0.6-1.3-1.9-1.9-2.8c-0.6-1-1.1-2-1.9-2.8c-0.5-0.5-1.1-0.8-1.7-1.2c-1.9-1-4.1-1.5-6.3-2.3
			c1.4-1.2,2.8-2.3,4.1-3.5c0,0,0,0,0,0c1.6,1,3.3,1.7,4.9,2.7c1.2,0.8,2.5,1.3,3.4,2.3c0.5,0.5,0.9,1.4,1.5,1.8
			c0.6,0.4,1.7,0.5,2.5,0.3C65.3,48.4,64.7,48.7,63.7,48.6z"/>
		<path class="st2" d="M55.8,33.9c0.7-0.9,1.3-1.9,1.5-2.9c0.4-1.7-1.3-2.1-2.7-1.6c-0.2,0.1,0.1,0,0.1,0c1.5-0.2,2.8,0.1,2.4,1.7
			c-0.2,1-0.9,2-1.6,2.8c-0.6,0.8-1.2,1.4-1.7,2.1c0,0.1-0.2,0.2-0.1,0.3C54.3,35.7,55.1,34.8,55.8,33.9z"/>
		<path class="st2" d="M55.2,33.5C55.2,33.6,55.1,33.6,55.2,33.5C54.8,34.1,55.2,33.7,55.2,33.5z"/>
		<path class="st2" d="M55.9,36c1.2-1.3,2.4-2.6,3.4-4.1c0.5-0.7,1-1.7,1.2-2.6c0.3-1.4-0.5-2-1.7-2c-1.4-0.1-2.7,0.4-3.9,0.7
			c-3.5,1.1-6.9,3-9.6,4.5c0,0,0,0,0,0c0.6-0.2,1.1-0.5,1.7-0.9c0.6-0.3,1.2-0.6,1.7-0.9c2.4-1.2,4.7-2.3,7.5-3.1
			c1.2-0.3,3.5-0.7,4,0.5c0.2,0.6,0,1.4-0.2,1.9c-0.6,1.5-1.7,2.8-2.8,4.1c-0.5,0.6-1,1.3-1.6,1.8c-0.6,0.6-1.2,1.1-1.7,1.7
			C54.7,37.4,55.2,36.7,55.9,36z"/>
		<path d="M62.9,47.3c-0.7-0.4-1.1-1.3-1.5-1.8c-0.9-1-2.2-1.5-3.4-2.3c-1.5-1-3.3-1.7-4.9-2.7c0,0,0,0,0,0
			c-1.4,1.2-2.8,2.3-4.1,3.5c2.2,0.8,4.4,1.3,6.3,2.3c0.6,0.3,1.2,0.7,1.7,1.2c0.7,0.7,1.3,1.8,1.9,2.8c0.6,0.9,1.1,2.2,1.9,2.8
			c0.5,0.4,1,0.5,1.5,0.9c0.3,0.2,0.9,0.7,1.2,0.6c0.2,0,0.4-0.3,0.5-0.5c0.5-0.5,1.2-0.7,1.2-1.5c0.1-1.5-1-3.1-1.5-4
			c1,0.1,1.6-0.2,1.7-1C64.6,47.8,63.5,47.7,62.9,47.3z"/>
		<path d="M61.2,30.7c0.6-0.9,1.6-2.5,1.1-3.8C62,26.2,60.9,26,60,26.1c-1.6,0.1-2.9,0.5-4.1,0.9c-1.2,0.4-2.4,0.9-3.6,1.4
			c-6.9,3.1-12.9,6.9-18.6,11.1c-3.9,2.8-7.7,5.8-10.9,8.9c-2.4,2.3-5,4.9-7,7.9c-0.6,0.9-1.5,2.4-1.2,3.6c0.4,1.8,3.6,1.1,5.2,0.7
			c1.5-0.4,2.6-0.8,3.8-1.3c2.5-1,4.7-2.1,6.8-3.3c8.7-4.8,16.7-10.6,23.7-17C56.7,36.4,59.3,33.8,61.2,30.7z M27.1,52.2
			C26.7,52.3,26.6,52.2,27.1,52.2L27.1,52.2z M25.8,48.4c-0.9,1.3-2.7,2.7-3.1,4.6c-0.5,2,2,1.6,3.4,1.2c2.1-0.6,4.2-1.6,5.8-2.4
			c-0.2,0.3-0.5,0.4-0.8,0.5c-0.9,0.4-1.8,0.8-2.8,1.2c-1.3,0.5-2.7,1.1-4.2,1.1c-0.8,0-1.5-0.3-1.6-1c-0.1-1.1,0.7-2.1,1.2-2.9
			c0.3-0.4,0.6-0.8,0.9-1.2C25,49.1,25.3,48.7,25.8,48.4z M30.8,51.6c-0.1,0.1-0.2,0.1-0.3,0.2C30.4,51.8,30.7,51.6,30.8,51.6z
			 M31.3,51.4c-0.1,0.1-0.2,0.1-0.3,0.2C30.9,51.5,31.2,51.4,31.3,51.4z M28.1,54.6c0.1,0-0.2,0.1-0.3,0.2
			C27.6,54.8,27.9,54.6,28.1,54.6z M24.4,55.8C24,56,23.9,55.9,24.4,55.8L24.4,55.8z M22.7,50.8c0.1-0.1,0.1-0.1,0.2-0.1
			C23,50.7,22.4,51.2,22.7,50.8z M24.2,49.2c-0.1,0,0.2-0.1,0.2-0.1c0,0.1-0.2,0.2-0.3,0.3c-0.1,0.1,0.1-0.2,0.1-0.2
			C24.2,49.1,24.2,49.2,24.2,49.2z M23.6,50c0-0.1,0.2-0.3,0.3-0.3C23.9,49.6,23.6,49.9,23.6,50z M23.8,49c0.1,0.1-0.1,0.3-0.3,0.4
			c-1.4,1.4-2.7,2.8-3.8,4.7c-0.6,1.1-1.2,2.9,0.6,3.1c0.9,0.1,1.9-0.2,2.8-0.4c2.4-0.7,4.8-1.9,6.7-2.8c-0.2,0.3-0.6,0.4-1,0.6
			c-1.8,0.8-3.5,1.7-5.6,2.3c-1.3,0.4-4.1,1-4.3-0.6c-0.1-0.8,0.4-1.7,0.7-2.3C20.7,52,22.5,50.4,23.8,49z M22.2,56.2
			C22.2,56.3,22.1,56.3,22.2,56.2c-0.2,0.1-0.3,0.1-0.4,0.1C21.9,56.2,22.1,56.3,22.2,56.2z M21.6,56.5c-0.1,0.1-0.2-0.1-0.4,0
			C21.3,56.3,21.4,56.5,21.6,56.5z M22.4,59c-1.4,0.5-3.1,1.1-4.5,1c-1.5,0-2.4-0.7-1.9-2.3c0.4-1.4,1.4-2.6,2.2-3.7
			c0.9-1.2,1.8-2.3,2.8-3.1c-0.1,0.3-0.4,0.6-0.7,0.8c-1.2,1.3-2.5,2.8-3.4,4.4c-0.7,1.2-1.8,3.7,0.6,3.9c0.2,0,0.6,0,0.9,0
			c1.5-0.1,3-0.6,4.4-1.2c1.3-0.5,2.6-1.1,3.8-1.7c2.6-1.2,5.1-2.9,7.2-3.8c0,0,0.1-0.1,0.1,0C30.5,55.1,26.5,57.5,22.4,59z
			 M31.6,50.1c-0.9,0.4-1.9,0.8-2.9,0.7c-1,0-1.3-0.9-0.7-1.6c0.1,0.3-0.3,0.8,0,1.2c0.2,0.2,0.6,0.3,1.1,0.3
			c2.2-0.2,4.6-1.8,6.1-2.5C34.3,48.9,33,49.5,31.6,50.1z M38.9,45.1c-2,1.4-4.1,2.8-6.6,3.8c-0.7,0.2-2.4,0.8-2.7,0.1
			c-0.3-0.7,0.5-1.7,0.9-2.2c1.5-1.9,3.3-3.3,5.2-4.7c1.9-1.4,3.8-2.7,6.1-3.7c0.8-0.3,1.6-0.7,2.6-0.8c0.4,0,0.9,0,1.1,0.3
			c0.3,0.8-0.7,1.9-1,2.3C42.9,42.2,41,43.7,38.9,45.1z M46.8,38.8c-0.5,0.7-1,1.3-1.6,1.7c0.3-0.4,0.8-1,1.3-1.6
			c0.5-0.6,1.7-2.3,0.3-2.6c-0.8-0.1-1.7,0.4-2.2,0.3c0.7-0.4,2.9-0.9,3,0.2C47.7,37.6,47.2,38.3,46.8,38.8z M48.7,37.9
			c0.1-0.1,0.2-0.2,0.2-0.3C49,37.6,48.9,37.8,48.7,37.9z M48.8,34.7c0,0-0.1,0.1-0.1,0C48.7,34.6,49.3,34.7,48.8,34.7z M53.2,33.6
			c-0.1,1.1-1,2.2-1.6,3c-0.3,0.4-0.7,0.8-1.1,1.2c-0.4,0.4-0.7,0.9-1.1,1.2c0.3-0.5,0.7-0.8,1.1-1.3c0.8-0.9,1.4-1.7,2-2.8
			c0.4-0.7,1-2,0.1-2.5c-0.3-0.2-0.7-0.2-1-0.2c-2.1,0-4.2,1.2-5.6,1.6c0.6-0.4,1.4-0.7,2.3-1c0.9-0.3,1.8-0.6,2.9-0.7
			C52.3,32.1,53.4,32.2,53.2,33.6z M49.6,36.5c0.1,0.1-0.1,0.2-0.1,0.3C49.4,36.9,49.6,36.6,49.6,36.5z M48.6,31.7
			c0,0-0.2,0.1-0.3,0.1C48.2,31.9,48.5,31.7,48.6,31.7z M51.4,30.8c0.1-0.1,0.2-0.1,0.3-0.1C51.7,30.8,51.6,30.8,51.4,30.8z
			 M53.4,30.2c-0.1,0.1-0.2,0.1-0.4,0.1C53.2,30.3,53.3,30.2,53.4,30.2z M53.2,30.1c0.1-0.1,0.2-0.1,0.4-0.1
			C53.5,30.1,53.3,30.1,53.2,30.1z M53.5,35.8c0-0.1,0.1-0.1,0.1-0.2C53.7,35.7,53.1,36.1,53.5,35.8z M53.8,35.7
			c0,0.1-0.1,0.2-0.1,0.3C53.4,36.2,53.6,35.9,53.8,35.7z M53.7,30c-0.1,0,0.2-0.1,0.3-0.1C54,30,53.9,30,53.7,30z M54.1,35.3
			c0,0,0.1,0,0.1-0.1C54.2,35.4,53.8,35.7,54.1,35.3z M53.8,36c0.6-0.7,1.2-1.3,1.7-2.1c0.6-0.9,1.3-1.8,1.6-2.8
			c0.4-1.6-0.9-1.8-2.4-1.7c0,0-0.3,0.1-0.1,0c1.4-0.5,3.1-0.1,2.7,1.6c-0.2,1-0.9,2-1.5,2.9c-0.7,0.9-1.5,1.8-2.1,2.3
			C53.6,36.1,53.8,36,53.8,36z M55.1,33.6C55.1,33.6,55.2,33.6,55.1,33.6C55.2,33.7,54.8,34.1,55.1,33.6z M55.2,30.2
			c0.1-0.1,0.3,0,0.4,0C55.5,30.3,55.3,30.1,55.2,30.2z M55.7,33.1c0.1,0.1-0.1,0.2-0.1,0.3C55.5,33.3,55.7,33.2,55.7,33.1z
			 M56.2,31.7c0,0,0,0.1,0,0.1C56,31.6,56.2,31.1,56.2,31.7z M56.3,31c0.1-0.1,0,0.2,0,0.3C56.3,31.4,56.3,31.1,56.3,31z M56.3,31.8
			c-0.1,0.1,0-0.2,0-0.3C56.4,31.6,56.3,31.7,56.3,31.8z M55.7,36.1c0.6-0.6,1.1-1.2,1.6-1.8c1.1-1.2,2.2-2.6,2.8-4.1
			c0.2-0.5,0.4-1.4,0.2-1.9c-0.5-1.2-2.8-0.8-4-0.5c-2.9,0.7-5.1,1.9-7.5,3.1c-0.6,0.3-1.2,0.6-1.7,0.9c-0.6,0.3-1.1,0.7-1.7,0.9
			c-0.1,0-0.1,0,0,0c2.7-1.5,6.1-3.3,9.6-4.5c1.2-0.4,2.5-0.8,3.9-0.7c1.2,0.1,2,0.6,1.7,2c-0.2,0.9-0.7,1.8-1.2,2.6
			c-1,1.5-2.2,2.8-3.4,4.1c-0.6,0.7-1.2,1.3-1.9,1.8C54.5,37.2,55.1,36.7,55.7,36.1z"/>
		<path class="st2" d="M56.4,31.3c0-0.1,0-0.4,0-0.3C56.3,31.1,56.3,31.4,56.4,31.3z"/>
		<path class="st2" d="M56.3,31.8c0-0.1,0.1-0.3,0-0.3C56.3,31.6,56.2,31.9,56.3,31.8z"/>
		<path class="st2" d="M56.1,31.8c0,0,0-0.1,0-0.1C56.2,31.1,56,31.6,56.1,31.8z"/>
		<path class="st2" d="M55.7,33.1c0,0.1-0.2,0.2-0.1,0.3C55.6,33.3,55.8,33.2,55.7,33.1z"/>
		<path class="st2" d="M55.2,30.2c0.2-0.1,0.3,0.1,0.4,0C55.5,30.2,55.3,30.1,55.2,30.2z"/>
		<path d="M50.9,55.6c2.1-0.8,4.5-1.3,7-1.5c-2.6-3.7-6.3-6.6-10.4-8.9c-2.2,1.7-4.6,3.5-7,5.1c-0.1,0.1-0.4,0.2-0.3,0.3
			c3.2,0.6,6.3,1.3,9,2.4c-1.3,0.9-3.5,1.7-4.6,2.9c-0.2,0.3-0.6,0.8-0.6,1.3c0.1,0.6,0.7,0.6,1.3,0.7c1.2,0.3,2.5,0.6,3.3,1.3
			c0.7,0.6,1.1,0.9,1.9,1.2c0.7,0.3,1.6,0.6,2.6,0.5c1.1-0.1,0.7-1.2,0.3-2c-0.7-1.4-2.6-1.7-4-2.2C49.4,56.1,50.3,55.8,50.9,55.6z"
			/>
		<path class="st2" d="M54.2,35.2c0,0.1-0.1,0.1-0.1,0.1C53.8,35.7,54.2,35.4,54.2,35.2z"/>
		<path class="st2" d="M53.7,30c0.1,0,0.3,0,0.3-0.1C53.9,29.9,53.6,30,53.7,30z"/>
		<path class="st2" d="M53.6,36c0-0.1,0.1-0.2,0.1-0.3C53.6,35.9,53.4,36.2,53.6,36z"/>
		<path class="st2" d="M53.5,35.8c-0.4,0.3,0.2-0.1,0.1-0.2C53.6,35.7,53.5,35.7,53.5,35.8z"/>
		<path class="st2" d="M53.2,30.1c0.1,0,0.3,0,0.4-0.1C53.4,30,53.3,30,53.2,30.1z"/>
		<path class="st2" d="M53.4,30.2c-0.2,0-0.3,0-0.4,0.1C53.2,30.3,53.3,30.3,53.4,30.2z"/>
		<path class="st2" d="M51.4,30.8c0.1,0,0.3-0.1,0.3-0.1C51.6,30.7,51.5,30.7,51.4,30.8z"/>
		<path class="st2" d="M49.6,36.5c0,0.1-0.3,0.4-0.1,0.3C49.5,36.7,49.7,36.6,49.6,36.5z"/>
		<path d="M40.9,33.9C39,33,37.1,32,35.1,31.2c-1-0.4-2-0.8-3.1-1.2c-0.8-0.3-1.5-0.6-2.3-0.9c-0.2-0.1-0.7-0.2-0.7-0.3
			c0,0,0,0,0.1,0c4.4,1.2,8.6,2.8,12.3,4.7c0.7-0.5,1.6-0.9,2.3-1.4c0.4-0.3,0.9-0.7,1.4-1.1c1-0.8,1.7-1.5,2.6-2.3
			c0.5-0.4,1-0.8,1.3-1.3c0.7-1.1,0.5-3.5,0.2-4.9c-0.5,0.1-0.7,0.5-1.3,0.4c-1.2-2.4-2.4-4.7-4-6.8c-1.1-1.5-2.2-3.1-3.4-4.7
			c-0.3-0.4-0.9-1.4-1.3-1.5c-0.5-0.1-1.1,0.2-1.5,0.3c-0.5,0.2-1,0.3-1.3,0.5c-1,0.4-1.8,0.7-2.3,1.3c0.2,0.3,0.2,0.7,0.5,0.9
			c0.3,0.2,0.7,0.1,1,0.2c0.8,0.4,0.2,1.1-0.3,1.5c-1.5,1.3-2.8,2.3-4.2,3.8C30.8,19,30,20,29.4,20c-0.3,0-0.6-0.4-0.9-0.3
			c-0.4,0.1-0.8,1.3-1,1.7c-0.9,2.1-1.6,4-2.2,6.3c-0.7,0-1.1-0.3-1.7-0.6c-0.4-0.2-1.2-0.8-1.7-0.5c-0.4,0.2-0.4,1.3-0.4,2
			c-0.2,4,0.9,7.1,2.5,9.3c0.7,0.9,1.6,1.8,2.2,2.5c-3.5-0.5-7.3-1-10.8-0.3c2.1,2.7,4.5,5.5,6.7,8.2C27.6,42.9,34.1,38.2,40.9,33.9
			z M38,30.6c0-0.2,0.1-0.3,0.1-0.4c0.2,0,0.2,0.1,0.3,0.1c0.1-0.1,0.1-0.3,0.2-0.4C38.8,30.3,38.3,30.5,38,30.6z M31.9,24.2
			c2.2,0.4,3.7,1.5,5.3,2.6c0.5,0.3,1.1,0.8,1.7,0.9c0.4,0.1,0.8,0,1.1-0.1c0.3-0.1,0.6-0.3,0.9-0.4c1.9-0.8,3.2-2,4.9-3
			c-0.1,0.7,0.1,1.2,0,1.9c-0.1,0.6-0.4,1.4-0.8,2c-0.5,0.8-1.3,1.5-2.1,1.7c-0.3,0-0.6,0-0.9,0c0.5-1,2.3-0.7,2.9-1.7
			c0.3-0.5,0.6-2.2-0.1-2.6c-0.6,0.4-1.1,0.9-1.7,1.4c-0.7,0.6-1.4,1.3-2.5,1.3c-0.2,0,0-0.3-0.1-0.4c-0.2,0-0.4,0-0.5,0
			c0,0,0,0-0.1,0c-0.2,0.4,0.1,1-0.2,1.3c-0.1-0.3,0-0.6,0-0.9c-0.2,0.1-0.3,0.6-0.7,0.4c-0.1,0.1,0,0.3-0.1,0.4
			c-1.2-0.5-2.4-2-3.8-2.6c-0.9-0.4-1.7-0.1-1.5,1.2c0.1,0.6,0.6,1.2,0.9,1.5c0,0.1,0,0.3,0,0.4c1.4-0.4,2.7,0.1,3.2,1.1
			c-4.4,0.4-5.2-3.2-6-6.4C31.9,24.2,31.9,24.2,31.9,24.2z M42.4,28.7c0.2-0.5,0.8-0.9,1.2-1.3C43.9,28.4,42.9,28.4,42.4,28.7z
			 M37.5,29.1c-0.8-0.3-1.6-0.5-1.7-1.4C36.3,28.2,37,28.6,37.5,29.1z"/>
		<path class="st2" d="M49,37.6c-0.1,0.1-0.1,0.2-0.2,0.3C48.9,37.8,49,37.6,49,37.6z"/>
		<path class="st2" d="M48.7,34.7c0.1,0,0.1,0,0.1,0C49.3,34.7,48.7,34.6,48.7,34.7z"/>
		<path class="st2" d="M48.6,31.7c-0.2,0-0.4,0.2-0.3,0.1C48.4,31.8,48.7,31.7,48.6,31.7z"/>
		<path d="M36.4,44c0.5,0.1,0.9-0.3,1.3-0.6c0.4-0.3,0.9-0.5,0.9-1c-0.5-0.1-0.9,0.3-1.3,0.6C36.9,43.3,36.5,43.5,36.4,44z"/>
		<path d="M36,59.4c-1-1.3-1.7-3.2-2.6-4.7c-1.4,0.8-2.8,1.6-4.2,2.3c0.5,0.7,1,1.3,1.5,2.1c0.4,0.5,1.2,1.7,1,2.6
			c-0.1,0.6-0.7,0.9-1,1.3c-0.3,0.4-0.6,0.9-0.9,1.4c-0.3,0.5-0.5,1.2-0.7,1.6c-0.4,0.7-1.6,1.2-1.6,2.1C27.5,69.5,28.9,70,30,70
			c1.5,0,3.4-0.7,4.2-1.3c0.4-0.4,1-1.2,1-1.7c0.1-0.6-0.2-1.1-0.2-1.7c0-1.4,0.7-2.2,1.4-3c0.3-0.4,0.8-1,0.8-1.5
			C37.1,60.1,36.4,59.9,36,59.4z"/>
		<path class="st2" d="M31,51.6c0.1-0.1,0.2-0.1,0.3-0.2C31.2,51.4,30.9,51.5,31,51.6z"/>
		<path class="st2" d="M30.5,51.8c0.1-0.1,0.2-0.1,0.3-0.2C30.7,51.6,30.4,51.8,30.5,51.8z"/>
		<path class="st2" d="M28.1,54.6c-0.1,0-0.5,0.2-0.3,0.2C27.8,54.7,28.1,54.5,28.1,54.6z"/>
		<path d="M20.7,23.2c0.4,0.5,1.2,0.7,2,0.5c0.8,1,1.5,2,2.3,2.9c0.5-2.1,1.3-4,2.1-5.9c-0.9,0-1.8-0.2-2.6-0.1
			c-0.4,0-0.9,0.2-1.3,0.2c-0.4,0-1-0.2-1.5,0c-0.3,0.1-0.7,0.6-1,0.9c-1,0.9-2,1.7-2.8,2.6C18.8,24.9,20.2,23.7,20.7,23.2z"/>
		<path class="st2" d="M24.1,49.4c0.1-0.1,0.3-0.3,0.3-0.3c0,0.1-0.3,0.1-0.2,0.1c0,0,0.1-0.1,0.1,0C24.2,49.2,24.1,49.5,24.1,49.4z
			"/>
		<path class="st2" d="M24.4,55.8C23.9,55.9,24,56,24.4,55.8L24.4,55.8z"/>
		<path class="st2" d="M23.6,50c0.1-0.1,0.3-0.4,0.3-0.3C23.8,49.7,23.6,49.9,23.6,50z"/>
		<path class="st2" d="M22.7,50.8c-0.3,0.4,0.2-0.1,0.2-0.1C22.8,50.8,22.8,50.8,22.7,50.8z"/>
		<path class="st2" d="M22.2,56.2c-0.1,0.1-0.3,0-0.4,0.1C21.9,56.3,22,56.3,22.2,56.2C22.1,56.3,22.2,56.3,22.2,56.2z"/>
		<path class="st2" d="M21.6,56.5c-0.1,0-0.3-0.1-0.4,0C21.3,56.4,21.5,56.6,21.6,56.5z"/>
	</g>
</g>
</svg>
