<?xml version="1.0" encoding="utf-8"?>
<!-- Generator: Adobe Illustrator 16.0.0, SVG Export Plug-In . SVG Version: 6.00 Build 0)  -->
<!DOCTYPE svg PUBLIC "-//W3C//DTD SVG 1.1//EN" "http://www.w3.org/Graphics/SVG/1.1/DTD/svg11.dtd">
<svg version="1.1" xmlns="http://www.w3.org/2000/svg" xmlns:xlink="http://www.w3.org/1999/xlink" x="0px" y="0px" width="80px"
	 height="80px" viewBox="0 0 80 80" enable-background="new 0 0 80 80" xml:space="preserve">
<g id="Layer_1_copy_3">
	<g>
		<path fill="#FFFFFF" d="M40,0C17.908,0,0,17.908,0,40s17.908,40,40,40s40-17.908,40-40S62.092,0,40,0z M59.049,45.393
			c-4.505,2.973-8.835,4.955-13.023,8.374c-3.701,3.02-6.92,6.956-11.843,8.025C22.311,64.374,14.363,47.996,11.239,39.29
			C5.006,24.908,23.392,16.363,41.784,18.176c20.733,2.045,26.412,9.949,26.412,9.949C75.319,36.809,59.049,45.393,59.049,45.393z"
			/>
		<path d="M25.552,43.693c-0.355,0-0.667,0.16-0.896,0.418c-0.347,0.372-0.533,0.94-0.533,1.544c0,0.373,0.097,0.692,0.31,0.887
			c0.151,0.143,0.355,0.231,0.631,0.231c0.302,0,0.576-0.133,0.79-0.337c0.381-0.373,0.612-1.003,0.612-1.625
			c0-0.373-0.071-0.675-0.258-0.869C26.058,43.791,25.844,43.693,25.552,43.693z"/>
		<path d="M24.836,28.731h-2.314v3.945h2.682c1.257,0,2.166-0.738,2.166-1.973C27.37,29.504,26.554,28.73,24.836,28.731z"/>
		<path d="M38.822,30.701c0-1.197-0.814-1.973-2.523-1.972h-2.311v3.945h2.676C37.916,32.673,38.822,31.937,38.822,30.701z"/>
		<path d="M68.196,28.125c0,0-5.679-7.904-26.412-9.949C23.392,16.363,5.006,24.908,11.239,39.29
			c3.125,8.706,11.072,25.084,22.944,22.502c4.922-1.069,8.142-5.006,11.843-8.025c4.188-3.419,8.519-5.401,13.023-8.374
			C59.049,45.393,75.319,36.809,68.196,28.125z M22.973,43.67h-0.852c-0.329,2.024-0.595,4.509-2.078,5.618l-0.461-0.487
			c1.155-1.048,1.376-2.708,1.776-5.131h-0.621l0.088-0.64h0.604l0.106-0.541c0.24-1.233,1.047-1.545,1.686-1.545
			c0.312,0,0.613,0.063,0.907,0.24l-0.32,0.613c-0.168-0.115-0.355-0.187-0.604-0.187c-0.416,0-0.754,0.284-0.887,0.939l-0.097,0.48
			h1.011L22.973,43.67z M26.448,46.836c-0.391,0.363-0.888,0.577-1.447,0.577c-0.541,0-0.932-0.16-1.189-0.418
			c-0.329-0.337-0.471-0.825-0.471-1.349c0-0.781,0.275-1.5,0.755-1.979c0.381-0.391,0.914-0.631,1.526-0.631
			c0.542,0,0.933,0.169,1.19,0.444c0.31,0.328,0.443,0.79,0.443,1.296C27.256,45.629,26.954,46.365,26.448,46.836z M24.89,34.851
			l-0.019,0.002l-2.35,0.001l0.001,4.39l-0.001,0.001c0,0,0,0.001,0,0.001c0,0.243-0.195,0.438-0.438,0.438l-0.001,0.001H20.5
			c-0.007,0-0.015,0.002-0.024,0.002c-0.241,0-0.437-0.195-0.437-0.437c0-0.003,0-0.005,0-0.007V27.013
			c0-0.006-0.002-0.013-0.002-0.02c0-0.242,0.196-0.437,0.438-0.437c0.002,0,0.004,0,0.006,0l5.038,0
			c2.796,0,4.437,1.659,4.437,3.963c0,2.951-1.972,3.633-2.604,3.872C27.351,34.392,26.12,34.816,24.89,34.851z M30.66,43.918
			c-0.115-0.062-0.274-0.089-0.408-0.089c-0.425,0-0.932,0.427-1.269,2.007l-0.321,1.508h-0.78l0.905-4.198h0.612l-0.123,0.853
			h0.008c0.275-0.595,0.639-0.95,1.189-0.95c0.231,0,0.408,0.062,0.551,0.16L30.66,43.918z M31.951,39.686l-0.003-0.004
			c-0.238-0.004-0.428-0.198-0.428-0.436c0-0.001,0-0.002,0-0.004l0,0V27.005c0-0.003-0.001-0.008-0.001-0.012
			c0-0.242,0.194-0.437,0.435-0.437l0.001-0.001h5.021c2.787,0,4.432,1.658,4.432,3.961c0,2.954-1.975,3.634-2.605,3.874
			l2.581,4.649v0.001c0.033,0.063,0.056,0.134,0.056,0.211c0,0.241-0.196,0.437-0.438,0.437c-0.01,0-0.019-0.002-0.027-0.002h-1.838
			l-0.005-0.003c-0.166-0.003-0.308-0.099-0.378-0.236l-0.001-0.001l-2.415-4.593h-2.348v4.384l-0.001,0.001
			c0,0.004,0.001,0.008,0.001,0.011c0,0.242-0.196,0.437-0.437,0.437c-0.003,0-0.005,0-0.008,0H31.951z M36.984,46.982
			c0,0.126-0.102,0.228-0.228,0.228h0h-0.522h0c-0.124-0.002-0.225-0.103-0.225-0.228c0-0.002,0.001-0.003,0.001-0.006v-2.373
			c0-0.172,0-0.344,0.015-0.509H36.01c-0.05,0.129-0.215,0.372-0.293,0.494l-0.806,1.235c-0.041,0.062-0.11,0.104-0.19,0.104h0
			h-0.001h-0.213h-0.001c-0.074-0.002-0.137-0.038-0.178-0.094h-0.001l-0.907-1.281c-0.093-0.129-0.208-0.271-0.3-0.458h-0.014
			c0.007,0.179,0.007,0.344,0.007,0.479v2.405c0,0.001,0,0.002,0,0.003c0,0.126-0.102,0.228-0.228,0.228h-0.52
			c-0.125,0-0.227-0.103-0.227-0.228v-0.001v-4.257c0-0.003-0.001-0.005-0.001-0.007c0-0.126,0.102-0.229,0.228-0.229
			c0.003,0,0.005,0.001,0.009,0.001h0.54c0.003,0,0.006-0.001,0.009-0.001c0.081,0,0.151,0.043,0.191,0.105l1.166,1.665
			c0.143,0.192,0.244,0.357,0.344,0.53h0.007c0.079-0.165,0.179-0.345,0.322-0.56l1.062-1.633c0.04-0.064,0.111-0.108,0.192-0.108
			c0.003,0,0.006,0.001,0.009,0.001h0.535c0.003,0,0.006-0.001,0.008-0.001c0.125,0,0.228,0.103,0.228,0.229
			c0,0-0.001,0.001-0.001,0.002v4.257C36.984,46.979,36.984,46.98,36.984,46.982z M42.105,42.72v2.649
			c0,0.573-0.157,1.046-0.479,1.368c-0.353,0.351-0.86,0.544-1.576,0.544c-0.695,0-1.21-0.157-1.547-0.486
			c-0.314-0.309-0.465-0.773-0.465-1.325v-2.748c0-0.002,0-0.003,0-0.004c0-0.126,0.102-0.228,0.227-0.228c0.002,0,0.003,0,0.006,0
			h0.508c0.001,0,0.003,0,0.006,0c0.125,0,0.227,0.101,0.227,0.227h0.001v2.675c0,0.343,0.107,0.594,0.265,0.772
			c0.172,0.194,0.458,0.294,0.788,0.294c0.379,0,0.651-0.1,0.824-0.294c0.165-0.171,0.235-0.422,0.235-0.73V42.72h0.001
			c0-0.001-0.001-0.002-0.001-0.002c0-0.126,0.104-0.228,0.229-0.228c0.002,0,0.004,0,0.006,0h0.516c0.002,0,0.004,0,0.004,0
			c0.127,0,0.229,0.102,0.229,0.228C42.105,42.718,42.105,42.719,42.105,42.72z M44.194,47.281c-0.562,0-0.992-0.15-1.314-0.329
			c-0.003-0.001-0.005-0.003-0.008-0.006c-0.063-0.04-0.107-0.11-0.107-0.192c0-0.035,0.009-0.068,0.023-0.098v-0.002l0.164-0.307
			v-0.001c0.039-0.075,0.114-0.127,0.204-0.127c0.036,0,0.07,0.009,0.1,0.024c0.003,0,0.005,0.001,0.007,0.002
			c0.254,0.141,0.549,0.248,0.888,0.248c0.344,0,0.73-0.129,0.73-0.487c0-0.623-1.146-0.73-1.719-1.382
			c-0.179-0.208-0.301-0.474-0.301-0.839c0-0.716,0.565-1.346,1.604-1.346c0.42,0,0.779,0.09,1.044,0.212
			c0.084,0.033,0.144,0.115,0.144,0.211c0,0.002,0,0.004-0.001,0.005c0.001,0.001,0.001,0.002,0.001,0.002l-0.006,0.336
			c0,0.001,0,0.002,0,0.003c0,0.003,0,0.004,0,0.006v0.003v0.001c-0.005,0.121-0.104,0.218-0.228,0.218
			c-0.031,0-0.062-0.006-0.089-0.019c-0.001,0-0.001,0-0.001,0c-0.274-0.121-0.53-0.19-0.812-0.19c-0.352,0-0.624,0.158-0.624,0.431
			c0,0.816,2.026,0.744,2.026,2.227C45.919,46.744,45.161,47.281,44.194,47.281z M47.795,46.983c0,0.125-0.103,0.227-0.228,0.227
			c-0.001,0-0.002,0-0.003,0h-0.522c0,0-0.001,0-0.002,0c-0.002,0-0.002,0-0.003,0c-0.124-0.002-0.225-0.103-0.225-0.227
			c0-0.002,0-0.004,0.001-0.005v-4.256c-0.001-0.002-0.001-0.003-0.001-0.005c0-0.126,0.102-0.228,0.228-0.228
			c0.001,0,0.002,0,0.002,0h0.522c0.002,0,0.002,0,0.003,0c0.125,0,0.228,0.102,0.228,0.228c0,0.002-0.001,0.003-0.001,0.005v4.256
			C47.794,46.979,47.795,46.981,47.795,46.983z M52.514,46.902c-0.001,0.001-0.003,0.001-0.004,0.002
			c-0.487,0.269-0.955,0.377-1.429,0.377c-1.539,0-2.413-1.053-2.413-2.385c0-1.354,1.016-2.456,2.628-2.456
			c0.406,0,0.786,0.066,1.08,0.183c0,0,0.001,0.001,0.002,0.001c0.086,0.032,0.148,0.114,0.148,0.212c0,0,0,0.001,0,0.002
			l-0.007,0.364v0.001c-0.002,0.124-0.104,0.224-0.229,0.224c-0.023,0-0.046-0.005-0.068-0.012c-0.005-0.001-0.01-0.002-0.014-0.003
			c-0.305-0.128-0.597-0.177-0.878-0.177c-1.11,0-1.597,0.773-1.597,1.59c0,0.902,0.579,1.611,1.512,1.611
			c0.351,0,0.661-0.079,0.96-0.215c0.001,0,0.001,0,0.003,0c0.027-0.012,0.058-0.019,0.09-0.019c0.095,0,0.176,0.059,0.21,0.141
			v0.001l0.107,0.279c0,0,0,0.001,0,0.002c0.009,0.024,0.015,0.05,0.015,0.078C52.631,46.79,52.583,46.863,52.514,46.902z
			 M48.025,40.017c-2.024,0-4.11-0.816-5.401-2.397c-0.005-0.006-0.009-0.014-0.012-0.022c-0.052-0.071-0.082-0.158-0.082-0.253
			c0-0.147,0.072-0.275,0.183-0.355c0.002-0.002,0.002-0.005,0.002-0.005l1.387-0.997h0.004c0.07-0.05,0.156-0.08,0.249-0.08
			c0.132,0,0.247,0.058,0.326,0.148c0.002,0.002,0.005,0.003,0.006,0.004c0.922,1.142,2.253,1.67,3.724,1.67
			c1.198,0,2.784-0.406,2.784-1.679c-0.002-1.033-0.959-1.328-2.711-1.734l-1.454-0.332c-2.102-0.479-3.943-1.256-3.943-3.671
			c0-2.763,2.636-4.091,5.088-4.091c2.088,0,3.845,0.718,5.175,2.269c0.003,0.003,0.004,0.009,0.008,0.012
			c0.062,0.077,0.102,0.172,0.102,0.278c0,0.137-0.065,0.258-0.164,0.338c-0.001,0.001-0.001,0.004-0.001,0.004l-1.294,0.979
			c0,0-0.002,0-0.004,0.001c-0.073,0.062-0.17,0.1-0.274,0.1c-0.146,0-0.277-0.073-0.356-0.185
			c-0.001-0.001-0.002-0.001-0.002-0.003c-0.672-0.958-1.789-1.508-3.21-1.509c-1.419,0.001-2.485,0.536-2.485,1.457
			c0,1.086,1.233,1.345,2.708,1.676l1.604,0.351c1.952,0.423,3.794,1.219,3.794,3.708C53.772,38.909,50.752,40.017,48.025,40.017z"
			/>
		<path fill="#FFFFFF" d="M29.955,30.52c0-2.304-1.641-3.963-4.437-3.963l-5.038,0c-0.001,0-0.003,0-0.006,0
			c-0.241,0-0.438,0.195-0.438,0.437c0,0.006,0.002,0.013,0.002,0.02v12.231c0,0.002,0,0.004,0,0.007
			c0,0.241,0.195,0.437,0.437,0.437c0.009,0,0.017-0.002,0.024-0.002h1.583l0.001-0.001c0.242,0,0.438-0.195,0.438-0.438
			c0,0,0-0.001,0-0.002l0.001-0.001l-0.001-4.39l2.35-0.001l0.019-0.002c1.229-0.035,2.46-0.459,2.46-0.459
			C27.983,34.153,29.955,33.47,29.955,30.52z M25.204,32.676h-2.682v-3.945h2.314c1.718-0.001,2.534,0.773,2.534,1.972
			C27.37,31.938,26.46,32.676,25.204,32.676z"/>
		<path fill="#FFFFFF" d="M33.552,39.686c0.241,0,0.437-0.195,0.437-0.437c0-0.003-0.001-0.006-0.001-0.011l0.001-0.001v-4.384
			h2.348l2.415,4.593l0.001,0.001c0.07,0.137,0.212,0.232,0.378,0.236l0.005,0.003h1.838c0.008,0,0.017,0.002,0.027,0.002
			c0.242,0,0.438-0.195,0.438-0.437c0-0.077-0.022-0.147-0.056-0.211v-0.001l-2.581-4.649c0.63-0.24,2.605-0.92,2.605-3.874
			c0-2.303-1.645-3.961-4.432-3.961h-5.021l-0.001,0.001c-0.241,0-0.435,0.195-0.435,0.437c0,0.004,0.001,0.008,0.001,0.012v12.236
			l0,0c0,0.002,0,0.003,0,0.004c0,0.238,0.19,0.432,0.428,0.436l0.003,0.004h1.593C33.547,39.686,33.549,39.686,33.552,39.686z
			 M33.989,28.729h2.311c1.709-0.001,2.523,0.775,2.523,1.972c0,1.235-0.906,1.972-2.158,1.973h-2.676V28.729z"/>
		<path fill="#FFFFFF" d="M49.979,31.992l-1.604-0.351c-1.475-0.331-2.708-0.59-2.708-1.676c0-0.921,1.066-1.456,2.485-1.457
			c1.421,0.001,2.538,0.55,3.21,1.509c0,0.001,0.001,0.002,0.002,0.003c0.079,0.112,0.21,0.185,0.356,0.185
			c0.104,0,0.201-0.039,0.274-0.1c0.002-0.001,0.004-0.001,0.004-0.001l1.294-0.979c0,0,0-0.002,0.001-0.004
			c0.099-0.081,0.164-0.202,0.164-0.338c0-0.106-0.039-0.201-0.102-0.278c-0.004-0.003-0.005-0.009-0.008-0.012
			c-1.33-1.551-3.087-2.269-5.175-2.269c-2.452,0-5.088,1.328-5.088,4.091c0,2.415,1.842,3.192,3.943,3.671l1.454,0.332
			c1.752,0.407,2.709,0.701,2.711,1.734c0,1.273-1.586,1.679-2.784,1.679c-1.471,0-2.802-0.528-3.724-1.67
			c-0.001-0.001-0.004-0.002-0.006-0.004c-0.079-0.09-0.194-0.148-0.326-0.148c-0.093,0-0.179,0.03-0.249,0.08h-0.004l-1.387,0.997
			c0,0,0,0.002-0.002,0.005c-0.11,0.08-0.183,0.208-0.183,0.355c0,0.095,0.03,0.182,0.082,0.253
			c0.003,0.008,0.007,0.016,0.012,0.022c1.291,1.582,3.377,2.397,5.401,2.397c2.727,0,5.747-1.108,5.747-4.317
			C53.772,33.211,51.931,32.415,49.979,31.992z"/>
		<path fill="#F2F2F2" d="M22.317,42.55c0.133-0.655,0.471-0.939,0.887-0.939c0.249,0,0.436,0.071,0.604,0.187l0.32-0.613
			c-0.293-0.177-0.595-0.24-0.907-0.24c-0.639,0-1.446,0.312-1.686,1.545l-0.106,0.541h-0.604l-0.088,0.64h0.621
			c-0.399,2.423-0.621,4.083-1.776,5.131l0.461,0.487c1.482-1.109,1.749-3.594,2.078-5.618h0.852l0.258-0.64H22.22L22.317,42.55z"/>
		<path fill="#F2F2F2" d="M25.622,43.036c-0.612,0-1.145,0.24-1.526,0.631c-0.48,0.479-0.755,1.198-0.755,1.979
			c0,0.523,0.142,1.012,0.471,1.349c0.257,0.258,0.648,0.418,1.189,0.418c0.56,0,1.057-0.214,1.447-0.577
			c0.506-0.471,0.808-1.207,0.808-2.06c0-0.506-0.133-0.968-0.443-1.296C26.555,43.205,26.165,43.036,25.622,43.036z M25.854,46.437
			c-0.214,0.204-0.488,0.337-0.79,0.337c-0.275,0-0.479-0.089-0.631-0.231c-0.213-0.194-0.31-0.514-0.31-0.887
			c0-0.604,0.186-1.172,0.533-1.544c0.23-0.258,0.541-0.418,0.896-0.418c0.292,0,0.506,0.098,0.656,0.249
			c0.187,0.194,0.258,0.496,0.258,0.869C26.466,45.434,26.235,46.063,25.854,46.437z"/>
		<path fill="#F2F2F2" d="M29.284,43.998h-0.008l0.123-0.853h-0.612l-0.905,4.198h0.78l0.321-1.508
			c0.336-1.58,0.843-2.007,1.269-2.007c0.134,0,0.293,0.026,0.408,0.089l0.365-0.71c-0.143-0.098-0.32-0.16-0.551-0.16
			C29.923,43.048,29.56,43.403,29.284,43.998z"/>
		<path fill="#FFFFFF" d="M36.984,42.718c0-0.126-0.103-0.229-0.228-0.229c-0.002,0-0.005,0.001-0.008,0.001h-0.535
			c-0.003,0-0.006-0.001-0.009-0.001c-0.082,0-0.152,0.044-0.192,0.108L34.95,44.23c-0.143,0.215-0.244,0.395-0.322,0.56H34.62
			c-0.1-0.173-0.201-0.338-0.344-0.53l-1.166-1.665c-0.04-0.062-0.11-0.105-0.191-0.105c-0.003,0-0.006,0.001-0.009,0.001h-0.54
			c-0.003,0-0.006-0.001-0.009-0.001c-0.125,0-0.228,0.103-0.228,0.229c0,0.002,0.001,0.004,0.001,0.007v4.257v0.001
			c0,0.125,0.102,0.228,0.227,0.228h0.52c0.126,0,0.228-0.102,0.228-0.228c0-0.001,0-0.002,0-0.003v-2.405
			c0-0.136,0-0.301-0.007-0.479h0.014c0.093,0.187,0.207,0.329,0.3,0.458l0.907,1.281h0.001c0.041,0.056,0.104,0.092,0.178,0.094
			h0.001h0.213h0.001h0c0.08,0,0.15-0.041,0.19-0.104l0.806-1.235c0.079-0.122,0.243-0.365,0.293-0.494h0.015
			c-0.015,0.165-0.015,0.337-0.015,0.509v2.373c0,0.003-0.001,0.004-0.001,0.006c0,0.125,0.101,0.226,0.225,0.228h0h0.522h0
			c0.125,0,0.228-0.102,0.228-0.228c0-0.002,0-0.003-0.001-0.006V42.72C36.983,42.719,36.984,42.718,36.984,42.718z"/>
		<path fill="#FFFFFF" d="M41.877,42.49c0,0-0.002,0-0.004,0h-0.516c-0.002,0-0.004,0-0.006,0c-0.125,0-0.229,0.102-0.229,0.228
			c0,0,0.001,0.001,0.001,0.002h-0.001v2.714c0,0.309-0.07,0.56-0.235,0.73c-0.173,0.194-0.445,0.294-0.824,0.294
			c-0.33,0-0.616-0.1-0.788-0.294c-0.157-0.179-0.265-0.43-0.265-0.772v-2.675h-0.001c0-0.126-0.102-0.227-0.227-0.227
			c-0.002,0-0.004,0-0.006,0H38.27c-0.002,0-0.004,0-0.006,0c-0.125,0-0.227,0.102-0.227,0.228c0,0.001,0,0.002,0,0.004v2.748
			c0,0.552,0.15,1.017,0.465,1.325c0.337,0.329,0.853,0.486,1.547,0.486c0.716,0,1.224-0.193,1.576-0.544
			c0.322-0.322,0.479-0.795,0.479-1.368V42.72c0-0.001,0-0.002,0-0.002C42.105,42.592,42.004,42.49,41.877,42.49z"/>
		<path fill="#FFFFFF" d="M43.893,43.658c0-0.272,0.272-0.431,0.624-0.431c0.282,0,0.538,0.069,0.812,0.19c0,0,0,0,0.001,0
			c0.026,0.013,0.058,0.019,0.089,0.019c0.123,0,0.223-0.097,0.228-0.218v-0.001v-0.003c0-0.002,0-0.003,0-0.006
			c0-0.001,0-0.002,0-0.003l0.006-0.336c0,0,0-0.001-0.001-0.002c0.001-0.001,0.001-0.003,0.001-0.005
			c0-0.096-0.06-0.178-0.144-0.211c-0.265-0.122-0.624-0.212-1.044-0.212c-1.038,0-1.604,0.63-1.604,1.346
			c0,0.365,0.122,0.631,0.301,0.839c0.573,0.651,1.719,0.759,1.719,1.382c0,0.358-0.387,0.487-0.73,0.487
			c-0.339,0-0.634-0.107-0.888-0.248c-0.002-0.001-0.004-0.002-0.007-0.002c-0.029-0.016-0.063-0.024-0.1-0.024
			c-0.09,0-0.165,0.052-0.204,0.127v0.001l-0.164,0.307v0.002c-0.015,0.029-0.023,0.062-0.023,0.098
			c0,0.082,0.044,0.152,0.107,0.192c0.003,0.003,0.005,0.005,0.008,0.006c0.322,0.179,0.752,0.329,1.314,0.329
			c0.967,0,1.725-0.537,1.725-1.396C45.919,44.402,43.893,44.475,43.893,43.658z"/>
		<path fill="#FFFFFF" d="M47.795,42.718c0-0.126-0.103-0.228-0.228-0.228c-0.001,0-0.001,0-0.003,0h-0.522c0,0-0.001,0-0.002,0
			c-0.126,0-0.228,0.102-0.228,0.228c0,0.002,0,0.003,0.001,0.005v4.256c-0.001,0.001-0.001,0.003-0.001,0.005
			c0,0.124,0.101,0.225,0.225,0.227c0.001,0,0.001,0,0.003,0c0.001,0,0.002,0,0.002,0h0.522c0.001,0,0.002,0,0.003,0
			c0.125,0,0.228-0.102,0.228-0.227c0-0.002-0.001-0.004-0.001-0.005v-4.256C47.794,42.721,47.795,42.72,47.795,42.718z"/>
		<path fill="#FFFFFF" d="M52.616,46.624l-0.107-0.279v-0.001c-0.034-0.082-0.115-0.141-0.21-0.141c-0.032,0-0.062,0.007-0.09,0.019
			c-0.002,0-0.002,0-0.003,0c-0.299,0.136-0.609,0.215-0.96,0.215c-0.933,0-1.512-0.709-1.512-1.611c0-0.816,0.486-1.59,1.597-1.59
			c0.281,0,0.573,0.049,0.878,0.177c0.004,0.001,0.009,0.002,0.014,0.003c0.022,0.007,0.045,0.012,0.068,0.012
			c0.125,0,0.227-0.1,0.229-0.224v-0.001l0.007-0.364c0-0.001,0-0.002,0-0.002c0-0.098-0.062-0.18-0.148-0.212
			c-0.001,0-0.002-0.001-0.002-0.001c-0.294-0.116-0.674-0.183-1.08-0.183c-1.612,0-2.628,1.103-2.628,2.456
			c0,1.332,0.874,2.385,2.413,2.385c0.474,0,0.941-0.108,1.429-0.377c0.001-0.001,0.003-0.001,0.004-0.002
			c0.069-0.039,0.117-0.112,0.117-0.198c0-0.028-0.006-0.054-0.015-0.078C52.616,46.625,52.616,46.624,52.616,46.624z"/>
	</g>
</g>
</svg>
