<?xml version="1.0" encoding="utf-8"?>
<!-- Generator: Adobe Illustrator 16.0.0, SVG Export Plug-In . SVG Version: 6.00 Build 0)  -->
<!DOCTYPE svg PUBLIC "-//W3C//DTD SVG 1.1//EN" "http://www.w3.org/Graphics/SVG/1.1/DTD/svg11.dtd">
<svg version="1.1" xmlns="http://www.w3.org/2000/svg" xmlns:xlink="http://www.w3.org/1999/xlink" x="0px" y="0px" width="80px"
	 height="80px" viewBox="0 0 80 80" enable-background="new 0 0 80 80" xml:space="preserve">
<g id="Layer_1_copy_9">
	<g>
		<path fill="#FFFFFF" d="M37.072,22.454c-0.109-0.253-0.48,0.226-0.837,0.119c-1.534-0.854-2.588-0.864-4.3-0.119
			c0.028-0.665-0.539-0.735-1.075-0.836c-0.422-1.064,0.262-1.722,0.479-2.509c2.399,0.271,3.28-0.978,4.73-1.657H22.595
			l4.17,12.192c0.241,0.268,0.458,0.583,0.751,0.812c0.815,0.636,1.803,0.771,2.508,1.433
			C33.174,29.545,36.129,27.006,37.072,22.454z"/>
		<path fill="#FFFFFF" d="M38.919,65.18L40,68.339l2.565-7.501c-0.802,0.777-1.542,1.695-2.269,2.465
			C40.283,64.276,39.697,64.893,38.919,65.18z"/>
		<path fill="#FFFFFF" d="M49.122,44.758c0.19,0.423,0.36,0.864,0.491,1.346c2.856-0.731,4.225-3.022,3.821-6.45
			c-0.162-1.385-0.84-2.664-1.211-3.962L49.122,44.758z"/>
		<path fill="#FFFFFF" d="M40,0C17.908,0,0,17.908,0,40s17.908,40,40,40s40-17.908,40-40S62.092,0,40,0z M55.466,30.099
			c-0.185,1.444-2.878,1.93-2.031,4.419c0.239-1.062,1.47-1.256,2.15-2.03c0.43-0.489,0.37-1.291,1.194-1.314
			c0.558,0.009-0.14,0.273-0.119,0.479c-0.418,0.693-0.296,1.385-0.836,2.03c-0.529,0.631-2.196,1.643-1.075,3.105
			c0.97-0.703,1.243-2.102,2.508-2.509c0.037,0.591-0.563,0.892-0.836,1.434c-1.124,2.242,0.361,6.968-1.194,9.316
			c-0.473,0.714-1.166,1.056-2.149,1.553c0.471,1.886-0.428,2.807,0,4.539c-0.479-0.238-0.389-1.046-0.837-1.314
			c-0.212,1.818-1.885,2.177-1.911,4.181c-0.611-0.518-0.325-1.433-0.119-2.03c0.312-0.907,1.445-1.77,0.717-2.628
			c-0.768,0.068-0.248,1.424-0.717,1.792c-0.714-1.065,0.606-2.802-0.597-3.345c-0.418,0.969-0.388,2.161-0.956,2.986
			c-0.457,0.663-1.372,1.421-2.03,2.03c-0.11,0.103-0.23,0.2-0.354,0.298l-1.338,3.912c0.181,0.246,0.373,0.523,0.498,0.926
			c0.238,0.769-0.656,1.328-1.431,1.799L40,71.429l-2.075-6.065c-0.204,0.006-0.41-0.001-0.615-0.03
			c-0.006-0.378,0.081-0.755,0.224-1.114l-3.101-9.065c-0.202,0.03-0.401,0.052-0.587,0.027c-0.344-0.044-0.539-0.246-0.836-0.239
			c-1.5,0.038-1.906,0.397-2.986-0.478c-0.393-0.317-0.934-0.658-0.836-1.194c0.821-0.349,1.799-0.345,2.628-0.239
			c0.327,0.042,0.622,0.301,0.955,0.358c0.344,0.061,0.714-0.01,1.054-0.013l-4.923-14.394c-0.276-0.256-0.55-0.537-0.908-0.763
			c-0.964-0.609-1.968-0.836-2.866-1.433c-0.947,0.285-0.303,1.318-0.239,1.791c0.089,0.656,0.026,1.465,0.239,2.15
			c0.374,1.208,1.463,1.82,1.791,2.985c0.102,0.359,0.461,0.645,0.479,0.837c0.042,0.475-0.065,0.988-0.479,1.313
			c-1.316-0.674-1.608-2.372-2.627-3.345c-0.006-0.393-0.202-0.595-0.12-1.074c-0.607-0.724-0.473-1.998-0.717-3.464
			c-0.198-1.195-0.597-2.134-0.269-3.459c1.284-0.806,2.827,0.098,4.268,0.225l-0.219-0.639c-0.497-0.905-1.319-1.486-1.988-2.219
			c-0.674,0.321-0.734,1.257-0.955,2.03c-2.922,0.055-0.969,3.493-0.956,5.375c-0.579,0.337-0.768,1.064-1.553,1.194
			c-0.479-0.741-0.421-2.257-0.239-3.345c0.23-1.369,1.779-3.702,2.031-5.613c0.078-0.595-0.009-1.154,0.238-1.553
			c0.28-0.449,1.11-0.764,1.725-0.832l-4.342-12.694h13.406c-0.018-0.064-0.039-0.126-0.039-0.209
			c0.377,0.019,0.721,0.004,0.836-0.239c0.193-0.631-0.644-0.232-0.597-0.717c0.694-0.271,1.173,0.107,1.791,0.239
			c0.401-0.224-0.055-0.612,0.239-0.836c0.907,0.008,0.613,1.218,1.075,1.672c0.204-0.473,0.132-1.222,0.238-1.791
			c0.865,0.13,1.232,0.759,1.553,1.433c0.895-0.394,1.499-0.007,2.018,0.448h17.087L53.722,31.31
			C54.272,30.966,54.885,30.625,55.466,30.099z"/>
		<path fill="#FFFFFF" d="M40.774,50.642l0.239-0.836c-1.468-0.284-1.144-2.36-2.031-3.225c-3.035-1.901-6.544-3.33-7.764-7.047
			c-0.415,0.119-0.746,0.142-1.032,0.113l4.773,13.956c1.42,0.439,2.763,1.23,4.381,0.741c-0.407-2.786-2.679-4.323-2.985-7.167
			c-0.059-0.543,0.049-1.061,0.119-1.672c0.969,0.669,2.348,0.863,2.866,2.03c0.162,0.364,0.193,0.855,0.311,1.219
			c0.236,0.734,0.641,0.768,1.123,1.29c-0.365,1.07-0.604,1.768-0.478,2.985c0.125,1.216,1.156,2.08,1.075,2.748
			c-0.075,0.617-0.466,1.012-0.956,1.074c-0.594,0.077-0.936-0.525-1.672-0.836c-0.418-0.176-1.133-0.316-1.672-0.478
			c-0.551-0.165-1.17-0.416-1.553-0.478c-0.02-0.003-0.042,0.001-0.061-0.001l2.741,8.015c0.1-0.131,0.202-0.256,0.305-0.37
			c1.153-1.272,2.832-2.331,4.062-3.464c1.271-2.685-1.949-3.837-2.031-6.688C40.518,51.931,40.613,51.122,40.774,50.642z"/>
		<path fill="#FFFFFF" d="M44.612,17.452c-0.475,0.124-0.738,0.457-1.329,0.463c-0.051,0.409,0.357,0.359,0.478,0.598
			c0.525-0.072,0.496-0.699,1.075-0.717c-0.503,0.939,0.311,1.991,1.672,1.792c0.176,0.301,0.422,0.533,0.478,0.955
			c-1.492,0.098-1.877-0.91-3.105-1.075c0.192,0.645,0.991,0.681,1.075,1.434c0.916-0.04,1.802-0.051,1.911,0.717
			c-0.639-0.456-1.861,0.851-2.389-0.358c-0.502,1.993,2.538,0.233,2.627,1.791c-0.614-0.287-1.206,0.137-1.791,0.239
			c-0.551-0.136-0.722-0.982-1.434-0.598c0.691,0.702,0.912,1.875,1.911,2.27c-0.032,0.431,0.221,0.576,0.238,0.956
			c-0.83-0.562-1.646-1.14-2.269-1.911c-0.689,0.754,0.717,1.306,1.313,1.553c0.183,0.533,0.487,0.946,0.597,1.553
			c0.216,0.302,1.186-0.15,1.075,0.478c-0.491-0.094-0.612,0.184-1.075,0.119c-0.63-0.643-1.225-1.323-2.388-1.433
			c0.133,1.141,0.987,1.56,2.149,1.672c0.207,0.351,0.281,0.833,0.238,1.434c-0.455-0.142-0.38-0.814-0.835-0.956
			c-0.621,0.146-0.766,0.521-1.314,0.479c-0.099,0.617,1.025,0.586,1.194,0.238c0.232,0.523,0.68,0.833,1.075,1.194
			c-0.22,0.288-0.704-0.164-1.194,0c0.209,0.508,0.938,0.496,0.955,1.194c-0.616-0.061-0.727-0.626-1.313-0.717
			c-0.621,0.467-1.498,0.075-2.03,0.479c0.037,0.599,0.979,0.294,1.433,0.478c0.36,0.317,0.646,0.708,0.956,1.075
			c0.199,0.198,0.872-0.076,0.836,0.357c-1.428-0.085-2.229-0.796-3.583-0.955c-0.171,0.677,1.319,0.65,1.791,1.075
			c-0.226,0.302-0.418-0.11-0.716,0.119c0.261,0.734,1.192,0.798,1.074,1.911c-0.816-0.941-1.947-2.185-3.464-2.03
			c-0.766,2.509,1.827,4.897,2.986,6.449c2.045,0.874,3.782,2.055,4.946,3.81l8.938-26.13H44.612z"/>
		<path d="M41.717,16.452c-0.519-0.456-1.123-0.842-2.018-0.448c-0.32-0.674-0.688-1.303-1.553-1.433
			c-0.106,0.569-0.034,1.318-0.238,1.791c-0.462-0.454-0.168-1.664-1.075-1.672c-0.294,0.224,0.162,0.612-0.239,0.836
			c-0.618-0.132-1.097-0.511-1.791-0.239c-0.047,0.484,0.79,0.086,0.597,0.717c-0.115,0.243-0.459,0.258-0.836,0.239
			c0,0.083,0.021,0.145,0.039,0.209H21.196l4.342,12.694c-0.615,0.068-1.445,0.383-1.725,0.832c-0.247,0.398-0.16,0.958-0.238,1.553
			c-0.252,1.911-1.801,4.244-2.031,5.613c-0.182,1.088-0.24,2.604,0.239,3.345c0.785-0.13,0.974-0.857,1.553-1.194
			c-0.013-1.882-1.966-5.32,0.956-5.375c0.221-0.773,0.281-1.709,0.955-2.03c0.669,0.733,1.491,1.314,1.988,2.219l0.219,0.639
			c-1.44-0.127-2.983-1.031-4.268-0.225c-0.328,1.325,0.07,2.264,0.269,3.459c0.244,1.466,0.109,2.74,0.717,3.464
			c-0.082,0.479,0.114,0.682,0.12,1.074c1.019,0.973,1.311,2.671,2.627,3.345c0.413-0.325,0.521-0.839,0.479-1.313
			c-0.018-0.192-0.377-0.478-0.479-0.837c-0.328-1.165-1.417-1.777-1.791-2.985c-0.213-0.686-0.15-1.494-0.239-2.15
			c-0.063-0.473-0.708-1.506,0.239-1.791c0.898,0.597,1.902,0.823,2.866,1.433c0.358,0.226,0.632,0.507,0.908,0.763l4.923,14.394
			c-0.34,0.003-0.71,0.073-1.054,0.013c-0.333-0.058-0.628-0.316-0.955-0.358c-0.829-0.105-1.807-0.109-2.628,0.239
			c-0.098,0.536,0.443,0.877,0.836,1.194c1.08,0.875,1.486,0.516,2.986,0.478c0.297-0.007,0.492,0.195,0.836,0.239
			c0.186,0.024,0.385,0.003,0.587-0.027l3.101,9.065c-0.143,0.359-0.23,0.736-0.224,1.114c0.205,0.029,0.411,0.036,0.615,0.03
			L40,71.429l4.002-11.702c0.774-0.471,1.669-1.03,1.431-1.799c-0.125-0.402-0.317-0.68-0.498-0.926l1.338-3.912
			c0.124-0.098,0.244-0.195,0.354-0.298c0.658-0.609,1.573-1.367,2.03-2.03c0.568-0.825,0.538-2.018,0.956-2.986
			c1.203,0.543-0.117,2.279,0.597,3.345c0.469-0.368-0.051-1.724,0.717-1.792c0.729,0.858-0.404,1.721-0.717,2.628
			c-0.206,0.598-0.492,1.513,0.119,2.03c0.026-2.004,1.699-2.362,1.911-4.181c0.448,0.269,0.357,1.076,0.837,1.314
			c-0.428-1.732,0.471-2.653,0-4.539c0.983-0.497,1.677-0.839,2.149-1.553c1.556-2.349,0.07-7.074,1.194-9.316
			c0.272-0.542,0.873-0.843,0.836-1.434c-1.265,0.407-1.538,1.806-2.508,2.509c-1.121-1.463,0.546-2.475,1.075-3.105
			c0.54-0.646,0.418-1.337,0.836-2.03c-0.021-0.205,0.677-0.47,0.119-0.479c-0.824,0.023-0.765,0.825-1.194,1.314
			c-0.681,0.774-1.911,0.968-2.15,2.03c-0.847-2.489,1.847-2.975,2.031-4.419c-0.581,0.527-1.193,0.868-1.744,1.211l5.082-14.857
			H41.717z M27.517,30.457c-0.293-0.229-0.51-0.545-0.751-0.812l-4.17-12.192h13.474c-1.45,0.68-2.331,1.928-4.73,1.657
			c-0.217,0.787-0.9,1.444-0.479,2.509c0.536,0.101,1.104,0.171,1.075,0.836c1.712-0.745,2.766-0.734,4.3,0.119
			c0.356,0.106,0.728-0.372,0.837-0.119c-0.943,4.552-3.898,7.091-7.048,9.436C29.319,31.228,28.332,31.093,27.517,30.457z
			 M40,68.339l-1.081-3.159c0.778-0.287,1.363-0.903,1.377-1.877c0.727-0.77,1.467-1.688,2.269-2.465L40,68.339z M42.566,59.241
			c-1.229,1.133-2.908,2.191-4.062,3.464c-0.103,0.114-0.205,0.239-0.305,0.37l-2.741-8.015c0.02,0.002,0.042-0.002,0.061,0.001
			c0.383,0.062,1.002,0.312,1.553,0.478c0.539,0.161,1.254,0.302,1.672,0.478c0.736,0.311,1.078,0.913,1.672,0.836
			c0.49-0.062,0.881-0.457,0.956-1.074c0.081-0.668-0.95-1.532-1.075-2.748c-0.126-1.218,0.112-1.915,0.478-2.985
			c-0.482-0.522-0.887-0.556-1.123-1.29c-0.117-0.363-0.148-0.854-0.311-1.219c-0.519-1.167-1.897-1.361-2.866-2.03
			c-0.07,0.611-0.178,1.129-0.119,1.672c0.307,2.844,2.578,4.381,2.985,7.167c-1.618,0.489-2.96-0.302-4.381-0.741l-4.773-13.956
			c0.287,0.029,0.617,0.005,1.032-0.113c1.22,3.717,4.729,5.146,7.764,7.047c0.888,0.864,0.563,2.94,2.031,3.225l-0.239,0.836
			c-0.161,0.48-0.257,1.289-0.239,1.911C40.617,55.404,43.837,56.557,42.566,59.241z M53.435,39.653
			c0.403,3.428-0.965,5.719-3.821,6.45c-0.131-0.481-0.301-0.923-0.491-1.346l3.102-9.067
			C52.595,36.989,53.272,38.269,53.435,39.653z M48.468,43.582c-1.164-1.755-2.901-2.936-4.946-3.81
			c-1.159-1.552-3.752-3.94-2.986-6.449c1.517-0.154,2.647,1.089,3.464,2.03c0.118-1.113-0.813-1.177-1.074-1.911
			c0.298-0.229,0.49,0.183,0.716-0.119c-0.472-0.425-1.962-0.398-1.791-1.075c1.354,0.159,2.155,0.87,3.583,0.955
			c0.036-0.434-0.637-0.159-0.836-0.357c-0.31-0.367-0.596-0.758-0.956-1.075c-0.453-0.184-1.396,0.121-1.433-0.478
			c0.532-0.403,1.409-0.012,2.03-0.479c0.587,0.091,0.697,0.656,1.313,0.717c-0.018-0.698-0.746-0.687-0.955-1.194
			c0.49-0.164,0.975,0.288,1.194,0c-0.396-0.361-0.843-0.671-1.075-1.194c-0.169,0.348-1.293,0.379-1.194-0.238
			c0.549,0.043,0.693-0.333,1.314-0.479c0.455,0.142,0.38,0.814,0.835,0.956c0.043-0.601-0.031-1.083-0.238-1.434
			c-1.162-0.112-2.017-0.531-2.149-1.672c1.163,0.109,1.758,0.79,2.388,1.433c0.463,0.064,0.584-0.213,1.075-0.119
			c0.11-0.628-0.859-0.176-1.075-0.478c-0.109-0.606-0.414-1.02-0.597-1.553c-0.597-0.247-2.003-0.799-1.313-1.553
			c0.622,0.771,1.438,1.349,2.269,1.911c-0.018-0.38-0.271-0.525-0.238-0.956c-0.999-0.395-1.22-1.567-1.911-2.27
			c0.712-0.385,0.883,0.462,1.434,0.598c0.585-0.103,1.177-0.526,1.791-0.239c-0.089-1.558-3.129,0.202-2.627-1.791
			c0.527,1.209,1.75-0.098,2.389,0.358c-0.109-0.768-0.995-0.757-1.911-0.717c-0.084-0.753-0.883-0.789-1.075-1.434
			c1.229,0.165,1.613,1.173,3.105,1.075c-0.056-0.422-0.302-0.654-0.478-0.955c-1.361,0.199-2.175-0.853-1.672-1.792
			c-0.579,0.018-0.55,0.645-1.075,0.717c-0.12-0.238-0.528-0.188-0.478-0.598c0.591-0.006,0.854-0.339,1.329-0.463h12.793
			L48.468,43.582z"/>
	</g>
</g>
</svg>
