<?xml version="1.0" encoding="utf-8"?>
<!-- Generator: Adobe Illustrator 16.0.0, SVG Export Plug-In . SVG Version: 6.00 Build 0)  -->
<!DOCTYPE svg PUBLIC "-//W3C//DTD SVG 1.1//EN" "http://www.w3.org/Graphics/SVG/1.1/DTD/svg11.dtd">
<svg version="1.1" xmlns="http://www.w3.org/2000/svg" xmlns:xlink="http://www.w3.org/1999/xlink" x="0px" y="0px" width="80px"
	 height="80px" viewBox="0 0 80 80" enable-background="new 0 0 80 80" xml:space="preserve">
<g id="Layer_1_copy_4">
	<g>
		<path fill="#FFFFFF" d="M40,0C17.908,0,0,17.908,0,40s17.908,40,40,40s40-17.908,40-40S62.092,0,40,0z M54.262,27.721
			c0-1.143,0.928-2.105,2.095-2.105c1.18,0,2.094,0.95,2.094,2.094v0.012c0,1.144-0.926,2.106-2.094,2.106
			c-1.18,0-2.095-0.951-2.095-2.095V27.721z M64.654,53.342c-0.637,0.635-1.509,1.03-2.475,1.043H39.24
			c-1.266-0.047-2.407-0.57-3.251-1.399l-8.304-8.305c-0.643-0.651-1.534-1.058-2.52-1.064v-0.001H10v-18h17.917
			c0.004,0,0.009,0,0.013,0c4.081,0,7.72,1.606,10.416,4.26l6.448,6.448l-5.114,5.112l-6.325-6.324
			c-1.389-1.395-3.283-2.264-5.407-2.265v-0.001H17.231v3.538H27.58v0.001c0.004,0,0.008-0.001,0.013-0.001
			c1.306,0,2.511,0.526,3.39,1.358l8.479,8.479c0.62,0.601,1.352,0.91,2.275,0.938h18.896L47.295,33.821l5.113-5.113l16.941,16.94
			c0.376,0.38,0.65,0.898,0.65,1.476c0,0.6-0.254,1.137-0.656,1.52l0.003,0.006L64.654,53.342z"/>
		<path fill="#FFFFFF" d="M56.927,27.266c0-0.271-0.176-0.325-0.37-0.325h-0.605v0.665h0.611
			C56.799,27.605,56.927,27.489,56.927,27.266z"/>
		<path fill="#FFFFFF" d="M56.356,29.599c1.046,0,1.853-0.854,1.853-1.878v-0.012c0-1.023-0.794-1.865-1.853-1.865
			c-1.047,0-1.854,0.854-1.854,1.877v0.012C54.503,28.756,55.297,29.599,56.356,29.599z M55.578,26.637h1.018
			c0.466,0,0.704,0.215,0.704,0.575c0,0.409-0.283,0.513-0.353,0.537v0.006c0.129,0.018,0.316,0.113,0.316,0.45
			c0,0.248,0.036,0.475,0.116,0.561H56.98c-0.057-0.092-0.057-0.208-0.057-0.312c0-0.391-0.081-0.563-0.424-0.563h-0.549v0.876
			h-0.373V26.637z"/>
		<path d="M70,47.124c0-0.577-0.274-1.096-0.65-1.476l-16.941-16.94l-5.113,5.113l13.338,13.337H41.736
			c-0.924-0.027-1.656-0.337-2.275-0.938l-8.479-8.479c-0.879-0.832-2.083-1.358-3.39-1.358c-0.004,0-0.009,0.001-0.013,0.001
			v-0.001H17.231v-3.538h10.717v0.001c2.124,0.001,4.018,0.87,5.407,2.265l6.325,6.324l5.114-5.112l-6.448-6.448
			c-2.695-2.653-6.335-4.26-10.416-4.26c-0.004,0-0.009,0-0.013,0H10v18h15.165v0.001c0.986,0.007,1.877,0.413,2.52,1.064
			l8.304,8.305c0.845,0.829,1.986,1.353,3.251,1.399H62.18c0.966-0.013,1.838-0.408,2.475-1.043l4.692-4.692l-0.003-0.006
			C69.746,48.261,70,47.724,70,47.124z"/>
		<path fill="#010101" d="M56.356,29.827c1.168,0,2.094-0.963,2.094-2.106v-0.012c0-1.144-0.914-2.094-2.094-2.094
			c-1.167,0-2.095,0.963-2.095,2.105v0.012C54.262,28.876,55.177,29.827,56.356,29.827z M54.503,27.721
			c0-1.022,0.807-1.877,1.854-1.877c1.059,0,1.853,0.842,1.853,1.865v0.012c0,1.023-0.807,1.878-1.853,1.878
			c-1.06,0-1.854-0.843-1.854-1.866V27.721z"/>
		<path fill="#010101" d="M55.951,27.89H56.5c0.343,0,0.424,0.173,0.424,0.563c0,0.104,0,0.221,0.057,0.312h0.399
			c-0.08-0.086-0.116-0.312-0.116-0.561c0-0.337-0.188-0.433-0.316-0.45v-0.006c0.069-0.024,0.353-0.128,0.353-0.537
			c0-0.36-0.238-0.575-0.704-0.575h-1.018v2.129h0.373V27.89z M55.951,26.94h0.605c0.194,0,0.37,0.054,0.37,0.325
			c0,0.224-0.128,0.34-0.364,0.34h-0.611V26.94z"/>
	</g>
</g>
</svg>
