<?xml version="1.0" encoding="utf-8"?>
<!-- Generator: Adobe Illustrator 16.0.0, SVG Export Plug-In . SVG Version: 6.00 Build 0)  -->
<!DOCTYPE svg PUBLIC "-//W3C//DTD SVG 1.1//EN" "http://www.w3.org/Graphics/SVG/1.1/DTD/svg11.dtd">
<svg version="1.1" xmlns="http://www.w3.org/2000/svg" xmlns:xlink="http://www.w3.org/1999/xlink" x="0px" y="0px" width="80px"
	 height="80px" viewBox="0 0 80 80" enable-background="new 0 0 80 80" xml:space="preserve">
<g id="Layer_1_copy_2">
	<g>
		<path fill="#FFFFFF" d="M40.417,63.101c-1.575,0-2.7,1.227-2.7,2.758c0,1.519,1.125,2.746,2.7,2.746
			c1.564,0,2.689-1.228,2.689-2.758C43.106,64.327,41.981,63.101,40.417,63.101z"/>
		<path fill="#FFFFFF" d="M40.281,55.976c0-0.879-0.608-1.599-1.711-1.599h-0.979v3.174h0.799
			C39.764,57.551,40.281,56.842,40.281,55.976z"/>
		<path fill="#FFFFFF" d="M34.616,64.879c0-0.878-0.607-1.598-1.711-1.598h-0.979v3.174h0.799
			C34.099,66.455,34.616,65.746,34.616,64.879z"/>
		<path fill="#FFFFFF" d="M40,0C17.908,0,0,17.908,0,40s17.908,40,40,40s40-17.908,40-40S62.092,0,40,0z M55.854,59.497v1.385
			h-3.486v-7.878h1.452v6.493H55.854z M52.271,45.98c-0.56,0-1.144,0.07-1.709,0.195c2.292-2.277,3.735-5.342,4.162-9.027
			c0.263-2.27,0.087-4.35-0.51-6.217h4.109c-0.778,0.667-1.223,1.721-1.223,2.887V47.98C56.158,46.647,54.492,45.98,52.271,45.98z
			 M43.601,54.389v2.003h3.129v1.384h-3.129v1.722h3.275v1.385h-4.727v-7.878h9.825v1.385h-1.981v6.493h-1.452v-6.493H43.601z
			 M53.398,11.445c1.775,0.031,2.893-0.283,3.684-1.103l-0.17,9.721c-0.899-2.572-3.059-6.11-6.062-8.997
			C51.734,11.305,52.565,11.431,53.398,11.445z M27.352,20.025c0.586-5.069,5.155-9.379,10.628-10.025
			c-1.507,1.001-2.52,2.862-2.779,5.106c-0.33,2.853,1.399,5.93,4.026,7.158l6.231,2.89c5.164,2.409,7.368,6.236,6.735,11.702
			c-0.685,5.931-4.548,9.936-10.596,10.989c1.621-1.101,2.638-3.063,2.939-5.674c0.395-3.409-1.3-6.286-4.772-8.102l-6.553-3.409
			C29.023,28.493,26.833,24.517,27.352,20.025z M32.741,59.711c0.911,0,1.52-0.438,1.97-0.799l0.9,0.945
			c-0.608,0.652-1.531,1.204-2.87,1.204c-2.465,0-4.164-1.834-4.164-4.107s1.711-4.119,4.164-4.119c1.125,0,2.139,0.428,2.881,1.125
			l-0.911,0.991c-0.45-0.405-1.126-0.754-1.97-0.754c-1.644,0-2.701,1.238-2.701,2.757C30.04,58.474,31.098,59.711,32.741,59.711z
			 M26.733,14.386c-1.018,1.626-1.692,3.441-1.912,5.346c-0.584,5.053,1.568,9.569,5.807,12.363
			c0.211,9.182,1.623,14.363,4.585,16.353c-8.944-1.333-16.052-9.276-16.052-18.55C19.161,23.916,21.893,18.48,26.733,14.386z
			 M28.048,56.392v1.384H24.92v1.722h3.274v1.385h-4.727v-7.878h4.727v1.385H24.92v2.003H28.048z M18.169,60.308v-1.497
			c0.552,0.36,1.295,0.867,2.296,0.867c0.799,0,1.193-0.405,1.193-0.845c0-0.472-0.304-0.754-1.396-1.35
			c-1.047-0.574-2.239-1.171-2.239-2.499c0-1.204,0.854-2.07,2.419-2.07c0.979,0,1.722,0.338,2.161,0.573v1.587
			c-0.473-0.337-1.385-0.854-2.184-0.854c-0.495,0-0.945,0.214-0.945,0.709s0.395,0.697,1.497,1.294
			c1.328,0.72,2.138,1.271,2.138,2.498c0,1.249-0.968,2.263-2.678,2.263C19.306,60.983,18.54,60.532,18.169,60.308z M26.007,70
			c-2.363,0-4.152-1.846-4.152-4.107c0-2.273,1.801-4.119,4.152-4.119v1.361c-1.564,0-2.701,1.227-2.701,2.758
			c0,1.519,1.137,2.746,2.701,2.746c1.576,0,2.701-1.228,2.701-2.757c0-0.417-0.09-0.812-0.236-1.16l-2.465,2.454v-1.959
			l2.577-2.577c0.968,0.754,1.587,1.925,1.587,3.242C30.171,68.154,28.37,70,26.007,70z M34.233,69.786l-2.307-2.791v2.791h-1.452
			v-7.878h2.431c1.97,0,3.162,1.271,3.162,2.914c0,1.249-0.641,2.285-1.969,2.656l1.991,2.308H34.233z M36.14,53.004h2.431
			c1.97,0,3.162,1.271,3.162,2.915c0,1.249-0.642,2.284-1.969,2.655l1.991,2.308h-1.856l-2.307-2.791v2.791H36.14V53.004z
			 M40.417,69.966c-2.363,0-4.164-1.846-4.164-4.107c0-2.273,1.812-4.119,4.164-4.119c2.341,0,4.152,1.846,4.152,4.107
			C44.569,68.12,42.78,69.966,40.417,69.966z M50.911,66.792c0,1.723-0.96,3.163-2.942,3.163c-1.94,0-2.953-1.44-2.953-3.163v-4.884
			h1.375v4.884c0,0.957,0.501,1.767,1.578,1.767c1.065,0,1.566-0.81,1.566-1.767v-4.884h1.376V66.792z M53.947,67.839h-0.979v1.947
			h-1.451v-7.878h2.431c1.992,0.011,3.162,1.339,3.162,2.971S55.883,67.839,53.947,67.839z M58.77,58.023v2.858h-1.452v-2.858
			l-3.207-5.02h1.722l2.206,3.579l2.217-3.579h1.722L58.77,58.023z"/>
		<path fill="#FFFFFF" d="M53.947,63.281h-0.979v3.174h0.979c1.148,0,1.722-0.709,1.722-1.576
			C55.669,64.001,55.051,63.281,53.947,63.281z"/>
		<path fill="#FFFFFF" d="M23.109,58.721c0-1.227-0.81-1.778-2.138-2.498c-1.103-0.597-1.497-0.799-1.497-1.294
			s0.45-0.709,0.945-0.709c0.799,0,1.711,0.518,2.184,0.854v-1.587c-0.439-0.235-1.182-0.573-2.161-0.573
			c-1.564,0-2.419,0.866-2.419,2.07c0,1.328,1.192,1.925,2.239,2.499c1.092,0.596,1.396,0.878,1.396,1.35
			c0,0.439-0.395,0.845-1.193,0.845c-1.001,0-1.744-0.507-2.296-0.867v1.497c0.371,0.225,1.137,0.676,2.263,0.676
			C22.142,60.983,23.109,59.97,23.109,58.721z"/>
		<path d="M23.109,58.721c0-1.227-0.81-1.778-2.138-2.498c-1.103-0.597-1.497-0.799-1.497-1.294s0.45-0.709,0.945-0.709
			c0.799,0,1.711,0.518,2.184,0.854v-1.587c-0.439-0.235-1.182-0.573-2.161-0.573c-1.564,0-2.419,0.866-2.419,2.07
			c0,1.328,1.192,1.925,2.239,2.499c1.092,0.596,1.396,0.878,1.396,1.35c0,0.439-0.395,0.845-1.193,0.845
			c-1.001,0-1.744-0.507-2.296-0.867v1.497c0.371,0.225,1.137,0.676,2.263,0.676C22.142,60.983,23.109,59.97,23.109,58.721z"/>
		<path fill="#FFFFFF" d="M49.535,66.792c0,0.957-0.501,1.767-1.566,1.767c-1.077,0-1.578-0.81-1.578-1.767v-4.884h-1.375v4.884
			c0,1.723,1.013,3.163,2.953,3.163c1.982,0,2.942-1.44,2.942-3.163v-4.884h-1.376V66.792z"/>
		<path d="M49.535,66.792c0,0.957-0.501,1.767-1.566,1.767c-1.077,0-1.578-0.81-1.578-1.767v-4.884h-1.375v4.884
			c0,1.723,1.013,3.163,2.953,3.163c1.982,0,2.942-1.44,2.942-3.163v-4.884h-1.376V66.792z"/>
		<path fill="#FFFFFF" d="M53.947,61.908h-2.431v7.878h1.451v-1.947h0.979c1.936,0,3.162-1.328,3.162-2.96
			S55.939,61.919,53.947,61.908z M53.947,66.455h-0.979v-3.174h0.979c1.104,0,1.722,0.72,1.722,1.598
			C55.669,65.746,55.096,66.455,53.947,66.455z"/>
		<path d="M53.947,61.908h-2.431v7.878h1.451v-1.947h0.979c1.936,0,3.162-1.328,3.162-2.96S55.939,61.919,53.947,61.908z
			 M53.947,66.455h-0.979v-3.174h0.979c1.104,0,1.722,0.72,1.722,1.598C55.669,65.746,55.096,66.455,53.947,66.455z"/>
		<polygon fill="#FFFFFF" points="28.194,54.389 28.194,53.004 23.468,53.004 23.468,60.882 28.194,60.882 28.194,59.497 
			24.92,59.497 24.92,57.775 28.048,57.775 28.048,56.392 24.92,56.392 24.92,54.389 		"/>
		<polygon points="28.194,54.389 28.194,53.004 23.468,53.004 23.468,60.882 28.194,60.882 28.194,59.497 24.92,59.497 
			24.92,57.775 28.048,57.775 28.048,56.392 24.92,56.392 24.92,54.389 		"/>
		<path fill="#FFFFFF" d="M36.067,64.822c0-1.643-1.192-2.914-3.162-2.914h-2.431v7.878h1.452v-2.791l2.307,2.791h1.856
			l-1.991-2.308C35.427,67.107,36.067,66.071,36.067,64.822z M31.927,66.455v-3.174h0.979c1.104,0,1.711,0.72,1.711,1.598
			c0,0.867-0.518,1.576-1.891,1.576H31.927z"/>
		<path d="M36.067,64.822c0-1.643-1.192-2.914-3.162-2.914h-2.431v7.878h1.452v-2.791l2.307,2.791h1.856l-1.991-2.308
			C35.427,67.107,36.067,66.071,36.067,64.822z M31.927,66.455v-3.174h0.979c1.104,0,1.711,0.72,1.711,1.598
			c0,0.867-0.518,1.576-1.891,1.576H31.927z"/>
		<path fill="#FFFFFF" d="M40.417,61.739c-2.352,0-4.164,1.846-4.164,4.119c0,2.262,1.801,4.107,4.164,4.107
			s4.152-1.846,4.152-4.119C44.569,63.585,42.758,61.739,40.417,61.739z M40.417,68.604c-1.575,0-2.7-1.228-2.7-2.746
			c0-1.531,1.125-2.758,2.7-2.758c1.564,0,2.689,1.227,2.689,2.746C43.106,67.377,41.981,68.604,40.417,68.604z"/>
		<path d="M40.417,61.739c-2.352,0-4.164,1.846-4.164,4.119c0,2.262,1.801,4.107,4.164,4.107s4.152-1.846,4.152-4.119
			C44.569,63.585,42.758,61.739,40.417,61.739z M40.417,68.604c-1.575,0-2.7-1.228-2.7-2.746c0-1.531,1.125-2.758,2.7-2.758
			c1.564,0,2.689,1.227,2.689,2.746C43.106,67.377,41.981,68.604,40.417,68.604z"/>
		<path fill="#FFFFFF" d="M37.592,58.091l2.307,2.791h1.856l-1.991-2.308c1.327-0.371,1.969-1.406,1.969-2.655
			c0-1.644-1.192-2.915-3.162-2.915H36.14v7.878h1.452V58.091z M37.592,54.377h0.979c1.103,0,1.711,0.72,1.711,1.599
			c0,0.866-0.518,1.575-1.891,1.575h-0.799V54.377z"/>
		<path d="M37.592,58.091l2.307,2.791h1.856l-1.991-2.308c1.327-0.371,1.969-1.406,1.969-2.655c0-1.644-1.192-2.915-3.162-2.915
			H36.14v7.878h1.452V58.091z M37.592,54.377h0.979c1.103,0,1.711,0.72,1.711,1.599c0,0.866-0.518,1.575-1.891,1.575h-0.799V54.377z
			"/>
		<path fill="#FFFFFF" d="M28.584,62.64l-2.577,2.577v1.959l2.465-2.454c0.146,0.349,0.236,0.743,0.236,1.16
			c0,1.529-1.125,2.757-2.701,2.757c-1.564,0-2.701-1.228-2.701-2.746c0-1.531,1.137-2.758,2.701-2.758v-1.361
			c-2.352,0-4.152,1.846-4.152,4.119c0,2.262,1.789,4.107,4.152,4.107s4.164-1.846,4.164-4.118
			C30.171,64.564,29.552,63.394,28.584,62.64z"/>
		<path d="M28.584,62.64l-2.577,2.577v1.959l2.465-2.454c0.146,0.349,0.236,0.743,0.236,1.16c0,1.529-1.125,2.757-2.701,2.757
			c-1.564,0-2.701-1.228-2.701-2.746c0-1.531,1.137-2.758,2.701-2.758v-1.361c-2.352,0-4.152,1.846-4.152,4.119
			c0,2.262,1.789,4.107,4.152,4.107s4.164-1.846,4.164-4.118C30.171,64.564,29.552,63.394,28.584,62.64z"/>
		<polygon fill="#FFFFFF" points="52.367,53.004 52.367,60.882 55.854,60.882 55.854,59.497 53.819,59.497 53.819,53.004 		"/>
		<polygon points="52.367,53.004 52.367,60.882 55.854,60.882 55.854,59.497 53.819,59.497 53.819,53.004 		"/>
		<path fill="#FFFFFF" d="M57.102,47.98V33.819c0-1.166,0.444-2.221,1.223-2.887h-4.109c0.597,1.867,0.772,3.947,0.51,6.217
			c-0.427,3.686-1.87,6.75-4.162,9.027c0.565-0.125,1.149-0.195,1.709-0.195C54.492,45.98,56.158,46.647,57.102,47.98z"/>
		<path d="M57.102,47.98V33.819c0-1.166,0.444-2.221,1.223-2.887h-4.109c0.597,1.867,0.772,3.947,0.51,6.217
			c-0.427,3.686-1.87,6.75-4.162,9.027c0.565-0.125,1.149-0.195,1.709-0.195C54.492,45.98,56.158,46.647,57.102,47.98z"/>
		<polygon fill="#FFFFFF" points="49.993,60.882 49.993,54.389 51.975,54.389 51.975,53.004 42.149,53.004 42.149,60.882 
			46.876,60.882 46.876,59.497 43.601,59.497 43.601,57.775 46.729,57.775 46.729,56.392 43.601,56.392 43.601,54.389 
			48.541,54.389 48.541,60.882 		"/>
		<polygon points="49.993,60.882 49.993,54.389 51.975,54.389 51.975,53.004 42.149,53.004 42.149,60.882 46.876,60.882 
			46.876,59.497 43.601,59.497 43.601,57.775 46.729,57.775 46.729,56.392 43.601,56.392 43.601,54.389 48.541,54.389 
			48.541,60.882 		"/>
		<polygon fill="#FFFFFF" points="58.038,56.583 55.832,53.004 54.11,53.004 57.317,58.023 57.317,60.882 58.77,60.882 
			58.77,58.023 61.977,53.004 60.255,53.004 		"/>
		<polygon points="58.038,56.583 55.832,53.004 54.11,53.004 57.317,58.023 57.317,60.882 58.77,60.882 58.77,58.023 61.977,53.004 
			60.255,53.004 		"/>
		<path fill="#FFFFFF" d="M33.212,30.66l6.553,3.409c3.473,1.816,5.167,4.693,4.772,8.102c-0.302,2.61-1.318,4.573-2.939,5.674
			c6.048-1.053,9.911-5.058,10.596-10.989c0.633-5.466-1.571-9.293-6.735-11.702l-6.231-2.89c-2.627-1.229-4.356-4.305-4.026-7.158
			c0.26-2.244,1.272-4.105,2.779-5.106c-5.473,0.646-10.042,4.956-10.628,10.025C26.833,24.517,29.023,28.493,33.212,30.66z"/>
		<path d="M33.212,30.66l6.553,3.409c3.473,1.816,5.167,4.693,4.772,8.102c-0.302,2.61-1.318,4.573-2.939,5.674
			c6.048-1.053,9.911-5.058,10.596-10.989c0.633-5.466-1.571-9.293-6.735-11.702l-6.231-2.89c-2.627-1.229-4.356-4.305-4.026-7.158
			c0.26-2.244,1.272-4.105,2.779-5.106c-5.473,0.646-10.042,4.956-10.628,10.025C26.833,24.517,29.023,28.493,33.212,30.66z"/>
		<path fill="#FFFFFF" d="M32.741,54.197c0.844,0,1.52,0.349,1.97,0.754l0.911-0.991c-0.742-0.697-1.756-1.125-2.881-1.125
			c-2.453,0-4.164,1.846-4.164,4.119s1.699,4.107,4.164,4.107c1.339,0,2.262-0.552,2.87-1.204l-0.9-0.945
			c-0.45,0.36-1.059,0.799-1.97,0.799c-1.644,0-2.701-1.237-2.701-2.757C30.04,55.436,31.098,54.197,32.741,54.197z"/>
		<path d="M32.741,54.197c0.844,0,1.52,0.349,1.97,0.754l0.911-0.991c-0.742-0.697-1.756-1.125-2.881-1.125
			c-2.453,0-4.164,1.846-4.164,4.119s1.699,4.107,4.164,4.107c1.339,0,2.262-0.552,2.87-1.204l-0.9-0.945
			c-0.45,0.36-1.059,0.799-1.97,0.799c-1.644,0-2.701-1.237-2.701-2.757C30.04,55.436,31.098,54.197,32.741,54.197z"/>
		<path fill="#FFFFFF" d="M57.082,10.342c-0.791,0.82-1.908,1.133-3.684,1.103c-0.833-0.014-1.664-0.14-2.548-0.378
			c3.003,2.886,5.162,6.425,6.062,8.997L57.082,10.342z"/>
		<path d="M57.082,10.342c-0.791,0.82-1.908,1.133-3.684,1.103c-0.833-0.014-1.664-0.14-2.548-0.378
			c3.003,2.886,5.162,6.425,6.062,8.997L57.082,10.342z"/>
		<path fill="#FFFFFF" d="M35.213,48.448c-2.962-1.99-4.374-7.171-4.585-16.353c-4.238-2.793-6.391-7.31-5.807-12.363
			c0.22-1.905,0.895-3.72,1.912-5.346c-4.841,4.094-7.572,9.53-7.572,15.512C19.161,39.172,26.269,47.115,35.213,48.448z"/>
		<path d="M35.213,48.448c-2.962-1.99-4.374-7.171-4.585-16.353c-4.238-2.793-6.391-7.31-5.807-12.363
			c0.22-1.905,0.895-3.72,1.912-5.346c-4.841,4.094-7.572,9.53-7.572,15.512C19.161,39.172,26.269,47.115,35.213,48.448z"/>
	</g>
</g>
</svg>
