<?xml version="1.0" encoding="utf-8"?>
<!-- Generator: Adobe Illustrator 16.0.0, SVG Export Plug-In . SVG Version: 6.00 Build 0)  -->
<!DOCTYPE svg PUBLIC "-//W3C//DTD SVG 1.1//EN" "http://www.w3.org/Graphics/SVG/1.1/DTD/svg11.dtd">
<svg version="1.1" xmlns="http://www.w3.org/2000/svg" xmlns:xlink="http://www.w3.org/1999/xlink" x="0px" y="0px" width="80px"
	 height="80px" viewBox="0 0 80 80" enable-background="new 0 0 80 80" xml:space="preserve">
<g id="Layer_1" display="none">
	<g display="inline">
		<path fill="#FFFFFF" d="M45.534,35.567c-1.026-1.281-2.487-2.201-4.158-2.533c-0.448-0.088-0.911-0.136-1.384-0.136
			c-0.536,0-1.057,0.061-1.559,0.173c-1.694,0.381-3.16,1.367-4.159,2.722v-0.006c-0.87,1.179-1.385,2.636-1.385,4.214
			c0,1.577,0.515,3.033,1.385,4.213v-0.006c0.999,1.354,2.465,2.341,4.159,2.721v0.002c0.502,0.112,1.023,0.172,1.559,0.172
			c0.473,0,0.936-0.048,1.384-0.137c1.671-0.331,3.132-1.251,4.158-2.532v0.005c0.975-1.217,1.56-2.76,1.56-4.438
			c0-1.681-0.585-3.223-1.56-4.438V35.567z M37.931,38.331v1.594h-2.082c0,0.03-0.002,0.06-0.002,0.09
			c0,1.209,0.477,2.358,1.341,3.229l-1.132,1.123c-1.162-1.174-1.802-2.72-1.802-4.353c0-1.53,0.565-2.997,1.591-4.131l0.237-0.262
			h3.188v1.594h-2.463c-0.266,0.342-0.479,0.718-0.637,1.115H37.931z M42.665,42.793c0.652,0,1.268-0.455,1.646-1.213l1.427,0.712
			c-0.655,1.312-1.804,2.096-3.072,2.096c-1.981,0-3.592-1.962-3.592-4.373s1.611-4.372,3.592-4.372
			c1.269,0,2.417,0.781,3.072,2.093l-1.427,0.713c-0.378-0.76-0.993-1.213-1.646-1.213c-1.082,0-1.998,1.273-1.998,2.779
			C40.667,41.521,41.583,42.793,42.665,42.793z"/>
		<path fill="#FFFFFF" d="M40,14.093c-14.286,0-25.907,11.622-25.907,25.908c0,14.284,11.622,25.906,25.907,25.906
			c14.284,0,25.906-11.622,25.906-25.906C65.906,25.715,54.284,14.093,40,14.093z M62.97,43.875c-0.404,2.413-1.18,4.738-2.31,6.91
			c-1.096,2.099-2.497,4.017-4.172,5.702c-0.079,0.08-0.188,0.125-0.303,0.126c-0.111,0-0.221-0.045-0.301-0.125l-2.34-2.339
			c-0.165-0.167-0.165-0.436,0-0.602c2.459-2.474,4.188-5.543,5.019-8.894l-8.242-4.275c-0.143-0.073-0.231-0.22-0.231-0.378
			c0-0.159,0.089-0.306,0.231-0.378l8.242-4.276c-1.627-6.568-6.566-11.77-13.029-13.736v11.69c0.211,0.174,0.411,0.357,0.605,0.552
			c1.643,1.642,2.547,3.825,2.547,6.148c0,2.322-0.904,4.506-2.547,6.147c-0.194,0.195-0.395,0.379-0.605,0.552v3.099
			c0,0.027-0.001,0.053-0.005,0.078v12.49c0,0.199-0.139,0.371-0.331,0.416c-0.466,0.107-0.935,0.201-1.398,0.278l-1.927,0.324
			c-0.023,0.004-0.048,0.006-0.071,0.006c-0.1,0-0.198-0.036-0.276-0.101c-0.094-0.083-0.149-0.2-0.149-0.325V48.587
			c-0.454,0.071-0.917,0.108-1.384,0.108c-0.528,0-1.049-0.047-1.559-0.139v14.409c0,0.125-0.055,0.242-0.15,0.325
			c-0.078,0.064-0.175,0.101-0.275,0.101c-0.022,0-0.047-0.002-0.071-0.006l-1.926-0.324c-2.412-0.402-4.734-1.182-6.904-2.313
			c-2.118-1.104-4.051-2.523-5.744-4.22c-1.694-1.695-3.111-3.629-4.214-5.748c-1.129-2.17-1.906-4.493-2.309-6.905l-0.197-1.187
			c-0.03-0.182,0.06-0.363,0.224-0.448l4.317-2.239l-4.317-2.24c-0.164-0.085-0.254-0.267-0.224-0.448l0.197-1.187
			c0.403-2.412,1.18-4.734,2.309-6.905c1.103-2.12,2.52-4.054,4.214-5.749c1.692-1.694,3.625-3.114,5.744-4.22
			c2.169-1.13,4.493-1.909,6.904-2.313l1.926-0.323c0.024-0.004,0.048-0.006,0.071-0.006c0.1,0,0.197,0.035,0.275,0.101
			c0.096,0.082,0.15,0.2,0.15,0.326v14.407c0.51-0.092,1.03-0.138,1.559-0.138c0.467,0,0.93,0.036,1.384,0.108V17.036
			c0-0.126,0.056-0.244,0.149-0.326c0.078-0.065,0.177-0.101,0.276-0.101c0.023,0,0.048,0.003,0.071,0.006l1.927,0.323
			c2.412,0.404,4.733,1.184,6.903,2.313c2.119,1.105,4.051,2.525,5.744,4.22c1.693,1.695,3.111,3.629,4.215,5.749
			c1.128,2.171,1.905,4.493,2.308,6.905l0.197,1.187c0.03,0.182-0.061,0.363-0.224,0.448l-4.319,2.24l4.319,2.239
			c0.163,0.085,0.254,0.267,0.224,0.448L62.97,43.875z"/>
		<path fill="#FFFFFF" d="M31.295,40.001c0-2.323,0.904-4.507,2.546-6.148c0.14-0.142,0.284-0.275,0.432-0.404V21.61
			c-6.461,1.967-11.401,7.168-13.028,13.736l8.242,4.276c0.142,0.072,0.23,0.219,0.23,0.378c0,0.158-0.088,0.305-0.23,0.378
			l-8.242,4.275c1.626,6.568,6.567,11.769,13.028,13.735V46.553c-0.148-0.13-0.292-0.264-0.432-0.404
			C32.2,44.507,31.295,42.323,31.295,40.001z"/>
		<path fill="#FFFFFF" d="M40,0C17.908,0,0,17.908,0,40s17.908,40,40,40s40-17.908,40-40S62.092,0,40,0z M67.641,51.679
			c-1.511,3.572-3.674,6.78-6.428,9.535c-2.755,2.754-5.964,4.918-9.535,6.428c-3.699,1.565-7.63,2.357-11.678,2.357
			c-4.049,0-7.978-0.792-11.678-2.357c-3.572-1.51-6.781-3.674-9.535-6.428c-2.755-2.755-4.918-5.963-6.429-9.535
			C10.793,47.978,10,44.05,10,40c0-4.049,0.793-7.978,2.358-11.678c1.511-3.572,3.674-6.78,6.429-9.534
			c2.754-2.756,5.963-4.918,9.535-6.429c3.7-1.565,7.629-2.358,11.678-2.358c4.048,0,7.979,0.793,11.678,2.358
			c3.571,1.511,6.78,3.673,9.535,6.429c2.754,2.754,4.917,5.962,6.428,9.534C69.206,32.022,70,35.951,70,40
			C70,44.05,69.206,47.978,67.641,51.679z"/>
		<path fill="#FFFFFF" d="M66.173,28.943c-1.43-3.383-3.479-6.42-6.088-9.028c-2.608-2.608-5.646-4.657-9.028-6.088
			c-3.503-1.481-7.223-2.232-11.057-2.232s-7.555,0.751-11.057,2.232c-3.382,1.431-6.421,3.479-9.03,6.088
			c-2.608,2.608-4.656,5.646-6.087,9.028c-1.48,3.502-2.232,7.223-2.232,11.057c0,3.835,0.751,7.555,2.232,11.056
			c1.431,3.385,3.479,6.422,6.087,9.03c2.609,2.608,5.647,4.658,9.03,6.087c3.502,1.482,7.222,2.233,11.057,2.233
			s7.554-0.751,11.057-2.233c3.383-1.429,6.42-3.479,9.028-6.087c2.609-2.608,4.658-5.646,6.088-9.03
			c1.481-3.501,2.232-7.221,2.232-11.056C68.405,36.166,67.654,32.446,66.173,28.943z M40,67.501
			c-15.165,0-27.501-12.336-27.501-27.5S24.835,12.5,40,12.5c15.164,0,27.501,12.337,27.501,27.501S55.164,67.501,40,67.501z"/>
		<path d="M58.624,40.001l4.319-2.24c0.163-0.085,0.254-0.267,0.224-0.448l-0.197-1.187c-0.402-2.412-1.18-4.734-2.308-6.905
			c-1.104-2.12-2.521-4.054-4.215-5.749c-1.693-1.694-3.625-3.114-5.744-4.22c-2.17-1.13-4.491-1.909-6.903-2.313l-1.927-0.323
			c-0.023-0.003-0.048-0.006-0.071-0.006c-0.1,0-0.198,0.035-0.276,0.101c-0.094,0.082-0.149,0.2-0.149,0.326v14.378
			c-0.454-0.072-0.917-0.108-1.384-0.108c-0.528,0-1.049,0.046-1.559,0.138V17.036c0-0.126-0.055-0.244-0.15-0.326
			c-0.078-0.065-0.175-0.101-0.275-0.101c-0.022,0-0.047,0.002-0.071,0.006l-1.926,0.323c-2.411,0.404-4.734,1.184-6.904,2.313
			c-2.118,1.105-4.051,2.525-5.744,4.22c-1.694,1.695-3.111,3.629-4.214,5.749c-1.129,2.171-1.906,4.493-2.309,6.905l-0.197,1.187
			c-0.03,0.182,0.06,0.363,0.224,0.448l4.317,2.24l-4.317,2.239c-0.164,0.085-0.254,0.267-0.224,0.448l0.197,1.187
			c0.403,2.412,1.18,4.735,2.309,6.905c1.103,2.119,2.52,4.053,4.214,5.748c1.692,1.696,3.625,3.116,5.744,4.22
			c2.169,1.132,4.492,1.911,6.904,2.313l1.926,0.324c0.024,0.004,0.048,0.006,0.071,0.006c0.1,0,0.197-0.036,0.275-0.101
			c0.096-0.083,0.15-0.2,0.15-0.325V48.557c0.51,0.092,1.03,0.139,1.559,0.139c0.467,0,0.93-0.037,1.384-0.108v14.379
			c0,0.125,0.056,0.242,0.149,0.325c0.078,0.064,0.177,0.101,0.276,0.101c0.023,0,0.048-0.002,0.071-0.006l1.927-0.324
			c0.464-0.077,0.933-0.171,1.398-0.278c0.192-0.045,0.331-0.217,0.331-0.416v-12.49c0.004-0.025,0.005-0.051,0.005-0.078V46.7
			c0.211-0.173,0.411-0.356,0.605-0.552c1.643-1.642,2.547-3.825,2.547-6.147c0-2.323-0.904-4.507-2.547-6.148
			c-0.194-0.194-0.395-0.378-0.605-0.552V21.61c6.463,1.967,11.402,7.168,13.029,13.736l-8.242,4.276
			c-0.143,0.072-0.231,0.219-0.231,0.378c0,0.158,0.089,0.305,0.231,0.378l8.242,4.275c-0.83,3.351-2.56,6.42-5.019,8.894
			c-0.165,0.166-0.165,0.435,0,0.602l2.34,2.339c0.08,0.08,0.189,0.125,0.301,0.125c0.114-0.001,0.224-0.046,0.303-0.126
			c1.675-1.686,3.076-3.604,4.172-5.702c1.13-2.172,1.905-4.497,2.31-6.91l0.197-1.187c0.03-0.182-0.061-0.363-0.224-0.448
			L58.624,40.001z M34.274,58.39c-6.461-1.967-11.401-7.167-13.028-13.735l8.242-4.275c0.142-0.073,0.23-0.22,0.23-0.378
			c0-0.159-0.088-0.306-0.23-0.378l-8.242-4.276c1.626-6.568,6.567-11.77,13.028-13.736v11.838
			c-0.148,0.129-0.292,0.263-0.432,0.404c-1.642,1.642-2.546,3.825-2.546,6.148c0,2.322,0.904,4.506,2.546,6.147
			c0.14,0.141,0.284,0.274,0.432,0.404V58.39z M47.094,40.001c0,1.678-0.585,3.221-1.56,4.438v-0.005
			c-1.026,1.281-2.487,2.201-4.158,2.532c-0.448,0.089-0.911,0.137-1.384,0.137c-0.536,0-1.057-0.06-1.559-0.172v-0.002
			c-1.694-0.38-3.16-1.366-4.159-2.721v0.006c-0.87-1.18-1.385-2.636-1.385-4.213c0-1.578,0.515-3.035,1.385-4.214v0.006
			c0.999-1.354,2.465-2.341,4.159-2.722c0.502-0.112,1.023-0.173,1.559-0.173c0.473,0,0.936,0.048,1.384,0.136
			c1.671,0.332,3.132,1.252,4.158,2.533v-0.005C46.509,36.778,47.094,38.32,47.094,40.001z"/>
		<path d="M40,12.5c-15.165,0-27.501,12.337-27.501,27.501s12.336,27.5,27.501,27.5c15.164,0,27.501-12.336,27.501-27.5
			S55.164,12.5,40,12.5z M40,65.907c-14.286,0-25.907-11.622-25.907-25.906c0-14.286,11.622-25.908,25.907-25.908
			c14.284,0,25.906,11.622,25.906,25.908C65.906,54.285,54.284,65.907,40,65.907z"/>
		<path d="M42.665,37.235c0.652,0,1.268,0.453,1.646,1.213l1.427-0.713c-0.655-1.312-1.804-2.093-3.072-2.093
			c-1.981,0-3.592,1.961-3.592,4.372s1.611,4.373,3.592,4.373c1.269,0,2.417-0.784,3.072-2.096l-1.427-0.712
			c-0.378,0.758-0.993,1.213-1.646,1.213c-1.082,0-1.998-1.271-1.998-2.778C40.667,38.509,41.583,37.235,42.665,37.235z"/>
		<path d="M39.269,37.216v-1.594h-3.188l-0.237,0.262c-1.026,1.134-1.591,2.601-1.591,4.131c0,1.633,0.64,3.179,1.802,4.353
			l1.132-1.123c-0.864-0.871-1.341-2.021-1.341-3.229c0-0.03,0.002-0.06,0.002-0.09h2.082v-1.594h-1.763
			c0.158-0.397,0.371-0.773,0.637-1.115H39.269z"/>
		<path d="M67.641,28.322c-1.511-3.572-3.674-6.78-6.428-9.534c-2.755-2.756-5.964-4.918-9.535-6.429
			c-3.699-1.565-7.63-2.358-11.678-2.358c-4.049,0-7.978,0.793-11.678,2.358c-3.572,1.511-6.781,3.673-9.535,6.429
			c-2.755,2.754-4.918,5.962-6.429,9.534C10.793,32.022,10,35.951,10,40c0,4.05,0.793,7.978,2.358,11.679
			c1.511,3.572,3.674,6.78,6.429,9.535c2.754,2.754,5.963,4.918,9.535,6.428c3.7,1.565,7.629,2.357,11.678,2.357
			c4.048,0,7.979-0.792,11.678-2.357c3.571-1.51,6.78-3.674,9.535-6.428c2.754-2.755,4.917-5.963,6.428-9.535
			C69.206,47.978,70,44.05,70,40C70,35.951,69.206,32.022,67.641,28.322z M66.173,51.056c-1.43,3.385-3.479,6.422-6.088,9.03
			c-2.608,2.608-5.646,4.658-9.028,6.087c-3.503,1.482-7.223,2.233-11.057,2.233s-7.555-0.751-11.057-2.233
			c-3.382-1.429-6.421-3.479-9.03-6.087c-2.608-2.608-4.656-5.646-6.087-9.03c-1.48-3.501-2.232-7.221-2.232-11.056
			c0-3.834,0.751-7.555,2.232-11.057c1.431-3.383,3.479-6.42,6.087-9.028c2.609-2.608,5.647-4.657,9.03-6.088
			c3.502-1.481,7.222-2.232,11.057-2.232s7.554,0.751,11.057,2.232c3.383,1.431,6.42,3.479,9.028,6.088
			c2.609,2.608,4.658,5.646,6.088,9.028c1.481,3.503,2.232,7.223,2.232,11.057C68.405,43.835,67.654,47.555,66.173,51.056z"/>
	</g>
</g>
<g id="Layer_1_copy" display="none">
	<g display="inline">
		<path fill="#FFFFFF" d="M70,13.556c-1.11-1.258-2.298-2.446-3.557-3.556C59.394,3.781,50.141,0,40,0S20.606,3.781,13.556,10
			c-1.258,1.11-2.446,2.298-3.556,3.556C3.781,20.606,0,29.859,0,40s3.781,19.394,10,26.443c1.11,1.259,2.298,2.446,3.556,3.557
			C20.606,76.22,29.859,80,40,80s19.394-3.78,26.443-10c1.259-1.11,2.446-2.298,3.557-3.557C76.22,59.394,80,50.141,80,40
			S76.22,20.606,70,13.556z M70,42.538C68.803,57.155,57.155,68.803,42.539,70h-4.968C22.136,68.736,10,55.817,10,40.055
			C10,23.456,23.456,10,40.055,10C55.817,10,68.736,22.136,70,37.571V42.538z"/>
		<path fill="#FFFFFF" d="M40.055,10C23.456,10,10,23.456,10,40.055C10,55.817,22.136,68.736,37.571,70h4.968
			C57.155,68.803,68.803,57.155,70,42.538v-4.967C68.736,22.136,55.817,10,40.055,10z M40.846,34.522l-8.645,20.57h-3l-7.444-19.124
			c-0.317-0.812-1.235-2.928-2.046-4.552c-0.812-1.623-1.129-2.046-1.941-2.964h6.669c-0.212,0.776-0.248,1.059-0.248,1.412
			c0,1.023,0.529,3.069,1.129,4.657l5.504,14.008l5.681-13.549c0.564-1.376,1.27-3.316,1.27-4.799c0-0.388-0.035-0.776-0.317-1.729
			l6.879,0.106C42.822,30.324,41.763,32.335,40.846,34.522z M59.123,40.38L57.11,44.19c-1.833-0.775-3.457-1.235-6.738-1.2v5.928
			c0,2.117,0.211,3.952,0.812,5.998h-5.646c0.846-3.315,0.881-6.315,0.881-7.409V35.087c0-3.775-0.457-5.222-0.881-6.634h14.501
			l-2.151,3.881c-2.858-1.129-4.023-1.235-7.516-1.34v9.385H59.123z"/>
		<path d="M40.055,10C23.456,10,10,23.456,10,40.055C10,55.817,22.136,68.736,37.571,70h4.968
			C57.155,68.803,68.803,57.155,70,42.538v-4.967C68.736,22.136,55.817,10,40.055,10z M40.846,34.522l-8.645,20.57h-3l-7.444-19.124
			c-0.317-0.812-1.235-2.928-2.046-4.552c-0.812-1.623-1.129-2.046-1.941-2.964h6.669c-0.212,0.776-0.248,1.059-0.248,1.412
			c0,1.023,0.529,3.069,1.129,4.657l5.504,14.008l5.681-13.549c0.564-1.376,1.27-3.316,1.27-4.799c0-0.388-0.035-0.776-0.317-1.729
			l6.879,0.106C42.822,30.324,41.763,32.335,40.846,34.522z M59.123,40.38L57.11,44.19c-1.833-0.775-3.457-1.235-6.738-1.2v5.928
			c0,2.117,0.211,3.952,0.812,5.998h-5.646c0.846-3.315,0.881-6.315,0.881-7.409V35.087c0-3.775-0.457-5.222-0.881-6.634h14.501
			l-2.151,3.881c-2.858-1.129-4.023-1.235-7.516-1.34v9.385H59.123z"/>
		<path fill="#FFFFFF" d="M37.776,30.183c0,1.482-0.706,3.423-1.27,4.799L30.825,48.53l-5.504-14.008
			c-0.6-1.587-1.129-3.634-1.129-4.657c0-0.354,0.036-0.636,0.248-1.412H17.77c0.812,0.917,1.129,1.341,1.941,2.964
			c0.812,1.624,1.729,3.74,2.046,4.552l7.444,19.124h3l8.645-20.57c0.917-2.188,1.977-4.199,3.492-5.963l-6.879-0.106
			C37.741,29.406,37.776,29.795,37.776,30.183z"/>
		<path fill="#FFFFFF" d="M57.888,32.335l2.151-3.881H45.538c0.424,1.412,0.881,2.858,0.881,6.634v12.419
			c0,1.094-0.035,4.094-0.881,7.409h5.646c-0.601-2.046-0.812-3.881-0.812-5.998V42.99c3.281-0.035,4.905,0.425,6.738,1.2
			l2.013-3.811h-8.751v-9.385C53.864,31.1,55.029,31.206,57.888,32.335z"/>
	</g>
</g>
<g id="Layer_1_copy_2">
	<g>
		<path fill="#FFFFFF" d="M40.417,63.101c-1.575,0-2.7,1.227-2.7,2.758c0,1.519,1.125,2.746,2.7,2.746
			c1.564,0,2.689-1.228,2.689-2.758C43.106,64.327,41.981,63.101,40.417,63.101z"/>
		<path fill="#FFFFFF" d="M40.281,55.976c0-0.879-0.608-1.599-1.711-1.599h-0.979v3.174h0.799
			C39.764,57.551,40.281,56.842,40.281,55.976z"/>
		<path fill="#FFFFFF" d="M34.616,64.879c0-0.878-0.607-1.598-1.711-1.598h-0.979v3.174h0.799
			C34.099,66.455,34.616,65.746,34.616,64.879z"/>
		<path fill="#FFFFFF" d="M40,0C17.908,0,0,17.908,0,40s17.908,40,40,40s40-17.908,40-40S62.092,0,40,0z M55.854,59.497v1.385
			h-3.486v-7.878h1.452v6.493H55.854z M52.271,45.98c-0.56,0-1.144,0.07-1.709,0.195c2.292-2.277,3.735-5.342,4.162-9.027
			c0.263-2.27,0.087-4.35-0.51-6.217h4.109c-0.778,0.667-1.223,1.721-1.223,2.887V47.98C56.158,46.647,54.492,45.98,52.271,45.98z
			 M43.601,54.389v2.003h3.129v1.384h-3.129v1.722h3.275v1.385h-4.727v-7.878h9.825v1.385h-1.981v6.493h-1.452v-6.493H43.601z
			 M53.398,11.445c1.775,0.031,2.893-0.283,3.684-1.103l-0.17,9.721c-0.899-2.572-3.059-6.11-6.062-8.997
			C51.734,11.305,52.565,11.431,53.398,11.445z M27.352,20.025c0.586-5.069,5.155-9.379,10.628-10.025
			c-1.507,1.001-2.52,2.862-2.779,5.106c-0.33,2.853,1.399,5.93,4.026,7.158l6.231,2.89c5.164,2.409,7.368,6.236,6.735,11.702
			c-0.685,5.931-4.548,9.936-10.596,10.989c1.621-1.101,2.638-3.063,2.939-5.674c0.395-3.409-1.3-6.286-4.772-8.102l-6.553-3.409
			C29.023,28.493,26.833,24.517,27.352,20.025z M32.741,59.711c0.911,0,1.52-0.438,1.97-0.799l0.9,0.945
			c-0.608,0.652-1.531,1.204-2.87,1.204c-2.465,0-4.164-1.834-4.164-4.107s1.711-4.119,4.164-4.119c1.125,0,2.139,0.428,2.881,1.125
			l-0.911,0.991c-0.45-0.405-1.126-0.754-1.97-0.754c-1.644,0-2.701,1.238-2.701,2.757C30.04,58.474,31.098,59.711,32.741,59.711z
			 M26.733,14.386c-1.018,1.626-1.692,3.441-1.912,5.346c-0.584,5.053,1.568,9.569,5.807,12.363
			c0.211,9.182,1.623,14.363,4.585,16.353c-8.944-1.333-16.052-9.276-16.052-18.55C19.161,23.916,21.893,18.48,26.733,14.386z
			 M28.048,56.392v1.384H24.92v1.722h3.274v1.385h-4.727v-7.878h4.727v1.385H24.92v2.003H28.048z M18.169,60.308v-1.497
			c0.552,0.36,1.295,0.867,2.296,0.867c0.799,0,1.193-0.405,1.193-0.845c0-0.472-0.304-0.754-1.396-1.35
			c-1.047-0.574-2.239-1.171-2.239-2.499c0-1.204,0.854-2.07,2.419-2.07c0.979,0,1.722,0.338,2.161,0.573v1.587
			c-0.473-0.337-1.385-0.854-2.184-0.854c-0.495,0-0.945,0.214-0.945,0.709s0.395,0.697,1.497,1.294
			c1.328,0.72,2.138,1.271,2.138,2.498c0,1.249-0.968,2.263-2.678,2.263C19.306,60.983,18.54,60.532,18.169,60.308z M26.007,70
			c-2.363,0-4.152-1.846-4.152-4.107c0-2.273,1.801-4.119,4.152-4.119v1.361c-1.564,0-2.701,1.227-2.701,2.758
			c0,1.519,1.137,2.746,2.701,2.746c1.576,0,2.701-1.228,2.701-2.757c0-0.417-0.09-0.812-0.236-1.16l-2.465,2.454v-1.959
			l2.577-2.577c0.968,0.754,1.587,1.925,1.587,3.242C30.171,68.154,28.37,70,26.007,70z M34.233,69.786l-2.307-2.791v2.791h-1.452
			v-7.878h2.431c1.97,0,3.162,1.271,3.162,2.914c0,1.249-0.641,2.285-1.969,2.656l1.991,2.308H34.233z M36.14,53.004h2.431
			c1.97,0,3.162,1.271,3.162,2.915c0,1.249-0.642,2.284-1.969,2.655l1.991,2.308h-1.856l-2.307-2.791v2.791H36.14V53.004z
			 M40.417,69.966c-2.363,0-4.164-1.846-4.164-4.107c0-2.273,1.812-4.119,4.164-4.119c2.341,0,4.152,1.846,4.152,4.107
			C44.569,68.12,42.78,69.966,40.417,69.966z M50.911,66.792c0,1.723-0.96,3.163-2.942,3.163c-1.94,0-2.953-1.44-2.953-3.163v-4.884
			h1.375v4.884c0,0.957,0.501,1.767,1.578,1.767c1.065,0,1.566-0.81,1.566-1.767v-4.884h1.376V66.792z M53.947,67.839h-0.979v1.947
			h-1.451v-7.878h2.431c1.992,0.011,3.162,1.339,3.162,2.971S55.883,67.839,53.947,67.839z M58.77,58.023v2.858h-1.452v-2.858
			l-3.207-5.02h1.722l2.206,3.579l2.217-3.579h1.722L58.77,58.023z"/>
		<path fill="#FFFFFF" d="M53.947,63.281h-0.979v3.174h0.979c1.148,0,1.722-0.709,1.722-1.576
			C55.669,64.001,55.051,63.281,53.947,63.281z"/>
		<path fill="#FFFFFF" d="M23.109,58.721c0-1.227-0.81-1.778-2.138-2.498c-1.103-0.597-1.497-0.799-1.497-1.294
			s0.45-0.709,0.945-0.709c0.799,0,1.711,0.518,2.184,0.854v-1.587c-0.439-0.235-1.182-0.573-2.161-0.573
			c-1.564,0-2.419,0.866-2.419,2.07c0,1.328,1.192,1.925,2.239,2.499c1.092,0.596,1.396,0.878,1.396,1.35
			c0,0.439-0.395,0.845-1.193,0.845c-1.001,0-1.744-0.507-2.296-0.867v1.497c0.371,0.225,1.137,0.676,2.263,0.676
			C22.142,60.983,23.109,59.97,23.109,58.721z"/>
		<path d="M23.109,58.721c0-1.227-0.81-1.778-2.138-2.498c-1.103-0.597-1.497-0.799-1.497-1.294s0.45-0.709,0.945-0.709
			c0.799,0,1.711,0.518,2.184,0.854v-1.587c-0.439-0.235-1.182-0.573-2.161-0.573c-1.564,0-2.419,0.866-2.419,2.07
			c0,1.328,1.192,1.925,2.239,2.499c1.092,0.596,1.396,0.878,1.396,1.35c0,0.439-0.395,0.845-1.193,0.845
			c-1.001,0-1.744-0.507-2.296-0.867v1.497c0.371,0.225,1.137,0.676,2.263,0.676C22.142,60.983,23.109,59.97,23.109,58.721z"/>
		<path fill="#FFFFFF" d="M49.535,66.792c0,0.957-0.501,1.767-1.566,1.767c-1.077,0-1.578-0.81-1.578-1.767v-4.884h-1.375v4.884
			c0,1.723,1.013,3.163,2.953,3.163c1.982,0,2.942-1.44,2.942-3.163v-4.884h-1.376V66.792z"/>
		<path d="M49.535,66.792c0,0.957-0.501,1.767-1.566,1.767c-1.077,0-1.578-0.81-1.578-1.767v-4.884h-1.375v4.884
			c0,1.723,1.013,3.163,2.953,3.163c1.982,0,2.942-1.44,2.942-3.163v-4.884h-1.376V66.792z"/>
		<path fill="#FFFFFF" d="M53.947,61.908h-2.431v7.878h1.451v-1.947h0.979c1.936,0,3.162-1.328,3.162-2.96
			S55.939,61.919,53.947,61.908z M53.947,66.455h-0.979v-3.174h0.979c1.104,0,1.722,0.72,1.722,1.598
			C55.669,65.746,55.096,66.455,53.947,66.455z"/>
		<path d="M53.947,61.908h-2.431v7.878h1.451v-1.947h0.979c1.936,0,3.162-1.328,3.162-2.96S55.939,61.919,53.947,61.908z
			 M53.947,66.455h-0.979v-3.174h0.979c1.104,0,1.722,0.72,1.722,1.598C55.669,65.746,55.096,66.455,53.947,66.455z"/>
		<polygon fill="#FFFFFF" points="28.194,54.389 28.194,53.004 23.468,53.004 23.468,60.882 28.194,60.882 28.194,59.497 
			24.92,59.497 24.92,57.775 28.048,57.775 28.048,56.392 24.92,56.392 24.92,54.389 		"/>
		<polygon points="28.194,54.389 28.194,53.004 23.468,53.004 23.468,60.882 28.194,60.882 28.194,59.497 24.92,59.497 
			24.92,57.775 28.048,57.775 28.048,56.392 24.92,56.392 24.92,54.389 		"/>
		<path fill="#FFFFFF" d="M36.067,64.822c0-1.643-1.192-2.914-3.162-2.914h-2.431v7.878h1.452v-2.791l2.307,2.791h1.856
			l-1.991-2.308C35.427,67.107,36.067,66.071,36.067,64.822z M31.927,66.455v-3.174h0.979c1.104,0,1.711,0.72,1.711,1.598
			c0,0.867-0.518,1.576-1.891,1.576H31.927z"/>
		<path d="M36.067,64.822c0-1.643-1.192-2.914-3.162-2.914h-2.431v7.878h1.452v-2.791l2.307,2.791h1.856l-1.991-2.308
			C35.427,67.107,36.067,66.071,36.067,64.822z M31.927,66.455v-3.174h0.979c1.104,0,1.711,0.72,1.711,1.598
			c0,0.867-0.518,1.576-1.891,1.576H31.927z"/>
		<path fill="#FFFFFF" d="M40.417,61.739c-2.352,0-4.164,1.846-4.164,4.119c0,2.262,1.801,4.107,4.164,4.107
			s4.152-1.846,4.152-4.119C44.569,63.585,42.758,61.739,40.417,61.739z M40.417,68.604c-1.575,0-2.7-1.228-2.7-2.746
			c0-1.531,1.125-2.758,2.7-2.758c1.564,0,2.689,1.227,2.689,2.746C43.106,67.377,41.981,68.604,40.417,68.604z"/>
		<path d="M40.417,61.739c-2.352,0-4.164,1.846-4.164,4.119c0,2.262,1.801,4.107,4.164,4.107s4.152-1.846,4.152-4.119
			C44.569,63.585,42.758,61.739,40.417,61.739z M40.417,68.604c-1.575,0-2.7-1.228-2.7-2.746c0-1.531,1.125-2.758,2.7-2.758
			c1.564,0,2.689,1.227,2.689,2.746C43.106,67.377,41.981,68.604,40.417,68.604z"/>
		<path fill="#FFFFFF" d="M37.592,58.091l2.307,2.791h1.856l-1.991-2.308c1.327-0.371,1.969-1.406,1.969-2.655
			c0-1.644-1.192-2.915-3.162-2.915H36.14v7.878h1.452V58.091z M37.592,54.377h0.979c1.103,0,1.711,0.72,1.711,1.599
			c0,0.866-0.518,1.575-1.891,1.575h-0.799V54.377z"/>
		<path d="M37.592,58.091l2.307,2.791h1.856l-1.991-2.308c1.327-0.371,1.969-1.406,1.969-2.655c0-1.644-1.192-2.915-3.162-2.915
			H36.14v7.878h1.452V58.091z M37.592,54.377h0.979c1.103,0,1.711,0.72,1.711,1.599c0,0.866-0.518,1.575-1.891,1.575h-0.799V54.377z
			"/>
		<path fill="#FFFFFF" d="M28.584,62.64l-2.577,2.577v1.959l2.465-2.454c0.146,0.349,0.236,0.743,0.236,1.16
			c0,1.529-1.125,2.757-2.701,2.757c-1.564,0-2.701-1.228-2.701-2.746c0-1.531,1.137-2.758,2.701-2.758v-1.361
			c-2.352,0-4.152,1.846-4.152,4.119c0,2.262,1.789,4.107,4.152,4.107s4.164-1.846,4.164-4.118
			C30.171,64.564,29.552,63.394,28.584,62.64z"/>
		<path d="M28.584,62.64l-2.577,2.577v1.959l2.465-2.454c0.146,0.349,0.236,0.743,0.236,1.16c0,1.529-1.125,2.757-2.701,2.757
			c-1.564,0-2.701-1.228-2.701-2.746c0-1.531,1.137-2.758,2.701-2.758v-1.361c-2.352,0-4.152,1.846-4.152,4.119
			c0,2.262,1.789,4.107,4.152,4.107s4.164-1.846,4.164-4.118C30.171,64.564,29.552,63.394,28.584,62.64z"/>
		<polygon fill="#FFFFFF" points="52.367,53.004 52.367,60.882 55.854,60.882 55.854,59.497 53.819,59.497 53.819,53.004 		"/>
		<polygon points="52.367,53.004 52.367,60.882 55.854,60.882 55.854,59.497 53.819,59.497 53.819,53.004 		"/>
		<path fill="#FFFFFF" d="M57.102,47.98V33.819c0-1.166,0.444-2.221,1.223-2.887h-4.109c0.597,1.867,0.772,3.947,0.51,6.217
			c-0.427,3.686-1.87,6.75-4.162,9.027c0.565-0.125,1.149-0.195,1.709-0.195C54.492,45.98,56.158,46.647,57.102,47.98z"/>
		<path d="M57.102,47.98V33.819c0-1.166,0.444-2.221,1.223-2.887h-4.109c0.597,1.867,0.772,3.947,0.51,6.217
			c-0.427,3.686-1.87,6.75-4.162,9.027c0.565-0.125,1.149-0.195,1.709-0.195C54.492,45.98,56.158,46.647,57.102,47.98z"/>
		<polygon fill="#FFFFFF" points="49.993,60.882 49.993,54.389 51.975,54.389 51.975,53.004 42.149,53.004 42.149,60.882 
			46.876,60.882 46.876,59.497 43.601,59.497 43.601,57.775 46.729,57.775 46.729,56.392 43.601,56.392 43.601,54.389 
			48.541,54.389 48.541,60.882 		"/>
		<polygon points="49.993,60.882 49.993,54.389 51.975,54.389 51.975,53.004 42.149,53.004 42.149,60.882 46.876,60.882 
			46.876,59.497 43.601,59.497 43.601,57.775 46.729,57.775 46.729,56.392 43.601,56.392 43.601,54.389 48.541,54.389 
			48.541,60.882 		"/>
		<polygon fill="#FFFFFF" points="58.038,56.583 55.832,53.004 54.11,53.004 57.317,58.023 57.317,60.882 58.77,60.882 
			58.77,58.023 61.977,53.004 60.255,53.004 		"/>
		<polygon points="58.038,56.583 55.832,53.004 54.11,53.004 57.317,58.023 57.317,60.882 58.77,60.882 58.77,58.023 61.977,53.004 
			60.255,53.004 		"/>
		<path fill="#FFFFFF" d="M33.212,30.66l6.553,3.409c3.473,1.816,5.167,4.693,4.772,8.102c-0.302,2.61-1.318,4.573-2.939,5.674
			c6.048-1.053,9.911-5.058,10.596-10.989c0.633-5.466-1.571-9.293-6.735-11.702l-6.231-2.89c-2.627-1.229-4.356-4.305-4.026-7.158
			c0.26-2.244,1.272-4.105,2.779-5.106c-5.473,0.646-10.042,4.956-10.628,10.025C26.833,24.517,29.023,28.493,33.212,30.66z"/>
		<path d="M33.212,30.66l6.553,3.409c3.473,1.816,5.167,4.693,4.772,8.102c-0.302,2.61-1.318,4.573-2.939,5.674
			c6.048-1.053,9.911-5.058,10.596-10.989c0.633-5.466-1.571-9.293-6.735-11.702l-6.231-2.89c-2.627-1.229-4.356-4.305-4.026-7.158
			c0.26-2.244,1.272-4.105,2.779-5.106c-5.473,0.646-10.042,4.956-10.628,10.025C26.833,24.517,29.023,28.493,33.212,30.66z"/>
		<path fill="#FFFFFF" d="M32.741,54.197c0.844,0,1.52,0.349,1.97,0.754l0.911-0.991c-0.742-0.697-1.756-1.125-2.881-1.125
			c-2.453,0-4.164,1.846-4.164,4.119s1.699,4.107,4.164,4.107c1.339,0,2.262-0.552,2.87-1.204l-0.9-0.945
			c-0.45,0.36-1.059,0.799-1.97,0.799c-1.644,0-2.701-1.237-2.701-2.757C30.04,55.436,31.098,54.197,32.741,54.197z"/>
		<path d="M32.741,54.197c0.844,0,1.52,0.349,1.97,0.754l0.911-0.991c-0.742-0.697-1.756-1.125-2.881-1.125
			c-2.453,0-4.164,1.846-4.164,4.119s1.699,4.107,4.164,4.107c1.339,0,2.262-0.552,2.87-1.204l-0.9-0.945
			c-0.45,0.36-1.059,0.799-1.97,0.799c-1.644,0-2.701-1.237-2.701-2.757C30.04,55.436,31.098,54.197,32.741,54.197z"/>
		<path fill="#FFFFFF" d="M57.082,10.342c-0.791,0.82-1.908,1.133-3.684,1.103c-0.833-0.014-1.664-0.14-2.548-0.378
			c3.003,2.886,5.162,6.425,6.062,8.997L57.082,10.342z"/>
		<path d="M57.082,10.342c-0.791,0.82-1.908,1.133-3.684,1.103c-0.833-0.014-1.664-0.14-2.548-0.378
			c3.003,2.886,5.162,6.425,6.062,8.997L57.082,10.342z"/>
		<path fill="#FFFFFF" d="M35.213,48.448c-2.962-1.99-4.374-7.171-4.585-16.353c-4.238-2.793-6.391-7.31-5.807-12.363
			c0.22-1.905,0.895-3.72,1.912-5.346c-4.841,4.094-7.572,9.53-7.572,15.512C19.161,39.172,26.269,47.115,35.213,48.448z"/>
		<path d="M35.213,48.448c-2.962-1.99-4.374-7.171-4.585-16.353c-4.238-2.793-6.391-7.31-5.807-12.363
			c0.22-1.905,0.895-3.72,1.912-5.346c-4.841,4.094-7.572,9.53-7.572,15.512C19.161,39.172,26.269,47.115,35.213,48.448z"/>
	</g>
</g>
<g id="Layer_1_copy_3" display="none">
	<g display="inline">
		<path fill="#FFFFFF" d="M40,0C17.908,0,0,17.908,0,40s17.908,40,40,40s40-17.908,40-40S62.092,0,40,0z M59.049,45.393
			c-4.505,2.973-8.835,4.955-13.023,8.374c-3.701,3.02-6.92,6.956-11.843,8.025C22.311,64.374,14.363,47.996,11.239,39.29
			C5.006,24.908,23.392,16.363,41.784,18.176c20.733,2.045,26.412,9.949,26.412,9.949C75.319,36.809,59.049,45.393,59.049,45.393z"
			/>
		<path d="M25.552,43.693c-0.355,0-0.667,0.16-0.896,0.418c-0.347,0.372-0.533,0.94-0.533,1.544c0,0.373,0.097,0.692,0.31,0.887
			c0.151,0.143,0.355,0.231,0.631,0.231c0.302,0,0.576-0.133,0.79-0.337c0.381-0.373,0.612-1.003,0.612-1.625
			c0-0.373-0.071-0.675-0.258-0.869C26.058,43.791,25.844,43.693,25.552,43.693z"/>
		<path d="M24.836,28.731h-2.314v3.945h2.682c1.257,0,2.166-0.738,2.166-1.973C27.37,29.504,26.554,28.73,24.836,28.731z"/>
		<path d="M38.822,30.701c0-1.197-0.814-1.973-2.523-1.972h-2.311v3.945h2.676C37.916,32.673,38.822,31.937,38.822,30.701z"/>
		<path d="M68.196,28.125c0,0-5.679-7.904-26.412-9.949C23.392,16.363,5.006,24.908,11.239,39.29
			c3.125,8.706,11.072,25.084,22.944,22.502c4.922-1.069,8.142-5.006,11.843-8.025c4.188-3.419,8.519-5.401,13.023-8.374
			C59.049,45.393,75.319,36.809,68.196,28.125z M22.973,43.67h-0.852c-0.329,2.024-0.595,4.509-2.078,5.618l-0.461-0.487
			c1.155-1.048,1.376-2.708,1.776-5.131h-0.621l0.088-0.64h0.604l0.106-0.541c0.24-1.233,1.047-1.545,1.686-1.545
			c0.312,0,0.613,0.063,0.907,0.24l-0.32,0.613c-0.168-0.115-0.355-0.187-0.604-0.187c-0.416,0-0.754,0.284-0.887,0.939l-0.097,0.48
			h1.011L22.973,43.67z M26.448,46.836c-0.391,0.363-0.888,0.577-1.447,0.577c-0.541,0-0.932-0.16-1.189-0.418
			c-0.329-0.337-0.471-0.825-0.471-1.349c0-0.781,0.275-1.5,0.755-1.979c0.381-0.391,0.914-0.631,1.526-0.631
			c0.542,0,0.933,0.169,1.19,0.444c0.31,0.328,0.443,0.79,0.443,1.296C27.256,45.629,26.954,46.365,26.448,46.836z M24.89,34.851
			l-0.019,0.002l-2.35,0.001l0.001,4.39l-0.001,0.001c0,0,0,0.001,0,0.001c0,0.243-0.195,0.438-0.438,0.438l-0.001,0.001H20.5
			c-0.007,0-0.015,0.002-0.024,0.002c-0.241,0-0.437-0.195-0.437-0.437c0-0.003,0-0.005,0-0.007V27.013
			c0-0.006-0.002-0.013-0.002-0.02c0-0.242,0.196-0.437,0.438-0.437c0.002,0,0.004,0,0.006,0l5.038,0
			c2.796,0,4.437,1.659,4.437,3.963c0,2.951-1.972,3.633-2.604,3.872C27.351,34.392,26.12,34.816,24.89,34.851z M30.66,43.918
			c-0.115-0.062-0.274-0.089-0.408-0.089c-0.425,0-0.932,0.427-1.269,2.007l-0.321,1.508h-0.78l0.905-4.198h0.612l-0.123,0.853
			h0.008c0.275-0.595,0.639-0.95,1.189-0.95c0.231,0,0.408,0.062,0.551,0.16L30.66,43.918z M31.951,39.686l-0.003-0.004
			c-0.238-0.004-0.428-0.198-0.428-0.436c0-0.001,0-0.002,0-0.004l0,0V27.005c0-0.003-0.001-0.008-0.001-0.012
			c0-0.242,0.194-0.437,0.435-0.437l0.001-0.001h5.021c2.787,0,4.432,1.658,4.432,3.961c0,2.954-1.975,3.634-2.605,3.874
			l2.581,4.649v0.001c0.033,0.063,0.056,0.134,0.056,0.211c0,0.241-0.196,0.437-0.438,0.437c-0.01,0-0.019-0.002-0.027-0.002h-1.838
			l-0.005-0.003c-0.166-0.003-0.308-0.099-0.378-0.236l-0.001-0.001l-2.415-4.593h-2.348v4.384l-0.001,0.001
			c0,0.004,0.001,0.008,0.001,0.011c0,0.242-0.196,0.437-0.437,0.437c-0.003,0-0.005,0-0.008,0H31.951z M36.984,46.982
			c0,0.126-0.102,0.228-0.228,0.228h0h-0.522h0c-0.124-0.002-0.225-0.103-0.225-0.228c0-0.002,0.001-0.003,0.001-0.006v-2.373
			c0-0.172,0-0.344,0.015-0.509H36.01c-0.05,0.129-0.215,0.372-0.293,0.494l-0.806,1.235c-0.041,0.062-0.11,0.104-0.19,0.104h0
			h-0.001h-0.213h-0.001c-0.074-0.002-0.137-0.038-0.178-0.094h-0.001l-0.907-1.281c-0.093-0.129-0.208-0.271-0.3-0.458h-0.014
			c0.007,0.179,0.007,0.344,0.007,0.479v2.405c0,0.001,0,0.002,0,0.003c0,0.126-0.102,0.228-0.228,0.228h-0.52
			c-0.125,0-0.227-0.103-0.227-0.228v-0.001v-4.257c0-0.003-0.001-0.005-0.001-0.007c0-0.126,0.102-0.229,0.228-0.229
			c0.003,0,0.005,0.001,0.009,0.001h0.54c0.003,0,0.006-0.001,0.009-0.001c0.081,0,0.151,0.043,0.191,0.105l1.166,1.665
			c0.143,0.192,0.244,0.357,0.344,0.53h0.007c0.079-0.165,0.179-0.345,0.322-0.56l1.062-1.633c0.04-0.064,0.111-0.108,0.192-0.108
			c0.003,0,0.006,0.001,0.009,0.001h0.535c0.003,0,0.006-0.001,0.008-0.001c0.125,0,0.228,0.103,0.228,0.229
			c0,0-0.001,0.001-0.001,0.002v4.257C36.984,46.979,36.984,46.98,36.984,46.982z M42.105,42.72v2.649
			c0,0.573-0.157,1.046-0.479,1.368c-0.353,0.351-0.86,0.544-1.576,0.544c-0.695,0-1.21-0.157-1.547-0.486
			c-0.314-0.309-0.465-0.773-0.465-1.325v-2.748c0-0.002,0-0.003,0-0.004c0-0.126,0.102-0.228,0.227-0.228c0.002,0,0.003,0,0.006,0
			h0.508c0.001,0,0.003,0,0.006,0c0.125,0,0.227,0.101,0.227,0.227h0.001v2.675c0,0.343,0.107,0.594,0.265,0.772
			c0.172,0.194,0.458,0.294,0.788,0.294c0.379,0,0.651-0.1,0.824-0.294c0.165-0.171,0.235-0.422,0.235-0.73V42.72h0.001
			c0-0.001-0.001-0.002-0.001-0.002c0-0.126,0.104-0.228,0.229-0.228c0.002,0,0.004,0,0.006,0h0.516c0.002,0,0.004,0,0.004,0
			c0.127,0,0.229,0.102,0.229,0.228C42.105,42.718,42.105,42.719,42.105,42.72z M44.194,47.281c-0.562,0-0.992-0.15-1.314-0.329
			c-0.003-0.001-0.005-0.003-0.008-0.006c-0.063-0.04-0.107-0.11-0.107-0.192c0-0.035,0.009-0.068,0.023-0.098v-0.002l0.164-0.307
			v-0.001c0.039-0.075,0.114-0.127,0.204-0.127c0.036,0,0.07,0.009,0.1,0.024c0.003,0,0.005,0.001,0.007,0.002
			c0.254,0.141,0.549,0.248,0.888,0.248c0.344,0,0.73-0.129,0.73-0.487c0-0.623-1.146-0.73-1.719-1.382
			c-0.179-0.208-0.301-0.474-0.301-0.839c0-0.716,0.565-1.346,1.604-1.346c0.42,0,0.779,0.09,1.044,0.212
			c0.084,0.033,0.144,0.115,0.144,0.211c0,0.002,0,0.004-0.001,0.005c0.001,0.001,0.001,0.002,0.001,0.002l-0.006,0.336
			c0,0.001,0,0.002,0,0.003c0,0.003,0,0.004,0,0.006v0.003v0.001c-0.005,0.121-0.104,0.218-0.228,0.218
			c-0.031,0-0.062-0.006-0.089-0.019c-0.001,0-0.001,0-0.001,0c-0.274-0.121-0.53-0.19-0.812-0.19c-0.352,0-0.624,0.158-0.624,0.431
			c0,0.816,2.026,0.744,2.026,2.227C45.919,46.744,45.161,47.281,44.194,47.281z M47.795,46.983c0,0.125-0.103,0.227-0.228,0.227
			c-0.001,0-0.002,0-0.003,0h-0.522c0,0-0.001,0-0.002,0c-0.002,0-0.002,0-0.003,0c-0.124-0.002-0.225-0.103-0.225-0.227
			c0-0.002,0-0.004,0.001-0.005v-4.256c-0.001-0.002-0.001-0.003-0.001-0.005c0-0.126,0.102-0.228,0.228-0.228
			c0.001,0,0.002,0,0.002,0h0.522c0.002,0,0.002,0,0.003,0c0.125,0,0.228,0.102,0.228,0.228c0,0.002-0.001,0.003-0.001,0.005v4.256
			C47.794,46.979,47.795,46.981,47.795,46.983z M52.514,46.902c-0.001,0.001-0.003,0.001-0.004,0.002
			c-0.487,0.269-0.955,0.377-1.429,0.377c-1.539,0-2.413-1.053-2.413-2.385c0-1.354,1.016-2.456,2.628-2.456
			c0.406,0,0.786,0.066,1.08,0.183c0,0,0.001,0.001,0.002,0.001c0.086,0.032,0.148,0.114,0.148,0.212c0,0,0,0.001,0,0.002
			l-0.007,0.364v0.001c-0.002,0.124-0.104,0.224-0.229,0.224c-0.023,0-0.046-0.005-0.068-0.012c-0.005-0.001-0.01-0.002-0.014-0.003
			c-0.305-0.128-0.597-0.177-0.878-0.177c-1.11,0-1.597,0.773-1.597,1.59c0,0.902,0.579,1.611,1.512,1.611
			c0.351,0,0.661-0.079,0.96-0.215c0.001,0,0.001,0,0.003,0c0.027-0.012,0.058-0.019,0.09-0.019c0.095,0,0.176,0.059,0.21,0.141
			v0.001l0.107,0.279c0,0,0,0.001,0,0.002c0.009,0.024,0.015,0.05,0.015,0.078C52.631,46.79,52.583,46.863,52.514,46.902z
			 M48.025,40.017c-2.024,0-4.11-0.816-5.401-2.397c-0.005-0.006-0.009-0.014-0.012-0.022c-0.052-0.071-0.082-0.158-0.082-0.253
			c0-0.147,0.072-0.275,0.183-0.355c0.002-0.002,0.002-0.005,0.002-0.005l1.387-0.997h0.004c0.07-0.05,0.156-0.08,0.249-0.08
			c0.132,0,0.247,0.058,0.326,0.148c0.002,0.002,0.005,0.003,0.006,0.004c0.922,1.142,2.253,1.67,3.724,1.67
			c1.198,0,2.784-0.406,2.784-1.679c-0.002-1.033-0.959-1.328-2.711-1.734l-1.454-0.332c-2.102-0.479-3.943-1.256-3.943-3.671
			c0-2.763,2.636-4.091,5.088-4.091c2.088,0,3.845,0.718,5.175,2.269c0.003,0.003,0.004,0.009,0.008,0.012
			c0.062,0.077,0.102,0.172,0.102,0.278c0,0.137-0.065,0.258-0.164,0.338c-0.001,0.001-0.001,0.004-0.001,0.004l-1.294,0.979
			c0,0-0.002,0-0.004,0.001c-0.073,0.062-0.17,0.1-0.274,0.1c-0.146,0-0.277-0.073-0.356-0.185
			c-0.001-0.001-0.002-0.001-0.002-0.003c-0.672-0.958-1.789-1.508-3.21-1.509c-1.419,0.001-2.485,0.536-2.485,1.457
			c0,1.086,1.233,1.345,2.708,1.676l1.604,0.351c1.952,0.423,3.794,1.219,3.794,3.708C53.772,38.909,50.752,40.017,48.025,40.017z"
			/>
		<path fill="#FFFFFF" d="M29.955,30.52c0-2.304-1.641-3.963-4.437-3.963l-5.038,0c-0.001,0-0.003,0-0.006,0
			c-0.241,0-0.438,0.195-0.438,0.437c0,0.006,0.002,0.013,0.002,0.02v12.231c0,0.002,0,0.004,0,0.007
			c0,0.241,0.195,0.437,0.437,0.437c0.009,0,0.017-0.002,0.024-0.002h1.583l0.001-0.001c0.242,0,0.438-0.195,0.438-0.438
			c0,0,0-0.001,0-0.002l0.001-0.001l-0.001-4.39l2.35-0.001l0.019-0.002c1.229-0.035,2.46-0.459,2.46-0.459
			C27.983,34.153,29.955,33.47,29.955,30.52z M25.204,32.676h-2.682v-3.945h2.314c1.718-0.001,2.534,0.773,2.534,1.972
			C27.37,31.938,26.46,32.676,25.204,32.676z"/>
		<path fill="#FFFFFF" d="M33.552,39.686c0.241,0,0.437-0.195,0.437-0.437c0-0.003-0.001-0.006-0.001-0.011l0.001-0.001v-4.384
			h2.348l2.415,4.593l0.001,0.001c0.07,0.137,0.212,0.232,0.378,0.236l0.005,0.003h1.838c0.008,0,0.017,0.002,0.027,0.002
			c0.242,0,0.438-0.195,0.438-0.437c0-0.077-0.022-0.147-0.056-0.211v-0.001l-2.581-4.649c0.63-0.24,2.605-0.92,2.605-3.874
			c0-2.303-1.645-3.961-4.432-3.961h-5.021l-0.001,0.001c-0.241,0-0.435,0.195-0.435,0.437c0,0.004,0.001,0.008,0.001,0.012v12.236
			l0,0c0,0.002,0,0.003,0,0.004c0,0.238,0.19,0.432,0.428,0.436l0.003,0.004h1.593C33.547,39.686,33.549,39.686,33.552,39.686z
			 M33.989,28.729h2.311c1.709-0.001,2.523,0.775,2.523,1.972c0,1.235-0.906,1.972-2.158,1.973h-2.676V28.729z"/>
		<path fill="#FFFFFF" d="M49.979,31.992l-1.604-0.351c-1.475-0.331-2.708-0.59-2.708-1.676c0-0.921,1.066-1.456,2.485-1.457
			c1.421,0.001,2.538,0.55,3.21,1.509c0,0.001,0.001,0.002,0.002,0.003c0.079,0.112,0.21,0.185,0.356,0.185
			c0.104,0,0.201-0.039,0.274-0.1c0.002-0.001,0.004-0.001,0.004-0.001l1.294-0.979c0,0,0-0.002,0.001-0.004
			c0.099-0.081,0.164-0.202,0.164-0.338c0-0.106-0.039-0.201-0.102-0.278c-0.004-0.003-0.005-0.009-0.008-0.012
			c-1.33-1.551-3.087-2.269-5.175-2.269c-2.452,0-5.088,1.328-5.088,4.091c0,2.415,1.842,3.192,3.943,3.671l1.454,0.332
			c1.752,0.407,2.709,0.701,2.711,1.734c0,1.273-1.586,1.679-2.784,1.679c-1.471,0-2.802-0.528-3.724-1.67
			c-0.001-0.001-0.004-0.002-0.006-0.004c-0.079-0.09-0.194-0.148-0.326-0.148c-0.093,0-0.179,0.03-0.249,0.08h-0.004l-1.387,0.997
			c0,0,0,0.002-0.002,0.005c-0.11,0.08-0.183,0.208-0.183,0.355c0,0.095,0.03,0.182,0.082,0.253
			c0.003,0.008,0.007,0.016,0.012,0.022c1.291,1.582,3.377,2.397,5.401,2.397c2.727,0,5.747-1.108,5.747-4.317
			C53.772,33.211,51.931,32.415,49.979,31.992z"/>
		<path fill="#F2F2F2" d="M22.317,42.55c0.133-0.655,0.471-0.939,0.887-0.939c0.249,0,0.436,0.071,0.604,0.187l0.32-0.613
			c-0.293-0.177-0.595-0.24-0.907-0.24c-0.639,0-1.446,0.312-1.686,1.545l-0.106,0.541h-0.604l-0.088,0.64h0.621
			c-0.399,2.423-0.621,4.083-1.776,5.131l0.461,0.487c1.482-1.109,1.749-3.594,2.078-5.618h0.852l0.258-0.64H22.22L22.317,42.55z"/>
		<path fill="#F2F2F2" d="M25.622,43.036c-0.612,0-1.145,0.24-1.526,0.631c-0.48,0.479-0.755,1.198-0.755,1.979
			c0,0.523,0.142,1.012,0.471,1.349c0.257,0.258,0.648,0.418,1.189,0.418c0.56,0,1.057-0.214,1.447-0.577
			c0.506-0.471,0.808-1.207,0.808-2.06c0-0.506-0.133-0.968-0.443-1.296C26.555,43.205,26.165,43.036,25.622,43.036z M25.854,46.437
			c-0.214,0.204-0.488,0.337-0.79,0.337c-0.275,0-0.479-0.089-0.631-0.231c-0.213-0.194-0.31-0.514-0.31-0.887
			c0-0.604,0.186-1.172,0.533-1.544c0.23-0.258,0.541-0.418,0.896-0.418c0.292,0,0.506,0.098,0.656,0.249
			c0.187,0.194,0.258,0.496,0.258,0.869C26.466,45.434,26.235,46.063,25.854,46.437z"/>
		<path fill="#F2F2F2" d="M29.284,43.998h-0.008l0.123-0.853h-0.612l-0.905,4.198h0.78l0.321-1.508
			c0.336-1.58,0.843-2.007,1.269-2.007c0.134,0,0.293,0.026,0.408,0.089l0.365-0.71c-0.143-0.098-0.32-0.16-0.551-0.16
			C29.923,43.048,29.56,43.403,29.284,43.998z"/>
		<path fill="#FFFFFF" d="M36.984,42.718c0-0.126-0.103-0.229-0.228-0.229c-0.002,0-0.005,0.001-0.008,0.001h-0.535
			c-0.003,0-0.006-0.001-0.009-0.001c-0.082,0-0.152,0.044-0.192,0.108L34.95,44.23c-0.143,0.215-0.244,0.395-0.322,0.56H34.62
			c-0.1-0.173-0.201-0.338-0.344-0.53l-1.166-1.665c-0.04-0.062-0.11-0.105-0.191-0.105c-0.003,0-0.006,0.001-0.009,0.001h-0.54
			c-0.003,0-0.006-0.001-0.009-0.001c-0.125,0-0.228,0.103-0.228,0.229c0,0.002,0.001,0.004,0.001,0.007v4.257v0.001
			c0,0.125,0.102,0.228,0.227,0.228h0.52c0.126,0,0.228-0.102,0.228-0.228c0-0.001,0-0.002,0-0.003v-2.405
			c0-0.136,0-0.301-0.007-0.479h0.014c0.093,0.187,0.207,0.329,0.3,0.458l0.907,1.281h0.001c0.041,0.056,0.104,0.092,0.178,0.094
			h0.001h0.213h0.001h0c0.08,0,0.15-0.041,0.19-0.104l0.806-1.235c0.079-0.122,0.243-0.365,0.293-0.494h0.015
			c-0.015,0.165-0.015,0.337-0.015,0.509v2.373c0,0.003-0.001,0.004-0.001,0.006c0,0.125,0.101,0.226,0.225,0.228h0h0.522h0
			c0.125,0,0.228-0.102,0.228-0.228c0-0.002,0-0.003-0.001-0.006V42.72C36.983,42.719,36.984,42.718,36.984,42.718z"/>
		<path fill="#FFFFFF" d="M41.877,42.49c0,0-0.002,0-0.004,0h-0.516c-0.002,0-0.004,0-0.006,0c-0.125,0-0.229,0.102-0.229,0.228
			c0,0,0.001,0.001,0.001,0.002h-0.001v2.714c0,0.309-0.07,0.56-0.235,0.73c-0.173,0.194-0.445,0.294-0.824,0.294
			c-0.33,0-0.616-0.1-0.788-0.294c-0.157-0.179-0.265-0.43-0.265-0.772v-2.675h-0.001c0-0.126-0.102-0.227-0.227-0.227
			c-0.002,0-0.004,0-0.006,0H38.27c-0.002,0-0.004,0-0.006,0c-0.125,0-0.227,0.102-0.227,0.228c0,0.001,0,0.002,0,0.004v2.748
			c0,0.552,0.15,1.017,0.465,1.325c0.337,0.329,0.853,0.486,1.547,0.486c0.716,0,1.224-0.193,1.576-0.544
			c0.322-0.322,0.479-0.795,0.479-1.368V42.72c0-0.001,0-0.002,0-0.002C42.105,42.592,42.004,42.49,41.877,42.49z"/>
		<path fill="#FFFFFF" d="M43.893,43.658c0-0.272,0.272-0.431,0.624-0.431c0.282,0,0.538,0.069,0.812,0.19c0,0,0,0,0.001,0
			c0.026,0.013,0.058,0.019,0.089,0.019c0.123,0,0.223-0.097,0.228-0.218v-0.001v-0.003c0-0.002,0-0.003,0-0.006
			c0-0.001,0-0.002,0-0.003l0.006-0.336c0,0,0-0.001-0.001-0.002c0.001-0.001,0.001-0.003,0.001-0.005
			c0-0.096-0.06-0.178-0.144-0.211c-0.265-0.122-0.624-0.212-1.044-0.212c-1.038,0-1.604,0.63-1.604,1.346
			c0,0.365,0.122,0.631,0.301,0.839c0.573,0.651,1.719,0.759,1.719,1.382c0,0.358-0.387,0.487-0.73,0.487
			c-0.339,0-0.634-0.107-0.888-0.248c-0.002-0.001-0.004-0.002-0.007-0.002c-0.029-0.016-0.063-0.024-0.1-0.024
			c-0.09,0-0.165,0.052-0.204,0.127v0.001l-0.164,0.307v0.002c-0.015,0.029-0.023,0.062-0.023,0.098
			c0,0.082,0.044,0.152,0.107,0.192c0.003,0.003,0.005,0.005,0.008,0.006c0.322,0.179,0.752,0.329,1.314,0.329
			c0.967,0,1.725-0.537,1.725-1.396C45.919,44.402,43.893,44.475,43.893,43.658z"/>
		<path fill="#FFFFFF" d="M47.795,42.718c0-0.126-0.103-0.228-0.228-0.228c-0.001,0-0.001,0-0.003,0h-0.522c0,0-0.001,0-0.002,0
			c-0.126,0-0.228,0.102-0.228,0.228c0,0.002,0,0.003,0.001,0.005v4.256c-0.001,0.001-0.001,0.003-0.001,0.005
			c0,0.124,0.101,0.225,0.225,0.227c0.001,0,0.001,0,0.003,0c0.001,0,0.002,0,0.002,0h0.522c0.001,0,0.002,0,0.003,0
			c0.125,0,0.228-0.102,0.228-0.227c0-0.002-0.001-0.004-0.001-0.005v-4.256C47.794,42.721,47.795,42.72,47.795,42.718z"/>
		<path fill="#FFFFFF" d="M52.616,46.624l-0.107-0.279v-0.001c-0.034-0.082-0.115-0.141-0.21-0.141c-0.032,0-0.062,0.007-0.09,0.019
			c-0.002,0-0.002,0-0.003,0c-0.299,0.136-0.609,0.215-0.96,0.215c-0.933,0-1.512-0.709-1.512-1.611c0-0.816,0.486-1.59,1.597-1.59
			c0.281,0,0.573,0.049,0.878,0.177c0.004,0.001,0.009,0.002,0.014,0.003c0.022,0.007,0.045,0.012,0.068,0.012
			c0.125,0,0.227-0.1,0.229-0.224v-0.001l0.007-0.364c0-0.001,0-0.002,0-0.002c0-0.098-0.062-0.18-0.148-0.212
			c-0.001,0-0.002-0.001-0.002-0.001c-0.294-0.116-0.674-0.183-1.08-0.183c-1.612,0-2.628,1.103-2.628,2.456
			c0,1.332,0.874,2.385,2.413,2.385c0.474,0,0.941-0.108,1.429-0.377c0.001-0.001,0.003-0.001,0.004-0.002
			c0.069-0.039,0.117-0.112,0.117-0.198c0-0.028-0.006-0.054-0.015-0.078C52.616,46.625,52.616,46.624,52.616,46.624z"/>
	</g>
</g>
<g id="Layer_1_copy_4" display="none">
	<g display="inline">
		<path fill="#FFFFFF" d="M40,0C17.908,0,0,17.908,0,40s17.908,40,40,40s40-17.908,40-40S62.092,0,40,0z M54.262,27.721
			c0-1.143,0.928-2.105,2.095-2.105c1.18,0,2.094,0.95,2.094,2.094v0.012c0,1.144-0.926,2.106-2.094,2.106
			c-1.18,0-2.095-0.951-2.095-2.095V27.721z M64.654,53.342c-0.637,0.635-1.509,1.03-2.475,1.043H39.24
			c-1.266-0.047-2.407-0.57-3.251-1.399l-8.304-8.305c-0.643-0.651-1.534-1.058-2.52-1.064v-0.001H10v-18h17.917
			c0.004,0,0.009,0,0.013,0c4.081,0,7.72,1.606,10.416,4.26l6.448,6.448l-5.114,5.112l-6.325-6.324
			c-1.389-1.395-3.283-2.264-5.407-2.265v-0.001H17.231v3.538H27.58v0.001c0.004,0,0.008-0.001,0.013-0.001
			c1.306,0,2.511,0.526,3.39,1.358l8.479,8.479c0.62,0.601,1.352,0.91,2.275,0.938h18.896L47.295,33.821l5.113-5.113l16.941,16.94
			c0.376,0.38,0.65,0.898,0.65,1.476c0,0.6-0.254,1.137-0.656,1.52l0.003,0.006L64.654,53.342z"/>
		<path fill="#FFFFFF" d="M56.927,27.266c0-0.271-0.176-0.325-0.37-0.325h-0.605v0.665h0.611
			C56.799,27.605,56.927,27.489,56.927,27.266z"/>
		<path fill="#FFFFFF" d="M56.356,29.599c1.046,0,1.853-0.854,1.853-1.878v-0.012c0-1.023-0.794-1.865-1.853-1.865
			c-1.047,0-1.854,0.854-1.854,1.877v0.012C54.503,28.756,55.297,29.599,56.356,29.599z M55.578,26.637h1.018
			c0.466,0,0.704,0.215,0.704,0.575c0,0.409-0.283,0.513-0.353,0.537v0.006c0.129,0.018,0.316,0.113,0.316,0.45
			c0,0.248,0.036,0.475,0.116,0.561H56.98c-0.057-0.092-0.057-0.208-0.057-0.312c0-0.391-0.081-0.563-0.424-0.563h-0.549v0.876
			h-0.373V26.637z"/>
		<path d="M70,47.124c0-0.577-0.274-1.096-0.65-1.476l-16.941-16.94l-5.113,5.113l13.338,13.337H41.736
			c-0.924-0.027-1.656-0.337-2.275-0.938l-8.479-8.479c-0.879-0.832-2.083-1.358-3.39-1.358c-0.004,0-0.009,0.001-0.013,0.001
			v-0.001H17.231v-3.538h10.717v0.001c2.124,0.001,4.018,0.87,5.407,2.265l6.325,6.324l5.114-5.112l-6.448-6.448
			c-2.695-2.653-6.335-4.26-10.416-4.26c-0.004,0-0.009,0-0.013,0H10v18h15.165v0.001c0.986,0.007,1.877,0.413,2.52,1.064
			l8.304,8.305c0.845,0.829,1.986,1.353,3.251,1.399H62.18c0.966-0.013,1.838-0.408,2.475-1.043l4.692-4.692l-0.003-0.006
			C69.746,48.261,70,47.724,70,47.124z"/>
		<path fill="#010101" d="M56.356,29.827c1.168,0,2.094-0.963,2.094-2.106v-0.012c0-1.144-0.914-2.094-2.094-2.094
			c-1.167,0-2.095,0.963-2.095,2.105v0.012C54.262,28.876,55.177,29.827,56.356,29.827z M54.503,27.721
			c0-1.022,0.807-1.877,1.854-1.877c1.059,0,1.853,0.842,1.853,1.865v0.012c0,1.023-0.807,1.878-1.853,1.878
			c-1.06,0-1.854-0.843-1.854-1.866V27.721z"/>
		<path fill="#010101" d="M55.951,27.89H56.5c0.343,0,0.424,0.173,0.424,0.563c0,0.104,0,0.221,0.057,0.312h0.399
			c-0.08-0.086-0.116-0.312-0.116-0.561c0-0.337-0.188-0.433-0.316-0.45v-0.006c0.069-0.024,0.353-0.128,0.353-0.537
			c0-0.36-0.238-0.575-0.704-0.575h-1.018v2.129h0.373V27.89z M55.951,26.94h0.605c0.194,0,0.37,0.054,0.37,0.325
			c0,0.224-0.128,0.34-0.364,0.34h-0.611V26.94z"/>
	</g>
</g>
<g id="Layer_1_copy_5" display="none">
	<g display="inline">
		<path fill="#FFFFFF" d="M55.765,35.937c-1.248,0-2.213,1.015-2.213,2.213c0,1.248,0.965,2.196,2.312,2.196
			c1.132,0,2.08-0.932,2.08-2.163C57.944,36.901,56.996,35.937,55.765,35.937z"/>
		<path fill="#FFFFFF" d="M40,0C17.908,0,0,17.908,0,40s17.908,40,40,40s40-17.908,40-40S62.092,0,40,0z M20.718,42.676l0.004-4.986
			c0-0.666-0.237-1.459-1.366-1.459c-0.846,0-1.414,0.587-1.414,1.459l0.003,4.986c-1.43-0.001-0.896-0.001-2.598,0l0.004-4.986
			c0-0.666-0.234-1.459-1.348-1.459c-0.846,0-1.414,0.587-1.414,1.459l0.007,4.986c-1.029-0.001-1.209-0.001-2.598,0V37.74
			c0-2.469,1.647-4.193,4.004-4.193c1.031,0,1.93,0.366,2.598,1.058l0.082,0.084l0.083-0.083c0.693-0.692,1.588-1.059,2.589-1.059
			c2.403,0,3.956,1.646,3.956,4.193l0.003,4.936C22.493,42.675,21.932,42.675,20.718,42.676z M26.709,42.676h-2.613V36.9h2.613
			V42.676z M25.412,36.363c-0.722,0-1.307-0.585-1.307-1.307s0.585-1.307,1.307-1.307c0.722,0,1.307,0.585,1.307,1.307
			S26.133,36.363,25.412,36.363z M33.615,42.676l-1.864-2.796l-1.764,2.796h-2.979L30.32,37.8l-2.896-4.06h3.211l1.498,2.296
			l1.448-2.296h2.812l-2.896,4.293l3.412,4.643H33.615z M47.909,42.676l0.004-4.986c0-0.666-0.237-1.459-1.365-1.459
			c-0.846,0-1.414,0.587-1.414,1.459l0.004,4.986c-1.431-0.001-0.897-0.001-2.599,0l0.004-4.986c0-0.666-0.233-1.459-1.348-1.459
			c-0.846,0-1.415,0.587-1.415,1.459l0.008,4.986c-1.029-0.001-1.209-0.001-2.598,0V37.74c0-2.469,1.647-4.193,4.005-4.193
			c1.03,0,1.929,0.366,2.597,1.058l0.082,0.084l0.084-0.083c0.693-0.692,1.589-1.059,2.59-1.059c2.403,0,3.956,1.646,3.956,4.193
			l0.003,4.936C49.683,42.675,49.122,42.675,47.909,42.676z M60.474,42.676h-2.546v-0.999c-0.782,0.766-1.581,1.049-2.646,1.049
			c-1.082,0-2.014-0.35-2.796-1.049c-1.031-0.915-1.563-2.113-1.563-3.511c0-1.281,0.499-2.43,1.431-3.328
			c0.832-0.815,1.847-1.231,2.979-1.231c1.082,0,1.914,0.366,2.513,1.132V33.74h2.629V42.676z M69.301,44.806
			c-0.849,1.098-2.113,1.647-3.776,1.647c-2.363,0-3.994-1.198-4.327-3.062h2.929c0.167,0.566,0.699,0.916,1.481,0.916
			c1.165,0,1.863-0.749,1.863-2.113c0-0.15,0-0.3-0.017-0.449c-0.732,0.665-1.481,0.981-2.413,0.981c-2.396,0-4.21-1.964-4.21-4.56
			c0-1.281,0.467-2.43,1.365-3.328c0.815-0.815,1.764-1.231,2.861-1.231c1.032,0,1.831,0.383,2.413,1.132V33.74H70v8.021
			C70,42.942,70,43.891,69.301,44.806z"/>
		<path fill="#FFFFFF" d="M65.558,35.953c-1.298,0-2.214,0.981-2.214,2.196c0,1.248,0.949,2.229,2.146,2.229
			c1.165,0,2.08-0.948,2.08-2.196C67.57,36.885,66.622,35.953,65.558,35.953z"/>
		<path fill="#FFFFFF" d="M46.548,33.547c-1.001,0-1.896,0.366-2.59,1.059l-0.084,0.083l-0.082-0.084
			c-0.668-0.691-1.566-1.058-2.597-1.058c-2.358,0-4.005,1.725-4.005,4.193v4.936c1.389-0.001,1.569-0.001,2.598,0l-0.008-4.986
			c0-0.872,0.569-1.459,1.415-1.459c1.114,0,1.348,0.793,1.348,1.459l-0.004,4.986c1.701-0.001,1.168-0.001,2.599,0l-0.004-4.986
			c0-0.872,0.568-1.459,1.414-1.459c1.128,0,1.365,0.793,1.365,1.459l-0.004,4.986c1.213-0.001,1.773-0.001,2.598,0l-0.003-4.936
			C50.504,35.193,48.951,33.547,46.548,33.547z"/>
		<path d="M46.548,33.547c-1.001,0-1.896,0.366-2.59,1.059l-0.084,0.083l-0.082-0.084c-0.668-0.691-1.566-1.058-2.597-1.058
			c-2.358,0-4.005,1.725-4.005,4.193v4.936c1.389-0.001,1.569-0.001,2.598,0l-0.008-4.986c0-0.872,0.569-1.459,1.415-1.459
			c1.114,0,1.348,0.793,1.348,1.459l-0.004,4.986c1.701-0.001,1.168-0.001,2.599,0l-0.004-4.986c0-0.872,0.568-1.459,1.414-1.459
			c1.128,0,1.365,0.793,1.365,1.459l-0.004,4.986c1.213-0.001,1.773-0.001,2.598,0l-0.003-4.936
			C50.504,35.193,48.951,33.547,46.548,33.547z"/>
		<path fill="#FFFFFF" d="M57.845,34.738c-0.599-0.766-1.431-1.132-2.513-1.132c-1.132,0-2.146,0.416-2.979,1.231
			c-0.932,0.898-1.431,2.047-1.431,3.328c0,1.397,0.532,2.596,1.563,3.511c0.782,0.699,1.714,1.049,2.796,1.049
			c1.064,0,1.863-0.283,2.646-1.049v0.999h2.546V33.74h-2.629V34.738z M55.864,40.346c-1.348,0-2.312-0.948-2.312-2.196
			c0-1.198,0.965-2.213,2.213-2.213c1.231,0,2.18,0.965,2.18,2.246C57.944,39.414,56.996,40.346,55.864,40.346z"/>
		<path d="M57.845,34.738c-0.599-0.766-1.431-1.132-2.513-1.132c-1.132,0-2.146,0.416-2.979,1.231
			c-0.932,0.898-1.431,2.047-1.431,3.328c0,1.397,0.532,2.596,1.563,3.511c0.782,0.699,1.714,1.049,2.796,1.049
			c1.064,0,1.863-0.283,2.646-1.049v0.999h2.546V33.74h-2.629V34.738z M55.864,40.346c-1.348,0-2.312-0.948-2.312-2.196
			c0-1.198,0.965-2.213,2.213-2.213c1.231,0,2.18,0.965,2.18,2.246C57.944,39.414,56.996,40.346,55.864,40.346z"/>
		<polygon fill="#FFFFFF" points="36.394,33.74 33.582,33.74 32.134,36.036 30.636,33.74 27.425,33.74 30.32,37.8 27.009,42.676 
			29.987,42.676 31.751,39.88 33.615,42.676 36.91,42.676 33.498,38.033 		"/>
		<polygon points="36.394,33.74 33.582,33.74 32.134,36.036 30.636,33.74 27.425,33.74 30.32,37.8 27.009,42.676 29.987,42.676 
			31.751,39.88 33.615,42.676 36.91,42.676 33.498,38.033 		"/>
		<path fill="#FFFFFF" d="M67.471,33.74v0.998c-0.582-0.749-1.381-1.132-2.413-1.132c-1.098,0-2.046,0.416-2.861,1.231
			c-0.898,0.898-1.365,2.047-1.365,3.328c0,2.596,1.814,4.56,4.21,4.56c0.932,0,1.681-0.316,2.413-0.981
			c0.017,0.149,0.017,0.299,0.017,0.449c0,1.364-0.698,2.113-1.863,2.113c-0.782,0-1.314-0.35-1.481-0.916h-2.929
			c0.333,1.864,1.964,3.062,4.327,3.062c1.663,0,2.928-0.55,3.776-1.647C70,43.891,70,42.942,70,41.761V33.74H67.471z M65.49,40.379
			c-1.197,0-2.146-0.981-2.146-2.229c0-1.215,0.916-2.196,2.214-2.196c1.064,0,2.013,0.932,2.013,2.229
			C67.57,39.431,66.655,40.379,65.49,40.379z"/>
		<path d="M67.471,33.74v0.998c-0.582-0.749-1.381-1.132-2.413-1.132c-1.098,0-2.046,0.416-2.861,1.231
			c-0.898,0.898-1.365,2.047-1.365,3.328c0,2.596,1.814,4.56,4.21,4.56c0.932,0,1.681-0.316,2.413-0.981
			c0.017,0.149,0.017,0.299,0.017,0.449c0,1.364-0.698,2.113-1.863,2.113c-0.782,0-1.314-0.35-1.481-0.916h-2.929
			c0.333,1.864,1.964,3.062,4.327,3.062c1.663,0,2.928-0.55,3.776-1.647C70,43.891,70,42.942,70,41.761V33.74H67.471z M65.49,40.379
			c-1.197,0-2.146-0.981-2.146-2.229c0-1.215,0.916-2.196,2.214-2.196c1.064,0,2.013,0.932,2.013,2.229
			C67.57,39.431,66.655,40.379,65.49,40.379z"/>
		<rect x="24.097" y="36.9" fill="#FFFFFF" width="2.613" height="5.775"/>
		<rect x="24.097" y="36.9" width="2.613" height="5.775"/>
		<path fill="#FFFFFF" d="M19.357,33.547c-1.001,0-1.896,0.366-2.589,1.059l-0.083,0.083l-0.082-0.084
			c-0.668-0.691-1.566-1.058-2.598-1.058c-2.357,0-4.004,1.725-4.004,4.193v4.936c1.389-0.001,1.569-0.001,2.598,0l-0.007-4.986
			c0-0.872,0.568-1.459,1.414-1.459c1.114,0,1.348,0.793,1.348,1.459l-0.004,4.986c1.702-0.001,1.168-0.001,2.598,0l-0.003-4.986
			c0-0.872,0.568-1.459,1.414-1.459c1.129,0,1.366,0.793,1.366,1.459l-0.004,4.986c1.213-0.001,1.774-0.001,2.598,0l-0.003-4.936
			C23.313,35.193,21.76,33.547,19.357,33.547z"/>
		<path d="M19.357,33.547c-1.001,0-1.896,0.366-2.589,1.059l-0.083,0.083l-0.082-0.084c-0.668-0.691-1.566-1.058-2.598-1.058
			c-2.357,0-4.004,1.725-4.004,4.193v4.936c1.389-0.001,1.569-0.001,2.598,0l-0.007-4.986c0-0.872,0.568-1.459,1.414-1.459
			c1.114,0,1.348,0.793,1.348,1.459l-0.004,4.986c1.702-0.001,1.168-0.001,2.598,0l-0.003-4.986c0-0.872,0.568-1.459,1.414-1.459
			c1.129,0,1.366,0.793,1.366,1.459l-0.004,4.986c1.213-0.001,1.774-0.001,2.598,0l-0.003-4.936
			C23.313,35.193,21.76,33.547,19.357,33.547z"/>
		<circle fill="#FFFFFF" cx="25.412" cy="35.057" r="1.307"/>
		<circle cx="25.412" cy="35.057" r="1.307"/>
	</g>
</g>
<g id="Layer_1_copy_6" display="none">
	<g display="inline">
		<path fill="#FFFFFF" d="M41.931,40.266l-0.082,0.107c-0.135,0.202-0.415,0.633-0.736,1.123c0.331-0.051,0.435-0.051,0.818-0.051
			h0.496c0.146,0,0.189,0.001,0.3,0.03v-1.21c0-0.619,0.014-0.826,0.124-1.44l-0.082-0.029
			C42.455,39.456,42.342,39.661,41.931,40.266z"/>
		<path fill="#FFFFFF" d="M14.457,37.969c0-0.761-0.693-0.761-1.089-0.761h-0.909v1.562h0.909
			C13.721,38.771,14.457,38.771,14.457,37.969z"/>
		<path fill="#FFFFFF" d="M42.728,43.785c0-0.12,0.004-0.162,0.041-0.296c-0.017,0.004-0.026,0.007-0.041,0.01
			C42.728,43.608,42.728,43.707,42.728,43.785z"/>
		<path fill="#FFFFFF" d="M22.778,37.037c-1.776,0-2.745,1.522-2.745,2.935c0,1.549,1.047,2.988,2.773,2.988
			c1.822,0,2.705-1.656,2.705-2.947C25.511,38.708,24.628,37.037,22.778,37.037z"/>
		<path fill="#FFFFFF" d="M13.667,40.916h-1.209v1.835h1.209c0.326,0,1.277,0,1.277-0.964
			C14.944,40.916,14.075,40.916,13.667,40.916z"/>
		<path fill="#FFFFFF" d="M40,0C17.908,0,0,17.908,0,40s17.908,40,40,40s40-17.908,40-40S62.092,0,40,0z M16.479,44.137
			c-0.925,0.774-1.589,0.867-3.289,0.867H10V34.952h3.099c1.696,0,2.483,0.164,3.218,0.979c0.448,0.459,0.597,1.071,0.597,1.656
			c0,0.775-0.352,1.562-1.168,2.028c1.616,0.566,1.656,1.912,1.656,2.334C17.402,42.751,17.09,43.635,16.479,44.137z M22.753,45.215
			c-3.167,0-5.285-2.513-5.285-5.095c0-0.664,0.096-1.412,0.396-2.145c0.526-1.308,2.09-3.19,4.902-3.19
			c3.096,0,5.312,2.415,5.312,5.213C28.078,42.797,25.877,45.215,22.753,45.215z M45.223,45.024h-2.496v-1.042
			c0,0.005,0,0.004,0-0.003v-0.148v-0.332c-0.11,0.027-0.154,0.029-0.3,0.029h-2.673c-0.083,0.118-0.153,0.213-0.2,0.271
			l-0.831,1.225h-1.801h-1.219h-1.007l-3.828-6.112l-0.025,0.016l0.069,6.097h-2.464V34.972h2.217l3.882,6.317l0.027-0.029
			l-0.107-6.288h2.456v8.317l5.847-8.321h2.454V45.024z M51.349,37.228h-3.03v1.562h2.921v2.255h-2.921v3.979H45.86V34.972h5.488
			V37.228z M54.552,45.024h-2.569V34.972h2.569V45.024z M58.735,45.024H55.22V34.972h3.326c1.127,0,3.141,0,4.442,1.873
			c0.693,0.953,0.923,2.025,0.923,3.127C63.911,42.719,62.555,45.024,58.735,45.024z M69.902,38.79v2.257h-3.028v1.725H70v2.253
			h-5.585V34.972H70v2.256h-3.126v1.562H69.902z"/>
		<path fill="#FFFFFF" d="M58.899,37.228h-1.116v5.544h1.104c1.916,0,2.46-1.332,2.46-2.759c0-0.571-0.123-1.289-0.49-1.862
			C60.556,37.703,60.039,37.228,58.899,37.228z"/>
		<path d="M15.746,39.615c0.816-0.466,1.168-1.253,1.168-2.028c0-0.585-0.149-1.197-0.597-1.656
			c-0.735-0.814-1.522-0.979-3.218-0.979H10v10.052h3.19c1.7,0,2.364-0.093,3.289-0.867c0.611-0.502,0.922-1.386,0.922-2.188
			C17.402,41.527,17.362,40.182,15.746,39.615z M12.458,37.208h0.909c0.396,0,1.089,0,1.089,0.761c0,0.802-0.735,0.802-1.089,0.802
			h-0.909V37.208z M13.667,42.751h-1.209v-1.835h1.209c0.408,0,1.277,0,1.277,0.871C14.944,42.751,13.993,42.751,13.667,42.751z"/>
		<path d="M22.766,34.785c-2.812,0-4.375,1.883-4.902,3.19c-0.3,0.732-0.396,1.48-0.396,2.145c0,2.582,2.118,5.095,5.285,5.095
			c3.124,0,5.325-2.418,5.325-5.217C28.078,37.2,25.862,34.785,22.766,34.785z M22.807,42.96c-1.727,0-2.773-1.439-2.773-2.988
			c0-1.412,0.968-2.935,2.745-2.935c1.851,0,2.733,1.671,2.733,2.976C25.511,41.304,24.628,42.96,22.807,42.96z"/>
		<path d="M36.921,43.289v-8.317h-2.456l0.107,6.288l-0.027,0.029l-3.882-6.317h-2.217v10.053h2.464l-0.069-6.097l0.025-0.016
			l3.828,6.112h1.007h1.219h1.801l0.831-1.225c0.047-0.059,0.116-0.153,0.2-0.271h2.673c0.146,0,0.189-0.002,0.3-0.029v0.332v0.148
			c0,0.007,0,0.008,0,0.003v1.042h2.496V34.968h-2.454L36.921,43.289z M42.728,43.785c0-0.078,0-0.177,0-0.286
			c0.015-0.003,0.024-0.006,0.041-0.01C42.731,43.623,42.728,43.665,42.728,43.785z M42.727,40.266v1.21
			c-0.11-0.029-0.154-0.03-0.3-0.03h-0.496c-0.384,0-0.487,0-0.818,0.051c0.321-0.49,0.602-0.921,0.736-1.123l0.082-0.107
			c0.411-0.604,0.524-0.81,0.838-1.47l0.082,0.029C42.74,39.439,42.727,39.646,42.727,40.266z"/>
		<polygon points="45.86,45.024 48.318,45.024 48.318,41.045 51.239,41.045 51.239,38.79 48.318,38.79 48.318,37.228 51.349,37.228 
			51.349,34.972 45.86,34.972 		"/>
		<rect x="51.982" y="34.972" width="2.569" height="10.053"/>
		<path d="M58.546,34.972H55.22v10.053h3.516c3.819,0,5.176-2.306,5.176-5.053c0-1.102-0.229-2.174-0.923-3.127
			C61.687,34.972,59.673,34.972,58.546,34.972z M58.887,42.771h-1.104v-5.544h1.116c1.14,0,1.656,0.476,1.957,0.923
			c0.367,0.573,0.49,1.291,0.49,1.862C61.347,41.439,60.803,42.771,58.887,42.771z"/>
		<polygon points="70,37.228 70,34.972 64.415,34.972 64.415,45.024 70,45.024 70,42.771 66.874,42.771 66.874,41.047 
			69.902,41.047 69.902,38.79 66.874,38.79 66.874,37.228 		"/>
	</g>
</g>
<g id="Layer_1_copy_7" display="none">
	<g display="inline">
		<rect x="13.496" y="35.945" fill="#FFFFFF" width="0.688" height="8.111"/>
		<path fill="#FFFFFF" d="M45.739,35.003h-0.507v-2.136H31.926v2.136h-0.507V33.99h-1.05v11.939h1.05v-1.014h0.507v2.218h13.307
			v-2.218h0.507v1.014h1.05V33.99h-1.05V35.003z M43.999,44.508H38.2V43.73h1.047l-0.907-2.186h-2.566l-0.612,1.762l0.578,0.424
			h0.407v0.777h-2.726V43.73h0.436l0.575-0.506l2.853-8.246h2.726l3.453,8.751h0.535V44.508z"/>
		<rect x="56.45" y="35.848" fill="#FFFFFF" width="1.135" height="7.833"/>
		<path fill="#FFFFFF" d="M28.595,35.003h-0.507v-2.136h-13.18v2.571h1.322v0.507h-1.322v8.111h1.322v0.507h-1.322v2.57h13.18
			v-2.218h0.507v1.014h1.05V33.99h-1.05V35.003z M25.589,42.027h-0.981v1.702h0.981v0.77h-5.431v-0.77h1.047v-1.702h-3.726V41.34
			l5.089-6.292h2.041v6.261h0.981V42.027z"/>
		<polygon fill="#FFFFFF" points="21.205,41.31 21.205,38.01 18.457,41.31 		"/>
		<polygon fill="#FFFFFF" points="36.048,40.757 38.04,40.757 36.961,38.062 		"/>
		<rect x="65.815" y="35.945" fill="#FFFFFF" width="0.598" height="8.111"/>
		<path fill="#FFFFFF" d="M49.07,35.003h-0.507V33.99h-1.051v11.939h1.051v-1.014h0.507v2.218h16.021v-2.57H63.68v-0.507h1.412
			v-8.111H63.68v-0.507h1.412v-2.571H49.07V35.003z M51.428,43.694h0.991v-7.846h-0.991v-0.81h6.417c2.904,0,4.35,2.314,4.35,4.686
			c0,2.371-1.459,4.742-4.35,4.742h-6.417V43.694z"/>
		<path fill="#FFFFFF" d="M40,0C17.908,0,0,17.908,0,40s17.908,40,40,40s40-17.908,40-40S62.092,0,40,0z M10,50.823V29.177h60
			v21.646H10z"/>
		<path fill="#FFFFFF" d="M11.811,49.013h56.379V30.987H11.811V49.013z M12.7,32.071h54.528V47.93H12.7V32.071z"/>
		<path d="M10,29.177v21.646h60V29.177H10z M68.189,49.013H11.811V30.987h56.379V49.013z"/>
		<path d="M67.228,32.071H12.7V47.93h54.528V32.071z M14.184,44.056h-0.688v-8.111h0.688V44.056z M29.645,45.929h-1.05v-1.014
			h-0.507v2.218h-13.18v-2.57h1.322v-0.507h-1.322v-8.111h1.322v-0.507h-1.322v-2.571h13.18v2.136h0.507V33.99h1.05V45.929z
			 M46.789,45.929h-1.05v-1.014h-0.507v2.218H31.926v-2.218h-0.507v1.014h-1.05V33.99h1.05v1.014h0.507v-2.136h13.307v2.136h0.507
			V33.99h1.05V45.929z M65.092,35.438H63.68v0.507h1.412v8.111H63.68v0.507h1.412v2.57H49.07v-2.218h-0.507v1.014h-1.051V33.99
			h1.051v1.014h0.507v-2.136h16.021V35.438z M66.413,44.056h-0.598v-8.111h0.598V44.056z"/>
		<path d="M24.608,35.048h-2.041l-5.089,6.292v0.688h3.726v1.702h-1.047v0.77h5.431v-0.77h-0.981v-1.702h0.981V41.31h-0.981V35.048z
			 M21.205,41.31h-2.748l2.748-3.299V41.31z"/>
		<path d="M40.011,34.979h-2.726l-2.853,8.246l-0.575,0.506h-0.436v0.777h2.726V43.73H35.74l-0.578-0.424l0.612-1.762h2.566
			l0.907,2.186H38.2v0.777h5.799V43.73h-0.535L40.011,34.979z M36.048,40.757l0.913-2.695l1.079,2.695H36.048z"/>
		<path d="M62.194,39.724c0-2.371-1.445-4.686-4.35-4.686h-6.417v0.81h0.991v7.846h-0.991v0.771h6.417
			C60.735,44.466,62.194,42.095,62.194,39.724z M57.585,43.681H56.45v-7.833h1.135V43.681z"/>
	</g>
</g>
<g id="Layer_1_copy_8" display="none">
	<g display="inline">
		<path fill="#FFFFFF" d="M40,0C17.908,0,0,17.908,0,40s17.908,40,40,40s40-17.908,40-40S62.092,0,40,0z M23.615,44.077
			c-2.685,0-5.37,0-8.055,0v2.803h-2.824c0-2.826,0-5.652,0-8.479H10V35.53c2.685,0,5.37,0,8.055,0v-2.803h2.824
			c0,2.826,0,5.653,0,8.479h2.736V44.077z M28.102,46.88h-2.297v-8.123h-1.425v-1.876h1.425v-1.84c0-1.315,0.958-2.313,2.259-2.313
			h2.203l0.002,2.036l-1.101,0.018c-0.66,0.01-1.065,0.383-1.065,0.982v1.118h2.142v1.876h-2.142V46.88z M36.742,46.88
			c-0.014-0.204-0.027-0.429-0.04-0.633c-1.631,1.335-4.149,1.44-5.665-0.123c-0.502-0.517-0.901-1.136-0.924-2.042
			c-0.049-1.933,1.36-2.825,2.955-3.146c1.205-0.243,2.462-0.301,3.674-0.684c-0.082-1.226-1.067-1.807-2.021-1.756
			c-1.141,0.06-1.446,0.666-1.675,1.542c-0.817-0.068-1.634-0.136-2.451-0.205c0.115-1.203,0.688-2.021,1.502-2.533
			c1.567-0.984,4.632-1.048,6.048,0.235c0.62,0.562,0.967,1.411,0.96,2.641c-0.011,1.942-0.023,3.883-0.034,5.825
			c0.011,0.309,0.081,0.586,0.193,0.878H36.742z M45.458,47.272c-1.112,0-2.127-0.506-2.899-1.338v0.945h-2.297V32.727h2.297v5.214
			c0.772-0.832,1.787-1.338,2.899-1.338c2.417,0,4.377,2.389,4.377,5.335C49.835,44.884,47.875,47.272,45.458,47.272z
			 M56.259,39.261c-1.524-0.031-2.355,0.589-2.928,1.655c-0.438,0.818-0.367,1.564-0.367,2.479v3.539h-2.216v-9.841h2.216v1.278
			c0.982-1.058,1.682-1.678,3.295-1.484V39.261z M59.47,46.935h-2.298V36.98h2.298V46.935z M59.47,35.097h-2.298v-2.37h2.298V35.097
			z M65.415,47.272c-2.778,0-5.032-2.41-5.032-5.383c0-2.973,2.254-5.384,5.032-5.384c1.869,0,3.499,1.09,4.367,2.709l-1.999,1.213
			c-0.436-1.013-1.332-1.708-2.368-1.708c-1.461,0-2.647,1.384-2.647,3.092s1.187,3.093,2.647,3.093c1.079,0,2.007-0.755,2.42-1.837
			L70,44.108C69.21,45.975,67.454,47.272,65.415,47.272z"/>
		<ellipse fill="#FFFFFF" cx="44.977" cy="41.833" rx="2.354" ry="3.182"/>
		<path fill="#FFFFFF" d="M35.211,42.537c-0.855,0.132-1.908,0.094-2.377,0.997c-0.173,0.334-0.174,0.729,0.145,1.131
			c0.618,0.783,2.284,0.632,3.181-0.052c0.8-0.611,0.601-1.649,0.546-2.526C36.21,42.327,35.708,42.46,35.211,42.537z"/>
		<path d="M52.964,38.371v-1.278h-2.216v9.841h2.216v-3.539c0-0.915-0.071-1.661,0.367-2.479c0.572-1.065,1.403-1.686,2.928-1.655
			v-2.375C54.646,36.693,53.946,37.313,52.964,38.371z"/>
		<path d="M67.835,43.068c-0.413,1.082-1.341,1.837-2.42,1.837c-1.461,0-2.647-1.385-2.647-3.093s1.187-3.092,2.647-3.092
			c1.036,0,1.933,0.695,2.368,1.708l1.999-1.213c-0.868-1.619-2.498-2.709-4.367-2.709c-2.778,0-5.032,2.411-5.032,5.384
			c0,2.973,2.254,5.383,5.032,5.383c2.039,0,3.795-1.298,4.585-3.164L67.835,43.068z"/>
		<rect x="57.172" y="32.727" width="2.298" height="2.37"/>
		<rect x="57.172" y="36.98" width="2.298" height="9.955"/>
		<path d="M45.458,36.603c-1.112,0-2.127,0.506-2.899,1.338v-5.214h-2.297V46.88h2.297v-0.945c0.772,0.832,1.787,1.338,2.899,1.338
			c2.417,0,4.377-2.389,4.377-5.334C49.835,38.992,47.875,36.603,45.458,36.603z M44.977,45.015c-1.3,0-2.354-1.426-2.354-3.182
			c0-1.757,1.055-3.182,2.354-3.182c1.301,0,2.355,1.425,2.355,3.182C47.332,43.589,46.277,45.015,44.977,45.015z"/>
		<path d="M39.106,40.177c0.007-1.23-0.34-2.08-0.96-2.641c-1.417-1.283-4.481-1.22-6.048-0.235
			c-0.814,0.512-1.387,1.33-1.502,2.533c0.817,0.068,1.634,0.136,2.451,0.205c0.229-0.875,0.534-1.481,1.675-1.542
			c0.954-0.05,1.939,0.53,2.021,1.756c-1.212,0.382-2.469,0.44-3.674,0.684c-1.595,0.32-3.004,1.213-2.955,3.146
			c0.023,0.906,0.422,1.525,0.924,2.042c1.516,1.563,4.034,1.458,5.665,0.123c0.013,0.204,0.026,0.429,0.04,0.633h2.523
			c-0.112-0.292-0.183-0.569-0.193-0.878C39.083,44.061,39.095,42.119,39.106,40.177z M36.159,44.613
			c-0.896,0.684-2.562,0.835-3.181,0.052c-0.318-0.402-0.318-0.797-0.145-1.131c0.469-0.903,1.522-0.865,2.377-0.997
			c0.497-0.077,0.999-0.21,1.494-0.45C36.76,42.964,36.959,44.002,36.159,44.613z"/>
		<path d="M30.244,36.881h-2.142v-1.118c0-0.599,0.406-0.972,1.065-0.982l1.101-0.018l-0.002-2.036h-2.203
			c-1.3,0-2.259,0.999-2.259,2.313v1.84h-1.425v1.876h1.425v8.123h2.297v-8.123h2.142V36.881z"/>
		<path d="M20.879,32.727h-2.824v2.803c-2.685,0-5.37,0-8.055,0v2.871h2.736c0,2.826,0,5.652,0,8.479h2.824v-2.803
			c2.685,0,5.37,0,8.055,0v-2.871h-2.736C20.879,38.38,20.879,35.553,20.879,32.727z"/>
	</g>
</g>
<g id="Layer_1_copy_9" display="none">
	<g display="inline">
		<path fill="#FFFFFF" d="M23.651,18.825c0-0.185-0.114-0.306-0.284-0.306c-0.185,0-0.312,0.135-0.312,0.333
			c0,0.185,0.106,0.398,0.298,0.568C23.552,19.215,23.651,19.031,23.651,18.825z"/>
		<path fill="#FFFFFF" d="M42.758,29.612c0.367-0.051,0.376-0.46,0.742-0.511h-0.721c-0.107,0.042-0.226,0.072-0.373,0.074
			C42.371,29.473,42.669,29.438,42.758,29.612z"/>
		<path fill="#FFFFFF" d="M19.576,18.811h-0.339v1.2h0.24c0.611,0,0.909-0.156,0.909-0.61
			C20.386,18.981,20.123,18.811,19.576,18.811z"/>
		<path fill="#FFFFFF" d="M22.7,21.267c0,0.277,0.227,0.49,0.546,0.49c0.227,0,0.418-0.114,0.653-0.305l-0.774-0.774
			C22.842,20.834,22.7,21.047,22.7,21.267z"/>
		<path fill="#FFFFFF" d="M39.451,63.723L40,65.328l1.446-4.229c-0.424,0.456-0.83,0.938-1.229,1.36
			C40.208,63.066,39.894,63.481,39.451,63.723z"/>
		<path fill="#FFFFFF" d="M47.256,21.572c0.726,0,1.312-0.582,1.312-1.406c0-0.738-0.587-1.328-1.299-1.328
			c-0.752,0-1.342,0.589-1.342,1.328C45.928,20.962,46.562,21.572,47.256,21.572z"/>
		<path fill="#FFFFFF" d="M34.669,19.4c0-0.418-0.263-0.589-0.81-0.589h-0.341v1.2h0.242C34.371,20.01,34.669,19.854,34.669,19.4z"
			/>
		<path fill="#FFFFFF" d="M37.853,32.502c-0.08-0.185-0.352,0.166-0.613,0.089c-1.126-0.628-1.899-0.636-3.154-0.089
			c0.021-0.487-0.396-0.539-0.789-0.613c-0.309-0.78,0.192-1.262,0.351-1.839c1.474,0.166,2.165-0.451,2.974-0.949h-9.013
			l3.137,9.172c0.034,0.032,0.062,0.069,0.099,0.098c0.598,0.466,1.322,0.565,1.84,1.05C34.995,37.702,37.162,35.84,37.853,32.502z"
			/>
		<path fill="#FFFFFF" d="M51.741,18.811H51.4v1.2h0.242c0.611,0,0.909-0.156,0.909-0.61C52.552,18.981,52.29,18.811,51.741,18.811z
			"/>
		<path fill="#FFFFFF" d="M43.541,29.101c-0.353,0.685,0.241,1.445,1.232,1.299c0.129,0.222,0.308,0.391,0.35,0.701
			c-1.094,0.072-1.376-0.667-2.277-0.789c0.143,0.473,0.727,0.5,0.789,1.052c0.67-0.029,1.321-0.037,1.401,0.525
			c-0.469-0.335-1.367,0.624-1.752-0.262c-0.369,1.461,1.861,0.171,1.926,1.314c-0.45-0.212-0.885,0.099-1.313,0.174
			c-0.404-0.1-0.529-0.72-1.051-0.437c0.508,0.515,0.669,1.375,1.402,1.664c-0.024,0.316,0.161,0.422,0.175,0.701
			c-0.61-0.413-1.208-0.836-1.665-1.402c-0.507,0.553,0.526,0.958,0.964,1.139c0.133,0.392,0.357,0.694,0.437,1.138
			c0.158,0.222,0.87-0.11,0.788,0.351c-0.359-0.068-0.448,0.134-0.788,0.088c-0.461-0.472-0.897-0.971-1.752-1.052
			c0.1,0.836,0.726,1.144,1.577,1.227c0.152,0.257,0.208,0.61,0.175,1.051c-0.334-0.104-0.278-0.597-0.611-0.701
			c-0.455,0.106-0.562,0.382-0.964,0.351c-0.073,0.453,0.752,0.43,0.874,0.175c0.172,0.384,0.5,0.61,0.791,0.875
			c-0.161,0.212-0.517-0.119-0.877,0c0.153,0.373,0.688,0.364,0.702,0.876c-0.453-0.044-0.535-0.459-0.966-0.525
			c-0.454,0.343-1.098,0.055-1.486,0.351c0.024,0.438,0.716,0.215,1.05,0.349c0.264,0.233,0.473,0.52,0.7,0.789
			c0.146,0.146,0.64-0.055,0.612,0.263c-1.047-0.063-1.634-0.584-2.627-0.701c-0.125,0.497,0.967,0.479,1.314,0.788
			c-0.167,0.221-0.308-0.08-0.526,0.088c0.19,0.539,0.876,0.586,0.788,1.402c-0.598-0.691-1.428-1.602-2.54-1.49
			c-0.562,1.842,1.338,3.593,2.19,4.73c1.392,0.594,2.59,1.382,3.438,2.52l6.369-18.622H43.541z"/>
		<path fill="#FFFFFF" d="M40.568,53.174l0.176-0.615c-1.078-0.206-0.839-1.729-1.489-2.363c-2.227-1.394-4.799-2.441-5.694-5.167
			c-0.176,0.05-0.332,0.077-0.473,0.089l3.533,10.329c0.928,0.326,1.831,0.766,2.897,0.443c-0.299-2.045-1.965-3.172-2.19-5.256
			c-0.043-0.399,0.036-0.777,0.087-1.227c0.71,0.491,1.722,0.635,2.103,1.489c0.118,0.267,0.141,0.626,0.227,0.894
			c0.174,0.539,0.471,0.563,0.824,0.946c-0.268,0.784-0.442,1.297-0.351,2.189c0.092,0.89,0.847,1.524,0.788,2.014
			c-0.054,0.454-0.34,0.742-0.7,0.789c-0.435,0.057-0.686-0.385-1.226-0.615c-0.306-0.129-0.831-0.229-1.226-0.349
			c-0.295-0.087-0.618-0.21-0.88-0.287l1.906,5.574c0.008-0.01,0.017-0.021,0.025-0.031c0.845-0.934,2.076-1.71,2.979-2.54
			c0.934-1.969-1.43-2.814-1.49-4.906C40.38,54.118,40.45,53.525,40.568,53.174z"/>
		<path fill="#FFFFFF" d="M55.902,18.768h-0.49v2.854h0.496c0.944,0,1.393-0.44,1.393-1.434
			C57.301,19.279,56.812,18.768,55.902,18.768z"/>
		<path fill="#FFFFFF" d="M46.689,48.858c0.14,0.31,0.265,0.633,0.36,0.986c2.095-0.536,3.1-2.215,2.804-4.729
			c-0.12-1.016-0.617-1.954-0.89-2.906L46.689,48.858z"/>
		<path fill="#FFFFFF" d="M40,0C17.908,0,0,17.908,0,40s17.908,40,40,40s40-17.908,40-40S62.092,0,40,0z M45.423,18.328
			c0.497-0.49,1.122-0.739,1.839-0.739c0.676,0,1.315,0.264,1.806,0.746c0.51,0.504,0.78,1.151,0.78,1.839
			c0,0.724-0.257,1.37-0.731,1.86c-0.49,0.511-1.157,0.788-1.86,0.788c-0.744,0-1.386-0.27-1.883-0.795
			c-0.475-0.504-0.717-1.129-0.717-1.875C44.656,19.456,44.927,18.817,45.423,18.328z M40.206,18.328
			c0.497-0.49,1.122-0.746,1.84-0.746c1.177,0,2.185,0.774,2.512,2.017h-1.335c-0.27-0.498-0.673-0.76-1.171-0.76
			c-0.753,0-1.342,0.583-1.342,1.32c0,0.803,0.624,1.42,1.321,1.42c0.475,0,0.894-0.256,1.163-0.725h1.342
			c-0.334,1.229-1.29,1.974-2.505,1.974c-0.746,0-1.378-0.277-1.875-0.802c-0.476-0.504-0.717-1.129-0.717-1.875
			C39.439,19.456,39.702,18.817,40.206,18.328z M36.287,17.682h2.741v1.114h-1.506v0.816h1.506v1.122h-1.506v0.881h1.506v1.115
			h-2.741V17.682z M32.283,17.682h1.676c0.532,0,0.937,0.036,1.277,0.277c0.448,0.313,0.682,0.788,0.682,1.413
			c0,0.816-0.426,1.427-1.143,1.626l1.235,1.733h-1.526l-0.965-1.626v1.626h-1.235V17.682z M20.201,22.73l-0.964-1.626v1.626H18
			v-5.048h1.676c0.533,0,0.938,0.036,1.277,0.277c0.448,0.313,0.683,0.788,0.683,1.413c0,0.816-0.427,1.427-1.144,1.626l1.237,1.733
			H20.201z M25.994,22.062l-0.767,0.782l-0.575-0.59c-0.426,0.398-0.902,0.575-1.505,0.575c-0.995,0-1.648-0.646-1.648-1.477
			c0-0.532,0.299-0.93,0.909-1.37c-0.298-0.383-0.44-0.746-0.44-1.065c0-0.767,0.561-1.334,1.378-1.334
			c0.774,0,1.334,0.561,1.334,1.207c0,0.419-0.228,0.845-0.667,1.207l0.561,0.561l0.362-0.781h1.143
			c-0.262,0.717-0.518,1.25-0.738,1.605L25.994,22.062z M26.149,21.068h1.179c0,0.021,0,0.035,0,0.057
			c0,0.412,0.156,0.61,0.461,0.61c0.299,0,0.476-0.156,0.476-0.418c0-0.462-0.348-0.497-0.901-0.746
			c-0.752-0.341-1.137-0.831-1.137-1.441c0-0.902,0.696-1.548,1.718-1.548c0.909,0,1.534,0.582,1.534,1.483c0,0.028,0,0.05,0,0.078
			h-1.136c0-0.312-0.169-0.49-0.461-0.49c-0.227,0-0.391,0.156-0.391,0.376c0,0.376,0.37,0.455,1.015,0.788
			c0.689,0.355,1.023,0.802,1.023,1.407c0,0.878-0.725,1.603-1.662,1.603c-1.121,0-1.718-0.568-1.718-1.647
			C26.149,21.146,26.149,21.104,26.149,21.068z M51.341,38.108c-0.133,1.06-2.108,1.415-1.487,3.24
			c0.174-0.778,1.076-0.921,1.576-1.489c0.313-0.358,0.271-0.946,0.876-0.962c0.409,0.005-0.104,0.2-0.088,0.35
			c-0.308,0.51-0.216,1.016-0.613,1.489c-0.387,0.464-1.609,1.206-0.788,2.278c0.711-0.516,0.911-1.541,1.836-1.84
			c0.03,0.434-0.41,0.653-0.611,1.051c-0.823,1.646,0.267,5.11-0.873,6.833c-0.348,0.523-0.855,0.774-1.579,1.138
			c0.348,1.385-0.312,2.059,0,3.329c-0.35-0.175-0.283-0.768-0.611-0.966c-0.157,1.336-1.384,1.599-1.402,3.068
			c-0.448-0.38-0.237-1.053-0.087-1.49c0.229-0.664,1.059-1.296,0.523-1.926c-0.562,0.047-0.18,1.044-0.523,1.313
			c-0.524-0.781,0.445-2.055-0.438-2.453c-0.306,0.711-0.285,1.586-0.701,2.19c-0.334,0.486-1.005,1.041-1.489,1.488
			c-0.081,0.075-0.169,0.147-0.26,0.219l-0.981,2.869c0.133,0.181,0.274,0.384,0.365,0.679c0.175,0.564-0.48,0.974-1.048,1.318
			L40,68.418l-1.522-4.45c-0.15,0.005-0.3-0.001-0.45-0.022c-0.004-0.271,0.069-0.537,0.17-0.796l-2.281-6.667
			c-0.147,0.021-0.293,0.037-0.43,0.02c-0.252-0.033-0.395-0.181-0.613-0.175c-1.1,0.027-1.397,0.291-2.189-0.351
			c-0.289-0.232-0.685-0.482-0.614-0.876c0.602-0.255,1.319-0.252,1.927-0.175c0.24,0.03,0.456,0.221,0.7,0.263
			c0.252,0.044,0.523-0.007,0.773-0.009l-3.61-10.556c-0.203-0.188-0.404-0.394-0.666-0.559c-0.707-0.446-1.443-0.614-2.102-1.052
			c-0.695,0.209-0.222,0.967-0.175,1.313c0.065,0.481,0.02,1.075,0.175,1.577c0.274,0.886,1.073,1.335,1.314,2.189
			c0.074,0.263,0.337,0.473,0.35,0.612c0.031,0.349-0.047,0.727-0.35,0.964c-0.966-0.493-1.18-1.739-1.928-2.452
			c-0.004-0.289-0.148-0.437-0.087-0.788c-0.446-0.531-0.347-1.466-0.526-2.54c-0.146-0.876-0.438-1.564-0.197-2.537
			c0.942-0.591,2.073,0.072,3.129,0.166l-0.119-0.348c-0.356-0.727-0.983-1.183-1.5-1.75c-0.494,0.236-0.539,0.921-0.701,1.49
			c-2.143,0.04-0.709,2.562-0.701,3.941c-0.424,0.246-0.562,0.781-1.138,0.874c-0.351-0.541-0.309-1.653-0.175-2.451
			c0.169-1.004,1.305-2.715,1.489-4.116c0.057-0.436-0.006-0.847,0.176-1.139c0.205-0.33,0.813-0.56,1.264-0.61l-3.184-9.31h9.832
			c-0.013-0.047-0.029-0.093-0.029-0.153c0.277,0.014,0.529,0.003,0.613-0.175c0.143-0.463-0.472-0.171-0.438-0.525
			c0.509-0.199,0.86,0.078,1.313,0.175c0.294-0.165-0.04-0.449,0.175-0.613c0.666,0.006,0.45,0.893,0.789,1.228
			c0.149-0.348,0.097-0.897,0.175-1.315c0.633,0.097,0.903,0.557,1.139,1.051c0.654-0.289,1.096-0.005,1.476,0.329h12.533
			l-3.727,10.895C50.466,38.744,50.915,38.495,51.341,38.108z M52.367,22.73L51.4,21.104v1.626h-1.234v-5.048h1.676
			c0.531,0,0.937,0.036,1.277,0.277c0.448,0.313,0.682,0.788,0.682,1.413c0,0.816-0.425,1.427-1.144,1.626l1.234,1.733H52.367z
			 M57.798,22.104c-0.539,0.526-1.016,0.626-1.726,0.626h-1.896v-5.048h1.726c0.802,0,1.362,0.107,1.888,0.604
			c0.482,0.455,0.739,1.115,0.739,1.945C58.529,20.997,58.28,21.629,57.798,22.104z M60.338,22.829c-1.12,0-1.718-0.568-1.718-1.647
			c0-0.035,0-0.078,0-0.113h1.18c0,0.021,0,0.035,0,0.057c0,0.412,0.154,0.61,0.462,0.61c0.297,0,0.476-0.156,0.476-0.418
			c0-0.462-0.351-0.497-0.901-0.746c-0.753-0.341-1.138-0.831-1.138-1.441c0-0.902,0.696-1.548,1.719-1.548
			c0.908,0,1.534,0.582,1.534,1.483c0,0.028,0,0.05,0,0.078h-1.137c0-0.312-0.171-0.49-0.46-0.49c-0.229,0-0.392,0.156-0.392,0.376
			c0,0.376,0.369,0.455,1.015,0.788C61.666,20.174,62,20.621,62,21.226C62,22.104,61.275,22.829,60.338,22.829z"/>
		<path d="M41.256,28.101c-0.38-0.333-0.821-0.617-1.476-0.329c-0.235-0.495-0.505-0.955-1.139-1.051
			c-0.079,0.418-0.026,0.967-0.175,1.315c-0.339-0.335-0.123-1.221-0.789-1.228c-0.215,0.165,0.119,0.449-0.175,0.613
			c-0.453-0.097-0.804-0.374-1.313-0.175c-0.034,0.354,0.58,0.062,0.438,0.525c-0.084,0.179-0.336,0.189-0.613,0.175
			c0,0.061,0.016,0.106,0.029,0.153H26.21l3.184,9.31c-0.451,0.05-1.059,0.28-1.264,0.61c-0.182,0.292-0.119,0.703-0.176,1.139
			c-0.184,1.401-1.32,3.112-1.489,4.116c-0.134,0.798-0.176,1.91,0.175,2.451c0.576-0.093,0.714-0.628,1.138-0.874
			c-0.008-1.38-1.441-3.901,0.701-3.941c0.162-0.568,0.207-1.253,0.701-1.49c0.517,0.566,1.144,1.023,1.5,1.75l0.119,0.348
			c-1.056-0.094-2.187-0.757-3.129-0.166c-0.241,0.973,0.051,1.661,0.197,2.537c0.18,1.074,0.08,2.009,0.526,2.54
			c-0.061,0.352,0.083,0.499,0.087,0.788c0.748,0.713,0.962,1.959,1.928,2.452c0.303-0.237,0.381-0.615,0.35-0.964
			c-0.013-0.14-0.275-0.35-0.35-0.612c-0.242-0.854-1.04-1.304-1.314-2.189c-0.155-0.502-0.11-1.096-0.175-1.577
			c-0.047-0.347-0.52-1.104,0.175-1.313c0.659,0.438,1.396,0.605,2.102,1.052c0.262,0.165,0.463,0.371,0.666,0.559l3.61,10.556
			c-0.25,0.002-0.521,0.053-0.773,0.009c-0.244-0.042-0.46-0.232-0.7-0.263c-0.608-0.077-1.325-0.08-1.927,0.175
			c-0.071,0.394,0.325,0.644,0.614,0.876c0.792,0.642,1.089,0.378,2.189,0.351c0.218-0.006,0.361,0.142,0.613,0.175
			c0.136,0.018,0.282,0.002,0.43-0.02l2.281,6.667c-0.101,0.259-0.175,0.525-0.17,0.796c0.15,0.021,0.3,0.027,0.45,0.022L40,68.418
			l2.936-8.583c0.567-0.345,1.223-0.754,1.048-1.318c-0.091-0.295-0.232-0.498-0.365-0.679l0.981-2.869
			c0.091-0.071,0.179-0.144,0.26-0.219c0.484-0.447,1.155-1.002,1.489-1.488c0.416-0.604,0.396-1.479,0.701-2.19
			c0.884,0.398-0.086,1.672,0.438,2.453c0.344-0.27-0.038-1.267,0.523-1.313c0.535,0.63-0.295,1.262-0.523,1.926
			c-0.15,0.438-0.361,1.11,0.087,1.49c0.019-1.47,1.245-1.732,1.402-3.068c0.328,0.198,0.262,0.791,0.611,0.966
			c-0.312-1.271,0.348-1.944,0-3.329c0.724-0.363,1.231-0.614,1.579-1.138c1.14-1.723,0.05-5.187,0.873-6.833
			c0.201-0.397,0.642-0.617,0.611-1.051c-0.925,0.299-1.125,1.324-1.836,1.84c-0.821-1.072,0.401-1.814,0.788-2.278
			c0.397-0.473,0.306-0.979,0.613-1.489c-0.016-0.15,0.497-0.345,0.088-0.35c-0.605,0.017-0.562,0.604-0.876,0.962
			c-0.5,0.568-1.402,0.711-1.576,1.489c-0.621-1.826,1.354-2.18,1.487-3.24c-0.426,0.386-0.875,0.636-1.278,0.887l3.727-10.895
			H41.256z M42.779,29.101H43.5c-0.366,0.051-0.375,0.46-0.742,0.511c-0.089-0.175-0.387-0.139-0.352-0.437
			C42.554,29.173,42.672,29.143,42.779,29.101z M30.846,38.371c-0.037-0.029-0.065-0.066-0.099-0.098l-3.137-9.172h9.013
			c-0.809,0.498-1.5,1.114-2.974,0.949c-0.159,0.577-0.66,1.06-0.351,1.839c0.393,0.074,0.81,0.126,0.789,0.613
			c1.255-0.546,2.028-0.539,3.154,0.089c0.261,0.077,0.533-0.274,0.613-0.089c-0.691,3.338-2.858,5.2-5.167,6.919
			C32.167,38.937,31.443,38.837,30.846,38.371z M40,65.328l-0.549-1.605c0.443-0.241,0.757-0.656,0.767-1.264
			c0.399-0.423,0.805-0.904,1.229-1.36L40,65.328z M41.883,59.48c-0.902,0.83-2.134,1.606-2.979,2.54
			c-0.008,0.01-0.017,0.021-0.025,0.031l-1.906-5.574c0.262,0.077,0.584,0.2,0.88,0.287c0.395,0.119,0.92,0.22,1.226,0.349
			c0.54,0.23,0.791,0.672,1.226,0.615c0.359-0.047,0.646-0.335,0.7-0.789c0.06-0.489-0.695-1.124-0.788-2.014
			c-0.092-0.893,0.083-1.405,0.351-2.189c-0.353-0.383-0.65-0.407-0.824-0.946c-0.086-0.268-0.108-0.627-0.227-0.894
			c-0.381-0.854-1.393-0.998-2.103-1.489c-0.052,0.449-0.13,0.827-0.087,1.227c0.225,2.084,1.891,3.211,2.19,5.256
			c-1.066,0.322-1.97-0.117-2.897-0.443l-3.533-10.329c0.142-0.012,0.297-0.039,0.473-0.089c0.895,2.726,3.467,3.773,5.694,5.167
			c0.65,0.635,0.412,2.157,1.489,2.363l-0.176,0.615c-0.118,0.352-0.188,0.944-0.175,1.4C40.453,56.666,42.816,57.512,41.883,59.48z
			 M49.854,45.115c0.296,2.515-0.709,4.193-2.804,4.729c-0.096-0.354-0.221-0.677-0.36-0.986l2.274-6.649
			C49.236,43.161,49.733,44.1,49.854,45.115z M46.021,47.723c-0.849-1.138-2.047-1.926-3.438-2.52
			c-0.852-1.138-2.752-2.889-2.19-4.73c1.112-0.111,1.942,0.799,2.54,1.49c0.088-0.816-0.598-0.863-0.788-1.402
			c0.219-0.168,0.359,0.133,0.526-0.088c-0.348-0.309-1.439-0.291-1.314-0.788c0.993,0.117,1.58,0.637,2.627,0.701
			c0.027-0.317-0.467-0.117-0.612-0.263c-0.228-0.269-0.437-0.556-0.7-0.789c-0.334-0.134-1.025,0.089-1.05-0.349
			c0.389-0.296,1.032-0.008,1.486-0.351c0.431,0.066,0.513,0.481,0.966,0.525c-0.015-0.512-0.549-0.504-0.702-0.876
			c0.36-0.119,0.716,0.212,0.877,0c-0.291-0.265-0.619-0.491-0.791-0.875c-0.122,0.255-0.947,0.278-0.874-0.175
			c0.401,0.031,0.509-0.244,0.964-0.351c0.333,0.104,0.277,0.597,0.611,0.701c0.033-0.441-0.022-0.794-0.175-1.051
			c-0.852-0.083-1.478-0.39-1.577-1.227c0.854,0.081,1.291,0.58,1.752,1.052c0.34,0.046,0.429-0.156,0.788-0.088
			c0.082-0.461-0.63-0.129-0.788-0.351c-0.079-0.444-0.304-0.747-0.437-1.138c-0.438-0.181-1.471-0.586-0.964-1.139
			c0.457,0.566,1.055,0.989,1.665,1.402c-0.014-0.279-0.199-0.385-0.175-0.701c-0.733-0.289-0.895-1.149-1.402-1.664
			c0.521-0.283,0.646,0.337,1.051,0.437c0.429-0.075,0.863-0.386,1.313-0.174c-0.064-1.143-2.295,0.147-1.926-1.314
			c0.385,0.886,1.283-0.073,1.752,0.262c-0.08-0.562-0.731-0.555-1.401-0.525c-0.062-0.552-0.646-0.579-0.789-1.052
			c0.901,0.122,1.184,0.861,2.277,0.789c-0.042-0.31-0.221-0.479-0.35-0.701c-0.991,0.146-1.585-0.614-1.232-1.299h8.85
			L46.021,47.723z"/>
		<path d="M21.635,19.371c0-0.625-0.234-1.1-0.683-1.413c-0.339-0.241-0.744-0.277-1.277-0.277H18v5.048h1.236v-1.626l0.964,1.626
			h1.528l-1.237-1.733C21.208,20.798,21.635,20.188,21.635,19.371z M19.477,20.01h-0.24v-1.2h0.339c0.547,0,0.81,0.171,0.81,0.589
			C20.386,19.854,20.087,20.01,19.477,20.01z"/>
		<path d="M24.936,19.776l-0.362,0.781l-0.561-0.561c0.439-0.362,0.667-0.788,0.667-1.207c0-0.646-0.56-1.207-1.334-1.207
			c-0.817,0-1.378,0.567-1.378,1.334c0,0.32,0.142,0.683,0.44,1.065c-0.61,0.44-0.909,0.838-0.909,1.37
			c0,0.831,0.653,1.477,1.648,1.477c0.603,0,1.079-0.177,1.505-0.575l0.575,0.59l0.767-0.782l-0.653-0.681
			c0.22-0.355,0.476-0.888,0.738-1.605H24.936z M23.367,18.52c0.17,0,0.284,0.121,0.284,0.306c0,0.206-0.1,0.39-0.298,0.596
			c-0.192-0.17-0.298-0.383-0.298-0.568C23.055,18.654,23.182,18.52,23.367,18.52z M23.247,21.757c-0.32,0-0.546-0.213-0.546-0.49
			c0-0.22,0.142-0.433,0.425-0.589l0.774,0.774C23.665,21.643,23.474,21.757,23.247,21.757z"/>
		<path d="M27.868,22.829c0.937,0,1.662-0.725,1.662-1.603c0-0.605-0.334-1.052-1.023-1.407c-0.646-0.333-1.015-0.412-1.015-0.788
			c0-0.22,0.164-0.376,0.391-0.376c0.292,0,0.461,0.177,0.461,0.49h1.136c0-0.028,0-0.05,0-0.078c0-0.901-0.625-1.483-1.534-1.483
			c-1.022,0-1.718,0.646-1.718,1.548c0,0.61,0.384,1.1,1.137,1.441c0.554,0.249,0.901,0.284,0.901,0.746
			c0,0.263-0.177,0.418-0.476,0.418c-0.306,0-0.461-0.198-0.461-0.61c0-0.021,0-0.036,0-0.057h-1.179c0,0.035,0,0.078,0,0.113
			C26.149,22.261,26.747,22.829,27.868,22.829z"/>
		<path d="M33.519,21.104l0.965,1.626h1.526l-1.235-1.733c0.717-0.199,1.143-0.81,1.143-1.626c0-0.625-0.234-1.1-0.682-1.413
			c-0.341-0.241-0.745-0.277-1.277-0.277h-1.676v5.048h1.235V21.104z M33.519,18.811h0.341c0.547,0,0.81,0.171,0.81,0.589
			c0,0.454-0.298,0.61-0.909,0.61h-0.242V18.811z"/>
		<polygon points="39.028,21.615 37.522,21.615 37.522,20.734 39.028,20.734 39.028,19.612 37.522,19.612 37.522,18.796 
			39.028,18.796 39.028,17.682 36.287,17.682 36.287,22.73 39.028,22.73 		"/>
		<path d="M42.031,22.829c1.215,0,2.171-0.745,2.505-1.974h-1.342c-0.27,0.469-0.688,0.725-1.163,0.725
			c-0.697,0-1.321-0.618-1.321-1.42c0-0.738,0.589-1.32,1.342-1.32c0.498,0,0.901,0.263,1.171,0.76h1.335
			c-0.327-1.243-1.335-2.017-2.512-2.017c-0.718,0-1.343,0.255-1.84,0.746c-0.504,0.489-0.767,1.128-0.767,1.824
			c0,0.745,0.241,1.37,0.717,1.875C40.653,22.552,41.285,22.829,42.031,22.829z"/>
		<path d="M47.256,22.822c0.703,0,1.37-0.277,1.86-0.788c0.475-0.49,0.731-1.136,0.731-1.86c0-0.688-0.271-1.335-0.78-1.839
			c-0.49-0.482-1.13-0.746-1.806-0.746c-0.717,0-1.342,0.249-1.839,0.739c-0.496,0.489-0.767,1.128-0.767,1.824
			c0,0.745,0.242,1.37,0.717,1.875C45.87,22.552,46.512,22.822,47.256,22.822z M47.27,18.839c0.712,0,1.299,0.589,1.299,1.328
			c0,0.824-0.587,1.406-1.312,1.406c-0.694,0-1.328-0.61-1.328-1.406C45.928,19.428,46.518,18.839,47.27,18.839z"/>
		<path d="M53.801,19.371c0-0.625-0.233-1.1-0.682-1.413c-0.341-0.241-0.746-0.277-1.277-0.277h-1.676v5.048H51.4v-1.626
			l0.967,1.626h1.524l-1.234-1.733C53.376,20.798,53.801,20.188,53.801,19.371z M51.643,20.01H51.4v-1.2h0.341
			c0.549,0,0.811,0.171,0.811,0.589C52.552,19.854,52.254,20.01,51.643,20.01z"/>
		<path d="M55.902,17.682h-1.726v5.048h1.896c0.71,0,1.187-0.1,1.726-0.626c0.482-0.475,0.731-1.107,0.731-1.874
			c0-0.83-0.257-1.49-0.739-1.945C57.265,17.789,56.704,17.682,55.902,17.682z M55.908,21.622h-0.496v-2.854h0.49
			c0.909,0,1.398,0.512,1.398,1.42C57.301,21.181,56.853,21.622,55.908,21.622z"/>
		<path d="M60.978,19.819c-0.646-0.333-1.015-0.412-1.015-0.788c0-0.22,0.162-0.376,0.392-0.376c0.289,0,0.46,0.177,0.46,0.49h1.137
			c0-0.028,0-0.05,0-0.078c0-0.901-0.626-1.483-1.534-1.483c-1.022,0-1.719,0.646-1.719,1.548c0,0.61,0.385,1.1,1.138,1.441
			c0.551,0.249,0.901,0.284,0.901,0.746c0,0.263-0.179,0.418-0.476,0.418c-0.308,0-0.462-0.198-0.462-0.61c0-0.021,0-0.036,0-0.057
			h-1.18c0,0.035,0,0.078,0,0.113c0,1.08,0.598,1.647,1.718,1.647c0.938,0,1.662-0.725,1.662-1.603
			C62,20.621,61.666,20.174,60.978,19.819z"/>
	</g>
</g>
<g id="Layer_1_copy_10" display="none">
	<g display="inline">
		<path fill="#FFFFFF" d="M40,0C17.908,0,0,17.908,0,40s17.908,40,40,40s40-17.908,40-40S62.092,0,40,0z M62,62H18V18h44V62z"/>
		<path d="M56.377,39.449c0.378-1.242-0.177-2.218-1.552-2.218c-1.22,0-2.041,0.466-2.662,2.218l-0.243,0.71h4.258L56.377,39.449z"
			/>
		<path d="M18,62h44V18H18V62z M55.224,35.768c1.575,0,3.238,1.774,2.706,3.681l-0.399,1.486c-0.066,0.2-0.134,0.376-0.288,0.533
			c-0.223,0.177-0.422,0.199-0.666,0.199h-5.078l-0.377,1.485c-0.133,0.444-0.178,0.732,0.066,1.043
			c0.222,0.31,0.555,0.443,0.998,0.443h3.549c0.199,0,0.688,0.443,0.554,0.887c-0.11,0.398-0.354,0.577-0.887,0.577h-3.549
			c-0.598,0-1.419-0.333-1.862-0.977c-0.443-0.621-0.621-1.286-0.443-1.974l0.775-2.949l0.245-0.754
			C51.432,36.788,52.584,35.768,55.224,35.768z M43.949,45.17l2.085-7.872h-0.467c-0.377,0-0.82-0.421-0.71-0.909
			c0.111-0.4,0.467-0.6,0.865-0.6h0.71l1.064-3.88c0.11-0.354,0.487-0.576,0.888-0.488c0.377,0.088,0.664,0.444,0.575,0.843
			l-0.932,3.525h2.062c0.378,0,0.799,0.4,0.665,0.954c-0.088,0.355-0.421,0.554-0.886,0.554h-2.24l-2.218,8.272
			c-0.111,0.399-0.532,0.643-0.932,0.554C44.081,46.036,43.838,45.57,43.949,45.17z M34.21,43.174l1.818-6.852
			c0.111-0.399,0.599-0.643,0.931-0.554c0.377,0.133,0.644,0.532,0.533,0.931l-1.73,6.475c-0.111,0.444-0.178,0.8,0.044,1.088
			c0.222,0.287,0.577,0.377,1.021,0.377h2.883l2.217-8.294c0.111-0.444,0.577-0.643,0.932-0.555c0.377,0.089,0.644,0.533,0.533,0.91
			l-2.33,8.76c-0.088,0.244-0.132,0.377-0.354,0.532c-0.177,0.111-0.377,0.133-0.577,0.133h-3.703c-0.599,0-1.375-0.311-1.819-0.932
			C34.166,44.572,34.01,43.929,34.21,43.174z M21.485,45.215l2.328-8.781c0.089-0.244,0.133-0.377,0.355-0.533
			c0.178-0.111,0.377-0.133,0.577-0.133h6.653c0.621,0,1.375,0.311,1.818,0.931c0.444,0.621,0.621,1.264,0.399,2.04l-1.818,6.831
			c-0.088,0.399-0.577,0.666-0.932,0.554c-0.354-0.11-0.621-0.509-0.532-0.909l1.729-6.476c0.133-0.443,0.2-0.798-0.044-1.108
			c-0.222-0.311-0.577-0.377-1.021-0.377H29.58l-2.218,8.316c-0.088,0.399-0.532,0.643-0.932,0.554
			c-0.354-0.088-0.621-0.509-0.531-0.909l2.129-7.961h-2.861l-2.218,8.295c-0.11,0.442-0.576,0.642-0.931,0.554
			C21.64,46.014,21.374,45.57,21.485,45.215z"/>
		<path fill="#FFFFFF" d="M22.017,46.103c0.355,0.088,0.821-0.111,0.931-0.554l2.218-8.295h2.861l-2.129,7.961
			c-0.089,0.4,0.177,0.821,0.531,0.909c0.4,0.089,0.844-0.154,0.932-0.554l2.218-8.316h1.419c0.444,0,0.798,0.066,1.021,0.377
			c0.244,0.311,0.177,0.666,0.044,1.108l-1.729,6.476c-0.089,0.4,0.177,0.799,0.532,0.909c0.355,0.112,0.843-0.154,0.932-0.554
			l1.818-6.831c0.222-0.776,0.045-1.419-0.399-2.04c-0.443-0.621-1.197-0.931-1.818-0.931h-6.653c-0.2,0-0.399,0.021-0.577,0.133
			c-0.222,0.155-0.266,0.289-0.355,0.533l-2.328,8.781C21.374,45.57,21.64,46.014,22.017,46.103z"/>
		<path fill="#FFFFFF" d="M36.428,46.124h3.703c0.199,0,0.399-0.021,0.577-0.133c0.222-0.155,0.266-0.288,0.354-0.532l2.33-8.76
			c0.11-0.377-0.156-0.82-0.533-0.91c-0.354-0.088-0.82,0.111-0.932,0.555l-2.217,8.294h-2.883c-0.443,0-0.798-0.09-1.021-0.377
			c-0.222-0.288-0.155-0.644-0.044-1.088l1.73-6.475c0.111-0.399-0.156-0.798-0.533-0.931c-0.333-0.088-0.82,0.155-0.931,0.554
			l-1.818,6.852c-0.2,0.755-0.044,1.398,0.399,2.019C35.053,45.813,35.829,46.124,36.428,46.124z"/>
		<path fill="#FFFFFF" d="M44.48,46.124c0.399,0.089,0.82-0.154,0.932-0.554l2.218-8.272h2.24c0.465,0,0.798-0.199,0.886-0.554
			c0.134-0.554-0.287-0.954-0.665-0.954h-2.062l0.932-3.525c0.089-0.399-0.198-0.754-0.575-0.843
			c-0.4-0.088-0.777,0.133-0.888,0.488l-1.064,3.88h-0.71c-0.398,0-0.754,0.2-0.865,0.6c-0.11,0.488,0.333,0.909,0.71,0.909h0.467
			l-2.085,7.872C43.838,45.57,44.081,46.036,44.48,46.124z"/>
		<path fill="#FFFFFF" d="M50.322,40.204l-0.775,2.949c-0.178,0.688,0,1.353,0.443,1.974c0.443,0.644,1.265,0.977,1.862,0.977h3.549
			c0.532,0,0.776-0.179,0.887-0.577c0.134-0.443-0.354-0.887-0.554-0.887h-3.549c-0.443,0-0.776-0.134-0.998-0.443
			c-0.244-0.311-0.199-0.599-0.066-1.043l0.377-1.485h5.078c0.244,0,0.443-0.022,0.666-0.199c0.154-0.156,0.222-0.333,0.288-0.533
			l0.399-1.486c0.532-1.907-1.131-3.681-2.706-3.681c-2.64,0-3.792,1.02-4.656,3.681L50.322,40.204z M52.163,39.449
			c0.621-1.752,1.442-2.218,2.662-2.218c1.375,0,1.93,0.976,1.552,2.218l-0.199,0.71H51.92L52.163,39.449z"/>
	</g>
</g>
</svg>
