<?xml version="1.0" encoding="utf-8"?>
<!-- Generator: Adobe Illustrator 16.0.0, SVG Export Plug-In . SVG Version: 6.00 Build 0)  -->
<!DOCTYPE svg PUBLIC "-//W3C//DTD SVG 1.1//EN" "http://www.w3.org/Graphics/SVG/1.1/DTD/svg11.dtd">
<svg version="1.1" xmlns="http://www.w3.org/2000/svg" xmlns:xlink="http://www.w3.org/1999/xlink" x="0px" y="0px" width="80px"
	 height="80px" viewBox="0 0 80 80" enable-background="new 0 0 80 80" xml:space="preserve">
<g id="Layer_1_copy">
	<g>
		<path fill="#FFFFFF" d="M40,0C17.909,0,0,17.909,0,40c0,22.092,17.909,40,40,40c22.092,0,40-17.908,40-40C80,17.909,62.092,0,40,0
			z M40.04,18C51.595,18,61.066,26.892,62,38.204v3.672C61.116,52.584,52.584,61.116,41.876,62h-3.672
			C26.892,61.066,18,51.595,18,40.04C18,27.868,27.868,18,40.04,18z"/>
		<path fill="#FFFFFF" d="M38.204,62h3.672C52.584,61.116,61.116,52.584,62,41.876v-3.672C61.066,26.892,51.595,18,40.04,18
			C27.868,18,18,27.868,18,40.04C18,51.595,26.892,61.066,38.204,62z M44.061,31.533h10.635l-1.578,2.846
			c-2.096-0.828-2.949-0.905-5.511-0.982v6.882h6.416l-1.475,2.795c-1.345-0.569-2.535-0.905-4.941-0.88v4.347
			c0,1.553,0.155,2.898,0.595,4.398h-4.141c0.621-2.432,0.646-4.631,0.646-5.435v-9.107C44.707,33.629,44.372,32.568,44.061,31.533z
			 M28.588,31.533c-0.156,0.568-0.181,0.776-0.181,1.035c0,0.75,0.388,2.251,0.828,3.416l4.036,10.271l4.166-9.935
			c0.414-1.009,0.931-2.432,0.931-3.519c0-0.285-0.026-0.569-0.232-1.268l5.045,0.077c-1.112,1.294-1.889,2.769-2.562,4.373
			l-6.339,15.084h-2.199l-5.459-14.023c-0.233-0.595-0.905-2.147-1.5-3.338c-0.595-1.19-0.828-1.5-1.423-2.173H28.588z"/>
		<path d="M38.204,62h3.672C52.584,61.116,61.116,52.584,62,41.876v-3.672C61.066,26.892,51.595,18,40.04,18
			C27.868,18,18,27.868,18,40.04C18,51.595,26.892,61.066,38.204,62z M44.061,31.533h10.635l-1.578,2.846
			c-2.096-0.828-2.949-0.905-5.511-0.982v6.882h6.416l-1.475,2.795c-1.345-0.569-2.535-0.905-4.941-0.88v4.347
			c0,1.553,0.155,2.898,0.595,4.398h-4.141c0.621-2.432,0.646-4.631,0.646-5.435v-9.107C44.707,33.629,44.372,32.568,44.061,31.533z
			 M28.588,31.533c-0.156,0.568-0.181,0.776-0.181,1.035c0,0.75,0.388,2.251,0.828,3.416l4.036,10.271l4.166-9.935
			c0.414-1.009,0.931-2.432,0.931-3.519c0-0.285-0.026-0.569-0.232-1.268l5.045,0.077c-1.112,1.294-1.889,2.769-2.562,4.373
			l-6.339,15.084h-2.199l-5.459-14.023c-0.233-0.595-0.905-2.147-1.5-3.338c-0.595-1.19-0.828-1.5-1.423-2.173H28.588z"/>
		<path fill="#FFFFFF" d="M44.061,50.938h4.141c-0.439-1.5-0.595-2.846-0.595-4.398v-4.347c2.406-0.025,3.597,0.311,4.941,0.88
			l1.475-2.795h-6.416v-6.882c2.562,0.077,3.415,0.154,5.511,0.982l1.578-2.846H44.061c0.312,1.035,0.646,2.096,0.646,4.864v9.107
			C44.707,46.308,44.682,48.507,44.061,50.938z"/>
		<path fill="#FFFFFF" d="M26.622,37.044l5.459,14.023h2.199l6.339-15.084c0.673-1.604,1.449-3.079,2.562-4.373l-5.045-0.077
			c0.207,0.698,0.232,0.983,0.232,1.268c0,1.087-0.517,2.51-0.931,3.519l-4.166,9.935l-4.036-10.271
			c-0.44-1.165-0.828-2.665-0.828-3.416c0-0.259,0.025-0.466,0.181-1.035h-4.89c0.595,0.672,0.828,0.983,1.423,2.173
			C25.717,34.897,26.389,36.449,26.622,37.044z"/>
	</g>
</g>
</svg>
